<svg width="32" height="33" viewBox="0 0 32 33" fill="none" xmlns="http://www.w3.org/2000/svg">
<path fill-rule="evenodd" clip-rule="evenodd" d="M14.5714 0.344238H7.97486C7.08205 0.37566 6.21394 0.645551 5.46069 1.12588C4.70745 1.6062 4.09654 2.27944 3.69143 3.07567L0 10.1911V10.2277H14.5714V0.344238ZM0 29.8825V13.0848H32V29.8848C31.9994 30.5373 31.7398 31.1629 31.2782 31.624C30.8166 32.0852 30.1908 32.3442 29.5383 32.3442H2.46171C1.80883 32.3442 1.18268 32.0849 0.721019 31.6232C0.259358 31.1616 0 30.5354 0 29.8825ZM32 10.1911V10.2277H17.4286V0.344238H24.0251C24.9391 0.353828 25.8329 0.61345 26.6098 1.09495C27.3866 1.57645 28.0168 2.26145 28.432 3.07567L32 10.1911ZM16 15.2014C16.4547 15.2014 16.8907 15.382 17.2122 15.7035C17.5337 16.025 17.7143 16.461 17.7143 16.9157V20.9157H21.7143C22.1689 20.9157 22.605 21.0963 22.9265 21.4178C23.248 21.7393 23.4286 22.1753 23.4286 22.63C23.4286 23.0846 23.248 23.5206 22.9265 23.8421C22.605 24.1636 22.1689 24.3442 21.7143 24.3442H17.7143V28.3442C17.7143 28.7989 17.5337 29.2349 17.2122 29.5564C16.8907 29.8779 16.4547 30.0585 16 30.0585C15.5453 30.0585 15.1093 29.8779 14.7878 29.5564C14.4663 29.2349 14.2857 28.7989 14.2857 28.3442V24.3442H10.2857C9.83106 24.3442 9.39502 24.1636 9.07353 23.8421C8.75204 23.5206 8.57143 23.0846 8.57143 22.63C8.57143 22.1753 8.75204 21.7393 9.07353 21.4178C9.39502 21.0963 9.83106 20.9157 10.2857 20.9157H14.2857V16.9157C14.2857 16.461 14.4663 16.025 14.7878 15.7035C15.1093 15.382 15.5453 15.2014 16 15.2014Z" fill="white"/>
</svg>
