<svg width="32" height="33" viewBox="0 0 32 33" fill="none" xmlns="http://www.w3.org/2000/svg">
<path fill-rule="evenodd" clip-rule="evenodd" d="M14.5714 0.223145H7.97486C7.08205 0.254567 6.21394 0.524457 5.46069 1.00478C4.70745 1.48511 4.09654 2.15835 3.69143 2.95457L0 10.07V10.1066H14.5714V0.223145ZM0 29.7614V12.9637H32V29.7637C31.9994 30.4162 31.7398 31.0418 31.2782 31.5029C30.8166 31.9641 30.1908 32.2231 29.5383 32.2231H2.46171C1.80883 32.2231 1.18268 31.9638 0.721019 31.5021C0.259358 31.0405 0 30.4143 0 29.7614ZM32 10.07V10.1066H17.4286V0.223145H24.0251C24.9391 0.232734 25.8329 0.492357 26.6098 0.973858C27.3866 1.45536 28.0168 2.14036 28.432 2.95457L32 10.07ZM16 15.0803C16.4547 15.0803 16.8907 15.2609 17.2122 15.5824C17.5337 15.9039 17.7143 16.3399 17.7143 16.7946V20.7946H21.7143C22.1689 20.7946 22.605 20.9752 22.9265 21.2967C23.248 21.6182 23.4286 22.0542 23.4286 22.5089C23.4286 22.9635 23.248 23.3996 22.9265 23.721C22.605 24.0425 22.1689 24.2231 21.7143 24.2231H17.7143V28.2231C17.7143 28.6778 17.5337 29.1138 17.2122 29.4353C16.8907 29.7568 16.4547 29.9374 16 29.9374C15.5453 29.9374 15.1093 29.7568 14.7878 29.4353C14.4663 29.1138 14.2857 28.6778 14.2857 28.2231V24.2231H10.2857C9.83106 24.2231 9.39502 24.0425 9.07353 23.721C8.75204 23.3996 8.57143 22.9635 8.57143 22.5089C8.57143 22.0542 8.75204 21.6182 9.07353 21.2967C9.39502 20.9752 9.83106 20.7946 10.2857 20.7946H14.2857V16.7946C14.2857 16.3399 14.4663 15.9039 14.7878 15.5824C15.1093 15.2609 15.5453 15.0803 16 15.0803Z" fill="#EA2147"/>
</svg>
