<svg width="32" height="23" viewBox="0 0 32 23" fill="none" xmlns="http://www.w3.org/2000/svg">
<path d="M3.75785 13.3443L2.75785 11.3443H9.75785L8.95785 9.34428H2.42452L1.42452 7.34428H11.8245L11.0245 5.34428H1.23785L0.0911865 3.34428H5.09119C5.09119 2.63704 5.37214 1.95876 5.87223 1.45866C6.37233 0.958564 7.05061 0.677612 7.75785 0.677612H23.7579V6.01095H27.7579L31.7579 11.3443V18.0109H29.0912C29.0912 19.0718 28.6698 20.0892 27.9196 20.8394C27.1695 21.5895 26.1521 22.0109 25.0912 22.0109C24.0303 22.0109 23.0129 21.5895 22.2628 20.8394C21.5126 20.0892 21.0912 19.0718 21.0912 18.0109H15.7579C15.7579 19.0718 15.3364 20.0892 14.5863 20.8394C13.8361 21.5895 12.8187 22.0109 11.7579 22.0109C10.697 22.0109 9.67957 21.5895 8.92943 20.8394C8.17928 20.0892 7.75785 19.0718 7.75785 18.0109H5.09119V13.3443H3.75785ZM25.0912 20.0109C25.6216 20.0109 26.1303 19.8002 26.5054 19.4252C26.8805 19.0501 27.0912 18.5414 27.0912 18.0109C27.0912 17.4805 26.8805 16.9718 26.5054 16.5967C26.1303 16.2217 25.6216 16.0109 25.0912 16.0109C24.5608 16.0109 24.052 16.2217 23.677 16.5967C23.3019 16.9718 23.0912 17.4805 23.0912 18.0109C23.0912 18.5414 23.3019 19.0501 23.677 19.4252C24.052 19.8002 24.5608 20.0109 25.0912 20.0109ZM27.0912 8.01095H23.7579V11.3443H29.7045L27.0912 8.01095ZM11.7579 20.0109C12.2883 20.0109 12.797 19.8002 13.1721 19.4252C13.5471 19.0501 13.7579 18.5414 13.7579 18.0109C13.7579 17.4805 13.5471 16.9718 13.1721 16.5967C12.797 16.2217 12.2883 16.0109 11.7579 16.0109C11.2274 16.0109 10.7187 16.2217 10.3436 16.5967C9.96857 16.9718 9.75785 17.4805 9.75785 18.0109C9.75785 18.5414 9.96857 19.0501 10.3436 19.4252C10.7187 19.8002 11.2274 20.0109 11.7579 20.0109Z" fill="white"/>
</svg>
