<svg width="32" height="22" viewBox="0 0 32 22" fill="none" xmlns="http://www.w3.org/2000/svg">
<path d="M3.75785 13.2232L2.75785 11.2232H9.75785L8.95785 9.22319H2.42452L1.42452 7.22319H11.8245L11.0245 5.22319H1.23785L0.0911865 3.22319H5.09119C5.09119 2.51594 5.37214 1.83766 5.87223 1.33757C6.37233 0.83747 7.05061 0.556519 7.75785 0.556519H23.7579V5.88985H27.7579L31.7579 11.2232V17.8899H29.0912C29.0912 18.9507 28.6698 19.9681 27.9196 20.7183C27.1695 21.4684 26.1521 21.8899 25.0912 21.8899C24.0303 21.8899 23.0129 21.4684 22.2628 20.7183C21.5126 19.9681 21.0912 18.9507 21.0912 17.8899H15.7579C15.7579 18.9507 15.3364 19.9681 14.5863 20.7183C13.8361 21.4684 12.8187 21.8899 11.7579 21.8899C10.697 21.8899 9.67957 21.4684 8.92943 20.7183C8.17928 19.9681 7.75785 18.9507 7.75785 17.8899H5.09119V13.2232H3.75785ZM25.0912 19.8899C25.6216 19.8899 26.1303 19.6791 26.5054 19.3041C26.8805 18.929 27.0912 18.4203 27.0912 17.8899C27.0912 17.3594 26.8805 16.8507 26.5054 16.4756C26.1303 16.1006 25.6216 15.8899 25.0912 15.8899C24.5608 15.8899 24.052 16.1006 23.677 16.4756C23.3019 16.8507 23.0912 17.3594 23.0912 17.8899C23.0912 18.4203 23.3019 18.929 23.677 19.3041C24.052 19.6791 24.5608 19.8899 25.0912 19.8899ZM27.0912 7.88985H23.7579V11.2232H29.7045L27.0912 7.88985ZM11.7579 19.8899C12.2883 19.8899 12.797 19.6791 13.1721 19.3041C13.5471 18.929 13.7579 18.4203 13.7579 17.8899C13.7579 17.3594 13.5471 16.8507 13.1721 16.4756C12.797 16.1006 12.2883 15.8899 11.7579 15.8899C11.2274 15.8899 10.7187 16.1006 10.3436 16.4756C9.96857 16.8507 9.75785 17.3594 9.75785 17.8899C9.75785 18.4203 9.96857 18.929 10.3436 19.3041C10.7187 19.6791 11.2274 19.8899 11.7579 19.8899Z" fill="#EA2147"/>
</svg>
