<svg width="27" height="33" viewBox="0 0 27 33" fill="none" xmlns="http://www.w3.org/2000/svg">
<path d="M3.52344 32.3442H23.0234C23.8854 32.3442 24.712 32.0071 25.3215 31.407C25.931 30.8069 26.2734 29.9929 26.2734 29.1442V3.54424C26.2734 2.69555 25.931 1.88161 25.3215 1.2815C24.712 0.68138 23.8854 0.344238 23.0234 0.344238H3.52344C2.66148 0.344238 1.83483 0.68138 1.22534 1.2815C0.615847 1.88161 0.273438 2.69555 0.273438 3.54424V29.1442C0.273438 29.9929 0.615847 30.8069 1.22534 31.407C1.83483 32.0071 2.66148 32.3442 3.52344 32.3442ZM8.39844 25.9442C8.39844 26.8279 7.68209 27.5442 6.79844 27.5442H6.74844C5.86478 27.5442 5.14844 26.8279 5.14844 25.9442C5.14844 25.0606 5.86478 24.3442 6.74844 24.3442H6.79844C7.68209 24.3442 8.39844 25.0606 8.39844 25.9442ZM8.39844 19.5442C8.39844 20.4279 7.68209 21.1442 6.79844 21.1442H6.74844C5.86478 21.1442 5.14844 20.4279 5.14844 19.5442C5.14844 18.6606 5.86478 17.9442 6.74844 17.9442H6.79844C7.68209 17.9442 8.39844 18.6606 8.39844 19.5442ZM8.39844 13.1442C8.39844 14.0279 7.68209 14.7442 6.79844 14.7442H6.74844C5.86478 14.7442 5.14844 14.0279 5.14844 13.1442C5.14844 12.2606 5.86478 11.5442 6.74844 11.5442H6.79844C7.68209 11.5442 8.39844 12.2606 8.39844 13.1442ZM14.8984 25.9442C14.8984 26.8279 14.1821 27.5442 13.2984 27.5442H13.2484C12.3648 27.5442 11.6484 26.8279 11.6484 25.9442C11.6484 25.0606 12.3648 24.3442 13.2484 24.3442H13.2984C14.1821 24.3442 14.8984 25.0606 14.8984 25.9442ZM14.8984 19.5442C14.8984 20.4279 14.1821 21.1442 13.2984 21.1442H13.2484C12.3648 21.1442 11.6484 20.4279 11.6484 19.5442C11.6484 18.6606 12.3648 17.9442 13.2484 17.9442H13.2984C14.1821 17.9442 14.8984 18.6606 14.8984 19.5442ZM14.8984 13.1442C14.8984 14.0279 14.1821 14.7442 13.2984 14.7442H13.2484C12.3648 14.7442 11.6484 14.0279 11.6484 13.1442C11.6484 12.2606 12.3648 11.5442 13.2484 11.5442H13.2984C14.1821 11.5442 14.8984 12.2606 14.8984 13.1442ZM21.3984 25.9192C21.3984 26.8167 20.6709 27.5442 19.7734 27.5442C18.876 27.5442 18.1484 26.8167 18.1484 25.9192V19.5692C18.1484 18.6718 18.876 17.9442 19.7734 17.9442C20.6709 17.9442 21.3984 18.6718 21.3984 19.5692V25.9192ZM21.3984 13.1442C21.3984 14.0279 20.6821 14.7442 19.7984 14.7442H19.7484C18.8648 14.7442 18.1484 14.0279 18.1484 13.1442C18.1484 12.2606 18.8648 11.5442 19.7484 11.5442H19.7984C20.6821 11.5442 21.3984 12.2606 21.3984 13.1442ZM3.52344 5.54424C3.52344 4.43967 4.41887 3.54424 5.52344 3.54424H21.0234C22.128 3.54424 23.0234 4.43967 23.0234 5.54424V6.34424C23.0234 7.44881 22.128 8.34424 21.0234 8.34424H5.52344C4.41887 8.34424 3.52344 7.44881 3.52344 6.34424V5.54424Z" fill="white"/>
</svg>
