<svg width="27" height="33" viewBox="0 0 27 33" fill="none" xmlns="http://www.w3.org/2000/svg">
<path d="M3.52344 32.2231H23.0234C23.8854 32.2231 24.712 31.886 25.3215 31.2859C25.931 30.6858 26.2734 29.8718 26.2734 29.0231V3.42314C26.2734 2.57445 25.931 1.76052 25.3215 1.1604C24.712 0.560286 23.8854 0.223145 23.0234 0.223145H3.52344C2.66148 0.223145 1.83483 0.560286 1.22534 1.1604C0.615847 1.76052 0.273438 2.57445 0.273438 3.42314V29.0231C0.273438 29.8718 0.615847 30.6858 1.22534 31.2859C1.83483 31.886 2.66148 32.2231 3.52344 32.2231ZM8.39844 25.8231C8.39844 26.7068 7.68209 27.4231 6.79844 27.4231H6.74844C5.86478 27.4231 5.14844 26.7068 5.14844 25.8231C5.14844 24.9395 5.86478 24.2231 6.74844 24.2231H6.79844C7.68209 24.2231 8.39844 24.9395 8.39844 25.8231ZM8.39844 19.4231C8.39844 20.3068 7.68209 21.0231 6.79844 21.0231H6.74844C5.86478 21.0231 5.14844 20.3068 5.14844 19.4231C5.14844 18.5395 5.86478 17.8231 6.74844 17.8231H6.79844C7.68209 17.8231 8.39844 18.5395 8.39844 19.4231ZM8.39844 13.0231C8.39844 13.9068 7.68209 14.6231 6.79844 14.6231H6.74844C5.86478 14.6231 5.14844 13.9068 5.14844 13.0231C5.14844 12.1395 5.86478 11.4231 6.74844 11.4231H6.79844C7.68209 11.4231 8.39844 12.1395 8.39844 13.0231ZM14.8984 25.8231C14.8984 26.7068 14.1821 27.4231 13.2984 27.4231H13.2484C12.3648 27.4231 11.6484 26.7068 11.6484 25.8231C11.6484 24.9395 12.3648 24.2231 13.2484 24.2231H13.2984C14.1821 24.2231 14.8984 24.9395 14.8984 25.8231ZM14.8984 19.4231C14.8984 20.3068 14.1821 21.0231 13.2984 21.0231H13.2484C12.3648 21.0231 11.6484 20.3068 11.6484 19.4231C11.6484 18.5395 12.3648 17.8231 13.2484 17.8231H13.2984C14.1821 17.8231 14.8984 18.5395 14.8984 19.4231ZM14.8984 13.0231C14.8984 13.9068 14.1821 14.6231 13.2984 14.6231H13.2484C12.3648 14.6231 11.6484 13.9068 11.6484 13.0231C11.6484 12.1395 12.3648 11.4231 13.2484 11.4231H13.2984C14.1821 11.4231 14.8984 12.1395 14.8984 13.0231ZM21.3984 25.7981C21.3984 26.6956 20.6709 27.4231 19.7734 27.4231C18.876 27.4231 18.1484 26.6956 18.1484 25.7981V19.4481C18.1484 18.5507 18.876 17.8231 19.7734 17.8231C20.6709 17.8231 21.3984 18.5507 21.3984 19.4481V25.7981ZM21.3984 13.0231C21.3984 13.9068 20.6821 14.6231 19.7984 14.6231H19.7484C18.8648 14.6231 18.1484 13.9068 18.1484 13.0231C18.1484 12.1395 18.8648 11.4231 19.7484 11.4231H19.7984C20.6821 11.4231 21.3984 12.1395 21.3984 13.0231ZM3.52344 5.42314C3.52344 4.31857 4.41887 3.42314 5.52344 3.42314H21.0234C22.128 3.42314 23.0234 4.31858 23.0234 5.42314V6.22315C23.0234 7.32772 22.128 8.22314 21.0234 8.22314H5.52344C4.41887 8.22314 3.52344 7.32771 3.52344 6.22314V5.42314Z" fill="#EA2147"/>
</svg>
