<svg width="33" height="27" viewBox="0 0 33 27" fill="none" xmlns="http://www.w3.org/2000/svg">
<path fill-rule="evenodd" clip-rule="evenodd" d="M3.71563 0.344238H22.9156C22.9156 0.775215 23.0842 1.18854 23.3843 1.49329C23.6843 1.79803 24.0913 1.96924 24.5156 1.96924C24.94 1.96924 25.3469 1.79803 25.647 1.49329C25.9471 1.18854 26.1156 0.775215 26.1156 0.344238H29.3156C30.1643 0.344238 30.9783 0.686648 31.5784 1.29614C32.1785 1.90563 32.5156 2.73228 32.5156 3.59424V23.0942C32.5156 23.9562 32.1785 24.7828 31.5784 25.3923C30.9783 26.0018 30.1643 26.3442 29.3156 26.3442H26.1156C26.1156 25.9133 25.9471 25.4999 25.647 25.1952C25.3469 24.8904 24.94 24.7192 24.5156 24.7192C24.0913 24.7192 23.6843 24.8904 23.3843 25.1952C23.0842 25.4999 22.9156 25.9133 22.9156 26.3442H3.71563C2.86693 26.3442 2.053 26.0018 1.45288 25.3923C0.852767 24.7828 0.515625 23.9562 0.515625 23.0942V3.59424C0.515625 2.73228 0.852767 1.90563 1.45288 1.29614C2.053 0.686648 2.86693 0.344238 3.71563 0.344238ZM26.1156 6.84586C26.1156 7.27684 25.9471 7.69017 25.647 7.99491C25.3469 8.29966 24.94 8.47086 24.5156 8.47086C24.0913 8.47086 23.6843 8.29966 23.3843 7.99491C23.0842 7.69017 22.9156 7.27684 22.9156 6.84586V6.84424C22.9156 6.41326 23.0842 5.99994 23.3843 5.69519C23.6843 5.39044 24.0913 5.21924 24.5156 5.21924C24.94 5.21924 25.3469 5.39044 25.647 5.69519C25.9471 5.99994 26.1156 6.41326 26.1156 6.84424V6.84586ZM24.5156 14.9709C24.94 14.9709 25.3469 14.7997 25.647 14.4949C25.9471 14.1902 26.1156 13.7768 26.1156 13.3459V13.3442C26.1156 12.9133 25.9471 12.4999 25.647 12.1952C25.3469 11.8904 24.94 11.7192 24.5156 11.7192C24.0913 11.7192 23.6843 11.8904 23.3843 12.1952C23.0842 12.4999 22.9156 12.9133 22.9156 13.3442V13.3459C22.9156 13.7768 23.0842 14.1902 23.3843 14.4949C23.6843 14.7997 24.0913 14.9709 24.5156 14.9709ZM26.1156 19.8459C26.1156 20.2768 25.9471 20.6902 25.647 20.9949C25.3469 21.2997 24.94 21.4709 24.5156 21.4709C24.0913 21.4709 23.6843 21.2997 23.3843 20.9949C23.0842 20.6902 22.9156 20.2768 22.9156 19.8459C22.9156 19.4149 23.0842 18.9999 23.3843 18.6952C23.6843 18.3904 24.0913 18.2192 24.5156 18.2192C24.94 18.2192 25.3469 18.3904 25.647 18.6952C25.9471 18.9999 26.1156 19.4149 26.1156 19.8459Z" fill="white"/>
</svg>
