<svg width="33" height="27" viewBox="0 0 33 27" fill="none" xmlns="http://www.w3.org/2000/svg">
<path fill-rule="evenodd" clip-rule="evenodd" d="M3.71563 0.223145H22.9156C22.9156 0.654121 23.0842 1.06745 23.3843 1.37219C23.6843 1.67694 24.0913 1.84814 24.5156 1.84814C24.94 1.84814 25.3469 1.67694 25.647 1.37219C25.9471 1.06745 26.1156 0.654121 26.1156 0.223145H29.3156C30.1643 0.223145 30.9783 0.565554 31.5784 1.17505C32.1785 1.78454 32.5156 2.61119 32.5156 3.47314V22.9731C32.5156 23.8351 32.1785 24.6617 31.5784 25.2712C30.9783 25.8807 30.1643 26.2231 29.3156 26.2231H26.1156C26.1156 25.7922 25.9471 25.3788 25.647 25.0741C25.3469 24.7693 24.94 24.5981 24.5156 24.5981C24.0913 24.5981 23.6843 24.7693 23.3843 25.0741C23.0842 25.3788 22.9156 25.7922 22.9156 26.2231H3.71563C2.86693 26.2231 2.053 25.8807 1.45288 25.2712C0.852767 24.6617 0.515625 23.8351 0.515625 22.9731V3.47314C0.515625 2.61119 0.852767 1.78454 1.45288 1.17505C2.053 0.565554 2.86693 0.223145 3.71563 0.223145ZM26.1156 6.72477C26.1156 7.15575 25.9471 7.56907 25.647 7.87382C25.3469 8.17857 24.94 8.34977 24.5156 8.34977C24.0913 8.34977 23.6843 8.17857 23.3843 7.87382C23.0842 7.56907 22.9156 7.15575 22.9156 6.72477V6.72314C22.9156 6.29217 23.0842 5.87884 23.3843 5.5741C23.6843 5.26935 24.0913 5.09814 24.5156 5.09814C24.94 5.09814 25.3469 5.26935 25.647 5.5741C25.9471 5.87884 26.1156 6.29217 26.1156 6.72314V6.72477ZM24.5156 14.8498C24.94 14.8498 25.3469 14.6786 25.647 14.3738C25.9471 14.0691 26.1156 13.6557 26.1156 13.2248V13.2231C26.1156 12.7922 25.9471 12.3788 25.647 12.0741C25.3469 11.7694 24.94 11.5981 24.5156 11.5981C24.0913 11.5981 23.6843 11.7694 23.3843 12.0741C23.0842 12.3788 22.9156 12.7922 22.9156 13.2231V13.2248C22.9156 13.6557 23.0842 14.0691 23.3843 14.3738C23.6843 14.6786 24.0913 14.8498 24.5156 14.8498ZM26.1156 19.7248C26.1156 20.1557 25.9471 20.5691 25.647 20.8738C25.3469 21.1786 24.94 21.3498 24.5156 21.3498C24.0913 21.3498 23.6843 21.1786 23.3843 20.8738C23.0842 20.5691 22.9156 20.1557 22.9156 19.7248C22.9156 19.2938 23.0842 18.8788 23.3843 18.5741C23.6843 18.2694 24.0913 18.0981 24.5156 18.0981C24.94 18.0981 25.3469 18.2694 25.647 18.5741C25.9471 18.8788 26.1156 19.2938 26.1156 19.7248Z" fill="#EA2147"/>
</svg>
