<svg width="33" height="29" viewBox="0 0 33 29" fill="none" xmlns="http://www.w3.org/2000/svg">
<path d="M26.4312 12.6676C23.3913 12.6676 20.8313 15.1565 20.8313 18.112C20.8313 22.1565 26.4312 28.2231 26.4312 28.2231C26.4312 28.2231 32.0312 22.1565 32.0312 18.112C32.0312 15.1565 29.4713 12.6676 26.4312 12.6676ZM26.4312 20.1343C25.3113 20.1343 24.5112 19.2009 24.5112 18.2676C24.5112 17.1787 25.4713 16.4009 26.4312 16.4009C27.3913 16.4009 28.3513 17.3343 28.3513 18.2676C28.5113 19.2009 27.5513 20.1343 26.4312 20.1343ZM20.1112 25.112H3.23125C2.38256 25.112 1.56862 24.7843 0.968508 24.2008C0.368392 23.6174 0.03125 22.826 0.03125 22.0009V3.33426C0.03125 2.50914 0.368392 1.71781 0.968508 1.13437C1.56862 0.550921 2.38256 0.223145 3.23125 0.223145H28.8313C30.6073 0.223145 32.0312 1.60759 32.0312 3.33426V11.5787C31.0952 10.8101 30.0057 10.2381 28.8313 9.8987V6.44537H3.23125V11.112H21.4553C19.1673 12.6676 17.6313 15.2498 17.6313 18.112C17.6313 20.4454 18.7833 22.9498 20.1112 25.112Z" fill="#EA2147"/>
</svg>
