<svg width="33" height="29" viewBox="0 0 33 29" fill="none" xmlns="http://www.w3.org/2000/svg">
<path d="M26.4312 12.7887C23.3913 12.7887 20.8313 15.2776 20.8313 18.2331C20.8313 22.2776 26.4312 28.3442 26.4312 28.3442C26.4312 28.3442 32.0312 22.2776 32.0312 18.2331C32.0312 15.2776 29.4713 12.7887 26.4312 12.7887ZM26.4312 20.2553C25.3113 20.2553 24.5112 19.322 24.5112 18.3887C24.5112 17.2998 25.4713 16.522 26.4312 16.522C27.3913 16.522 28.3513 17.4554 28.3513 18.3887C28.5113 19.322 27.5513 20.2553 26.4312 20.2553ZM20.1112 25.2331H3.23125C2.38256 25.2331 1.56862 24.9053 0.968508 24.3219C0.368392 23.7385 0.03125 22.9471 0.03125 22.122V3.45535C0.03125 2.63023 0.368392 1.83891 0.968508 1.25546C1.56862 0.672015 2.38256 0.344238 3.23125 0.344238H28.8313C30.6073 0.344238 32.0312 1.72868 32.0312 3.45535V11.6998C31.0952 10.9312 30.0057 10.3592 28.8313 10.0198V6.56646H3.23125V11.2331H21.4553C19.1673 12.7887 17.6313 15.3709 17.6313 18.2331C17.6313 20.5665 18.7833 23.0709 20.1112 25.2331Z" fill="white"/>
</svg>
