<svg width="97" height="69" viewBox="0 0 97 69" fill="none" xmlns="http://www.w3.org/2000/svg">
<g clip-path="url(#clip0_2939_7730)">
<rect x="0.839844" width="96.1586" height="68.8235" rx="11.4706" fill="white"/>
<path d="M49.9605 53.3051H48.0712L48.5435 45.748C48.5168 45.35 48.3258 45.2454 47.5989 45.2757L40.0418 46.2203C40.0418 46.2203 41.4588 44.331 41.4588 43.3864C41.4588 42.4418 32.957 36.3016 32.957 36.3016C32.957 36.3016 34.8463 35.8293 35.3186 35.357C35.7909 34.8847 33.4293 29.6892 33.4293 29.6892C33.4293 29.6892 38.2292 31.5784 38.6249 31.1061C39.0205 30.6338 39.5695 28.7445 39.5695 28.7445C39.5695 28.7445 43.348 32.9954 44.2927 32.9954C45.2373 32.9954 42.4034 22.6044 42.4034 22.6044C42.4034 22.6044 44.765 24.4937 45.7096 24.4937C46.6543 24.4937 49.0159 18.3535 49.0159 18.3535C49.0159 18.3535 51.3774 24.4937 51.8498 24.4937C52.3221 24.4937 55.6283 22.6044 55.6283 22.6044C55.6283 22.6044 53.2667 32.5231 53.739 32.9954C54.2114 33.4677 58.4622 28.7445 58.4622 28.7445C58.4622 28.7445 58.9345 30.6338 59.4069 31.1061C59.8792 31.5784 64.6024 29.6892 64.6024 29.6892C64.6024 29.6892 62.2408 34.8847 62.7131 35.357C63.1854 35.8293 65.0747 36.3016 65.0747 36.3016C65.0747 36.3016 56.573 42.4418 56.573 43.3864C56.573 44.331 57.5176 46.2203 57.5176 46.2203L50.4328 45.2757C49.8633 45.1124 49.6659 45.2363 49.4882 45.748L49.9605 53.3051Z" fill="#F93939"/>
<rect x="74.25" width="22.9412" height="68.8235" fill="#F93939"/>
<rect x="0.839844" width="22.9412" height="68.8235" fill="#F93939"/>
</g>
<defs>
<clipPath id="clip0_2939_7730">
<rect x="0.839844" width="96.1586" height="68.8235" rx="11.4706" fill="white"/>
</clipPath>
</defs>
</svg>
