<svg width="20" height="20" viewBox="0 0 20 20" fill="none" xmlns="http://www.w3.org/2000/svg">
<path fill-rule="evenodd" clip-rule="evenodd" d="M5.60436 5.44996C4.91313 6.13101 4.38474 6.95946 4.05868 7.87341C3.73261 8.78736 3.6173 9.76318 3.72136 10.728C3.73104 10.8576 3.68989 10.9858 3.60662 11.0856C3.52335 11.1854 3.40451 11.2488 3.27527 11.2625C3.14604 11.2761 3.01656 11.2389 2.91428 11.1587C2.81201 11.0786 2.74496 10.9617 2.72736 10.833C2.60734 9.71866 2.74061 8.59163 3.11723 7.53606C3.49385 6.48048 4.10408 5.52363 4.90236 4.73696C7.83936 1.83996 12.5774 1.88696 15.4844 4.83496C18.3914 7.78196 18.3724 12.52 15.4344 15.417C14.0744 16.7605 12.2487 17.5277 10.3374 17.559C9.61471 17.5718 8.89398 17.4806 8.19736 17.288C8.06952 17.2527 7.96094 17.1681 7.89549 17.0527C7.83004 16.9374 7.81308 16.8008 7.84836 16.673C7.88363 16.5451 7.96824 16.4365 8.08358 16.3711C8.19891 16.3056 8.33552 16.2887 8.46336 16.324C9.06752 16.4911 9.69261 16.5702 10.3194 16.559C11.9743 16.5325 13.5551 15.8684 14.7324 14.705C17.2734 12.199 17.2944 8.09496 14.7724 5.53696C12.2504 2.97896 8.14536 2.94396 5.60436 5.44996Z" fill="#71717A" stroke="#71717A" stroke-width="0.5"/>
<path fill-rule="evenodd" clip-rule="evenodd" d="M3.59445 11.3628C3.55072 11.4118 3.49777 11.4517 3.43862 11.4802C3.37947 11.5087 3.31529 11.5253 3.24973 11.529C3.18417 11.5328 3.11852 11.5235 3.05653 11.5019C2.99454 11.4802 2.93743 11.4466 2.88845 11.4028L1.16845 9.87282C1.11557 9.83038 1.07188 9.77762 1.04003 9.71776C1.00819 9.65791 0.988846 9.5922 0.983189 9.52463C0.977531 9.45706 0.985675 9.38905 1.00712 9.32473C1.02857 9.26041 1.06288 9.20113 1.10796 9.15048C1.15304 9.09983 1.20795 9.05889 1.26935 9.03012C1.33075 9.00136 1.39736 8.98539 1.46513 8.98318C1.53289 8.98096 1.6004 8.99256 1.66355 9.01725C1.72669 9.04195 1.78416 9.07922 1.83245 9.12682L3.55245 10.6568C3.60157 10.7004 3.64163 10.7533 3.67033 10.8123C3.69903 10.8714 3.7158 10.9356 3.7197 11.0011C3.7236 11.0667 3.71455 11.1324 3.69306 11.1944C3.67157 11.2565 3.63806 11.3137 3.59445 11.3628Z" fill="#71717A" stroke="#71717A" stroke-width="0.5"/>
<path fill-rule="evenodd" clip-rule="evenodd" d="M2.82071 11.3C2.8601 11.3525 2.90946 11.3968 2.96596 11.4302C3.02246 11.4637 3.08499 11.4857 3.14999 11.495C3.215 11.5043 3.28119 11.5007 3.3448 11.4844C3.4084 11.4681 3.46818 11.4394 3.52071 11.4L5.52071 9.9C5.62679 9.82043 5.69693 9.70199 5.71568 9.57071C5.73443 9.43944 5.70027 9.30609 5.62071 9.2C5.54114 9.09391 5.42269 9.02378 5.29142 9.00502C5.16014 8.98627 5.02679 9.02044 4.92071 9.1L2.92071 10.6C2.81462 10.6796 2.74448 10.798 2.72573 10.9293C2.70698 11.0606 2.74114 11.1939 2.82071 11.3ZM10.0007 6.5C10.1333 6.5 10.2605 6.55268 10.3543 6.64645C10.448 6.74021 10.5007 6.86739 10.5007 7V10.5C10.5007 10.6326 10.448 10.7598 10.3543 10.8536C10.2605 10.9473 10.1333 11 10.0007 11C9.8681 11 9.74092 10.9473 9.64715 10.8536C9.55338 10.7598 9.50071 10.6326 9.50071 10.5V7C9.50071 6.86739 9.55338 6.74021 9.64715 6.64645C9.74092 6.55268 9.8681 6.5 10.0007 6.5Z" fill="#71717A" stroke="#71717A" stroke-width="0.5"/>
<path fill-rule="evenodd" clip-rule="evenodd" d="M13.5 10.5C13.5 10.6326 13.4473 10.7598 13.3536 10.8536C13.2598 10.9473 13.1326 11 13 11H10C9.86739 11 9.74021 10.9473 9.64645 10.8536C9.55268 10.7598 9.5 10.6326 9.5 10.5C9.5 10.3674 9.55268 10.2402 9.64645 10.1464C9.74021 10.0527 9.86739 10 10 10H13C13.1326 10 13.2598 10.0527 13.3536 10.1464C13.4473 10.2402 13.5 10.3674 13.5 10.5Z" fill="#71717A" stroke="#71717A" stroke-width="0.5"/>
</svg>
