<svg width="97" height="69" viewBox="0 0 97 69" fill="none" xmlns="http://www.w3.org/2000/svg">
<g clip-path="url(#clip0_2939_7736)">
<rect width="96.1586" height="68.8235" rx="11.4706" fill="white"/>
<path fill-rule="evenodd" clip-rule="evenodd" d="M0 45.8828H96.1586V68.824H0V45.8828Z" fill="#249F58"/>
<path fill-rule="evenodd" clip-rule="evenodd" d="M48.0803 45.8826C54.3993 45.8826 59.5277 40.7438 59.5277 34.412C59.5277 28.0802 54.3993 22.9414 48.0803 22.9414C41.7613 22.9414 36.6328 28.0802 36.6328 34.412C36.6328 40.7438 41.7613 45.8826 48.0803 45.8826ZM48.0803 41.2943C51.8717 41.2943 54.9487 38.2111 54.9487 34.412C54.9487 30.6129 51.8717 27.5296 48.0803 27.5296C44.2889 27.5296 41.2118 30.6129 41.2118 34.412C41.2118 38.2111 44.2889 41.2943 48.0803 41.2943Z" fill="#1A47B8"/>
<path d="M48.0825 36.7054C49.3469 36.7054 50.372 35.6783 50.372 34.4113C50.372 33.1443 49.3469 32.1172 48.0825 32.1172C46.818 32.1172 45.793 33.1443 45.793 34.4113C45.793 35.6783 46.818 36.7054 48.0825 36.7054Z" fill="#1A47B8"/>
<path fill-rule="evenodd" clip-rule="evenodd" d="M0 0H96.1586V22.9412H0V0Z" fill="#FF6C2D"/>
</g>
<defs>
<clipPath id="clip0_2939_7736">
<rect width="96.1586" height="68.8235" rx="11.4706" fill="white"/>
</clipPath>
</defs>
</svg>
