<svg width="51" height="36" viewBox="0 0 51 36" fill="none" xmlns="http://www.w3.org/2000/svg">
<g clip-path="url(#clip0_2820_4452)">
<rect x="0.445312" width="50.3072" height="36" rx="6" fill="white"/>
<path d="M26.1402 27.882H25.152L25.399 23.929C25.3851 23.7209 25.2851 23.6661 24.9049 23.682L20.952 24.1761C20.952 24.1761 21.6932 23.1878 21.6932 22.6937C21.6932 22.1996 17.2461 18.9878 17.2461 18.9878C17.2461 18.9878 18.2343 18.7408 18.4814 18.4937C18.7284 18.2467 17.4932 15.529 17.4932 15.529C17.4932 15.529 20.0038 16.5173 20.2108 16.2702C20.4178 16.0231 20.7049 15.0349 20.7049 15.0349C20.7049 15.0349 22.6814 17.2584 23.1755 17.2584C23.6696 17.2584 22.1873 11.8231 22.1873 11.8231C22.1873 11.8231 23.4226 12.8114 23.9167 12.8114C24.4108 12.8114 25.6461 9.59961 25.6461 9.59961C25.6461 9.59961 26.8814 12.8114 27.1284 12.8114C27.3755 12.8114 29.1049 11.8231 29.1049 11.8231C29.1049 11.8231 27.8696 17.0114 28.1167 17.2584C28.3637 17.5055 30.5873 15.0349 30.5873 15.0349C30.5873 15.0349 30.8343 16.0231 31.0814 16.2702C31.3284 16.5173 33.799 15.529 33.799 15.529C33.799 15.529 32.5637 18.2467 32.8108 18.4937C33.0579 18.7408 34.0461 18.9878 34.0461 18.9878C34.0461 18.9878 29.599 22.1996 29.599 22.6937C29.599 23.1878 30.0932 24.1761 30.0932 24.1761L26.3873 23.682C26.0894 23.5966 25.9861 23.6614 25.8932 23.929L26.1402 27.882Z" fill="#F93939"/>
<rect x="38.8438" width="12" height="36" fill="#F93939"/>
<rect x="0.445312" width="12" height="36" fill="#F93939"/>
</g>
<defs>
<clipPath id="clip0_2820_4452">
<rect x="0.445312" width="50.3072" height="36" rx="6" fill="white"/>
</clipPath>
</defs>
</svg>
