<svg width="51" height="36" viewBox="0 0 51 36" fill="none" xmlns="http://www.w3.org/2000/svg">
<g clip-path="url(#clip0_2820_4458)">
<rect x="0.5" width="50.3072" height="36" rx="6" fill="white"/>
<path fill-rule="evenodd" clip-rule="evenodd" d="M0.5 24H50.8072V36H0.5V24Z" fill="#249F58"/>
<path fill-rule="evenodd" clip-rule="evenodd" d="M25.653 24C28.9589 24 31.642 21.312 31.642 18C31.642 14.688 28.9589 12 25.653 12C22.3471 12 19.6641 14.688 19.6641 18C19.6641 21.312 22.3471 24 25.653 24ZM25.653 21.6C27.6366 21.6 29.2464 19.9872 29.2464 18C29.2464 16.0128 27.6366 14.4 25.653 14.4C23.6695 14.4 22.0596 16.0128 22.0596 18C22.0596 19.9872 23.6695 21.6 25.653 21.6Z" fill="#1A47B8"/>
<path d="M25.6548 19.2008C26.3163 19.2008 26.8526 18.6635 26.8526 18.0008C26.8526 17.338 26.3163 16.8008 25.6548 16.8008C24.9933 16.8008 24.457 17.338 24.457 18.0008C24.457 18.6635 24.9933 19.2008 25.6548 19.2008Z" fill="#1A47B8"/>
<path fill-rule="evenodd" clip-rule="evenodd" d="M0.5 0H50.8072V12H0.5V0Z" fill="#FF6C2D"/>
</g>
<defs>
<clipPath id="clip0_2820_4458">
<rect x="0.5" width="50.3072" height="36" rx="6" fill="white"/>
</clipPath>
</defs>
</svg>
