<svg width="15" height="15" viewBox="0 0 15 15" fill="none" xmlns="http://www.w3.org/2000/svg">
<path d="M3.27721 3.05321H12.0272C12.1294 3.05316 12.2315 3.05965 12.3329 3.07262C12.2985 2.83139 12.2157 2.59961 12.0893 2.39127C11.963 2.18293 11.7957 2.00233 11.5977 1.86037C11.3996 1.71841 11.1749 1.61802 10.937 1.56527C10.6991 1.51251 10.453 1.50848 10.2135 1.55341L3.01744 2.78196H3.00924C2.55754 2.86834 2.15586 3.1239 1.88623 3.49645C2.29245 3.20752 2.77871 3.05257 3.27721 3.05321Z" fill="#EA1B40"/>
<path d="M12.0273 3.71094H3.27734C2.81337 3.71144 2.36854 3.89598 2.04047 4.22406C1.71239 4.55214 1.52785 4.99696 1.52734 5.46094V10.7109C1.52785 11.1749 1.71239 11.6197 2.04047 11.9478C2.36854 12.2759 2.81337 12.4604 3.27734 12.4609H12.0273C12.4913 12.4604 12.9361 12.2759 13.2642 11.9478C13.5923 11.6197 13.7768 11.1749 13.7773 10.7109V5.46094C13.7768 4.99696 13.5923 4.55214 13.2642 4.22406C12.9361 3.89598 12.4913 3.71144 12.0273 3.71094ZM10.7285 8.96094C10.5555 8.96094 10.3863 8.90962 10.2424 8.81347C10.0985 8.71733 9.98634 8.58067 9.92012 8.42078C9.85389 8.2609 9.83656 8.08497 9.87033 7.91523C9.90409 7.7455 9.98742 7.58959 10.1098 7.46722C10.2322 7.34485 10.3881 7.26151 10.5578 7.22775C10.7275 7.19399 10.9035 7.21131 11.0634 7.27754C11.2232 7.34377 11.3599 7.45592 11.456 7.59981C11.5522 7.7437 11.6035 7.91288 11.6035 8.08594C11.6035 8.318 11.5113 8.54056 11.3472 8.70465C11.1831 8.86875 10.9606 8.96094 10.7285 8.96094Z" fill="#EA1B40"/>
<path d="M1.54102 7.30469V4.58398C1.54102 3.99145 1.86914 2.99805 3.00801 2.78285C3.97461 2.60156 4.93164 2.60156 4.93164 2.60156C4.93164 2.60156 5.56055 3.03906 5.04101 3.03906C4.52148 3.03906 4.53516 3.70898 5.04101 3.70898C5.54687 3.70898 5.04101 4.35156 5.04101 4.35156L3.00391 6.66211L1.54102 7.30469Z" fill="#EA1B40"/>
</svg>
