<svg width="21" height="21" viewBox="0 0 21 21" fill="none" xmlns="http://www.w3.org/2000/svg">
<path d="M3 5.49996H4.66667M4.66667 5.49996H18M4.66667 5.49996V17.1666C4.66667 17.6087 4.84226 18.0326 5.15482 18.3451C5.46738 18.6577 5.89131 18.8333 6.33333 18.8333H14.6667C15.1087 18.8333 15.5326 18.6577 15.8452 18.3451C16.1577 18.0326 16.3333 17.6087 16.3333 17.1666V5.49996H4.66667ZM7.16667 5.49996V3.83329C7.16667 3.39127 7.34226 2.96734 7.65482 2.65478C7.96738 2.34222 8.39131 2.16663 8.83333 2.16663H12.1667C12.6087 2.16663 13.0326 2.34222 13.3452 2.65478C13.6577 2.96734 13.8333 3.39127 13.8333 3.83329V5.49996M8.83333 9.66663V14.6666M12.1667 9.66663V14.6666" stroke="#71717A" stroke-width="1.66667" stroke-linecap="round" stroke-linejoin="round"/>
</svg>
