<svg width="21" height="21" viewBox="0 0 21 21" fill="none" xmlns="http://www.w3.org/2000/svg">
<path d="M14.6667 3.00005C14.8856 2.78118 15.1455 2.60756 15.4314 2.48911C15.7174 2.37066 16.0239 2.30969 16.3334 2.30969C16.6429 2.30969 16.9494 2.37066 17.2354 2.48911C17.5214 2.60756 17.7812 2.78118 18.0001 3.00005C18.219 3.21892 18.3926 3.47875 18.511 3.76472C18.6295 4.05069 18.6904 4.35719 18.6904 4.66671C18.6904 4.97624 18.6295 5.28274 18.511 5.56871C18.3926 5.85468 18.219 6.11451 18.0001 6.33338L6.75008 17.5834L2.16675 18.8334L3.41675 14.25L14.6667 3.00005Z" stroke="#71717A" stroke-width="1.66667" stroke-linecap="round" stroke-linejoin="round"/>
</svg>
