<svg width="17" height="15" viewBox="0 0 17 15" fill="none" xmlns="http://www.w3.org/2000/svg">
<path d="M5.5 8.66671C6.65083 8.66671 7.6925 8.20004 8.44667 7.44587C9.2 6.69254 9.66667 5.65087 9.66667 4.50004C9.66667 3.34921 9.2 2.30754 8.44667 1.55421C7.6925 0.800041 6.65083 0.333374 5.5 0.333374C4.34917 0.333374 3.3075 0.800041 2.55333 1.55421C1.8 2.30754 1.33333 3.34921 1.33333 4.50004C1.33333 5.65087 1.8 6.69254 2.55333 7.44587C2.93984 7.83347 3.39914 8.14085 3.90483 8.35036C4.41052 8.55987 4.95263 8.66738 5.5 8.66671ZM5.5 14.5C8.43167 14.5 10.5 13.6667 10.5 12.8334C10.5 11.1667 8.53833 9.50004 5.5 9.50004C2.375 9.50004 0.5 11.1667 0.5 12.8334C0.5 13.6667 2.375 14.5 5.5 14.5ZM15.5 7.00004H13.8333V5.33337C13.8333 5.11236 13.7455 4.9004 13.5893 4.74412C13.433 4.58784 13.221 4.50004 13 4.50004C12.779 4.50004 12.567 4.58784 12.4107 4.74412C12.2545 4.9004 12.1667 5.11236 12.1667 5.33337V7.00004H10.5C10.279 7.00004 10.067 7.08784 9.91074 7.24412C9.75446 7.4004 9.66667 7.61236 9.66667 7.83337C9.66667 8.05439 9.75446 8.26635 9.91074 8.42263C10.067 8.57891 10.279 8.66671 10.5 8.66671H12.1667V10.3334C12.1667 10.5544 12.2545 10.7664 12.4107 10.9226C12.567 11.0789 12.779 11.1667 13 11.1667C13.221 11.1667 13.433 11.0789 13.5893 10.9226C13.7455 10.7664 13.8333 10.5544 13.8333 10.3334V8.66671H15.5C15.721 8.66671 15.933 8.57891 16.0893 8.42263C16.2455 8.26635 16.3333 8.05439 16.3333 7.83337C16.3333 7.61236 16.2455 7.4004 16.0893 7.24412C15.933 7.08784 15.721 7.00004 15.5 7.00004Z" fill="#71717A"/>
</svg>
