<svg width="56" height="56" viewBox="0 0 56 56" fill="none" xmlns="http://www.w3.org/2000/svg">
<path d="M30.3652 10.6242C30.3652 9.94792 30.0933 9.29931 29.6094 8.8211C29.1254 8.34288 28.469 8.07422 27.7846 8.07422C27.1002 8.07422 26.4438 8.34288 25.9598 8.8211C25.4759 9.29931 25.204 9.94792 25.204 10.6242V25.0742H10.5806C9.89618 25.0742 9.2398 25.3429 8.75584 25.8211C8.27188 26.2993 8 26.9479 8 27.6242C8 28.3005 8.27188 28.9491 8.75584 29.4273C9.2398 29.9056 9.89618 30.1742 10.5806 30.1742H25.204V44.6242C25.204 45.3005 25.4759 45.9491 25.9598 46.4273C26.4438 46.9056 27.1002 47.1742 27.7846 47.1742C28.469 47.1742 29.1254 46.9056 29.6094 46.4273C30.0933 45.9491 30.3652 45.3005 30.3652 44.6242V30.1742H44.9886C45.673 30.1742 46.3294 29.9056 46.8134 29.4273C47.2973 28.9491 47.5692 28.3005 47.5692 27.6242C47.5692 26.9479 47.2973 26.2993 46.8134 25.8211C46.3294 25.3429 45.673 25.0742 44.9886 25.0742H30.3652V10.6242Z" fill="#979797"/>
</svg>
