<svg width="15" height="14" viewBox="0 0 15 14" fill="none" xmlns="http://www.w3.org/2000/svg">
<path fill-rule="evenodd" clip-rule="evenodd" d="M3.67725 12.7108C3.71551 13.113 4.07827 13.428 4.51908 13.428H12.0114C12.4783 13.428 12.8571 13.0744 12.8571 12.6387V2.78865C12.8571 2.37722 12.5188 2.03864 12.088 2.00293C12.0903 2.0265 12.0918 2.05007 12.0918 2.07436V11.9244C12.0918 12.3601 11.713 12.7137 11.2461 12.7137H3.75378C3.72822 12.7135 3.70269 12.7131 3.67725 12.7108Z" fill="#EA1B40"/>
<path fill-rule="evenodd" clip-rule="evenodd" d="M2.14282 1.36058C2.14282 0.924861 2.52165 0.571289 2.98849 0.571289H10.4809C10.9477 0.571289 11.3265 0.924861 11.3265 1.36058V11.2106C11.3265 11.6463 10.9477 11.9999 10.4809 11.9999H2.98849C2.52165 11.9999 2.14282 11.6463 2.14282 11.2106V1.36058ZM4.69895 8.86202C4.62241 8.80824 4.56031 8.73859 4.51755 8.65858C4.47478 8.57856 4.45252 8.49037 4.45252 8.40095C4.45252 8.31153 4.47478 8.22333 4.51755 8.14332C4.56031 8.0633 4.62241 7.99366 4.69895 7.93988C5.28299 7.52192 5.9987 7.2959 6.73467 7.29702C7.49998 7.29702 8.20636 7.5363 8.77039 7.93988C9.09947 8.17488 9.09947 8.62702 8.77039 8.86202C8.20636 9.26559 7.49998 9.50488 6.73467 9.50488C5.96936 9.50488 5.26298 9.26559 4.69895 8.86202ZM6.73467 6.44184C7.60406 6.44184 8.30814 5.92059 8.30814 4.90487C8.30814 3.88915 7.60253 3.28558 6.73314 3.28558C5.86298 3.28558 5.15813 3.88915 5.15813 4.90487C5.15813 5.92059 5.86451 6.44184 6.73467 6.44184Z" fill="#EA1B40"/>
</svg>
