<svg width="17" height="18" viewBox="0 0 17 18" fill="none" xmlns="http://www.w3.org/2000/svg">
<path d="M8.50033 7.38314C9.31562 7.38314 9.91699 6.78247 9.91699 5.96647C9.91699 5.15047 9.31562 4.5498 8.50033 4.5498C7.68574 4.5498 7.08366 5.15047 7.08366 5.96647C7.08366 6.78247 7.68574 7.38314 8.50033 7.38314ZM8.50033 8.09147C6.93562 8.09147 5.66699 9.2333 5.66699 10.6415V10.9149H11.3337V10.6415C11.3337 9.2333 10.065 8.09147 8.50033 8.09147Z" fill="#18181B"/>
<path d="M13.4583 1.71582H3.54167C2.76037 1.71582 2.125 2.3512 2.125 3.13249V12.3408C2.125 13.1221 2.76037 13.7575 3.54167 13.7575H6.375L8.5 15.8825L10.625 13.7575H13.4583C14.2396 13.7575 14.875 13.1221 14.875 12.3408V3.13249C14.875 2.3512 14.2396 1.71582 13.4583 1.71582ZM9.91667 12.3408L8.5 13.7575L7.08333 12.3408H3.54167V3.13249H13.4583L13.4598 12.3408H9.91667Z" fill="#18181B"/>
</svg>
