<svg width="17" height="18" viewBox="0 0 17 18" fill="none" xmlns="http://www.w3.org/2000/svg">
<path d="M11.7787 10.1392L12.1017 9.81834L11.3515 9.06467L11.03 9.38555L11.7787 10.1392ZM13.1847 9.68375L14.5383 10.4197L15.0448 9.48613L13.6919 8.75088L13.1847 9.68375ZM14.7983 11.8817L13.7925 12.8826L14.5412 13.6355L15.547 12.6354L14.7983 11.8817ZM13.179 13.2042C12.152 13.3005 9.49571 13.2148 6.61846 10.3545L5.86905 11.1075C9.00838 14.2291 11.9968 14.3821 13.2782 14.2624L13.179 13.2042ZM6.61846 10.3545C3.87651 7.62746 3.42176 5.33459 3.36509 4.33938L2.30401 4.39959C2.37484 5.65192 2.93796 8.19342 5.86905 11.1075L6.61846 10.3545ZM7.59242 5.97705L7.79571 5.77446L7.04771 5.02151L6.84442 5.22338L7.59242 5.97705ZM7.95721 3.19967L7.06471 2.00684L6.21401 2.64434L7.10651 3.83646L7.95721 3.19967ZM4.06067 1.74688L2.94859 2.85188L3.69801 3.60555L4.80938 2.50055L4.06067 1.74688ZM7.21842 5.60021C6.84301 5.22338 6.84301 5.22338 6.84301 5.2248H6.84159L6.83946 5.22763C6.80602 5.26176 6.7759 5.299 6.74951 5.33884C6.71126 5.39551 6.66946 5.46988 6.63405 5.56409C6.54779 5.80727 6.52631 6.06871 6.57171 6.32271C6.66663 6.93542 7.0888 7.74505 8.16971 8.8203L8.91913 8.06663C7.90692 7.0608 7.66609 6.4488 7.62146 6.1598C7.60021 6.02238 7.62217 5.95438 7.62855 5.9388C7.63209 5.92888 7.63351 5.92817 7.62855 5.93455C7.6223 5.94437 7.61519 5.95361 7.6073 5.96217L7.60021 5.96926C7.59792 5.97146 7.59556 5.97358 7.59313 5.97563L7.21842 5.60021ZM8.16971 8.8203C9.25134 9.89555 10.0652 10.3149 10.6786 10.4084C10.9924 10.4565 11.2453 10.4183 11.4373 10.3468C11.5446 10.307 11.645 10.2506 11.7348 10.1796C11.7469 10.1694 11.7588 10.1588 11.7702 10.1477L11.7751 10.1435L11.7773 10.1413L11.778 10.1399C11.778 10.1399 11.7787 10.1392 11.404 9.76238C11.0285 9.38555 11.0307 9.38484 11.0307 9.38484L11.0321 9.38342L11.0335 9.382L11.0378 9.37846L11.0448 9.37138C11.0534 9.36374 11.0623 9.35664 11.0718 9.35013C11.0788 9.34517 11.0767 9.3473 11.0668 9.35155C11.0491 9.35792 10.9797 9.37988 10.8401 9.35863C10.5469 9.3133 9.93063 9.07246 8.91913 8.06663L8.16971 8.8203ZM7.06471 2.00613C6.34221 1.0428 4.92271 0.889798 4.06067 1.74688L4.80938 2.50055C5.18621 2.12584 5.85488 2.1648 6.21401 2.64434L7.06471 2.00613ZM3.3658 4.34009C3.35163 4.09501 3.46426 3.83859 3.69801 3.60626L2.94788 2.85259C2.56751 3.23084 2.26788 3.76634 2.30401 4.39959L3.3658 4.34009ZM13.7925 12.8826C13.5984 13.0767 13.3887 13.1858 13.1798 13.2049L13.2782 14.2624C13.7988 14.2135 14.2245 13.9515 14.5419 13.6363L13.7925 12.8826ZM7.79571 5.77446C8.49342 5.08101 8.54513 3.98521 7.95792 3.20038L7.10721 3.83717C7.39267 4.21896 7.35017 4.71976 7.04701 5.02221L7.79571 5.77446ZM14.539 10.4204C15.1178 10.7349 15.2077 11.4758 14.799 11.8824L15.5484 12.6354C16.4976 11.6912 16.205 10.1165 15.0455 9.48684L14.539 10.4204ZM12.1017 9.81905C12.3737 9.54846 12.8114 9.48188 13.1854 9.68446L13.6926 8.75159C12.9248 8.33367 11.9728 8.44913 11.3523 9.06538L12.1017 9.81905Z" fill="#979797"/>
</svg>
