<svg width="13" height="16" viewBox="0 0 13 16" fill="none" xmlns="http://www.w3.org/2000/svg">
<path fill-rule="evenodd" clip-rule="evenodd" d="M11.9768 1.15901C11.5544 0.737053 10.9816 0.5 10.3843 0.5H2.87714C2.27984 0.5 1.707 0.737053 1.28464 1.15901C0.862279 1.58097 0.625 2.15326 0.625 2.75V14.75C0.625088 14.8913 0.665106 15.0296 0.740447 15.1492C0.815787 15.2687 0.923386 15.3645 1.05086 15.4257C1.17833 15.4868 1.32049 15.5107 1.46097 15.4947C1.60145 15.4786 1.73453 15.4233 1.84491 15.335L3.2525 14.21L4.66009 15.3358C4.80438 15.4511 4.98618 15.5092 5.17068 15.4989C5.35518 15.4887 5.52942 15.4108 5.66004 15.2803L6.63071 14.3105L7.60139 15.2803C7.7321 15.4107 7.90639 15.4884 8.09089 15.4985C8.27539 15.5086 8.45713 15.4504 8.60134 15.335L10.0089 14.21L11.4165 15.335C11.5269 15.4233 11.66 15.4786 11.8005 15.4947C11.9409 15.5107 12.0831 15.4868 12.2106 15.4257C12.338 15.3645 12.4456 15.2687 12.521 15.1492C12.5963 15.0296 12.6363 14.8913 12.6364 14.75V2.75C12.6364 2.15326 12.3991 1.58097 11.9768 1.15901ZM4.37857 6H6.63071C6.82981 6 7.02076 6.07902 7.16155 6.21967C7.30233 6.36032 7.38143 6.55109 7.38143 6.75C7.38143 6.94891 7.30233 7.13968 7.16155 7.28033C7.02076 7.42098 6.82981 7.5 6.63071 7.5H4.37857C4.17947 7.5 3.98852 7.42098 3.84774 7.28033C3.70695 7.13968 3.62786 6.94891 3.62786 6.75C3.62786 6.55109 3.70695 6.36032 3.84774 6.21967C3.98852 6.07902 4.17947 6 4.37857 6ZM4.37857 3H8.88286L8.97069 3.00525C9.16069 3.02783 9.33489 3.12204 9.4577 3.26863C9.58051 3.41522 9.64266 3.60312 9.63145 3.79395C9.62023 3.98479 9.53651 4.16414 9.39737 4.29536C9.25824 4.42659 9.0742 4.49979 8.88286 4.5H4.37857L4.29074 4.49475C4.10073 4.47217 3.92653 4.37796 3.80372 4.23137C3.68091 4.08478 3.61877 3.89688 3.62998 3.70605C3.64119 3.51521 3.72492 3.33586 3.86405 3.20464C4.00319 3.07341 4.18723 3.00021 4.37857 3ZM2.8842 12.5C2.81715 12.5 2.76093 12.4839 2.71551 12.4516C2.6701 12.417 2.64199 12.3709 2.63117 12.3133C2.62036 12.2533 2.63009 12.1865 2.66037 12.1127L3.46809 10.2593C3.50702 10.1694 3.5546 10.1037 3.61082 10.0622C3.66921 10.0207 3.73517 10 3.8087 10C3.88223 10 3.94602 10.0207 4.00009 10.0622C4.05632 10.1037 4.10497 10.1694 4.14606 10.2593L4.95379 12.1127C4.98839 12.1865 5.00028 12.2533 4.98947 12.3133C4.98082 12.3732 4.95379 12.4193 4.90837 12.4516C4.86512 12.4839 4.81106 12.5 4.74618 12.5C4.65968 12.5 4.59264 12.4793 4.54506 12.4378C4.49964 12.3963 4.45856 12.3294 4.42179 12.2372L4.31697 11.9744H3.29719L3.19236 12.2372C3.15344 12.3294 3.11343 12.3963 3.07234 12.4378C3.03125 12.4793 2.96854 12.5 2.8842 12.5ZM3.80221 10.695L3.49113 11.4869H4.12246L3.8087 10.695H3.80221ZM5.92464 12.5C5.84463 12.5 5.77975 12.4804 5.73001 12.4412C5.68027 12.3997 5.64135 12.3363 5.61323 12.251L4.98068 10.3734C4.94607 10.2697 4.95148 10.1821 4.9969 10.1107C5.04447 10.0369 5.12773 10 5.24667 10C5.32669 10 5.3894 10.0207 5.43482 10.0622C5.48023 10.1014 5.51592 10.1637 5.54187 10.249L5.95169 11.5595L6.39176 10.249C6.42204 10.1637 6.45988 10.1014 6.5053 10.0622C6.55071 10.0207 6.6091 10 6.68047 10C6.75183 10 6.80914 10.0207 6.85239 10.0622C6.89564 10.1014 6.93133 10.1648 6.95944 10.2524L7.38171 11.5908L7.81258 10.249C7.83853 10.1637 7.87313 10.1014 7.91638 10.0622C7.9618 10.0207 8.02451 10 8.10453 10C8.20401 10 8.27645 10.0369 8.32187 10.1107C8.36944 10.1821 8.37485 10.2697 8.33809 10.3734L7.69904 12.2545C7.67093 12.3375 7.632 12.3997 7.58226 12.4412C7.53469 12.4804 7.47089 12.5 7.39087 12.5C7.3087 12.5 7.24274 12.4804 7.193 12.4412C7.14542 12.3997 7.10758 12.3363 7.07946 12.251L6.66225 11.002L6.23606 12.2545C6.20578 12.3375 6.16685 12.3997 6.11928 12.4412C6.0717 12.4804 6.00682 12.5 5.92464 12.5ZM8.77254 12.3859C8.8266 12.4412 8.90446 12.4689 9.0061 12.4689H9.83004C10.0787 12.4689 10.2745 12.4078 10.4172 12.2856C10.5621 12.1611 10.6345 11.9917 10.6345 11.7773C10.6345 11.616 10.5913 11.4834 10.5048 11.3797C10.4376 11.2971 10.3478 11.2379 10.2354 11.202C10.3252 11.1622 10.3987 11.1039 10.4561 11.027C10.534 10.9255 10.5729 10.8034 10.5729 10.6604C10.5729 10.5337 10.5426 10.423 10.4821 10.3285C10.4215 10.234 10.3328 10.1614 10.2161 10.1107C10.1014 10.0576 9.96196 10.0311 9.7976 10.0311H9.0061C8.90446 10.0311 8.8266 10.0599 8.77254 10.1176C8.72064 10.1729 8.69468 10.2536 8.69468 10.3596V12.1404C8.69468 12.2464 8.72064 12.3283 8.77254 12.3859ZM9.74894 12.0021H9.26561V11.4661H9.74894C9.85924 11.4661 9.93925 11.488 9.98899 11.5318C10.0409 11.5756 10.0668 11.6425 10.0668 11.7324C10.0668 11.8223 10.0409 11.8903 9.98899 11.9364C9.93925 11.9802 9.85924 12.0021 9.74894 12.0021ZM9.69055 10.9993H9.26561V10.4979H9.69055C9.79868 10.4979 9.87762 10.5187 9.92736 10.5602C9.97926 10.5994 10.0052 10.6616 10.0052 10.7469C10.0052 10.8322 9.97926 10.8956 9.92736 10.9371C9.87762 10.9786 9.79868 10.9993 9.69055 10.9993Z" fill="white"/>
</svg>
