<svg width="17" height="18" viewBox="0 0 17 18" fill="none" xmlns="http://www.w3.org/2000/svg">
<path d="M16.0457 4.02941L8.97429 0.159201C8.78535 0.0547754 8.57301 0 8.35714 0C8.14128 0 7.92894 0.0547754 7.74 0.159201L0.668571 4.03102C0.466625 4.14154 0.298047 4.30427 0.180443 4.50222C0.0628394 4.70016 0.000522529 4.92605 0 5.15631V12.8437C0.000522529 13.0739 0.0628394 13.2998 0.180443 13.4978C0.298047 13.6957 0.466625 13.8585 0.668571 13.969L7.74 17.8408C7.92894 17.9452 8.14128 18 8.35714 18C8.57301 18 8.78535 17.9452 8.97429 17.8408L16.0457 13.969C16.2477 13.8585 16.4162 13.6957 16.5338 13.4978C16.6514 13.2998 16.7138 13.0739 16.7143 12.8437V5.15712C16.7142 4.92645 16.6521 4.70005 16.5345 4.50165C16.4168 4.30324 16.248 4.14013 16.0457 4.02941ZM8.35714 1.2845L14.8138 4.82114L12.4208 6.1305L5.96411 2.59386L8.35714 1.2845ZM8.35714 8.35778L1.90045 4.82114L4.62536 3.32851L11.0821 6.86515L8.35714 8.35778ZM15.4286 12.8469L9 16.3667V9.46941L11.5714 8.06199V10.9299C11.5714 11.1004 11.6392 11.264 11.7597 11.3846C11.8803 11.5052 12.0438 11.5729 12.2143 11.5729C12.3848 11.5729 12.5483 11.5052 12.6689 11.3846C12.7894 11.264 12.8571 11.1004 12.8571 10.9299V7.35787L15.4286 5.95045V12.8437V12.8469Z" fill="#1D1B20"/>
</svg>
