<svg width="20" height="20" viewBox="0 0 20 20" fill="none" xmlns="http://www.w3.org/2000/svg">
<path d="M15 13C15 12.4477 15.4477 12 16 12C16.5523 12 17 12.4477 17 13V15H19C19.5523 15 20 15.4477 20 16C20 16.5523 19.5523 17 19 17H17V19C17 19.5523 16.5523 20 16 20C15.4477 20 15 19.5523 15 19V17H13C12.4477 17 12 16.5523 12 16C12 15.4477 12.4477 15 13 15H15V13ZM9.61394 13.5225C9.25283 13.8034 8.74717 13.8034 8.38606 13.5225L1.01488 7.78935C0.500134 7.38899 0.500135 6.61101 1.01488 6.21065L8.38606 0.477509C8.74717 0.196645 9.25283 0.196646 9.61394 0.477509L16.9851 6.21065C17.4999 6.61101 17.4999 7.38899 16.9851 7.78935L9.61394 13.5225ZM8.38138 16.0597C8.74471 16.3418 9.25361 16.3396 9.61455 16.0545L10 15.75V16C10 16.71 10.12 17.39 10.35 18L9.61532 18.5823C9.25412 18.8686 8.74404 18.8709 8.38023 18.588L1.00972 12.8553C0.497589 12.457 0.49759 11.683 1.00972 11.2847C1.36874 11.0054 1.87142 11.0052 2.23068 11.2842L8.38138 16.0597Z" fill="#71717A"/>
</svg>
