<svg width="15" height="15" viewBox="0 0 15 15" fill="none" xmlns="http://www.w3.org/2000/svg">
<path d="M6.87563 6.25H8.12563V9.375H6.87563V6.25ZM6.875 10H8.125V11.25H6.875V10Z" fill="#EA1B40"/>
<path d="M8.60667 2.62469C8.38917 2.21531 7.96542 1.96094 7.50167 1.96094C7.03792 1.96094 6.61417 2.21531 6.39667 2.62531L1.81042 11.2897C1.70889 11.48 1.65861 11.6935 1.66453 11.9092C1.67045 12.1248 1.73235 12.3352 1.84417 12.5197C1.95441 12.7051 2.11121 12.8585 2.29901 12.9646C2.48681 13.0707 2.69909 13.1259 2.91479 13.1247H12.0885C12.531 13.1247 12.9317 12.8984 13.1598 12.5197C13.2716 12.3352 13.3335 12.1248 13.3394 11.9092C13.3453 11.6935 13.2951 11.48 13.1935 11.2897L8.60667 2.62469ZM2.91479 11.8747L7.50167 3.21031L12.0917 11.8747H2.91479Z" fill="#EA1B40"/>
</svg>
