<svg width="18" height="18" viewBox="0 0 18 18" fill="none" xmlns="http://www.w3.org/2000/svg">
<path d="M12.5423 9.00131C13.3125 9.00118 14.0616 8.74998 14.6762 8.2858C15.2908 7.82161 15.7373 7.16973 15.9481 6.42894C16.1589 5.68816 16.1225 4.89885 15.8443 4.18064C15.5662 3.46242 15.0615 2.85445 14.4068 2.44886C13.752 2.04326 12.9829 1.86215 12.216 1.93298C11.4491 2.0038 10.7261 2.3227 10.1567 2.84134C9.58735 3.35998 9.20254 4.0501 9.06064 4.8071C8.91873 5.56411 9.02746 6.34674 9.37035 7.03639C9.43499 7.16167 9.45185 7.30618 9.41781 7.44297L9.20673 8.23135C9.18583 8.3094 9.18584 8.39159 9.20676 8.46964C9.22768 8.54769 9.26877 8.61886 9.32591 8.67599C9.38305 8.73313 9.45422 8.77423 9.53227 8.79515C9.61032 8.81607 9.6925 8.81608 9.77056 8.79518L10.5589 8.5841C10.6957 8.55005 10.8402 8.56692 10.9655 8.63156C11.4555 8.87493 11.9952 9.00149 12.5423 9.00131Z" stroke="#52525B"/>
<path d="M2.44858 6.11312C2.44481 6.04345 2.42736 5.9752 2.39721 5.91228C2.36707 5.84935 2.32483 5.79298 2.2729 5.74638C2.22097 5.69977 2.16037 5.66386 2.09456 5.64068C2.02875 5.61749 1.95902 5.6075 1.88935 5.61127C1.81968 5.61504 1.75143 5.63249 1.6885 5.66263C1.62558 5.69278 1.5692 5.73502 1.5226 5.78695C1.476 5.83888 1.44008 5.89948 1.4169 5.96529C1.39372 6.0311 1.38373 6.10083 1.38749 6.1705L2.44858 6.11312ZM3.13283 3.39808C3.0398 3.50089 2.99065 3.63599 2.99587 3.77454C3.00109 3.91309 3.06028 4.04411 3.16078 4.13963C3.26129 4.23514 3.39515 4.28757 3.53378 4.28573C3.67242 4.2839 3.80485 4.22793 3.90279 4.12979L3.13283 3.39808ZM7.34458 15.2414C7.40365 15.2795 7.46969 15.3055 7.53887 15.3178C7.60805 15.3302 7.679 15.3287 7.7476 15.3135C7.81621 15.2982 7.8811 15.2695 7.93854 15.229C7.99597 15.1885 8.04479 15.137 8.08218 15.0775C8.11957 15.018 8.14478 14.9517 8.15636 14.8824C8.16793 14.813 8.16564 14.7421 8.14961 14.6737C8.13357 14.6053 8.10413 14.5407 8.06297 14.4837C8.02181 14.4268 7.96976 14.3785 7.90983 14.3418L7.34458 15.2414ZM10.496 15.4157C10.358 15.3868 10.2142 15.414 10.0962 15.4912C9.97826 15.5683 9.89579 15.6892 9.86695 15.8272C9.83812 15.9652 9.86527 16.109 9.94245 16.2269C10.0196 16.3449 10.1405 16.4274 10.2785 16.4562L10.496 15.4157ZM10.8728 12.2182L11.1951 11.8782L10.4244 11.1465L10.1021 11.4865L10.8728 12.2182ZM12.2569 11.7352L13.6098 12.5143L14.1403 11.5935L12.7867 10.8143L12.2569 11.7352ZM13.8712 14.1293L12.8646 15.1883L13.6353 15.9207L14.6411 14.861L13.8712 14.1293ZM5.71187 12.5122C2.96637 9.6215 2.50595 7.18271 2.44858 6.11312L1.38749 6.1705C1.45833 7.48092 2.01366 10.1612 4.94191 13.2439L5.71187 12.5122ZM6.68653 7.811L6.88912 7.59708L6.11916 6.86537L5.91587 7.07929L6.68653 7.811ZM7.0492 4.93375L6.15599 3.67079L5.28829 4.28421L6.18079 5.54717L7.0492 4.93375ZM6.30049 7.44479C6.17302 7.32193 6.04433 7.20032 5.91445 7.08L5.91304 7.08142L5.91091 7.08354L5.87549 7.12462C5.80613 7.21658 5.7512 7.31857 5.71258 7.42708C5.64316 7.62187 5.60633 7.87971 5.65308 8.20129C5.74516 8.83312 6.15953 9.68242 7.24116 10.8221L8.01183 10.0897C7.00033 9.02508 6.75099 8.36987 6.70424 8.04687C6.68158 7.89104 6.70424 7.80958 6.71345 7.78337L6.71912 7.76992C6.71151 7.78186 6.70273 7.79301 6.69291 7.80321L6.68937 7.80675L6.68724 7.80887L6.68653 7.80958C6.68653 7.80958 6.68583 7.811 6.30049 7.44479ZM7.24116 10.8214C8.31995 11.9576 9.13454 12.4038 9.75574 12.5051C10.0752 12.5568 10.3337 12.515 10.5292 12.4378C10.6379 12.3956 10.7389 12.3358 10.8282 12.2607L10.853 12.2367L10.8629 12.2267L10.8678 12.2225L10.87 12.2204L10.8707 12.219C10.8707 12.219 10.8721 12.2182 10.4867 11.852C10.1014 11.4865 10.1021 11.4858 10.1021 11.4851L10.1035 11.4844L10.105 11.4823L10.1092 11.4787L10.1425 11.449C10.1491 11.4452 10.1479 11.4455 10.139 11.4497C10.1248 11.4554 10.061 11.478 9.92645 11.4561C9.6417 11.4093 9.02687 11.1586 8.01183 10.0897L7.24116 10.8214ZM6.15599 3.67079C5.43774 2.65504 4.00124 2.48292 3.13283 3.39808L3.90279 4.12979C4.27324 3.74021 4.92562 3.77067 5.28829 4.28421L6.15599 3.67079ZM12.8646 15.1883C12.667 15.3965 12.4609 15.5085 12.2597 15.5283L12.3638 16.5851C12.893 16.5334 13.3215 16.2515 13.6353 15.9207L12.8646 15.1883ZM6.88912 7.59708C7.57549 6.87458 7.62295 5.74621 7.0492 4.93375L6.18149 5.54717C6.48041 5.97004 6.43437 6.53317 6.11916 6.86467L6.88912 7.59708ZM13.6098 12.5143C14.1913 12.8494 14.3054 13.6725 13.8712 14.1293L14.6411 14.861C15.5655 13.8878 15.2963 12.2593 14.1403 11.5935L13.6098 12.5143ZM11.1951 11.8782C11.4678 11.5907 11.8935 11.5262 12.2569 11.7352L12.7867 10.8143C12.0082 10.3667 11.0442 10.4949 10.4244 11.1465L11.1951 11.8782ZM7.90983 14.3418C7.21283 13.9041 6.47191 13.3119 5.71187 12.5122L4.94191 13.2439C5.75933 14.1045 6.56895 14.7541 7.34458 15.2414L7.90983 14.3418ZM12.259 15.5283C11.669 15.5798 11.0746 15.5418 10.496 15.4157L10.2785 16.4562C10.9631 16.6041 11.6662 16.6476 12.3638 16.5851L12.259 15.5283Z" fill="#52525B"/>
</svg>
