<svg width="27" height="27" viewBox="0 0 27 27" fill="none" xmlns="http://www.w3.org/2000/svg">
<path d="M24.3749 8.66663C25.0159 8.66663 25.6305 8.92124 26.0838 9.37445C26.537 9.82767 26.7916 10.4424 26.7916 11.0833V15.9166C26.7916 16.5576 26.537 17.1723 26.0838 17.6255C25.6305 18.0787 25.0159 18.3333 24.3749 18.3333H23.0917C22.7971 20.6694 21.6601 22.8176 19.8941 24.375C18.1281 25.9323 15.8545 26.7916 13.4999 26.7916V24.375C15.4227 24.375 17.2668 23.6111 18.6264 22.2515C19.9861 20.8918 20.7499 19.0478 20.7499 17.125V9.87496C20.7499 7.95214 19.9861 6.10808 18.6264 4.74844C17.2668 3.3888 15.4227 2.62496 13.4999 2.62496C11.5771 2.62496 9.73303 3.3888 8.37339 4.74844C7.01376 6.10808 6.24992 7.95214 6.24992 9.87496V18.3333H2.62492C1.98398 18.3333 1.36929 18.0787 0.916077 17.6255C0.462864 17.1723 0.208252 16.5576 0.208252 15.9166V11.0833C0.208252 10.4424 0.462864 9.82767 0.916077 9.37445C1.36929 8.92124 1.98398 8.66663 2.62492 8.66663H3.90817C4.20304 6.33079 5.34014 4.18283 7.10611 2.62578C8.87208 1.06872 11.1455 0.209595 13.4999 0.209595C15.8543 0.209595 18.1278 1.06872 19.8937 2.62578C21.6597 4.18283 22.7968 6.33079 23.0917 8.66663H24.3749ZM8.37659 18.0735L9.65742 16.0242C10.8091 16.7456 12.141 17.1272 13.4999 17.125C14.8589 17.1272 16.1908 16.7456 17.3424 16.0242L18.6233 18.0735C17.0878 19.0355 15.3119 19.5444 13.4999 19.5416C11.688 19.5445 9.91204 19.0356 8.37659 18.0735Z" fill="white"/>
</svg>
