<svg width="24" height="24" viewBox="0 0 24 24" fill="none" xmlns="http://www.w3.org/2000/svg">
<rect width="24" height="24" rx="12" fill="#EA1B40"/>
<path d="M11.25 6C10.4544 6 9.69129 6.31607 9.12868 6.87868C8.56607 7.44129 8.25 8.20435 8.25 9C8.25 9.79565 8.56607 10.5587 9.12868 11.1213C9.69129 11.6839 10.4544 12 11.25 12C12.0456 12 12.8087 11.6839 13.3713 11.1213C13.9339 10.5587 14.25 9.79565 14.25 9C14.25 8.20435 13.9339 7.44129 13.3713 6.87868C12.8087 6.31607 12.0456 6 11.25 6ZM9 9C9 8.40326 9.23705 7.83097 9.65901 7.40901C10.081 6.98705 10.6533 6.75 11.25 6.75C11.8467 6.75 12.419 6.98705 12.841 7.40901C13.2629 7.83097 13.5 8.40326 13.5 9C13.5 9.59674 13.2629 10.169 12.841 10.591C12.419 11.0129 11.8467 11.25 11.25 11.25C10.6533 11.25 10.081 11.0129 9.65901 10.591C9.23705 10.169 9 9.59674 9 9ZM7.50675 12.75C7.3092 12.7491 7.11342 12.7873 6.93065 12.8622C6.74788 12.9372 6.58173 13.0476 6.44172 13.1869C6.30172 13.3263 6.19063 13.492 6.11482 13.6744C6.03902 13.8568 6 14.0524 6 14.25C6 15.5182 6.62475 16.4745 7.60125 17.0978C8.56275 17.7105 9.85875 18 11.25 18C11.5585 18 11.861 17.9858 12.1575 17.9573C11.9785 17.7345 11.8232 17.4937 11.694 17.2388C11.5485 17.2463 11.4005 17.25 11.25 17.25C9.94875 17.25 8.80725 16.977 8.00475 16.4648C7.21725 15.9622 6.75 15.2325 6.75 14.25C6.75 13.8352 7.086 13.5 7.50675 13.5H11.6993C11.8377 13.231 12.0023 12.981 12.1927 12.75H7.50675ZM14.9062 13.875C14.9062 13.7507 14.9556 13.6315 15.0435 13.5435C15.1315 13.4556 15.2507 13.4062 15.375 13.4062C15.4993 13.4062 15.6185 13.4556 15.7065 13.5435C15.7944 13.6315 15.8438 13.7507 15.8438 13.875C15.8438 13.9993 15.7944 14.1185 15.7065 14.2065C15.6185 14.2944 15.4993 14.3438 15.375 14.3438C15.2507 14.3438 15.1315 14.2944 15.0435 14.2065C14.9556 14.1185 14.9062 13.9993 14.9062 13.875ZM15.75 16.875C15.75 16.9745 15.7105 17.0698 15.6402 17.1402C15.5698 17.2105 15.4745 17.25 15.375 17.25C15.2755 17.25 15.1802 17.2105 15.1098 17.1402C15.0395 17.0698 15 16.9745 15 16.875V15.375C15 15.2755 15.0395 15.1802 15.1098 15.1098C15.1802 15.0395 15.2755 15 15.375 15C15.4745 15 15.5698 15.0395 15.6402 15.1098C15.7105 15.1802 15.75 15.2755 15.75 15.375V16.875ZM12 15.375C12 14.4799 12.3556 13.6214 12.9885 12.9885C13.6214 12.3556 14.4799 12 15.375 12C16.2701 12 17.1285 12.3556 17.7615 12.9885C18.3944 13.6214 18.75 14.4799 18.75 15.375C18.75 16.2701 18.3944 17.1285 17.7615 17.7615C17.1285 18.3944 16.2701 18.75 15.375 18.75C14.4799 18.75 13.6214 18.3944 12.9885 17.7615C12.3556 17.1285 12 16.2701 12 15.375ZM12.75 15.375C12.75 15.7197 12.8179 16.0611 12.9498 16.3795C13.0817 16.698 13.2751 16.9874 13.5188 17.2312C13.7626 17.4749 14.052 17.6683 14.3705 17.8002C14.6889 17.9321 15.0303 18 15.375 18C15.7197 18 16.0611 17.9321 16.3795 17.8002C16.698 17.6683 16.9874 17.4749 17.2312 17.2312C17.4749 16.9874 17.6683 16.698 17.8002 16.3795C17.9321 16.0611 18 15.7197 18 15.375C18 14.6788 17.7234 14.0111 17.2312 13.5188C16.7389 13.0266 16.0712 12.75 15.375 12.75C14.6788 12.75 14.0111 13.0266 13.5188 13.5188C13.0266 14.0111 12.75 14.6788 12.75 15.375Z" fill="white"/>
</svg>
