<svg width="24" height="24" viewBox="0 0 24 24" fill="none" xmlns="http://www.w3.org/2000/svg">
<path d="M6.60156 11.0992C6.60156 8.55402 6.60156 7.28052 7.39266 6.49032C8.18286 5.69922 9.45636 5.69922 12.0016 5.69922H14.7016C17.2468 5.69922 18.5203 5.69922 19.3105 6.49032C20.1016 7.28052 20.1016 8.55402 20.1016 11.0992V15.5992C20.1016 18.1444 20.1016 19.4179 19.3105 20.2081C18.5203 20.9992 17.2468 20.9992 14.7016 20.9992H12.0016C9.45636 20.9992 8.18286 20.9992 7.39266 20.2081C6.60156 19.4179 6.60156 18.1444 6.60156 15.5992V11.0992Z" stroke="#EA1B40" stroke-width="1.5"/>
<path opacity="0.5" d="M6.59844 18.3C5.88235 18.3 5.1956 18.0155 4.68925 17.5092C4.1829 17.0028 3.89844 16.3161 3.89844 15.6V10.2C3.89844 6.8061 3.89844 5.1087 4.95324 4.0548C6.00804 3.0009 7.70454 3 11.0984 3H14.6984C15.4145 3 16.1013 3.28446 16.6076 3.79081C17.114 4.29716 17.3984 4.98392 17.3984 5.7" stroke="#EA1B40" stroke-width="1.5"/>
</svg>
