<svg width="20" height="20" viewBox="0 0 20 20" fill="none" xmlns="http://www.w3.org/2000/svg">
<g clip-path="url(#clip0_1240_502)">
<path d="M8.74992 16.6666C8.74992 16.9982 8.88161 17.3161 9.11603 17.5505C9.35046 17.7849 9.6684 17.9166 9.99992 17.9166C10.3314 17.9166 10.6494 17.7849 10.8838 17.5505C11.1182 17.3161 11.2499 16.9982 11.2499 16.6666V11.25H16.6666C16.9981 11.25 17.316 11.1183 17.5505 10.8839C17.7849 10.6494 17.9166 10.3315 17.9166 9.99998C17.9166 9.66846 17.7849 9.35052 17.5505 9.1161C17.316 8.88168 16.9981 8.74998 16.6666 8.74998H11.2499V3.33331C11.2499 3.00179 11.1182 2.68385 10.8838 2.44943C10.6494 2.21501 10.3314 2.08331 9.99992 2.08331C9.6684 2.08331 9.35046 2.21501 9.11603 2.44943C8.88161 2.68385 8.74992 3.00179 8.74992 3.33331V8.74998H3.33325C3.00173 8.74998 2.68379 8.88168 2.44937 9.1161C2.21495 9.35052 2.08325 9.66846 2.08325 9.99998C2.08325 10.3315 2.21495 10.6494 2.44937 10.8839C2.68379 11.1183 3.00173 11.25 3.33325 11.25H8.74992V16.6666Z" fill="#71717A"/>
</g>
<defs>
<clipPath id="clip0_1240_502">
<rect width="20" height="20" fill="white"/>
</clipPath>
</defs>
</svg>
