<svg width="24" height="24" viewBox="0 0 24 24" fill="none" xmlns="http://www.w3.org/2000/svg">
<path d="M18.4 6H5.6C5.17639 6.00233 4.77082 6.16697 4.47128 6.45819C4.17174 6.74941 4.0024 7.14372 4 7.55556V16.4444C4.0024 16.8563 4.17174 17.2506 4.47128 17.5418C4.77082 17.833 5.17639 17.9977 5.6 18H18.4C18.8236 17.9977 19.2292 17.833 19.5287 17.5418C19.8283 17.2506 19.9976 16.8563 20 16.4444V7.55556C19.9976 7.14372 19.8283 6.74941 19.5287 6.45819C19.2292 6.16697 18.8236 6.00233 18.4 6ZM5.6 7.33333H18.4C18.4606 7.33333 18.5188 7.35675 18.5616 7.39842C18.6045 7.4401 18.6286 7.49662 18.6286 7.55556V9.55556H5.37143V7.55556C5.37143 7.49662 5.39551 7.4401 5.43838 7.39842C5.48124 7.35675 5.53938 7.33333 5.6 7.33333ZM18.4 16.6667H5.6C5.53938 16.6667 5.48124 16.6433 5.43838 16.6016C5.39551 16.5599 5.37143 16.5034 5.37143 16.4444V10.8889H18.6286V16.4444C18.6286 16.5034 18.6045 16.5599 18.5616 16.6016C18.5188 16.6433 18.4606 16.6667 18.4 16.6667Z" fill="#EA1B40"/>
<path d="M9.25 13H7.75C7.55109 13 7.36032 13.1054 7.21967 13.2929C7.07902 13.4804 7 13.7348 7 14C7 14.2652 7.07902 14.5196 7.21967 14.7071C7.36032 14.8946 7.55109 15 7.75 15H9.25C9.44891 15 9.63968 14.8946 9.78033 14.7071C9.92098 14.5196 10 14.2652 10 14C10 13.7348 9.92098 13.4804 9.78033 13.2929C9.63968 13.1054 9.44891 13 9.25 13Z" fill="#EA1B40"/>
</svg>
