<svg width="12" height="12" viewBox="0 0 12 12" fill="none" xmlns="http://www.w3.org/2000/svg">
<path d="M10.875 3.83332C11.1623 3.83332 11.4379 3.94746 11.6411 4.15062C11.8442 4.35379 11.9584 4.62934 11.9584 4.91665V7.08332C11.9584 7.37064 11.8442 7.64619 11.6411 7.84935C11.4379 8.05252 11.1623 8.16665 10.875 8.16665H10.2998C10.1677 9.21386 9.65804 10.1769 8.86638 10.875C8.07473 11.5731 7.05552 11.9583 6.00002 11.9583V10.875C6.86197 10.875 7.68862 10.5326 8.29812 9.92309C8.90761 9.31359 9.25002 8.48694 9.25002 7.62499V4.37499C9.25002 3.51303 8.90761 2.68638 8.29812 2.07689C7.68862 1.4674 6.86197 1.12499 6.00002 1.12499C5.13807 1.12499 4.31142 1.4674 3.70192 2.07689C3.09243 2.68638 2.75002 3.51303 2.75002 4.37499V8.16665H1.12502C0.837703 8.16665 0.562152 8.05252 0.358988 7.84935C0.155824 7.64619 0.041687 7.37064 0.041687 7.08332V4.91665C0.041687 4.62934 0.155824 4.35379 0.358988 4.15062C0.562152 3.94746 0.837703 3.83332 1.12502 3.83332H1.70027C1.83245 2.78622 2.34219 1.82334 3.13383 1.12535C3.92547 0.427363 4.94461 0.0422363 6.00002 0.0422363C7.05543 0.0422363 8.07457 0.427363 8.86621 1.12535C9.65785 1.82334 10.1676 2.78622 10.2998 3.83332H10.875ZM3.70335 8.05019L4.27752 7.13153C4.79377 7.45492 5.39084 7.62597 6.00002 7.62499C6.6092 7.62597 7.20627 7.45492 7.72252 7.13153L8.29669 8.05019C7.60837 8.48144 6.81227 8.70957 6.00002 8.70832C5.18776 8.7096 4.39166 8.48147 3.70335 8.05019Z" fill="#EA1B40"/>
</svg>
