<svg width="10" height="10" viewBox="0 0 10 10" fill="none" xmlns="http://www.w3.org/2000/svg">
<path fill-rule="evenodd" clip-rule="evenodd" d="M0.26 2.9115C0 3.385 0 3.9575 0 5.1015V5.8625C0 7.8125 -5.96046e-08 8.788 0.586 9.394C1.1715 10 2.1145 10 4 10H6C7.8855 10 8.8285 10 9.414 9.394C10 8.788 10 7.813 10 5.8625V5.102C10 3.9575 10 3.3855 9.74 2.9115C9.481 2.437 9.0065 2.143 8.058 1.554L7.058 0.9335C6.0555 0.311 5.554 0 5 0C4.446 0 3.945 0.311 2.942 0.9335L1.942 1.554C0.9935 2.143 0.5195 2.437 0.26 2.9115ZM4.625 8C4.625 8.09946 4.66451 8.19484 4.73484 8.26517C4.80516 8.33549 4.90054 8.375 5 8.375C5.09946 8.375 5.19484 8.33549 5.26516 8.26517C5.33549 8.19484 5.375 8.09946 5.375 8V6.5C5.375 6.40054 5.33549 6.30516 5.26516 6.23484C5.19484 6.16451 5.09946 6.125 5 6.125C4.90054 6.125 4.80516 6.16451 4.73484 6.23484C4.66451 6.30516 4.625 6.40054 4.625 6.5V8Z" fill="#EA1B40"/>
</svg>
