<svg width="37" height="37" viewBox="0 0 37 37" fill="none" xmlns="http://www.w3.org/2000/svg">
<path fill-rule="evenodd" clip-rule="evenodd" d="M0.5 18.5C0.5 13.7261 2.39642 9.14773 5.77208 5.77208C9.14773 2.39642 13.7261 0.5 18.5 0.5C23.2739 0.5 27.8523 2.39642 31.2279 5.77208C34.6036 9.14773 36.5 13.7261 36.5 18.5C36.5 23.2739 34.6036 27.8523 31.2279 31.2279C27.8523 34.6036 23.2739 36.5 18.5 36.5C13.7261 36.5 9.14773 34.6036 5.77208 31.2279C2.39642 27.8523 0.5 23.2739 0.5 18.5ZM17.4728 26.204L27.836 13.2488L25.964 11.7512L17.1272 22.7936L10.868 17.5784L9.332 19.4216L17.4728 26.204Z" fill="#EA2147"/>
</svg>
