<svg width="40" height="44" viewBox="0 0 40 44" fill="none" xmlns="http://www.w3.org/2000/svg">
<path d="M20.0556 5.69505C23.8834 5.69505 27.4945 6.51658 30.8889 8.15964C34.2834 9.80269 37.1181 12.177 39.3931 15.2826C39.6459 15.6076 39.7271 15.8964 39.6368 16.1492C39.5465 16.402 39.3931 16.6187 39.1764 16.7992C38.9597 16.9798 38.707 17.061 38.4181 17.043C38.1292 17.0249 37.8764 16.8714 37.6597 16.5826C35.6736 13.7659 33.1188 11.6082 29.9952 10.1096C26.8715 8.61102 23.5584 7.86172 20.0556 7.86172C16.5528 7.86172 13.2667 8.61102 10.1972 10.1096C7.1278 11.6082 4.58196 13.7659 2.55974 16.5826C2.34307 16.9076 2.0903 17.0881 1.80141 17.1242C1.51252 17.1603 1.25974 17.0881 1.04307 16.9076C0.790295 16.727 0.636823 16.5013 0.582656 16.2305C0.52849 15.9596 0.60974 15.6798 0.826406 15.3909C3.0653 12.3214 5.87293 9.93811 9.24932 8.24089C12.6257 6.54366 16.2278 5.69505 20.0556 5.69505ZM20.0556 10.7867C24.9306 10.7867 29.1195 12.4117 32.6222 15.6617C36.125 18.9117 37.8764 22.9381 37.8764 27.7409C37.8764 29.5464 37.2354 31.0541 35.9535 32.2638C34.6715 33.4735 33.1097 34.0784 31.2681 34.0784C29.4264 34.0784 27.8465 33.4735 26.5285 32.2638C25.2104 31.0541 24.5514 29.5464 24.5514 27.7409C24.5514 26.5492 24.109 25.5471 23.2243 24.7346C22.3396 23.9221 21.2834 23.5159 20.0556 23.5159C18.8278 23.5159 17.7715 23.9221 16.8868 24.7346C16.0021 25.5471 15.5597 26.5492 15.5597 27.7409C15.5597 31.2437 16.5979 34.1687 18.6743 36.5159C20.7507 38.8631 23.432 40.5062 26.7181 41.4451C27.0431 41.5534 27.2597 41.7339 27.3681 41.9867C27.4764 42.2395 27.4945 42.5103 27.4222 42.7992C27.35 43.052 27.2056 43.2687 26.9889 43.4492C26.7722 43.6298 26.5014 43.6839 26.1764 43.6117C22.4209 42.6728 19.3514 40.8041 16.9681 38.0055C14.5847 35.2069 13.3931 31.7853 13.3931 27.7409C13.3931 25.9353 14.0431 24.4187 15.3431 23.1909C16.6431 21.9631 18.2139 21.3492 20.0556 21.3492C21.8972 21.3492 23.4681 21.9631 24.7681 23.1909C26.0681 24.4187 26.7181 25.9353 26.7181 27.7409C26.7181 28.9326 27.1695 29.9346 28.0722 30.7471C28.975 31.5596 30.0403 31.9659 31.2681 31.9659C32.4959 31.9659 33.5431 31.5596 34.4097 30.7471C35.2764 29.9346 35.7097 28.9326 35.7097 27.7409C35.7097 23.552 34.175 20.0312 31.1056 17.1784C28.0361 14.3256 24.3709 12.8992 20.1097 12.8992C15.8486 12.8992 12.1834 14.3256 9.11391 17.1784C6.04446 20.0312 4.50974 23.5339 4.50974 27.6867C4.50974 28.5534 4.59099 29.6367 4.75349 30.9367C4.91599 32.2367 5.30418 33.7534 5.91807 35.4867C6.02641 35.8117 6.01738 36.1006 5.89099 36.3534C5.7646 36.6062 5.55696 36.7867 5.26807 36.8951C4.97918 37.0034 4.69932 36.9944 4.42849 36.868C4.15766 36.7416 3.96807 36.5339 3.85974 36.2451C3.31807 34.8367 2.92988 33.4374 2.69516 32.0471C2.46043 30.6569 2.34307 29.2214 2.34307 27.7409C2.34307 22.9381 4.08543 18.9117 7.57016 15.6617C11.0549 12.4117 15.2167 10.7867 20.0556 10.7867ZM20.0556 0.386719C22.3667 0.386719 24.6236 0.66658 26.8264 1.2263C29.0292 1.78602 31.1597 2.5895 33.2181 3.63672C33.5431 3.81727 33.7327 4.03394 33.7868 4.28672C33.841 4.5395 33.8139 4.79227 33.7056 5.04505C33.5972 5.29783 33.4167 5.49644 33.1639 5.64089C32.9111 5.78533 32.6042 5.76727 32.2431 5.58672C30.3292 4.61172 28.3521 3.86241 26.3118 3.3388C24.2715 2.81519 22.1861 2.55339 20.0556 2.55339C17.9611 2.55339 15.9028 2.79714 13.8806 3.28464C11.8584 3.77214 9.92641 4.5395 8.08474 5.58672C7.79585 5.76727 7.50696 5.81241 7.21807 5.72214C6.92918 5.63186 6.71252 5.44227 6.56807 5.15339C6.42363 4.8645 6.38752 4.60269 6.45974 4.36797C6.53196 4.13325 6.71252 3.92561 7.00141 3.74505C9.02363 2.66172 11.1361 1.83116 13.3389 1.25339C15.5417 0.675608 17.7806 0.386719 20.0556 0.386719ZM20.0556 16.0409C23.4139 16.0409 26.3028 17.1694 28.7222 19.4263C31.1417 21.6832 32.3514 24.4548 32.3514 27.7409C32.3514 28.0659 32.2521 28.3277 32.0535 28.5263C31.8549 28.7249 31.5931 28.8242 31.2681 28.8242C30.9792 28.8242 30.7264 28.7249 30.5097 28.5263C30.2931 28.3277 30.1847 28.0659 30.1847 27.7409C30.1847 25.0326 29.1827 22.7666 27.1785 20.943C25.1743 19.1194 22.8 18.2076 20.0556 18.2076C17.3111 18.2076 14.9549 19.1194 12.9868 20.943C11.0188 22.7666 10.0347 25.0326 10.0347 27.7409C10.0347 30.6659 10.5403 33.1485 11.5514 35.1888C12.5625 37.2291 14.0431 39.2784 15.9931 41.3367C16.2097 41.5534 16.3181 41.8062 16.3181 42.0951C16.3181 42.3839 16.2097 42.6367 15.9931 42.8534C15.7764 43.0701 15.5236 43.1784 15.2347 43.1784C14.9459 43.1784 14.6931 43.0701 14.4764 42.8534C12.3459 40.6145 10.7118 38.3305 9.57432 36.0013C8.43682 33.6721 7.86807 30.9187 7.86807 27.7409C7.86807 24.4548 9.05974 21.6832 11.4431 19.4263C13.8264 17.1694 16.6972 16.0409 20.0556 16.0409ZM20.0014 26.6576C20.3264 26.6576 20.5882 26.7659 20.7868 26.9826C20.9854 27.1992 21.0847 27.452 21.0847 27.7409C21.0847 30.4492 22.0597 32.6701 24.0097 34.4034C25.9597 36.1367 28.2347 37.0034 30.8347 37.0034C31.0514 37.0034 31.3584 36.9853 31.7556 36.9492C32.1528 36.9131 32.5681 36.8589 33.0014 36.7867C33.3264 36.7145 33.6063 36.7596 33.841 36.9221C34.0757 37.0846 34.2292 37.3284 34.3014 37.6534C34.3736 37.9423 34.3195 38.1951 34.1389 38.4117C33.9584 38.6284 33.7236 38.7728 33.4347 38.8451C32.7847 39.0256 32.216 39.1249 31.7285 39.143C31.241 39.161 30.9431 39.1701 30.8347 39.1701C27.6209 39.1701 24.8313 38.0867 22.466 35.9201C20.1007 33.7534 18.9181 31.027 18.9181 27.7409C18.9181 27.452 19.0174 27.1992 19.216 26.9826C19.4146 26.7659 19.6764 26.6576 20.0014 26.6576Z" fill="#EA2147"/>
</svg>
