<svg width="27" height="18" viewBox="0 0 27 18" fill="none" xmlns="http://www.w3.org/2000/svg">
<rect x="0.5" width="26.25" height="18" rx="4" fill="#F1F6FF"/>
<path fill-rule="evenodd" clip-rule="evenodd" d="M12.8992 11.8179V9.55215H14.0686C14.5478 9.55215 14.9522 9.39159 15.2819 9.07492L15.361 8.99464C15.9633 8.33901 15.9238 7.31765 15.2819 6.71108C14.961 6.38996 14.5214 6.21602 14.0686 6.22494H12.1914V11.8179H12.8992ZM12.8993 8.86529V6.91178H14.0864C14.3414 6.91178 14.5833 7.0099 14.7635 7.1883C15.1461 7.56295 15.1549 8.18736 14.7855 8.57538C14.6053 8.76717 14.3502 8.87421 14.0864 8.86529H12.8993ZM18.6626 8.28995C18.3592 8.00897 17.946 7.86625 17.4229 7.86625C16.7502 7.86625 16.2447 8.11601 15.9106 8.61108L16.5348 9.00802C16.7634 8.66906 17.0756 8.49958 17.4712 8.49958C17.7218 8.49958 17.9636 8.59324 18.1526 8.76272C18.3373 8.92328 18.4428 9.15521 18.4428 9.40051V9.56553C18.1702 9.41389 17.8273 9.33361 17.4053 9.33361C16.9129 9.33361 16.5173 9.44957 16.2227 9.68596C15.9282 9.92234 15.7787 10.2345 15.7787 10.6315C15.7699 10.9928 15.9238 11.3362 16.1963 11.5681C16.4733 11.8179 16.825 11.9428 17.2382 11.9428C17.7262 11.9428 18.1131 11.7242 18.4076 11.2871H18.4384V11.8179H19.1154V9.45849C19.1154 8.96342 18.9659 8.57094 18.6626 8.28995ZM16.7416 11.1132C16.5965 11.0061 16.5085 10.8322 16.5085 10.6449C16.5085 10.4352 16.6053 10.2613 16.7943 10.123C16.9878 9.98478 17.2296 9.91342 17.5154 9.91342C17.9111 9.90896 18.2189 9.99816 18.4388 10.1766C18.4388 10.4798 18.3201 10.743 18.087 10.966C17.876 11.1801 17.5902 11.3005 17.2912 11.3005C17.0933 11.305 16.8999 11.2381 16.7416 11.1132ZM20.6365 13.4993L23.0016 7.99113H22.2323L21.1376 10.7385H21.1245L20.0034 7.99113H19.2341L20.7859 11.5726L19.9067 13.4993H20.6365Z" fill="#3C4043"/>
<path d="M10.4557 9.06133C10.4557 8.84278 10.4381 8.62424 10.403 8.41016H7.41797V9.6456H9.12808C9.05774 10.0425 8.82914 10.3993 8.49503 10.6224V11.4252H9.51494C10.1128 10.8677 10.4557 10.0425 10.4557 9.06133Z" fill="#4285F4"/>
<path d="M7.41658 12.2012C8.26944 12.2012 8.99041 11.9158 9.51355 11.4252L8.49364 10.6224C8.20789 10.8186 7.84301 10.9301 7.41658 10.9301C6.5901 10.9301 5.89111 10.3637 5.64053 9.60547H4.58984V10.435C5.12618 11.5188 6.22082 12.2012 7.41658 12.2012Z" fill="#34A853"/>
<path d="M5.64051 9.60687C5.5086 9.20993 5.5086 8.7773 5.64051 8.37589V7.55078H4.58966C4.13678 8.45618 4.13678 9.52659 4.58966 10.432L5.64051 9.60687Z" fill="#FBBC04"/>
<path d="M7.41658 7.05061C7.86939 7.04169 8.30461 7.21563 8.62992 7.5323L9.53553 6.61352C8.95964 6.0694 8.20349 5.77057 7.41658 5.77949C6.22082 5.77949 5.12618 6.46634 4.58984 7.55014L5.64053 8.37971C5.89111 7.61704 6.5901 7.05061 7.41658 7.05061Z" fill="#EA4335"/>
</svg>
