<svg width="22" height="22" viewBox="0 0 22 22" fill="none" xmlns="http://www.w3.org/2000/svg">
<path d="M19.9871 9.20536H19.2487V9.16732H10.9987V12.834H16.1792C15.4234 14.9684 13.3926 16.5007 10.9987 16.5007C7.96132 16.5007 5.4987 14.038 5.4987 11.0007C5.4987 7.96328 7.96132 5.50065 10.9987 5.50065C12.4007 5.50065 13.6763 6.02957 14.6475 6.89353L17.2403 4.30073C15.6031 2.77494 13.4132 1.83398 10.9987 1.83398C5.93641 1.83398 1.83203 5.93836 1.83203 11.0007C1.83203 16.0629 5.93641 20.1673 10.9987 20.1673C16.061 20.1673 20.1654 16.0629 20.1654 11.0007C20.1654 10.386 20.1021 9.78607 19.9871 9.20536Z" fill="#FFC107"/>
<path d="M2.89062 6.73403L5.90233 8.94273C6.71725 6.92515 8.69083 5.50065 11.0004 5.50065C12.4024 5.50065 13.678 6.02957 14.6492 6.89353L17.242 4.30073C15.6048 2.77494 13.4149 1.83398 11.0004 1.83398C7.47946 1.83398 4.42604 3.82178 2.89062 6.73403Z" fill="#FF3D00"/>
<path d="M11.0005 20.166C13.3682 20.166 15.5196 19.2599 17.1463 17.7863L14.3092 15.3856C13.3579 16.109 12.1956 16.5003 11.0005 16.4993C8.61622 16.4993 6.59176 14.979 5.82909 12.8574L2.83984 15.1605C4.35693 18.1292 7.43784 20.166 11.0005 20.166Z" fill="#4CAF50"/>
<path d="M19.9884 9.20406H19.25V9.16602H11V12.8327H16.1805C15.819 13.8485 15.1678 14.7362 14.3073 15.3861L14.3087 15.3851L17.1458 17.7859C16.945 17.9683 20.1667 15.5827 20.1667 10.9993C20.1667 10.3847 20.1034 9.78477 19.9884 9.20406Z" fill="#1976D2"/>
</svg>
