<svg width="16" height="16" viewBox="0 0 16 16" fill="none" xmlns="http://www.w3.org/2000/svg">
<path d="M7.50324 0.5C11.6494 0.5 15.0104 3.85775 15.0104 8C15.0104 12.1423 11.6494 15.5 7.50324 15.5C3.35704 15.5 -0.00390625 12.1423 -0.00390625 8C-0.00390625 3.85775 3.35704 0.5 7.50324 0.5ZM6.00181 5C5.81793 5.00002 5.64046 5.06747 5.50305 5.18954C5.36565 5.31161 5.27786 5.47981 5.25635 5.66225L5.25109 5.75V10.25C5.25131 10.4412 5.32457 10.625 5.45592 10.764C5.58728 10.903 5.7668 10.9867 5.95781 10.9979C6.14882 11.0091 6.33691 10.947 6.48364 10.8243C6.63037 10.7016 6.72467 10.5276 6.74727 10.3377L6.75252 10.25V5.75C6.75252 5.55109 6.67343 5.36032 6.53264 5.21967C6.39186 5.07902 6.20091 5 6.00181 5ZM9.00466 5C8.80556 5 8.61462 5.07902 8.47383 5.21967C8.33304 5.36032 8.25395 5.55109 8.25395 5.75V10.25C8.25395 10.4489 8.33304 10.6397 8.47383 10.7803C8.61462 10.921 8.80556 11 9.00466 11C9.20377 11 9.39471 10.921 9.5355 10.7803C9.67628 10.6397 9.75538 10.4489 9.75538 10.25V5.75C9.75538 5.55109 9.67628 5.36032 9.5355 5.21967C9.39471 5.07902 9.20377 5 9.00466 5Z" fill="white"/>
</svg>
