<svg width="81" height="81" viewBox="0 0 81 81" fill="none" xmlns="http://www.w3.org/2000/svg">
<rect width="81" height="81" rx="40.5" fill="white"/>
<path d="M36.4167 34.375V46.625M44.5833 34.375V46.625M58.875 40.5C58.875 42.913 58.3997 45.3025 57.4763 47.5318C56.5529 49.7612 55.1994 51.7868 53.4931 53.4931C51.7868 55.1994 49.7612 56.5529 47.5318 57.4763C45.3025 58.3997 42.913 58.875 40.5 58.875C38.087 58.875 35.6976 58.3997 33.4682 57.4763C31.2388 56.5529 29.2132 55.1994 27.5069 53.4931C25.8006 51.7868 24.4471 49.7612 23.5237 47.5318C22.6003 45.3025 22.125 42.913 22.125 40.5C22.125 35.6266 24.0609 30.9529 27.5069 27.5069C30.9529 24.0609 35.6266 22.125 40.5 22.125C45.3734 22.125 50.0471 24.0609 53.4931 27.5069C56.9391 30.9529 58.875 35.6266 58.875 40.5Z" stroke="#EA2147" stroke-width="3.60294" stroke-linecap="round" stroke-linejoin="round"/>
</svg>
