<svg width="24" height="24" viewBox="0 0 24 24" fill="none" xmlns="http://www.w3.org/2000/svg">
<rect width="24" height="24" rx="12" fill="#EA1B40"/>
<path d="M9.74063 12.1925H14.2594V11.5675H9.74063V12.1925ZM9.74063 13.9231H14.2594V13.2981H9.74063V13.9231ZM9.74063 15.6544H12.3844V15.0294H9.74063V15.6544ZM8.63437 17.625C8.34687 17.625 8.10687 17.5288 7.91437 17.3363C7.72187 17.1438 7.62542 16.9035 7.625 16.6156V7.38437C7.625 7.09687 7.72146 6.85688 7.91437 6.66438C8.10729 6.47188 8.3475 6.37542 8.635 6.375H13.5625L16.375 9.1875V16.6156C16.375 16.9031 16.2788 17.1433 16.0863 17.3363C15.8938 17.5292 15.6533 17.6254 15.365 17.625H8.63437ZM13.25 9.5V7H8.635C8.53875 7 8.45042 7.04 8.37 7.12C8.28958 7.2 8.24958 7.28812 8.25 7.38437V16.6156C8.25 16.7115 8.29 16.7996 8.37 16.88C8.45 16.9604 8.53812 17.0004 8.63437 17H15.3656C15.4615 17 15.5496 16.96 15.63 16.88C15.7104 16.8 15.7504 16.7117 15.75 16.615V9.5H13.25Z" fill="#F8F9FA"/>
</svg>
