<svg width="207" height="185" viewBox="0 0 207 185" fill="none" xmlns="http://www.w3.org/2000/svg">
<path d="M106.009 0.403412L99.2736 2.13303L16.2919 23.4424L9.55647 25.172C6.28718 26.0154 3.48737 28.1158 1.77129 31.0123C0.0552063 33.9088 -0.436996 37.3649 0.402661 40.6224L29.6089 153.401C30.4559 156.657 32.5652 159.445 35.4739 161.154C38.3826 162.863 41.8533 163.353 45.1245 162.517L45.1419 162.512L141.56 137.753L141.577 137.748C144.846 136.905 147.646 134.804 149.362 131.908C151.078 129.011 151.57 125.555 150.731 122.298L121.525 9.51878C120.678 6.26323 118.568 3.47518 115.66 1.76631C112.751 0.0574345 109.28 -0.432709 106.009 0.403412Z" fill="#E2E8F0"/>
<path d="M106.925 3.93923L98.9471 5.98785L18.4496 26.6592L10.4721 28.7078C8.14392 29.3085 6.1501 30.8042 4.92803 32.8669C3.70596 34.9295 3.35545 37.3907 3.95339 39.7104L33.1596 152.489C33.7628 154.808 35.2649 156.793 37.3362 158.01C39.4076 159.227 41.8792 159.576 44.2087 158.981L44.2261 158.976L140.644 134.217L140.661 134.212C142.989 133.611 144.983 132.116 146.205 130.053C147.427 127.99 147.778 125.529 147.18 123.209L117.974 10.4305C117.37 8.11217 115.868 6.12675 113.797 4.90982C111.726 3.69289 109.254 3.34383 106.925 3.93923Z" fill="white"/>
<path d="M100.901 40.46L52.1256 52.9853C51.5808 53.1252 51.0025 53.0439 50.518 52.7592C50.0334 52.4746 49.6823 52.0099 49.5418 51.4674C49.4013 50.9249 49.483 50.3491 49.7689 49.8666C50.0548 49.3841 50.5214 49.0344 51.0662 48.8945L99.8415 36.3692C100.386 36.2299 100.964 36.3115 101.448 36.5962C101.932 36.881 102.283 37.3454 102.423 37.8876C102.564 38.4298 102.482 39.0053 102.197 39.4876C101.911 39.97 101.445 40.3197 100.901 40.46Z" fill="#E2E8F0"/>
<path d="M111.162 45.1876L53.9132 59.8887C53.3684 60.0286 52.7901 59.9472 52.3056 59.6626C51.821 59.3779 51.4699 58.9132 51.3294 58.3707C51.1889 57.8283 51.2706 57.2524 51.5565 56.7699C51.8424 56.2874 52.309 55.9377 52.8538 55.7978L110.102 41.0967C110.647 40.9568 111.225 41.0381 111.71 41.3228C112.194 41.6075 112.545 42.0722 112.686 42.6147C112.826 43.1571 112.745 43.733 112.459 44.2155C112.173 44.698 111.706 45.0477 111.162 45.1876Z" fill="#E2E8F0"/>
<path d="M108.913 71.397L60.1373 83.9223C59.8675 83.9916 59.5867 84.0073 59.3109 83.9685C59.0351 83.9297 58.7696 83.8372 58.5297 83.6962C58.2898 83.5553 58.0801 83.3686 57.9126 83.147C57.7451 82.9253 57.6231 82.673 57.5535 82.4044C57.484 82.1358 57.4682 81.8561 57.5072 81.5815C57.5461 81.3068 57.639 81.0425 57.7806 80.8036C57.9221 80.5646 58.1096 80.3558 58.3322 80.189C58.5547 80.0222 58.8081 79.9007 59.0779 79.8315L107.853 67.3062C108.123 67.2369 108.404 67.2212 108.68 67.26C108.955 67.2988 109.221 67.3913 109.461 67.5323C109.701 67.6732 109.91 67.8599 110.078 68.0815C110.245 68.3032 110.367 68.5555 110.437 68.8241C110.507 69.0927 110.522 69.3724 110.483 69.647C110.444 69.9217 110.352 70.186 110.21 70.425C110.068 70.6639 109.881 70.8727 109.658 71.0395C109.436 71.2063 109.182 71.3278 108.913 71.397Z" fill="#E2E8F0"/>
<path d="M119.174 76.1246L61.9251 90.8257C61.6554 90.895 61.3746 90.9107 61.0988 90.8719C60.8229 90.8331 60.5575 90.7406 60.3175 90.5996C60.0776 90.4586 59.8679 90.272 59.7004 90.0504C59.5329 89.8287 59.4109 89.5764 59.3414 89.3078C59.2718 89.0392 59.2561 88.7595 59.295 88.4849C59.334 88.2102 59.4269 87.9458 59.5684 87.7069C59.71 87.468 59.8974 87.2592 60.12 87.0924C60.3426 86.9256 60.596 86.8041 60.8657 86.7349L118.114 72.0337C118.659 71.8938 119.237 71.9752 119.722 72.2598C120.206 72.5445 120.557 73.0092 120.698 73.5517C120.838 74.0942 120.757 74.67 120.471 75.1525C120.185 75.635 119.718 75.9847 119.174 76.1246Z" fill="#E2E8F0"/>
<path d="M116.924 102.334L68.1491 114.859C67.6044 114.999 67.0265 114.917 66.5423 114.633C66.058 114.348 65.7071 113.883 65.5667 113.341C65.4263 112.799 65.5078 112.223 65.7934 111.741C66.079 111.258 66.5452 110.909 67.0897 110.768L115.865 98.2432C116.41 98.1033 116.988 98.1846 117.473 98.4693C117.957 98.754 118.308 99.2187 118.449 99.7611C118.589 100.304 118.508 100.879 118.222 101.362C117.936 101.844 117.469 102.194 116.924 102.334Z" fill="#E2E8F0"/>
<path d="M127.185 107.062L69.9367 121.763C69.6669 121.832 69.3859 121.848 69.1099 121.81C68.8339 121.771 68.5683 121.678 68.3281 121.538C68.088 121.397 67.8781 121.21 67.7105 120.988C67.5428 120.766 67.4207 120.514 67.3511 120.245C67.2815 119.976 67.2658 119.697 67.3048 119.422C67.3439 119.147 67.4369 118.883 67.5787 118.644C67.7204 118.405 67.9081 118.196 68.1309 118.029C68.3537 117.862 68.6074 117.741 68.8773 117.672L126.126 102.971C126.67 102.831 127.249 102.912 127.733 103.197C128.218 103.482 128.569 103.946 128.709 104.489C128.85 105.031 128.768 105.607 128.482 106.09C128.197 106.572 127.73 106.922 127.185 107.062Z" fill="#E2E8F0"/>
<path d="M43.7988 65.8283L26.5376 70.2609C26.2764 70.3277 25.9993 70.2885 25.767 70.1521C25.5348 70.0156 25.3663 69.793 25.2987 69.533L21.3364 54.2328C21.2694 53.9727 21.3087 53.6967 21.4457 53.4654C21.5827 53.2342 21.8063 53.0665 22.0674 52.9991L39.3285 48.5665C39.5897 48.4997 39.8668 48.5389 40.0991 48.6753C40.3314 48.8118 40.4998 49.0344 40.5674 49.2944L44.5297 64.5946C44.5967 64.8547 44.5574 65.1307 44.4204 65.362C44.2834 65.5932 44.0598 65.761 43.7988 65.8283Z" fill="#E2E8F0"/>
<path d="M51.8107 96.7653L34.5496 101.198C34.2884 101.265 34.0112 101.226 33.779 101.089C33.5467 100.953 33.3783 100.73 33.3107 100.47L29.3484 85.1698C29.2813 84.9097 29.3206 84.6337 29.4577 84.4025C29.5947 84.1712 29.8183 84.0035 30.0793 83.9361L47.3405 79.5035C47.6017 79.4368 47.8788 79.4759 48.1111 79.6123C48.3433 79.7488 48.5117 79.9714 48.5794 80.2314L52.5416 95.5316C52.6087 95.7917 52.5694 96.0677 52.4324 96.299C52.2953 96.5302 52.0718 96.6979 51.8107 96.7653Z" fill="#E2E8F0"/>
<path d="M59.8224 127.702L42.5613 132.135C42.3001 132.202 42.023 132.163 41.7907 132.026C41.5584 131.89 41.39 131.667 41.3224 131.407L37.3601 116.107C37.2931 115.847 37.3324 115.571 37.4694 115.339C37.6064 115.108 37.83 114.94 38.091 114.873L55.3522 110.441C55.6134 110.374 55.8905 110.413 56.1228 110.549C56.355 110.686 56.5235 110.908 56.5911 111.168L60.5534 126.469C60.6204 126.729 60.5811 127.005 60.4441 127.236C60.3071 127.467 60.0835 127.635 59.8224 127.702Z" fill="#E2E8F0"/>
<path d="M173.28 28.9915H73.6716C70.2944 28.9952 67.0565 30.3329 64.6685 32.7109C62.2804 35.0889 60.9371 38.3131 60.9333 41.6762V158.145C60.9371 161.508 62.2804 164.732 64.6685 167.11C67.0565 169.488 70.2944 170.826 73.6716 170.83H173.28C176.657 170.826 179.895 169.488 182.283 167.11C184.671 164.732 186.014 161.508 186.018 158.145V41.6762C186.014 38.3131 184.671 35.0889 182.283 32.7109C179.895 30.3329 176.657 28.9952 173.28 28.9915Z" fill="#E2E8F0"/>
<path d="M173.28 32.6431H73.6718C71.2668 32.6458 68.9611 33.5983 67.2605 35.2918C65.5599 36.9852 64.6033 39.2812 64.6006 41.6761V158.145C64.6033 160.54 65.5599 162.836 67.2605 164.529C68.9611 166.223 71.2668 167.175 73.6718 167.178H173.28C175.685 167.175 177.991 166.223 179.691 164.529C181.392 162.836 182.348 160.54 182.351 158.145V41.6761C182.348 39.2813 181.392 36.9852 179.691 35.2918C177.991 33.5983 175.685 32.6458 173.28 32.6431Z" fill="white"/>
<path d="M183.744 185C196.587 185 206.998 174.633 206.998 161.844C206.998 149.056 196.587 138.689 183.744 138.689C170.902 138.689 160.491 149.056 160.491 161.844C160.491 174.633 170.902 185 183.744 185Z" fill="#EA2147"/>
<path d="M194.866 158.824H186.777V150.77C186.777 149.969 186.458 149.201 185.889 148.635C185.32 148.068 184.549 147.75 183.744 147.75C182.94 147.75 182.169 148.068 181.6 148.635C181.031 149.201 180.711 149.969 180.711 150.77V158.824H172.623C171.819 158.824 171.047 159.143 170.479 159.709C169.91 160.275 169.59 161.044 169.59 161.845C169.59 162.646 169.91 163.414 170.479 163.98C171.047 164.547 171.819 164.865 172.623 164.865H180.711V172.919C180.711 173.72 181.031 174.488 181.6 175.055C182.169 175.621 182.94 175.939 183.744 175.939C184.549 175.939 185.32 175.621 185.889 175.055C186.458 174.488 186.777 173.72 186.777 172.919V164.865H194.866C195.67 164.865 196.441 164.547 197.01 163.98C197.579 163.414 197.899 162.646 197.899 161.845C197.899 161.044 197.579 160.275 197.01 159.709C196.441 159.143 195.67 158.824 194.866 158.824Z" fill="white"/>
<path d="M158.289 96.6422H107.918C107.639 96.6425 107.363 96.5881 107.105 96.482C106.847 96.376 106.613 96.2205 106.416 96.0243C106.219 95.8281 106.062 95.5952 105.956 95.3387C105.849 95.0823 105.794 94.8074 105.794 94.5298C105.794 94.2522 105.849 93.9774 105.956 93.7209C106.062 93.4645 106.219 93.2315 106.416 93.0353C106.613 92.8392 106.847 92.6836 107.105 92.5776C107.363 92.4716 107.639 92.4172 107.918 92.4175H158.289C158.851 92.4181 159.39 92.6409 159.787 93.037C160.184 93.4331 160.408 93.97 160.408 94.5298C160.408 95.0896 160.184 95.6266 159.787 96.0226C159.39 96.4187 158.851 96.6415 158.289 96.6422Z" fill="#E2E8F0"/>
<path d="M167.039 103.772H107.918C107.639 103.772 107.363 103.717 107.105 103.611C106.847 103.505 106.613 103.35 106.416 103.154C106.219 102.958 106.062 102.725 105.956 102.468C105.849 102.212 105.794 101.937 105.794 101.659C105.794 101.382 105.849 101.107 105.956 100.85C106.062 100.594 106.219 100.361 106.416 100.165C106.613 99.9685 106.847 99.813 107.105 99.707C107.363 99.601 107.639 99.5466 107.918 99.5469H167.039C167.602 99.5469 168.141 99.7694 168.539 100.166C168.937 100.562 169.16 101.099 169.16 101.659C169.16 102.219 168.937 102.757 168.539 103.153C168.141 103.549 167.602 103.772 167.039 103.772Z" fill="#E2E8F0"/>
<path d="M158.289 128.591H107.918C107.639 128.592 107.363 128.537 107.105 128.431C106.847 128.325 106.613 128.17 106.416 127.974C106.219 127.777 106.062 127.544 105.956 127.288C105.849 127.032 105.794 126.757 105.794 126.479C105.794 126.201 105.849 125.927 105.956 125.67C106.062 125.414 106.219 125.181 106.416 124.985C106.613 124.788 106.847 124.633 107.105 124.527C107.363 124.421 107.639 124.366 107.918 124.367H158.289C158.851 124.367 159.391 124.589 159.789 124.985C160.186 125.382 160.41 125.919 160.41 126.479C160.41 127.039 160.186 127.577 159.789 127.973C159.391 128.369 158.851 128.591 158.289 128.591Z" fill="#E2E8F0"/>
<path d="M167.039 135.721H107.918C107.639 135.721 107.363 135.667 107.105 135.561C106.847 135.455 106.613 135.299 106.416 135.103C106.219 134.907 106.062 134.674 105.956 134.417C105.849 134.161 105.794 133.886 105.794 133.608C105.794 133.331 105.849 133.056 105.956 132.8C106.062 132.543 106.219 132.31 106.416 132.114C106.613 131.918 106.847 131.762 107.105 131.656C107.363 131.55 107.639 131.496 107.918 131.496H167.039C167.318 131.496 167.594 131.55 167.851 131.656C168.109 131.762 168.343 131.918 168.54 132.114C168.738 132.31 168.894 132.543 169.001 132.8C169.108 133.056 169.163 133.331 169.163 133.608C169.163 133.886 169.108 134.161 169.001 134.417C168.894 134.674 168.738 134.907 168.54 135.103C168.343 135.299 168.109 135.455 167.851 135.561C167.594 135.667 167.318 135.721 167.039 135.721Z" fill="#E2E8F0"/>
<path d="M96.6343 107.008H78.8084C78.5387 107.007 78.2802 106.901 78.0895 106.711C77.8988 106.521 77.7916 106.263 77.7913 105.995V90.194C77.7916 89.9255 77.8988 89.668 78.0895 89.4781C78.2802 89.2882 78.5387 89.1814 78.8084 89.1812H96.6343C96.9039 89.1814 97.1625 89.2882 97.3532 89.4781C97.5439 89.668 97.6511 89.9255 97.6514 90.194V105.995C97.6511 106.263 97.5439 106.521 97.3532 106.711C97.1625 106.901 96.9039 107.007 96.6343 107.008Z" fill="#E2E8F0"/>
<path d="M96.6343 138.957H78.8084C78.5387 138.957 78.2802 138.85 78.0895 138.66C77.8988 138.47 77.7916 138.213 77.7913 137.944V122.143C77.7916 121.875 77.8988 121.617 78.0895 121.427C78.2802 121.237 78.5387 121.131 78.8084 121.13H96.6343C96.9039 121.131 97.1625 121.237 97.3532 121.427C97.5439 121.617 97.6511 121.875 97.6514 122.143V137.944C97.6511 138.213 97.5439 138.47 97.3532 138.66C97.1625 138.85 96.9039 138.957 96.6343 138.957Z" fill="#E2E8F0"/>
<path d="M158.345 61.0765H121.208C120.646 61.0765 120.106 60.8539 119.708 60.4578C119.31 60.0617 119.087 59.5244 119.087 58.9641C119.087 58.4039 119.31 57.8666 119.708 57.4705C120.106 57.0744 120.646 56.8518 121.208 56.8518H158.345C158.907 56.8518 159.447 57.0744 159.845 57.4705C160.243 57.8666 160.466 58.4039 160.466 58.9641C160.466 59.5244 160.243 60.0617 159.845 60.4578C159.447 60.8539 158.907 61.0765 158.345 61.0765Z" fill="#DBE0E7"/>
<path d="M167.095 68.2056H121.208C120.93 68.2056 120.654 68.151 120.396 68.0448C120.139 67.9387 119.905 67.7831 119.708 67.5869C119.511 67.3908 119.355 67.1579 119.248 66.9017C119.142 66.6454 119.087 66.3707 119.087 66.0933C119.087 65.8159 119.142 65.5412 119.248 65.2849C119.355 65.0287 119.511 64.7958 119.708 64.5996C119.905 64.4035 120.139 64.2479 120.396 64.1417C120.654 64.0356 120.93 63.981 121.208 63.981H167.095C167.658 63.981 168.197 64.2035 168.595 64.5996C168.993 64.9958 169.216 65.5331 169.216 66.0933C169.216 66.6535 168.993 67.1908 168.595 67.5869C168.197 67.9831 167.658 68.2056 167.095 68.2056Z" fill="#DBE0E7"/>
<path d="M112.989 76.8454H78.7525C78.4828 76.8451 78.2243 76.7383 78.0336 76.5484C77.8429 76.3585 77.7356 76.101 77.7354 75.8325V49.225C77.7356 48.9565 77.8429 48.699 78.0336 48.5091C78.2243 48.3193 78.4828 48.2125 78.7525 48.2122H112.989C113.259 48.2125 113.517 48.3193 113.708 48.5091C113.899 48.699 114.006 48.9565 114.006 49.225V75.8325C114.006 76.101 113.899 76.3585 113.708 76.5484C113.517 76.7383 113.259 76.8451 112.989 76.8454Z" fill="#EA2147"/>
</svg>
