<svg width="6" height="10" viewBox="0 0 6 10" fill="none" xmlns="http://www.w3.org/2000/svg">
<path fill-rule="evenodd" clip-rule="evenodd" d="M0.527222 5.47121C0.402241 5.34619 0.332031 5.17666 0.332031 4.99988C0.332031 4.8231 0.402241 4.65357 0.527222 4.52855L4.29855 0.757213C4.42429 0.635775 4.59269 0.568579 4.76749 0.570098C4.94229 0.571617 5.1095 0.641729 5.2331 0.765335C5.35671 0.88894 5.42682 1.05615 5.42834 1.23095C5.42986 1.40574 5.36266 1.57414 5.24122 1.69988L1.94122 4.99988L5.24122 8.29988C5.36266 8.42561 5.42986 8.59402 5.42834 8.76881C5.42682 8.94361 5.35671 9.11082 5.2331 9.23443C5.1095 9.35803 4.94229 9.42814 4.76749 9.42966C4.59269 9.43118 4.42429 9.36398 4.29856 9.24255L0.527222 5.47121Z" fill="white"/>
</svg>
