<svg width="15" height="16" viewBox="0 0 15 16" fill="none" xmlns="http://www.w3.org/2000/svg">
<path d="M2.46553 8.61022H2.37603L2.36614 8.69917L1.81506 13.6575L1.80272 13.7686H1.91445H13.082H13.1938L13.1814 13.6575L12.6303 8.69917L12.6204 8.61022H12.5309H11.0399C10.7039 8.61022 10.4316 8.33786 10.4316 8.00188C10.4316 7.66591 10.7039 7.39355 11.0399 7.39355H12.9038C13.3624 7.39355 13.7477 7.73838 13.7983 8.19418L14.4417 13.9858C14.5009 14.519 14.0836 14.9852 13.5472 14.9852H1.44927C0.91287 14.9852 0.495551 14.519 0.554776 13.9858L1.19818 8.19418C1.24881 7.73838 1.63407 7.39355 2.09268 7.39355H3.95657C4.29255 7.39355 4.56491 7.66591 4.56491 8.00188C4.56491 8.33786 4.29255 8.61022 3.95657 8.61022H2.46553ZM7.49824 1.52688C6.90813 1.52688 6.3422 1.7613 5.92493 2.17857C5.50766 2.59584 5.27324 3.16178 5.27324 3.75188C5.27324 4.34199 5.50766 4.90793 5.92493 5.3252C6.3422 5.74247 6.90813 5.97688 7.49824 5.97688C8.08835 5.97688 8.65428 5.74247 9.07155 5.3252C9.48882 4.90793 9.72324 4.34199 9.72324 3.75188C9.72324 3.16178 9.48882 2.59584 9.07155 2.17857C8.65428 1.7613 8.08835 1.52688 7.49824 1.52688ZM4.05657 3.7519C4.05671 3.10072 4.24158 2.46293 4.58971 1.91262C4.93785 1.36231 5.43496 0.922059 6.02332 0.642995C6.61168 0.363932 7.26713 0.25751 7.91356 0.33609C8.55998 0.414671 9.17085 0.675028 9.67521 1.08692C10.1796 1.49882 10.5567 2.04535 10.7629 2.66304C10.969 3.28074 10.9957 3.94424 10.8398 4.57649C10.684 5.20874 10.3519 5.78379 9.88224 6.23486C9.60448 6.50163 9.28533 6.71856 8.93891 6.87823C8.48437 7.08774 8.10657 7.51293 8.10657 8.03921V10.8352C8.10657 11.1712 7.83421 11.4436 7.49824 11.4436C7.16227 11.4436 6.88991 11.1712 6.88991 10.8352V8.03921C6.88991 7.51293 6.51209 7.08775 6.05756 6.87823C5.58531 6.66055 5.16529 6.33718 4.83211 5.92904C4.33038 5.31441 4.05641 4.54531 4.05657 3.7519Z" fill="#52525B" stroke="white" stroke-width="0.2"/>
</svg>
