<svg width="12" height="12" viewBox="0 0 12 12" fill="none" xmlns="http://www.w3.org/2000/svg">
<path fill-rule="evenodd" clip-rule="evenodd" d="M2.49976 0.166992C2.03563 0.166992 1.59051 0.351367 1.26232 0.679555C0.93413 1.00774 0.749756 1.45286 0.749756 1.91699V10.0837C0.749756 10.5478 0.93413 10.9929 1.26232 11.3211C1.59051 11.6493 2.03563 11.8337 2.49976 11.8337H5.99976C6.46388 11.8337 6.909 11.6493 7.23719 11.3211C7.56538 10.9929 7.74976 10.5478 7.74976 10.0837V1.91699C7.74976 1.45286 7.56538 1.00774 7.23719 0.679555C6.909 0.351367 6.46388 0.166992 5.99976 0.166992H2.49976ZM8.504 3.25458C8.6134 3.14522 8.76174 3.08378 8.91642 3.08378C9.0711 3.08378 9.21945 3.14522 9.32884 3.25458L11.6622 5.58791C11.7715 5.6973 11.833 5.84565 11.833 6.00033C11.833 6.155 11.7715 6.30335 11.6622 6.41274L9.32884 8.74608C9.21882 8.85233 9.07147 8.91113 8.91852 8.9098C8.76557 8.90847 8.61927 8.84712 8.51111 8.73897C8.40296 8.63081 8.34161 8.48451 8.34028 8.33156C8.33895 8.17861 8.39775 8.03126 8.504 7.92124L9.84159 6.58366H4.83309C4.67838 6.58366 4.53001 6.5222 4.42061 6.4128C4.31121 6.30341 4.24976 6.15504 4.24976 6.00033C4.24976 5.84562 4.31121 5.69724 4.42061 5.58785C4.53001 5.47845 4.67838 5.41699 4.83309 5.41699H9.84159L8.504 4.07941C8.39465 3.97002 8.33321 3.82167 8.33321 3.66699C8.33321 3.51231 8.39465 3.36397 8.504 3.25458Z" fill="#EA1B40"/>
</svg>
