<svg width="468" height="524" viewBox="0 0 468 524" fill="none" xmlns="http://www.w3.org/2000/svg">
<path d="M234 523.369L0 394.175V129.524L233.993 0L468 129.524V394.175L234 523.369Z" fill="#EA1B40"/>
<path d="M432.658 366.402C432.667 371.392 431.359 376.295 428.866 380.617C426.373 384.938 422.783 388.525 418.46 391.015L268.924 477.127C268.316 477.488 267.624 477.679 266.918 477.681C266.212 477.683 265.518 477.496 264.909 477.14C264.299 476.783 263.796 476.27 263.452 475.654C263.108 475.037 262.935 474.34 262.952 473.634L263.189 443.576C263.201 442.879 263.391 442.197 263.742 441.594C264.093 440.992 264.592 440.49 265.193 440.136L389.022 369.105C391.462 367.707 393.491 365.69 394.903 363.257C396.315 360.824 397.06 358.062 397.063 355.25V332.944C397.068 331.577 396.714 330.232 396.035 329.045C395.357 327.858 394.379 326.87 393.199 326.18C392.019 325.49 390.678 325.122 389.311 325.113C387.944 325.104 386.599 325.454 385.41 326.128L268.304 392.782C267.695 393.14 267.002 393.329 266.295 393.328C265.589 393.327 264.895 393.138 264.287 392.778C263.679 392.419 263.178 391.903 262.837 391.285C262.495 390.667 262.325 389.968 262.345 389.262L263.479 269.784C263.483 269.085 263.671 268.4 264.025 267.798C264.38 267.196 264.887 266.698 265.496 266.356L426.33 174.496C426.892 174.178 427.527 174.012 428.173 174.017C428.819 174.021 429.452 174.194 430.01 174.52C430.568 174.846 431.03 175.312 431.352 175.872C431.673 176.432 431.841 177.067 431.84 177.713V213.307C431.838 213.96 431.662 214.601 431.33 215.163C430.999 215.726 430.525 216.191 429.955 216.511L303.74 287.185C303.113 287.532 302.591 288.042 302.231 288.662C301.871 289.282 301.686 289.988 301.697 290.705L302 329.872C302.002 329.945 302.022 330.017 302.06 330.08C302.098 330.143 302.151 330.194 302.215 330.23C302.279 330.266 302.351 330.285 302.424 330.285C302.498 330.284 302.569 330.265 302.633 330.228L402.442 273.541C405.507 271.797 408.975 270.89 412.501 270.908C416.027 270.927 419.486 271.871 422.532 273.646C425.578 275.422 428.105 277.966 429.858 281.024C431.612 284.083 432.532 287.548 432.526 291.074L432.658 366.402Z" fill="white"/>
<path d="M356.169 299.68C356.17 299.608 356.151 299.536 356.114 299.474C356.077 299.412 356.024 299.361 355.96 299.327C355.896 299.293 355.824 299.277 355.751 299.281C355.679 299.285 355.609 299.309 355.55 299.35L308.012 327.035C307.386 327.388 306.679 327.572 305.961 327.569C305.243 327.565 304.538 327.374 303.916 327.015C303.294 326.655 302.777 326.14 302.415 325.519C302.054 324.898 301.861 324.194 301.855 323.475L301.591 290.61C301.581 289.893 301.766 289.187 302.126 288.567C302.485 287.947 303.007 287.436 303.635 287.09L351.621 260.223C355.062 258.298 355.576 255.398 355.853 250.586L355.629 230.587C355.181 216.086 355.972 214.306 350.158 217.628L265.43 266.274C264.821 266.616 264.314 267.114 263.959 267.716C263.605 268.318 263.417 269.003 263.413 269.702L262.345 389.206C262.325 389.912 262.495 390.611 262.837 391.229C263.178 391.848 263.679 392.363 264.287 392.723C264.895 393.082 265.589 393.272 266.295 393.272C267.002 393.273 267.695 393.084 268.304 392.726L354.442 343.711C355.055 343.367 355.565 342.865 355.92 342.258C356.274 341.651 356.461 340.961 356.459 340.257C356.328 332.058 356.13 304.413 356.169 299.68Z" fill="#F5E60C"/>
<path d="M173.599 189.884L172.753 190.377L136.236 211.601V428.691V429.769L135.35 429.197L100.671 408.983C100.125 408.671 99.6705 408.218 99.3547 407.671C99.0388 407.124 98.8726 406.502 98.873 405.87V189.884L210.116 125.239L242.111 143.869C242.652 144.187 243.1 144.641 243.412 145.188C243.723 145.734 243.887 146.353 243.887 146.983C243.887 147.613 243.723 148.232 243.412 148.778C243.1 149.324 242.652 149.779 242.111 150.097L210.962 168.128L210.116 168.633L173.599 189.884Z" fill="white"/>
<path d="M392.174 151.504L362.088 169.059L361.246 169.538L324.927 190.705L324.073 191.209L287.754 212.456L286.912 212.947L250.593 234.114L249.778 234.592L213.472 255.839V473.272L212.618 472.86L178.429 452.941C177.798 452.572 177.273 452.041 176.909 451.402C176.544 450.764 176.352 450.04 176.351 449.303V234.38C176.35 234.279 176.376 234.179 176.427 234.093C176.478 234.006 176.552 233.935 176.641 233.888L212.67 212.881L213.512 212.376L249.818 191.209L250.659 190.718L286.978 169.551L287.819 169.059L324.151 147.813L287.819 126.633L286.991 126.141L250.593 105.041L249.778 104.563L213.472 83.316L212.644 82.8379L176.312 104.005L175.47 104.509L139.152 125.676L138.31 126.155L64.8177 169.02V385.709V386.891L63.9498 386.2L29.7612 366.282C29.1298 365.912 28.6055 365.381 28.2409 364.743C27.8763 364.104 27.6841 363.38 27.6836 362.643V147.746C27.6848 147.637 27.7131 147.53 27.7659 147.435C27.8188 147.34 27.8945 147.26 27.986 147.202L64.0024 126.208L64.8308 125.716L101.15 104.536L102.004 104.045L138.31 82.8778L139.152 82.3864L175.457 61.2194L212.631 39.5479L213.472 40.0392L249.804 61.2858L250.62 61.7639L286.952 83.0105L287.78 83.4886L324.112 104.656L324.954 105.16L361.272 126.327L362.114 126.832L392.2 144.36C392.805 144.736 393.305 145.262 393.65 145.889C393.996 146.516 394.176 147.222 394.174 147.94C394.171 148.657 393.986 149.362 393.635 149.986C393.285 150.611 392.782 151.133 392.174 151.504Z" fill="white"/>
</svg>
