<svg width="106" height="11" viewBox="0 0 106 11" fill="none" xmlns="http://www.w3.org/2000/svg">
<mask id="path-1-outside-1_2012_14708" maskUnits="userSpaceOnUse" x="-0.0859375" y="-0.886719" width="107" height="12" fill="black">
<rect fill="white" x="-0.0859375" y="-0.886719" width="107" height="12"/>
<path d="M0.939453 10.1133V0.337891H2.81934L6.13477 7.75488L9.38184 0.337891H11.1934V10.1133H9.51855V3.30469L6.86621 10.1133H5.32129L2.61426 3.30469V10.1133H0.939453ZM13.695 0.337891H19.5329V1.77344H15.2536L15.0896 4.17969C15.3493 4.07943 15.7276 4.0293 16.2243 4.0293C18.6853 4.0293 19.9157 5.0319 19.9157 7.03711C19.9157 9.13346 18.6397 10.1816 16.0876 10.1816C15.1762 10.1816 14.2647 10.0449 13.3532 9.77148V8.26758C14.2647 8.58659 15.1989 8.74609 16.156 8.74609C17.4548 8.74609 18.1042 8.17643 18.1042 7.03711C18.1042 5.98893 17.4776 5.46484 16.2243 5.46484C15.1989 5.46484 14.2419 5.57878 13.3532 5.80664L13.695 0.337891ZM29.5268 9.70312C28.6837 10.0221 27.7267 10.1816 26.6557 10.1816C23.1466 10.1816 21.392 8.48405 21.392 5.08887C21.392 1.87598 23.1466 0.269531 26.6557 0.269531C27.7267 0.269531 28.6837 0.429036 29.5268 0.748047V2.38867C28.6837 2.02409 27.7722 1.8418 26.7924 1.8418C24.4454 1.8418 23.2719 2.92415 23.2719 5.08887C23.2719 7.43587 24.4454 8.60938 26.7924 8.60938C27.7722 8.60938 28.6837 8.42708 29.5268 8.0625V9.70312ZM36.6835 0.337891V8.54102H40.5663V10.1133H34.872V0.337891H36.6835ZM44.1002 5.19824C44.1002 7.47233 45.1096 8.60938 47.1285 8.60938C49.0973 8.60938 50.0816 7.47233 50.0816 5.19824C50.0816 2.96061 49.0973 1.8418 47.1285 1.8418C45.1096 1.8418 44.1002 2.96061 44.1002 5.19824ZM42.2203 5.23926C42.2203 1.92611 43.8564 0.269531 47.1285 0.269531C50.3505 0.269531 51.9615 1.92611 51.9615 5.23926C51.9615 8.53418 50.3505 10.1816 47.1285 10.1816C44.0022 10.1816 42.3661 8.53418 42.2203 5.23926ZM61.7503 9.66211C60.9619 10.0085 59.9752 10.1816 58.7904 10.1816C55.3405 10.1816 53.6155 8.48405 53.6155 5.08887C53.6155 1.87598 55.3701 0.269531 58.8792 0.269531C59.9502 0.269531 60.9072 0.429036 61.7503 0.748047V2.38867C60.9072 2.02409 59.9958 1.8418 59.0159 1.8418C56.6689 1.8418 55.4954 2.92415 55.4954 5.08887C55.4954 7.43587 56.6029 8.60938 58.8177 8.60938C59.1458 8.60938 59.5195 8.55469 59.9388 8.44531V5.60156H61.7503V9.66211ZM65.5508 0.337891V10.1133H63.7393V0.337891H65.5508ZM67.7175 9.70312V8.0625C68.6974 8.42708 69.8048 8.60938 71.0398 8.60938C72.5392 8.60938 73.2888 8.10807 73.2888 7.10547C73.2888 6.3763 72.8285 6.01172 71.908 6.01172H70.3767C68.3761 6.01172 67.3757 5.10026 67.3757 3.27734C67.3757 1.27214 68.7999 0.269531 71.6482 0.269531C72.742 0.269531 73.7787 0.429036 74.7586 0.748047V2.38867C73.7787 2.02409 72.742 1.8418 71.6482 1.8418C70.0076 1.8418 69.1873 2.32031 69.1873 3.27734C69.1873 4.00651 69.5837 4.37109 70.3767 4.37109H71.908C74.0362 4.37109 75.1003 5.28255 75.1003 7.10547C75.1003 9.15625 73.7468 10.1816 71.0398 10.1816C69.8048 10.1816 68.6974 10.0221 67.7175 9.70312ZM83.31 0.337891V1.91016H80.5073V10.1133H78.6958V1.91016H75.893V0.337891H83.31ZM86.4338 0.337891V10.1133H84.6223V0.337891H86.4338ZM96.5644 9.70312C95.7213 10.0221 94.7642 10.1816 93.6933 10.1816C90.1842 10.1816 88.4296 8.48405 88.4296 5.08887C88.4296 1.87598 90.1842 0.269531 93.6933 0.269531C94.7642 0.269531 95.7213 0.429036 96.5644 0.748047V2.38867C95.7213 2.02409 94.8098 1.8418 93.83 1.8418C91.483 1.8418 90.3095 2.92415 90.3095 5.08887C90.3095 7.43587 91.483 8.60938 93.83 8.60938C94.8098 8.60938 95.7213 8.42708 96.5644 8.0625V9.70312ZM98.3825 9.70312V8.0625C99.3623 8.42708 100.47 8.60938 101.705 8.60938C103.204 8.60938 103.954 8.10807 103.954 7.10547C103.954 6.3763 103.493 6.01172 102.573 6.01172H101.042C99.041 6.01172 98.0407 5.10026 98.0407 3.27734C98.0407 1.27214 99.4648 0.269531 102.313 0.269531C103.407 0.269531 104.444 0.429036 105.423 0.748047V2.38867C104.444 2.02409 103.407 1.8418 102.313 1.8418C100.673 1.8418 99.8522 2.32031 99.8522 3.27734C99.8522 4.00651 100.249 4.37109 101.042 4.37109H102.573C104.701 4.37109 105.765 5.28255 105.765 7.10547C105.765 9.15625 104.412 10.1816 101.705 10.1816C100.47 10.1816 99.3623 10.0221 98.3825 9.70312Z"/>
</mask>
<path d="M0.939453 10.1133V0.337891H2.81934L6.13477 7.75488L9.38184 0.337891H11.1934V10.1133H9.51855V3.30469L6.86621 10.1133H5.32129L2.61426 3.30469V10.1133H0.939453ZM13.695 0.337891H19.5329V1.77344H15.2536L15.0896 4.17969C15.3493 4.07943 15.7276 4.0293 16.2243 4.0293C18.6853 4.0293 19.9157 5.0319 19.9157 7.03711C19.9157 9.13346 18.6397 10.1816 16.0876 10.1816C15.1762 10.1816 14.2647 10.0449 13.3532 9.77148V8.26758C14.2647 8.58659 15.1989 8.74609 16.156 8.74609C17.4548 8.74609 18.1042 8.17643 18.1042 7.03711C18.1042 5.98893 17.4776 5.46484 16.2243 5.46484C15.1989 5.46484 14.2419 5.57878 13.3532 5.80664L13.695 0.337891ZM29.5268 9.70312C28.6837 10.0221 27.7267 10.1816 26.6557 10.1816C23.1466 10.1816 21.392 8.48405 21.392 5.08887C21.392 1.87598 23.1466 0.269531 26.6557 0.269531C27.7267 0.269531 28.6837 0.429036 29.5268 0.748047V2.38867C28.6837 2.02409 27.7722 1.8418 26.7924 1.8418C24.4454 1.8418 23.2719 2.92415 23.2719 5.08887C23.2719 7.43587 24.4454 8.60938 26.7924 8.60938C27.7722 8.60938 28.6837 8.42708 29.5268 8.0625V9.70312ZM36.6835 0.337891V8.54102H40.5663V10.1133H34.872V0.337891H36.6835ZM44.1002 5.19824C44.1002 7.47233 45.1096 8.60938 47.1285 8.60938C49.0973 8.60938 50.0816 7.47233 50.0816 5.19824C50.0816 2.96061 49.0973 1.8418 47.1285 1.8418C45.1096 1.8418 44.1002 2.96061 44.1002 5.19824ZM42.2203 5.23926C42.2203 1.92611 43.8564 0.269531 47.1285 0.269531C50.3505 0.269531 51.9615 1.92611 51.9615 5.23926C51.9615 8.53418 50.3505 10.1816 47.1285 10.1816C44.0022 10.1816 42.3661 8.53418 42.2203 5.23926ZM61.7503 9.66211C60.9619 10.0085 59.9752 10.1816 58.7904 10.1816C55.3405 10.1816 53.6155 8.48405 53.6155 5.08887C53.6155 1.87598 55.3701 0.269531 58.8792 0.269531C59.9502 0.269531 60.9072 0.429036 61.7503 0.748047V2.38867C60.9072 2.02409 59.9958 1.8418 59.0159 1.8418C56.6689 1.8418 55.4954 2.92415 55.4954 5.08887C55.4954 7.43587 56.6029 8.60938 58.8177 8.60938C59.1458 8.60938 59.5195 8.55469 59.9388 8.44531V5.60156H61.7503V9.66211ZM65.5508 0.337891V10.1133H63.7393V0.337891H65.5508ZM67.7175 9.70312V8.0625C68.6974 8.42708 69.8048 8.60938 71.0398 8.60938C72.5392 8.60938 73.2888 8.10807 73.2888 7.10547C73.2888 6.3763 72.8285 6.01172 71.908 6.01172H70.3767C68.3761 6.01172 67.3757 5.10026 67.3757 3.27734C67.3757 1.27214 68.7999 0.269531 71.6482 0.269531C72.742 0.269531 73.7787 0.429036 74.7586 0.748047V2.38867C73.7787 2.02409 72.742 1.8418 71.6482 1.8418C70.0076 1.8418 69.1873 2.32031 69.1873 3.27734C69.1873 4.00651 69.5837 4.37109 70.3767 4.37109H71.908C74.0362 4.37109 75.1003 5.28255 75.1003 7.10547C75.1003 9.15625 73.7468 10.1816 71.0398 10.1816C69.8048 10.1816 68.6974 10.0221 67.7175 9.70312ZM83.31 0.337891V1.91016H80.5073V10.1133H78.6958V1.91016H75.893V0.337891H83.31ZM86.4338 0.337891V10.1133H84.6223V0.337891H86.4338ZM96.5644 9.70312C95.7213 10.0221 94.7642 10.1816 93.6933 10.1816C90.1842 10.1816 88.4296 8.48405 88.4296 5.08887C88.4296 1.87598 90.1842 0.269531 93.6933 0.269531C94.7642 0.269531 95.7213 0.429036 96.5644 0.748047V2.38867C95.7213 2.02409 94.8098 1.8418 93.83 1.8418C91.483 1.8418 90.3095 2.92415 90.3095 5.08887C90.3095 7.43587 91.483 8.60938 93.83 8.60938C94.8098 8.60938 95.7213 8.42708 96.5644 8.0625V9.70312ZM98.3825 9.70312V8.0625C99.3623 8.42708 100.47 8.60938 101.705 8.60938C103.204 8.60938 103.954 8.10807 103.954 7.10547C103.954 6.3763 103.493 6.01172 102.573 6.01172H101.042C99.041 6.01172 98.0407 5.10026 98.0407 3.27734C98.0407 1.27214 99.4648 0.269531 102.313 0.269531C103.407 0.269531 104.444 0.429036 105.423 0.748047V2.38867C104.444 2.02409 103.407 1.8418 102.313 1.8418C100.673 1.8418 99.8522 2.32031 99.8522 3.27734C99.8522 4.00651 100.249 4.37109 101.042 4.37109H102.573C104.701 4.37109 105.765 5.28255 105.765 7.10547C105.765 9.15625 104.412 10.1816 101.705 10.1816C100.47 10.1816 99.3623 10.0221 98.3825 9.70312Z" fill="#2D3748"/>
<path d="M0.939453 10.1133H0.739453V10.3133H0.939453V10.1133ZM0.939453 0.337891V0.137891H0.739453V0.337891H0.939453ZM2.81934 0.337891L3.00192 0.256273L2.94901 0.137891H2.81934V0.337891ZM6.13477 7.75488L5.95218 7.8365L6.13667 8.24923L6.31798 7.83509L6.13477 7.75488ZM9.38184 0.337891V0.137891H9.25107L9.19862 0.257683L9.38184 0.337891ZM11.1934 0.337891H11.3934V0.137891H11.1934V0.337891ZM11.1934 10.1133V10.3133H11.3934V10.1133H11.1934ZM9.51855 10.1133H9.31855V10.3133H9.51855V10.1133ZM9.51855 3.30469H9.71855L9.3322 3.23209L9.51855 3.30469ZM6.86621 10.1133V10.3133H7.00294L7.05257 10.1859L6.86621 10.1133ZM5.32129 10.1133L5.13544 10.1872L5.18558 10.3133H5.32129V10.1133ZM2.61426 3.30469L2.80011 3.2308L2.41426 3.30469H2.61426ZM2.61426 10.1133V10.3133H2.81426V10.1133H2.61426ZM1.13945 10.1133V0.337891H0.739453V10.1133H1.13945ZM0.939453 0.537891H2.81934V0.137891H0.939453V0.537891ZM2.63675 0.419508L5.95218 7.8365L6.31735 7.67326L3.00192 0.256273L2.63675 0.419508ZM6.31798 7.83509L9.56505 0.418099L9.19862 0.257683L5.95155 7.67467L6.31798 7.83509ZM9.38184 0.537891H11.1934V0.137891H9.38184V0.537891ZM10.9934 0.337891V10.1133H11.3934V0.337891H10.9934ZM11.1934 9.91328H9.51855V10.3133H11.1934V9.91328ZM9.71855 10.1133V3.30469H9.31855V10.1133H9.71855ZM9.3322 3.23209L6.67985 10.0407L7.05257 10.1859L9.70491 3.37729L9.3322 3.23209ZM6.86621 9.91328H5.32129V10.3133H6.86621V9.91328ZM5.50714 10.0394L2.80011 3.2308L2.42841 3.37858L5.13544 10.1872L5.50714 10.0394ZM2.41426 3.30469V10.1133H2.81426V3.30469H2.41426ZM2.61426 9.91328H0.939453V10.3133H2.61426V9.91328ZM13.695 0.337891V0.137891H13.5071L13.4954 0.325415L13.695 0.337891ZM19.5329 0.337891H19.7329V0.137891H19.5329V0.337891ZM19.5329 1.77344V1.97344H19.7329V1.77344H19.5329ZM15.2536 1.77344V1.57344H15.0668L15.0541 1.75983L15.2536 1.77344ZM15.0896 4.17969L14.89 4.16608L14.8687 4.47932L15.1616 4.36627L15.0896 4.17969ZM13.3532 9.77148H13.1532V9.92029L13.2958 9.96305L13.3532 9.77148ZM13.3532 8.26758L13.4193 8.07881L13.1532 7.98568V8.26758H13.3532ZM13.3532 5.80664L13.1536 5.79416L13.1365 6.06869L13.4029 6.00037L13.3532 5.80664ZM13.695 0.537891H19.5329V0.137891H13.695V0.537891ZM19.3329 0.337891V1.77344H19.7329V0.337891H19.3329ZM19.5329 1.57344H15.2536V1.97344H19.5329V1.57344ZM15.0541 1.75983L14.89 4.16608L15.2891 4.19329L15.4532 1.78704L15.0541 1.75983ZM15.1616 4.36627C15.387 4.27928 15.736 4.2293 16.2243 4.2293V3.8293C15.7192 3.8293 15.3117 3.87958 15.0176 3.9931L15.1616 4.36627ZM16.2243 4.2293C17.4328 4.2293 18.302 4.47629 18.8666 4.9363C19.4233 5.38992 19.7157 6.07739 19.7157 7.03711H20.1157C20.1157 5.99162 19.793 5.17518 19.1192 4.6262C18.4533 4.08361 17.4768 3.8293 16.2243 3.8293V4.2293ZM19.7157 7.03711C19.7157 8.04295 19.4115 8.76473 18.8318 9.24096C18.2445 9.72338 17.3413 9.98164 16.0876 9.98164V10.3816C17.386 10.3816 18.3969 10.1158 19.0857 9.55005C19.7819 8.97811 20.1157 8.12763 20.1157 7.03711H19.7157ZM16.0876 9.98164C15.1965 9.98164 14.3044 9.84801 13.4107 9.57992L13.2958 9.96305C14.225 10.2418 15.1559 10.3816 16.0876 10.3816V9.98164ZM13.5532 9.77148V8.26758H13.1532V9.77148H13.5532ZM13.2872 8.45635C14.2197 8.78272 15.1762 8.94609 16.156 8.94609V8.54609C15.2216 8.54609 14.3097 8.39045 13.4193 8.07881L13.2872 8.45635ZM16.156 8.94609C16.8302 8.94609 17.3733 8.79879 17.749 8.4692C18.1298 8.13522 18.3042 7.6449 18.3042 7.03711H17.9042C17.9042 7.56864 17.7539 7.93282 17.4853 8.1685C17.2116 8.40856 16.7805 8.54609 16.156 8.54609V8.94609ZM18.3042 7.03711C18.3042 6.47187 18.1336 6.01479 17.7626 5.70449C17.3984 5.39993 16.8739 5.26484 16.2243 5.26484V5.66484C16.828 5.66484 17.2435 5.7918 17.5059 6.01133C17.7616 6.22512 17.9042 6.55417 17.9042 7.03711H18.3042ZM16.2243 5.26484C15.1841 5.26484 14.2102 5.38043 13.3036 5.61291L13.4029 6.00037C14.2736 5.77713 15.2138 5.66484 16.2243 5.66484V5.26484ZM13.5529 5.81912L13.8946 0.350366L13.4954 0.325415L13.1536 5.79416L13.5529 5.81912ZM29.5268 9.70312L29.5976 9.89018L29.7268 9.84129V9.70312H29.5268ZM29.5268 0.748047H29.7268V0.609884L29.5976 0.56099L29.5268 0.748047ZM29.5268 2.38867L29.4474 2.57224L29.7268 2.69306V2.38867H29.5268ZM29.5268 8.0625H29.7268V7.75811L29.4474 7.87893L29.5268 8.0625ZM29.456 9.51607C28.6393 9.82508 27.7069 9.98164 26.6557 9.98164V10.3816C27.7464 10.3816 28.728 10.2192 29.5976 9.89018L29.456 9.51607ZM26.6557 9.98164C24.9304 9.98164 23.6734 9.56423 22.847 8.76471C22.0219 7.96638 21.592 6.75392 21.592 5.08887H21.192C21.192 6.819 21.6394 8.15293 22.5689 9.05218C23.4971 9.95025 24.8719 10.3816 26.6557 10.3816V9.98164ZM21.592 5.08887C21.592 3.51801 22.0201 2.37528 22.843 1.62188C23.6692 0.865411 24.9278 0.469531 26.6557 0.469531V0.0695312C24.8745 0.0695312 23.5012 0.476874 22.5729 1.32685C21.6412 2.17989 21.192 3.44683 21.192 5.08887H21.592ZM26.6557 0.469531C27.7069 0.469531 28.6393 0.626094 29.456 0.935104L29.5976 0.56099C28.728 0.231979 27.7464 0.0695312 26.6557 0.0695312V0.469531ZM29.3268 0.748047V2.38867H29.7268V0.748047H29.3268ZM29.6062 2.2051C28.7364 1.82897 27.7977 1.6418 26.7924 1.6418V2.0418C27.7468 2.0418 28.631 2.21921 29.4474 2.57224L29.6062 2.2051ZM26.7924 1.6418C25.5919 1.6418 24.6543 1.91827 24.0164 2.50655C23.3756 3.09764 23.0719 3.97134 23.0719 5.08887H23.4719C23.4719 4.04168 23.755 3.29184 24.2876 2.80058C24.8233 2.3065 25.6459 2.0418 26.7924 2.0418V1.6418ZM23.0719 5.08887C23.0719 6.2932 23.3731 7.23318 24.0106 7.87067C24.6481 8.50816 25.5881 8.80937 26.7924 8.80937V8.40938C25.6497 8.40938 24.8295 8.12384 24.2935 7.58783C23.7574 7.05181 23.4719 6.23154 23.4719 5.08887H23.0719ZM26.7924 8.80937C27.7977 8.80937 28.7364 8.6222 29.6062 8.24607L29.4474 7.87893C28.631 8.23196 27.7468 8.40938 26.7924 8.40938V8.80937ZM29.3268 8.0625V9.70312H29.7268V8.0625H29.3268ZM36.6835 0.337891H36.8835V0.137891H36.6835V0.337891ZM36.6835 8.54102H36.4835V8.74102H36.6835V8.54102ZM40.5663 8.54102H40.7663V8.34102H40.5663V8.54102ZM40.5663 10.1133V10.3133H40.7663V10.1133H40.5663ZM34.872 10.1133H34.672V10.3133H34.872V10.1133ZM34.872 0.337891V0.137891H34.672V0.337891H34.872ZM36.4835 0.337891V8.54102H36.8835V0.337891H36.4835ZM36.6835 8.74102H40.5663V8.34102H36.6835V8.74102ZM40.3663 8.54102V10.1133H40.7663V8.54102H40.3663ZM40.5663 9.91328H34.872V10.3133H40.5663V9.91328ZM35.072 10.1133V0.337891H34.672V10.1133H35.072ZM34.872 0.537891H36.6835V0.137891H34.872V0.537891ZM42.2203 5.23926H42.0201L42.0205 5.2481L42.2203 5.23926ZM43.9002 5.19824C43.9002 6.36064 44.1577 7.2698 44.7077 7.88937C45.2618 8.51349 46.0817 8.80937 47.1285 8.80937V8.40938C46.1565 8.40938 45.4622 8.13674 45.0068 7.62381C44.5474 7.10634 44.3002 6.30993 44.3002 5.19824H43.9002ZM47.1285 8.80937C48.1518 8.80937 48.9535 8.51253 49.4946 7.8875C50.0309 7.26798 50.2816 6.35961 50.2816 5.19824H49.8816C49.8816 6.31096 49.6402 7.10816 49.1922 7.62569C48.7489 8.1377 48.0739 8.40938 47.1285 8.40938V8.80937ZM50.2816 5.19824C50.2816 4.05445 50.0306 3.15924 49.4935 2.5488C48.9521 1.93346 48.1508 1.6418 47.1285 1.6418V2.0418C48.0749 2.0418 48.7502 2.30954 49.1932 2.81302C49.6405 3.32139 49.8816 4.10441 49.8816 5.19824H50.2816ZM47.1285 1.6418C46.0826 1.6418 45.2631 1.93254 44.7088 2.54693C44.158 3.15741 43.9002 4.05339 43.9002 5.19824H44.3002C44.3002 4.10546 44.5471 3.32322 45.0058 2.81488C45.4609 2.31046 46.1555 2.0418 47.1285 2.0418V1.6418ZM42.4203 5.23926C42.4203 3.61289 42.8218 2.42997 43.5897 1.6525C44.3571 0.87549 45.5239 0.469531 47.1285 0.469531V0.0695312C45.461 0.0695312 44.1737 0.49186 43.3051 1.37143C42.4368 2.25053 42.0203 3.55248 42.0203 5.23926H42.4203ZM47.1285 0.469531C48.7073 0.469531 49.8549 0.875049 50.6099 1.6514C51.3659 2.42878 51.7615 3.61213 51.7615 5.23926H52.1615C52.1615 3.55323 51.7517 2.25172 50.8967 1.37253C50.0406 0.492301 48.7718 0.0695312 47.1285 0.0695312V0.469531ZM51.7615 5.23926C51.7615 6.857 51.366 8.03336 50.6103 8.80621C49.8553 9.57824 48.7075 9.98164 47.1285 9.98164V10.3816C48.7715 10.3816 50.0402 9.96131 50.8963 9.08588C51.7515 8.21127 52.1615 6.91644 52.1615 5.23926H51.7615ZM47.1285 9.98164C45.5996 9.98164 44.4676 9.57939 43.6987 8.80511C42.928 8.02909 42.4918 6.84898 42.4201 5.23041L42.0205 5.2481C42.0947 6.92446 42.5494 8.21554 43.4148 9.08698C44.282 9.96016 45.5311 10.3816 47.1285 10.3816V9.98164ZM61.7503 9.66211L61.8308 9.84522L61.9503 9.7927V9.66211H61.7503ZM61.7503 0.748047H61.9503V0.609884L61.8211 0.56099L61.7503 0.748047ZM61.7503 2.38867L61.6709 2.57224L61.9503 2.69306V2.38867H61.7503ZM59.9388 8.44531L59.9893 8.63884L60.1388 8.59983V8.44531H59.9388ZM59.9388 5.60156V5.40156H59.7388V5.60156H59.9388ZM61.7503 5.60156H61.9503V5.40156H61.7503V5.60156ZM61.6699 9.479C60.9144 9.81086 59.9573 9.98164 58.7904 9.98164V10.3816C59.9932 10.3816 61.0094 10.2061 61.8308 9.84522L61.6699 9.479ZM58.7904 9.98164C57.0955 9.98164 55.8612 9.56466 55.0495 8.7659C54.2385 7.96772 53.8155 6.75481 53.8155 5.08887H53.4155C53.4155 6.8181 53.8551 8.15158 54.769 9.05099C55.6823 9.94982 57.0354 10.3816 58.7904 10.3816V9.98164ZM53.8155 5.08887C53.8155 3.51801 54.2437 2.37528 55.0665 1.62188C55.8927 0.865411 57.1513 0.469531 58.8792 0.469531V0.0695312C57.098 0.0695312 55.7248 0.476874 54.7964 1.32685C53.8647 2.17989 53.4155 3.44683 53.4155 5.08887H53.8155ZM58.8792 0.469531C59.9304 0.469531 60.8629 0.626094 61.6795 0.935104L61.8211 0.56099C60.9516 0.231979 59.9699 0.0695312 58.8792 0.0695312V0.469531ZM61.5503 0.748047V2.38867H61.9503V0.748047H61.5503ZM61.8297 2.2051C60.9599 1.82897 60.0212 1.6418 59.0159 1.6418V2.0418C59.9703 2.0418 60.8545 2.21921 61.6709 2.57224L61.8297 2.2051ZM59.0159 1.6418C57.8154 1.6418 56.8778 1.91827 56.24 2.50655C55.5991 3.09764 55.2954 3.97134 55.2954 5.08887H55.6954C55.6954 4.04168 55.9785 3.29184 56.5112 2.80058C57.0468 2.3065 57.8694 2.0418 59.0159 2.0418V1.6418ZM55.2954 5.08887C55.2954 6.2904 55.5787 7.22874 56.1805 7.86652C56.7845 8.50646 57.6764 8.80937 58.8177 8.80937V8.40938C57.7442 8.40938 56.975 8.12554 56.4715 7.59198C55.9659 7.05625 55.6954 6.23434 55.6954 5.08887H55.2954ZM58.8177 8.80937C59.1673 8.80937 59.5584 8.75123 59.9893 8.63884L59.8883 8.25179C59.4806 8.35815 59.1244 8.40938 58.8177 8.40938V8.80937ZM60.1388 8.44531V5.60156H59.7388V8.44531H60.1388ZM59.9388 5.80156H61.7503V5.40156H59.9388V5.80156ZM61.5503 5.60156V9.66211H61.9503V5.60156H61.5503ZM65.5508 0.337891H65.7508V0.137891H65.5508V0.337891ZM65.5508 10.1133V10.3133H65.7508V10.1133H65.5508ZM63.7393 10.1133H63.5393V10.3133H63.7393V10.1133ZM63.7393 0.337891V0.137891H63.5393V0.337891H63.7393ZM65.3508 0.337891V10.1133H65.7508V0.337891H65.3508ZM65.5508 9.91328H63.7393V10.3133H65.5508V9.91328ZM63.9393 10.1133V0.337891H63.5393V10.1133H63.9393ZM63.7393 0.537891H65.5508V0.137891H63.7393V0.537891ZM67.7175 9.70312H67.5175V9.84834L67.6556 9.8933L67.7175 9.70312ZM67.7175 8.0625L67.7873 7.87506L67.5175 7.77468V8.0625H67.7175ZM74.7586 0.748047H74.9585V0.60283L74.8205 0.557873L74.7586 0.748047ZM74.7586 2.38867L74.6888 2.57612L74.9585 2.67649V2.38867H74.7586ZM67.9175 9.70312V8.0625H67.5175V9.70312H67.9175ZM67.6478 8.24994C68.6536 8.62419 69.7852 8.80937 71.0398 8.80937V8.40938C69.8244 8.40938 68.7411 8.22998 67.7873 7.87506L67.6478 8.24994ZM71.0398 8.80937C71.8055 8.80937 72.4147 8.68252 72.8377 8.39965C73.275 8.10726 73.4888 7.66477 73.4888 7.10547H73.0888C73.0888 7.54877 72.9278 7.85823 72.6154 8.06714C72.2887 8.28558 71.7735 8.40938 71.0398 8.40938V8.80937ZM73.4888 7.10547C73.4888 6.69605 73.3573 6.35767 73.0678 6.12838C72.7872 5.90613 72.3893 5.81172 71.908 5.81172V6.21172C72.3472 6.21172 72.6397 6.2996 72.8194 6.44193C72.9902 6.57723 73.0888 6.78572 73.0888 7.10547H73.4888ZM71.908 5.81172H70.3767V6.21172H71.908V5.81172ZM70.3767 5.81172C69.4029 5.81172 68.7098 5.58948 68.2607 5.18029C67.8151 4.77431 67.5757 4.15293 67.5757 3.27734H67.1757C67.1757 4.22467 67.4365 4.97048 67.9913 5.47596C68.5425 5.97822 69.3499 6.21172 70.3767 6.21172V5.81172ZM67.5757 3.27734C67.5757 2.32847 67.9088 1.64278 68.559 1.18502C69.222 0.718231 70.2414 0.469531 71.6482 0.469531V0.0695312C70.2067 0.0695312 69.0898 0.322133 68.3287 0.857946C67.5548 1.40279 67.1757 2.22101 67.1757 3.27734H67.5757ZM71.6482 0.469531C72.7222 0.469531 73.738 0.62611 74.6966 0.938221L74.8205 0.557873C73.8195 0.231963 72.7617 0.0695312 71.6482 0.0695312V0.469531ZM74.5586 0.748047V2.38867H74.9585V0.748047H74.5586ZM74.8283 2.20123C73.8251 1.82796 72.7646 1.6418 71.6482 1.6418V2.0418C72.7193 2.0418 73.7323 2.22022 74.6888 2.57612L74.8283 2.20123ZM71.6482 1.6418C70.815 1.6418 70.1573 1.76215 69.7017 2.02793C69.2295 2.30337 68.9873 2.72838 68.9873 3.27734H69.3873C69.3873 2.86928 69.5551 2.57651 69.9033 2.37344C70.268 2.1607 70.8408 2.0418 71.6482 2.0418V1.6418ZM68.9873 3.27734C68.9873 3.67727 69.0968 4.01271 69.3493 4.24488C69.5986 4.47413 69.9534 4.57109 70.3767 4.57109V4.17109C70.0071 4.17109 69.7672 4.08577 69.62 3.95044C69.476 3.81802 69.3873 3.60659 69.3873 3.27734H68.9873ZM70.3767 4.57109H71.908V4.17109H70.3767V4.57109ZM71.908 4.57109C72.9482 4.57109 73.691 4.7945 74.1721 5.20658C74.6473 5.61359 74.9004 6.23363 74.9004 7.10547H75.3003C75.3003 6.15439 75.0213 5.40724 74.4324 4.90279C73.8493 4.40342 72.996 4.17109 71.908 4.17109V4.57109ZM74.9004 7.10547C74.9004 8.08281 74.5807 8.7863 73.9644 9.25318C73.3377 9.728 72.3738 9.98164 71.0398 9.98164V10.3816C72.4129 10.3816 73.4792 10.1226 74.206 9.57202C74.9432 9.01351 75.3003 8.17891 75.3003 7.10547H74.9004ZM71.0398 9.98164C69.8218 9.98164 68.7358 9.82431 67.7795 9.51295L67.6556 9.8933C68.6589 10.22 69.7878 10.3816 71.0398 10.3816V9.98164ZM83.31 0.337891H83.51V0.137891H83.31V0.337891ZM83.31 1.91016V2.11016H83.51V1.91016H83.31ZM80.5073 1.91016V1.71016H80.3073V1.91016H80.5073ZM80.5073 10.1133V10.3133H80.7073V10.1133H80.5073ZM78.6958 10.1133H78.4958V10.3133H78.6958V10.1133ZM78.6958 1.91016H78.8958V1.71016H78.6958V1.91016ZM75.893 1.91016H75.693V2.11016H75.893V1.91016ZM75.893 0.337891V0.137891H75.693V0.337891H75.893ZM83.11 0.337891V1.91016H83.51V0.337891H83.11ZM83.31 1.71016H80.5073V2.11016H83.31V1.71016ZM80.3073 1.91016V10.1133H80.7073V1.91016H80.3073ZM80.5073 9.91328H78.6958V10.3133H80.5073V9.91328ZM78.8958 10.1133V1.91016H78.4958V10.1133H78.8958ZM78.6958 1.71016H75.893V2.11016H78.6958V1.71016ZM76.093 1.91016V0.337891H75.693V1.91016H76.093ZM75.893 0.537891H83.31V0.137891H75.893V0.537891ZM86.4338 0.337891H86.6338V0.137891H86.4338V0.337891ZM86.4338 10.1133V10.3133H86.6338V10.1133H86.4338ZM84.6223 10.1133H84.4223V10.3133H84.6223V10.1133ZM84.6223 0.337891V0.137891H84.4223V0.337891H84.6223ZM86.2338 0.337891V10.1133H86.6338V0.337891H86.2338ZM86.4338 9.91328H84.6223V10.3133H86.4338V9.91328ZM84.8223 10.1133V0.337891H84.4223V10.1133H84.8223ZM84.6223 0.537891H86.4338V0.137891H84.6223V0.537891ZM96.5644 9.70312L96.6352 9.89018L96.7644 9.84129V9.70312H96.5644ZM96.5644 0.748047H96.7644V0.609884L96.6352 0.56099L96.5644 0.748047ZM96.5644 2.38867L96.485 2.57224L96.7644 2.69306V2.38867H96.5644ZM96.5644 8.0625H96.7644V7.75811L96.485 7.87893L96.5644 8.0625ZM96.4936 9.51607C95.6769 9.82508 94.7445 9.98164 93.6933 9.98164V10.3816C94.784 10.3816 95.7656 10.2192 96.6352 9.89018L96.4936 9.51607ZM93.6933 9.98164C91.9679 9.98164 90.7109 9.56423 89.8846 8.76471C89.0595 7.96638 88.6296 6.75392 88.6296 5.08887H88.2296C88.2296 6.819 88.677 8.15293 89.6065 9.05218C90.5347 9.95025 91.9095 10.3816 93.6933 10.3816V9.98164ZM88.6296 5.08887C88.6296 3.51801 89.0577 2.37528 89.8806 1.62188C90.7068 0.865411 91.9654 0.469531 93.6933 0.469531V0.0695312C91.9121 0.0695312 90.5388 0.476874 89.6105 1.32685C88.6788 2.17989 88.2296 3.44683 88.2296 5.08887H88.6296ZM93.6933 0.469531C94.7445 0.469531 95.6769 0.626094 96.4936 0.935104L96.6352 0.56099C95.7656 0.231979 94.784 0.0695312 93.6933 0.0695312V0.469531ZM96.3644 0.748047V2.38867H96.7644V0.748047H96.3644ZM96.6438 2.2051C95.774 1.82897 94.8353 1.6418 93.83 1.6418V2.0418C94.7844 2.0418 95.6686 2.21921 96.485 2.57224L96.6438 2.2051ZM93.83 1.6418C92.6295 1.6418 91.6918 1.91827 91.054 2.50655C90.4132 3.09764 90.1095 3.97134 90.1095 5.08887H90.5095C90.5095 4.04168 90.7926 3.29184 91.3252 2.80058C91.8609 2.3065 92.6835 2.0418 93.83 2.0418V1.6418ZM90.1095 5.08887C90.1095 6.2932 90.4107 7.23318 91.0482 7.87067C91.6857 8.50816 92.6257 8.80937 93.83 8.80937V8.40938C92.6873 8.40938 91.8671 8.12384 91.331 7.58783C90.795 7.05181 90.5095 6.23154 90.5095 5.08887H90.1095ZM93.83 8.80937C94.8353 8.80937 95.774 8.6222 96.6438 8.24607L96.485 7.87893C95.6686 8.23196 94.7844 8.40938 93.83 8.40938V8.80937ZM96.3644 8.0625V9.70312H96.7644V8.0625H96.3644ZM98.3825 9.70312H98.1825V9.84834L98.3205 9.8933L98.3825 9.70312ZM98.3825 8.0625L98.4522 7.87506L98.1825 7.77468V8.0625H98.3825ZM105.423 0.748047H105.623V0.60283L105.485 0.557873L105.423 0.748047ZM105.423 2.38867L105.354 2.57612L105.623 2.67649V2.38867H105.423ZM98.5825 9.70312V8.0625H98.1825V9.70312H98.5825ZM98.3127 8.24994C99.3185 8.62419 100.45 8.80937 101.705 8.80937V8.40938C100.489 8.40938 99.4061 8.22998 98.4522 7.87506L98.3127 8.24994ZM101.705 8.80937C102.47 8.80937 103.08 8.68252 103.503 8.39965C103.94 8.10726 104.154 7.66477 104.154 7.10547H103.754C103.754 7.54877 103.593 7.85823 103.28 8.06714C102.954 8.28558 102.438 8.40938 101.705 8.40938V8.80937ZM104.154 7.10547C104.154 6.69605 104.022 6.35767 103.733 6.12838C103.452 5.90613 103.054 5.81172 102.573 5.81172V6.21172C103.012 6.21172 103.305 6.2996 103.484 6.44193C103.655 6.57723 103.754 6.78572 103.754 7.10547H104.154ZM102.573 5.81172H101.042V6.21172H102.573V5.81172ZM101.042 5.81172C100.068 5.81172 99.3747 5.58948 98.9256 5.18029C98.48 4.77431 98.2407 4.15293 98.2407 3.27734H97.8407C97.8407 4.22467 98.1014 4.97048 98.6562 5.47596C99.2074 5.97822 100.015 6.21172 101.042 6.21172V5.81172ZM98.2407 3.27734C98.2407 2.32847 98.5737 1.64278 99.2239 1.18502C99.887 0.718231 100.906 0.469531 102.313 0.469531V0.0695312C100.872 0.0695312 99.7547 0.322133 98.9937 0.857946C98.2197 1.40279 97.8407 2.22101 97.8407 3.27734H98.2407ZM102.313 0.469531C103.387 0.469531 104.403 0.62611 105.362 0.938221L105.485 0.557873C104.484 0.231963 103.427 0.0695312 102.313 0.0695312V0.469531ZM105.223 0.748047V2.38867H105.623V0.748047H105.223ZM105.493 2.20123C104.49 1.82796 103.43 1.6418 102.313 1.6418V2.0418C103.384 2.0418 104.397 2.22022 105.354 2.57612L105.493 2.20123ZM102.313 1.6418C101.48 1.6418 100.822 1.76215 100.367 2.02793C99.8945 2.30337 99.6522 2.72838 99.6522 3.27734H100.052C100.052 2.86928 100.22 2.57651 100.568 2.37344C100.933 2.1607 101.506 2.0418 102.313 2.0418V1.6418ZM99.6522 3.27734C99.6522 3.67727 99.7617 4.01271 100.014 4.24488C100.263 4.47413 100.618 4.57109 101.042 4.57109V4.17109C100.672 4.17109 100.432 4.08577 100.285 3.95044C100.141 3.81802 100.052 3.60659 100.052 3.27734H99.6522ZM101.042 4.57109H102.573V4.17109H101.042V4.57109ZM102.573 4.57109C103.613 4.57109 104.356 4.7945 104.837 5.20658C105.312 5.61359 105.565 6.23363 105.565 7.10547H105.965C105.965 6.15439 105.686 5.40724 105.097 4.90279C104.514 4.40342 103.661 4.17109 102.573 4.17109V4.57109ZM105.565 7.10547C105.565 8.08281 105.246 8.7863 104.629 9.25318C104.003 9.728 103.039 9.98164 101.705 9.98164V10.3816C103.078 10.3816 104.144 10.1226 104.871 9.57202C105.608 9.01351 105.965 8.17891 105.965 7.10547H105.565ZM101.705 9.98164C100.487 9.98164 99.4007 9.82431 98.4444 9.51295L98.3205 9.8933C99.3239 10.22 100.453 10.3816 101.705 10.3816V9.98164Z" fill="#2D3748" mask="url(#path-1-outside-1_2012_14708)"/>
</svg>
