<svg width="29" height="29" viewBox="0 0 29 29" fill="none" xmlns="http://www.w3.org/2000/svg">
<ellipse cx="14.4801" cy="14.0059" rx="13.9801" ry="14.0059" fill="url(#paint0_linear_2820_4466)"/>
<ellipse cx="14.4801" cy="14.0059" rx="13.9801" ry="14.0059" fill="url(#paint1_linear_2820_4466)"/>
<ellipse cx="14.4858" cy="14.0047" rx="11.9829" ry="12.005" transform="rotate(-180 14.4858 14.0047)" fill="url(#paint2_linear_2820_4466)"/>
<ellipse cx="14.4858" cy="14.0047" rx="11.9829" ry="12.005" transform="rotate(-180 14.4858 14.0047)" fill="url(#paint3_linear_2820_4466)"/>
<path d="M14.7032 6.41986C14.634 6.38531 14.5563 6.36719 14.4773 6.36719C14.3982 6.36719 14.3205 6.38531 14.2513 6.41986L9.81078 8.63916L14.4773 10.9715L19.1437 8.63916L14.7032 6.41986ZM19.4701 9.44489L14.9453 11.7066V16.3714L19.228 14.2307C19.3013 14.194 19.3625 14.1402 19.4051 14.0749C19.4477 14.0096 19.4702 13.9351 19.4701 13.8592V9.44489ZM14.0092 16.3714V11.7066L9.48438 9.44489V13.8592C9.48436 13.9351 9.50682 14.0096 9.54941 14.0749C9.59201 14.1402 9.65317 14.194 9.72653 14.2307L14.0092 16.3714Z" fill="white"/>
<path d="M9.48438 21.8985V18.9387H10.1542L11.3354 21.1844L12.4923 18.9387H13.1377V21.8985H12.541V19.837L11.596 21.8985H11.0456L10.0811 19.837V21.8985H9.48438Z" fill="white"/>
<path d="M13.9293 18.9387H16.0092V19.3733H14.4846L14.4261 20.1019C14.5187 20.0716 14.6534 20.0564 14.8304 20.0564C15.7072 20.0564 16.1456 20.36 16.1456 20.9671C16.1456 21.6019 15.691 21.9192 14.7817 21.9192C14.457 21.9192 14.1322 21.8778 13.8075 21.795V21.3397C14.1322 21.4363 14.4651 21.4846 14.8061 21.4846C15.2688 21.4846 15.5002 21.3121 15.5002 20.9671C15.5002 20.6497 15.2769 20.491 14.8304 20.491C14.4651 20.491 14.1241 20.5255 13.8075 20.5945L13.9293 18.9387Z" fill="white"/>
<path d="M19.4701 21.7743C19.1698 21.8709 18.8288 21.9192 18.4472 21.9192C17.197 21.9192 16.5718 21.4052 16.5718 20.3772C16.5718 19.4044 17.197 18.918 18.4472 18.918C18.8288 18.918 19.1698 18.9663 19.4701 19.0629V19.5596C19.1698 19.4492 18.845 19.394 18.4959 19.394C17.6597 19.394 17.2416 19.7218 17.2416 20.3772C17.2416 21.0878 17.6597 21.4432 18.4959 21.4432C18.845 21.4432 19.1698 21.388 19.4701 21.2776V21.7743Z" fill="white"/>
<defs>
<linearGradient id="paint0_linear_2820_4466" x1="14.4801" y1="0" x2="14.4801" y2="28.0117" gradientUnits="userSpaceOnUse">
<stop stop-color="#EA1B40"/>
<stop offset="1" stop-color="#BB1C3A"/>
</linearGradient>
<linearGradient id="paint1_linear_2820_4466" x1="14.4801" y1="0" x2="14.4801" y2="28.0117" gradientUnits="userSpaceOnUse">
<stop stop-color="#EA1B40"/>
<stop offset="1" stop-color="#BB1C3A"/>
</linearGradient>
<linearGradient id="paint2_linear_2820_4466" x1="14.4858" y1="1.99972" x2="14.4858" y2="26.0098" gradientUnits="userSpaceOnUse">
<stop stop-color="#EA1B40"/>
<stop offset="1" stop-color="#BB1C3A"/>
</linearGradient>
<linearGradient id="paint3_linear_2820_4466" x1="14.4858" y1="1.99972" x2="14.4858" y2="26.0098" gradientUnits="userSpaceOnUse">
<stop stop-color="#EA1B40"/>
<stop offset="1" stop-color="#BB1C3A"/>
</linearGradient>
</defs>
</svg>
