<svg width="16" height="16" viewBox="0 0 16 16" fill="none" xmlns="http://www.w3.org/2000/svg">
<path d="M8.78171 0V1.61843C12.3024 2.05108 14.7966 5.24787 14.3635 8.76515C13.9946 11.6815 11.7009 13.997 8.78171 14.3415V15.9439C13.1926 15.5033 16.4005 11.5934 15.9595 7.18678C15.5986 3.38107 12.5751 0.376565 8.78171 0ZM7.17774 0.024036C5.61388 0.176264 4.12219 0.777166 2.90318 1.78668L4.05001 2.97246C4.94823 2.25138 6.03091 1.78668 7.17774 1.62644V0.024036ZM1.77238 2.91637C0.770259 4.13245 0.153254 5.61907 0 7.18678H1.60397C1.75634 6.04907 2.20545 4.96745 2.91922 4.06209L1.77238 2.91637ZM10.7867 5.18378L6.87299 9.09364L5.17279 7.39509L4.32269 8.24437L6.87299 10.7922L11.6368 6.03305L10.7867 5.18378ZM0.00801982 8.78918C0.168416 10.3595 0.785943 11.8418 1.7804 13.0596L2.91922 11.9139C2.21094 11.0082 1.75944 9.92899 1.61198 8.78918H0.00801982ZM4.05001 13.0916L2.90318 14.1893C4.11816 15.2007 5.60535 15.8307 7.17774 16V14.3976C6.03682 14.2503 4.95654 13.7992 4.05001 13.0916Z" fill="#12AD4B"/>
</svg>
