<svg width="24" height="24" viewBox="0 0 24 24" fill="none" xmlns="http://www.w3.org/2000/svg">
<path d="M15 15H18.3406C18.7406 15 19.1022 15.2384 19.2597 15.6061L21.4026 20.6061C21.6854 21.2659 21.2014 22 20.4835 22H3.51654C2.79862 22 2.31459 21.2659 2.59739 20.6061L4.74025 15.6061C4.89783 15.2384 5.25937 15 5.6594 15H9M13 8C13 8.26522 12.8946 8.51957 12.7071 8.70711C12.5196 8.89464 12.2652 9 12 9C11.7348 9 11.4804 8.89464 11.2929 8.70711C11.1054 8.51957 11 8.26522 11 8C11 7.73478 11.1054 7.48043 11.2929 7.29289C11.4804 7.10536 11.7348 7 12 7C12.2652 7 12.5196 7.10536 12.7071 7.29289C12.8946 7.48043 13 7.73478 13 8ZM6 8C6 12.0056 9.85075 16.0112 11.3824 17.446C11.7347 17.776 12.2653 17.776 12.6176 17.446C14.1493 16.0112 18 12.0056 18 8C18 4.583 15.314 2 12 2C8.686 2 6 4.583 6 8Z" stroke="#EA2147" stroke-width="1.5"/>
</svg>
