<svg width="19" height="18" viewBox="0 0 19 18" fill="none" xmlns="http://www.w3.org/2000/svg">
<path d="M8.61997 1.26198C8.87701 1.09157 9.18472 1 9.50027 1C9.81583 1 10.1235 1.09157 10.3806 1.26198L17.0579 5.67236C17.8874 6.22048 17.4721 7.43779 16.4554 7.43992H2.54855C1.52847 7.43992 1.11086 6.22154 1.94381 5.67236L8.61997 1.26198ZM9.50084 5.18268C9.75308 5.18268 9.99498 5.0894 10.1733 4.92336C10.3517 4.75732 10.4519 4.53212 10.4519 4.29731C10.4519 4.06249 10.3517 3.83729 10.1733 3.67125C9.99498 3.50522 9.75308 3.41194 9.50084 3.41194C9.24861 3.41194 9.00671 3.50522 8.82835 3.67125C8.65 3.83729 8.5498 4.06249 8.5498 4.29731C8.5498 4.53212 8.65 4.75732 8.82835 4.92336C9.00671 5.0894 9.24861 5.18268 9.50084 5.18268ZM3.22518 8.50321V12.7521H5.50724V8.50321H3.22518ZM1.51364 16.1152C1.51364 14.8437 2.62044 13.8133 3.98511 13.8133H15.0154C15.6709 13.8141 16.2993 14.0569 16.7628 14.4884C17.2263 14.9199 17.4871 15.5049 17.4881 16.1152V16.4689C17.4881 16.6097 17.4279 16.7448 17.321 16.8444C17.214 16.944 17.0688 17 16.9175 17H2.08415C1.93284 17 1.78773 16.944 1.68074 16.8444C1.57375 16.7448 1.51364 16.6097 1.51364 16.4689V16.1152ZM15.7765 8.50215V12.7511H13.4944V8.50321L15.7765 8.50215ZM12.3534 8.50215V12.7511H10.0714V8.50321L12.3534 8.50215ZM8.93033 8.50215V12.7511H6.64827V8.50321L8.93033 8.50215Z" fill="#EA1B40"/>
</svg>
