<svg width="21" height="21" viewBox="0 0 21 21" fill="none" xmlns="http://www.w3.org/2000/svg">
<path d="M17.7102 13.4828C17.6454 13.4047 17.5817 13.3266 17.5192 13.2512C16.6598 12.2117 16.1399 11.5844 16.1399 8.64179C16.1399 7.11836 15.7755 5.86836 15.0571 4.93086C14.5274 4.23828 13.8114 3.71289 12.8676 3.32461C12.8555 3.31785 12.8447 3.30899 12.8356 3.29844C12.4962 2.16172 11.5673 1.40039 10.5196 1.40039C9.47195 1.40039 8.54343 2.16172 8.20398 3.29726C8.19492 3.30743 8.18423 3.31601 8.17234 3.32266C5.97 4.2293 4.89968 5.96875 4.89968 8.64062C4.89968 11.5844 4.38054 12.2117 3.52039 13.25C3.45789 13.3254 3.39422 13.4019 3.32937 13.4816C3.16187 13.6836 3.05575 13.9294 3.02356 14.1898C2.99137 14.4503 3.03446 14.7145 3.14773 14.9512C3.38875 15.459 3.90242 15.7742 4.48875 15.7742H16.5548C17.1384 15.7742 17.6485 15.4594 17.8903 14.9539C18.0041 14.7171 18.0476 14.4527 18.0157 14.192C17.9837 13.9313 17.8777 13.6851 17.7102 13.4828V13.4828Z" fill="#718096"/>
<path d="M10.5195 18.9014C11.084 18.9009 11.6378 18.7477 12.1223 18.458C12.6067 18.1682 13.0037 17.7528 13.2711 17.2557C13.2837 17.2318 13.2899 17.2052 13.2892 17.1782C13.2884 17.1513 13.2807 17.125 13.2668 17.1019C13.2529 17.0788 13.2332 17.0598 13.2097 17.0465C13.1863 17.0333 13.1598 17.0263 13.1328 17.0264H7.90704C7.88006 17.0263 7.85351 17.0332 7.82999 17.0464C7.80646 17.0596 7.78676 17.0787 7.77279 17.1018C7.75883 17.1248 7.75108 17.1512 7.75031 17.1781C7.74953 17.2051 7.75576 17.2318 7.76837 17.2557C8.03577 17.7527 8.43269 18.1681 8.91705 18.4579C9.4014 18.7476 9.95514 18.9008 10.5195 18.9014Z" fill="#718096"/>
</svg>
