<svg width="14" height="12" viewBox="0 0 14 12" fill="none" xmlns="http://www.w3.org/2000/svg">
<g clip-path="url(#clip0_5908_22777)">
<path d="M0.777778 0C0.347569 0 0 0.335156 0 0.75C0 1.16484 0.347569 1.5 0.777778 1.5H2.54965L4.78819 7.97344C4.24132 8.38594 3.88889 9.02812 3.88889 9.75C3.88889 10.9922 4.93403 12 6.22222 12C7.49583 12 8.53368 11.0156 8.55556 9.78984L13.4677 8.21016C13.876 8.07891 14.0948 7.65469 13.9587 7.26094C13.8226 6.86719 13.3826 6.65625 12.9743 6.7875L8.06458 8.36719C7.64653 7.84922 6.99757 7.51172 6.26597 7.5L4.02743 1.02656C3.81354 0.4125 3.22049 0 2.54965 0H0.777778ZM5.05556 9.75C5.05556 9.45163 5.17847 9.16548 5.39726 8.9545C5.61606 8.74353 5.9128 8.625 6.22222 8.625C6.53164 8.625 6.82839 8.74353 7.04718 8.9545C7.26597 9.16548 7.38889 9.45163 7.38889 9.75C7.38889 10.0484 7.26597 10.3345 7.04718 10.5455C6.82839 10.7565 6.53164 10.875 6.22222 10.875C5.9128 10.875 5.61606 10.7565 5.39726 10.5455C5.17847 10.3345 5.05556 10.0484 5.05556 9.75ZM6.81771 2.09297C6.20521 2.28516 5.86979 2.92031 6.0691 3.51094L7.0316 6.36328C7.2309 6.95391 7.88958 7.27734 8.50208 7.08516L11.4601 6.15703C12.0726 5.96484 12.408 5.32969 12.2087 4.73906L11.2486 1.88672C11.0493 1.29609 10.3906 0.972656 9.77812 1.16484L6.81771 2.09297Z" fill="#FFA50B"/>
</g>
<defs>
<clipPath id="clip0_5908_22777">
<rect width="14" height="12" fill="white"/>
</clipPath>
</defs>
</svg>
