<svg width="673" height="471" viewBox="0 0 673 471" fill="none" xmlns="http://www.w3.org/2000/svg">
<path d="M666 339.693C666.036 359.38 660.775 378.698 650.793 395.537C650.793 416.13 641.397 434.796 626.156 448.4C622.342 451.807 618.234 454.855 613.884 457.507C613.709 457.62 613.529 457.727 613.348 457.835C613.022 458.031 612.696 458.227 612.365 458.429L612.056 458.614C597.629 466.829 581.369 471.095 564.854 470.998H126.429C96.1975 470.998 68.8298 460.244 49.0012 442.862C29.1726 425.481 16.9529 401.426 16.9529 374.896C5.84951 357.426 -0.0406789 337.034 0.000211461 316.203C0.000211461 257.231 46.1311 209.423 103.044 209.423C105.058 209.423 107.055 209.495 109.04 209.608C144.75 147.388 225.299 104 318.876 104C376.406 104 428.993 120.388 469.274 147.465C484.532 138.652 501.766 134.03 519.293 134.051C576.194 134.051 622.337 181.859 622.337 240.831C622.329 244.562 622.134 248.291 621.755 252.002C635.471 261.923 646.651 275.069 654.351 290.331C662.052 305.592 666.047 322.523 666 339.693Z" fill="#FFEEEE"/>
<path opacity="0.1" d="M248.647 360.534C363.503 360.534 456.612 358.04 456.612 354.963C456.612 351.887 363.503 349.393 248.647 349.393C133.791 349.393 40.6816 351.887 40.6816 354.963C40.6816 358.04 133.791 360.534 248.647 360.534Z" fill="#EA1B40"/>
<g opacity="0.7">
<path d="M171.19 313.848H104.875V350.454H171.19V313.848Z" fill="#BBAC78"/>
<path opacity="0.1" d="M148.377 320.215H128.217V324.459H148.377V320.215Z" fill="black"/>
<path opacity="0.1" d="M145.858 320.744H130.738V323.927H145.858V320.744Z" fill="black"/>
<path d="M238.567 313.848H172.252V350.454H238.567V313.848Z" fill="#BBAC78"/>
<path opacity="0.1" d="M215.756 320.215H195.596V324.459H215.756V320.215Z" fill="black"/>
<path opacity="0.1" d="M213.235 320.744H198.115V323.927H213.235V320.744Z" fill="black"/>
<path d="M171.19 276.18H104.875V312.786H171.19V276.18Z" fill="#BBAC78"/>
<path opacity="0.1" d="M148.377 282.547H128.217V286.791H148.377V282.547Z" fill="black"/>
<path opacity="0.1" d="M145.858 283.078H130.738V286.261H145.858V283.078Z" fill="black"/>
<path d="M238.567 276.18H172.252V312.786H238.567V276.18Z" fill="#BBAC78"/>
<path opacity="0.1" d="M215.756 282.547H195.596V286.791H215.756V282.547Z" fill="black"/>
<path opacity="0.1" d="M213.235 283.078H198.115V286.261H213.235V283.078Z" fill="black"/>
<path d="M171.19 237.982H104.875V274.589H171.19V237.982Z" fill="#BBAC78"/>
<path opacity="0.1" d="M148.377 244.35H128.217V248.594H148.377V244.35Z" fill="black"/>
<path opacity="0.1" d="M145.858 244.879H130.738V248.062H145.858V244.879Z" fill="black"/>
<path d="M238.567 237.982H172.252V274.589H238.567V237.982Z" fill="#BBAC78"/>
<path opacity="0.1" d="M215.756 244.35H195.596V248.594H215.756V244.35Z" fill="black"/>
<path opacity="0.1" d="M213.235 244.879H198.115V248.062H213.235V244.879Z" fill="black"/>
<path d="M238.567 199.785H172.252V236.391H238.567V199.785Z" fill="#BBAC78"/>
<path opacity="0.1" d="M215.756 206.152H195.596V210.397H215.756V206.152Z" fill="black"/>
<path opacity="0.1" d="M213.235 206.682H198.115V209.865H213.235V206.682Z" fill="black"/>
</g>
<g opacity="0.7">
<path d="M305.944 313.316H239.629V349.923H305.944V313.316Z" fill="#BBAC78"/>
<path opacity="0.1" d="M283.131 319.684H262.971V323.928H283.131V319.684Z" fill="black"/>
<path opacity="0.1" d="M280.612 320.213H265.492V323.396H280.612V320.213Z" fill="black"/>
<path d="M373.321 313.316H307.006V349.923H373.321V313.316Z" fill="#BBAC78"/>
<path opacity="0.1" d="M350.509 319.684H330.35V323.928H350.509V319.684Z" fill="black"/>
<path opacity="0.1" d="M347.989 320.213H332.869V323.396H347.989V320.213Z" fill="black"/>
<path d="M305.944 275.648H239.629V312.255H305.944V275.648Z" fill="#BBAC78"/>
<path opacity="0.1" d="M283.131 282.016H262.971V286.26H283.131V282.016Z" fill="black"/>
<path opacity="0.1" d="M280.612 282.547H265.492V285.73H280.612V282.547Z" fill="black"/>
<path d="M373.321 275.648H307.006V312.255H373.321V275.648Z" fill="#BBAC78"/>
<path opacity="0.1" d="M350.509 282.016H330.35V286.26H350.509V282.016Z" fill="black"/>
<path opacity="0.1" d="M347.989 282.547H332.869V285.73H347.989V282.547Z" fill="black"/>
<path d="M305.944 237.451H239.629V274.057H305.944V237.451Z" fill="#BBAC78"/>
<path opacity="0.1" d="M283.131 243.818H262.971V248.063H283.131V243.818Z" fill="black"/>
<path opacity="0.1" d="M280.612 244.348H265.492V247.531H280.612V244.348Z" fill="black"/>
<path d="M373.321 237.451H307.006V274.057H373.321V237.451Z" fill="#BBAC78"/>
<path opacity="0.1" d="M350.509 243.818H330.35V248.063H350.509V243.818Z" fill="black"/>
<path opacity="0.1" d="M347.989 244.348H332.869V247.531H347.989V244.348Z" fill="black"/>
<path d="M373.321 199.254H307.006V235.86H373.321V199.254Z" fill="#BBAC78"/>
<path opacity="0.1" d="M350.509 205.621H330.35V209.865H350.509V205.621Z" fill="black"/>
<path opacity="0.1" d="M347.989 206.15H332.869V209.334H347.989V206.15Z" fill="black"/>
</g>
<path d="M410.116 283.474C410.073 283.072 409.929 282.687 409.698 282.356C409.467 282.024 409.157 281.755 408.795 281.574C408.491 281.445 408.163 281.378 407.832 281.377C407.501 281.376 407.174 281.442 406.869 281.571C406.564 281.7 406.288 281.889 406.058 282.126C405.827 282.364 405.647 282.645 405.527 282.954L393.744 307.745L391.092 405.361H395.336L396.928 307.963L409.894 285.012C410.128 284.536 410.206 283.997 410.116 283.474Z" fill="#3F3D56"/>
<path opacity="0.1" d="M608.851 427.465C610.262 432.793 601.299 433.333 597.153 435.744C597.088 435.833 597.015 435.916 596.936 435.993C596.496 436.357 595.973 436.613 595.41 436.739C581.658 444.208 566.158 448.087 550.415 447.999H245.294C210.332 444.494 189 439.849 189 434.749C189 430.796 201.808 427.114 223.862 424.031C226.148 423.707 228.533 423.393 231.015 423.09C232.543 422.903 234.106 422.722 235.704 422.549L238.418 422.241C240.431 422.018 242.497 421.799 244.617 421.587H244.789L247.009 421.37C248.884 421.181 250.799 421.003 252.752 420.83L254.173 420.705L257.797 420.392C260.15 420.186 262.555 419.99 265.011 419.802C267.05 419.647 269.121 419.492 271.227 419.337C292.57 417.796 317.176 416.633 343.952 415.881L351.6 415.627L354.174 415.573L359.613 415.454L361.794 415.411L364.086 415.368L365.717 415.341L373.376 415.222L377.31 415.168H378.115C387.42 415.059 396.898 415.004 406.55 415C425.63 415 444.131 415.222 461.762 415.644C471.884 415.881 481.698 416.184 491.202 416.552H491.291C518.694 417.601 543.223 419.148 563.523 421.068L563.895 421.105C569.105 421.598 574.039 422.122 578.667 422.663C583.024 423.171 587.114 423.707 590.909 424.253C592.225 424.442 593.501 424.637 594.744 424.826L595.06 424.88C600.321 425.707 607.48 422.29 608.851 427.465Z" fill="#EA1B40"/>
<path d="M588.967 435.533C588.905 435.62 588.836 435.702 588.76 435.777C588.339 436.134 587.839 436.386 587.301 436.509C586.228 436.81 585.125 436.988 584.012 437.04H583.678C583.042 437.061 582.406 437.04 581.773 436.976C581.311 436.909 580.845 436.879 580.378 436.886H580.314C579.636 436.981 578.969 437.147 578.325 437.38C576.889 437.773 575.41 437.983 573.921 438.006H573.391C571.725 438.006 570.038 437.947 568.367 437.958C568.096 437.958 567.836 437.958 567.555 437.958C564.69 438.032 561.841 438.488 558.976 438.536H558.059C555.252 438.467 552.382 437.868 550.149 436.17C549.698 435.872 549.333 435.463 549.088 434.982C548.897 434.474 548.834 433.928 548.902 433.39C548.955 432.43 549.141 431.385 549.862 430.737C550.316 430.39 550.836 430.139 551.39 430C552.361 429.687 553.337 429.385 554.308 429.082C555.279 428.78 556.387 428.456 557.433 428.148L557.634 428.085L558.218 427.91L558.594 427.782C559.051 427.636 559.489 427.436 559.9 427.188C560.441 426.846 560.899 426.387 561.242 425.846C561.3 425.75 561.364 425.65 561.417 425.549C561.47 425.448 561.417 425.384 561.38 425.3C561.29 424.636 561.221 423.957 561.104 423.31C559.611 422.964 558.249 422.194 557.183 421.092C556.267 420.185 555.496 419.141 554.897 418C553.576 415.517 552.897 412.742 551.91 410.105C550.398 406.095 548.196 402.391 545.979 398.72C543.952 395.336 541.915 391.94 539.612 388.741C538.079 386.619 536.429 384.598 534.912 382.47C530.62 376.534 527.541 369.81 525.851 362.682C525.592 361.314 525.225 359.97 524.752 358.66C523.84 356.432 522.169 354.618 520.874 352.581C519.483 350.385 518.53 347.94 518.068 345.381C517.803 343.928 517.357 342.357 515.909 342.198L515.755 342.501C512.752 348.337 509.67 354.278 505.144 359.042C504.42 359.743 503.758 360.504 503.165 361.318C502.69 362.108 502.265 362.926 501.892 363.769C501.176 365.283 500.225 366.674 499.075 367.892C498.733 368.238 498.36 368.552 497.961 368.831C497.431 369.216 496.841 369.512 496.216 369.706C495.969 369.781 495.717 369.838 495.462 369.876C495.462 369.939 495.489 369.998 495.494 370.061C495.499 370.125 495.526 370.199 495.536 370.268C496.317 374.513 495.982 378.887 494.566 382.964C494.528 383.091 494.486 383.213 494.438 383.34C494.219 383.935 493.98 384.518 493.722 385.091C493.075 386.497 492.306 387.845 491.701 389.272C491.6 389.516 491.499 389.76 491.409 390.004C489.287 395.686 489.817 402.031 489.542 408.137C489.517 409.472 489.359 410.802 489.069 412.105C488.709 413.575 488.13 415.092 487.812 416.61C487.522 417.747 487.498 418.936 487.743 420.084L487.616 420.132C487.048 420.344 486.47 420.535 485.892 420.716V420.795C486.098 421.984 486.3 423.172 486.507 424.355C486.682 425.374 486.889 426.477 487.6 427.199C487.793 427.358 487.971 427.536 488.13 427.729C488.549 428.387 488.178 429.257 488.258 430.037C488.374 431.141 489.393 432.08 489.234 433.178C489.162 433.506 489.012 433.812 488.795 434.069C488.579 434.326 488.304 434.526 487.992 434.653C487.731 434.771 487.457 434.858 487.175 434.913L487 434.95C486.682 435.008 486.364 435.04 486.045 435.072C482.093 435.464 478.088 435.857 474.172 435.188C473.398 435.056 472.629 434.881 471.843 434.817C470.851 434.773 469.857 434.814 468.872 434.939C461.609 435.627 454.305 435.769 447.02 435.364C445.126 435.257 442.951 434.95 441.948 433.332C441.115 431.989 441.418 430.255 441.837 428.721C441.957 428.158 442.174 427.619 442.479 427.13C442.513 427.077 442.552 427.027 442.596 426.981C443.572 425.766 445.407 425.692 446.988 425.74L452.156 425.894C452.664 425.935 453.176 425.896 453.673 425.777C454.511 425.533 455.148 424.864 455.933 424.488C456.92 424.016 458.161 423.957 458.872 423.151L458.962 423.034C459.088 422.863 459.205 422.686 459.312 422.504C459.312 422.467 459.36 422.429 459.387 422.392C459.406 422.359 459.427 422.327 459.45 422.297C460.103 421.437 461.243 421.151 462.172 420.604C462.312 420.522 462.446 420.428 462.57 420.323L462.676 420.228C461.676 419.515 460.805 418.637 460.098 417.633C459.825 417.34 459.623 416.988 459.509 416.604C459.444 416.316 459.466 416.015 459.572 415.739C459.595 415.672 459.624 415.606 459.657 415.543L459.684 415.49C460.044 414.779 460.787 414.137 461.196 413.41C461.211 413.387 461.224 413.362 461.233 413.336C461.795 412.275 461.907 410.631 461.074 409.776C461.498 402.789 463.419 395.983 463.843 388.975C464.013 386.2 463.944 383.415 464.071 380.629C464.198 377.844 464.496 375.144 464.809 372.412C465.509 366.167 467.207 360.05 466.968 353.78C466.947 353.195 466.972 352.61 467.042 352.029C467.04 351.987 467.04 351.944 467.042 351.902C467.212 350.617 467.613 349.373 468.225 348.23C468.994 346.939 469.865 345.712 470.83 344.559C474.093 340.315 478.013 336.071 479.175 330.85C479.775 328.155 481.101 325.688 482.422 323.264C483.202 321.821 484.014 320.341 485.26 319.28C485.935 318.812 486.563 318.279 487.133 317.688C488.003 316.563 488.035 315.009 488.549 313.672C488.815 312.977 489.223 312.34 489.425 311.624C489.425 311.55 489.462 311.481 489.478 311.407C489.595 310.684 489.658 309.953 489.664 309.221C489.664 309.009 489.695 308.802 489.722 308.595C490.032 306.498 490.641 304.455 491.531 302.531C491.642 302.287 491.749 302.038 491.855 301.794C489.407 300.366 487.248 298.493 485.488 296.271C484.892 295.552 484.374 294.771 483.945 293.942C482.852 291.772 482.602 289.3 482.088 286.923C480.857 281.257 478.04 275.92 477.647 270.127C477.531 268.36 477.647 266.535 477.032 264.864C476.862 264.412 476.662 263.973 476.432 263.548C476.337 263.368 476.247 263.188 476.151 263.018L476.045 262.816L475.774 262.286L475.339 262.625C464.486 271.124 453.091 278.907 441.227 285.926L440.208 286.531C439.678 286.786 439.216 287.165 438.861 287.634C438.818 287.703 438.781 287.772 438.744 287.841C438.5 288.345 438.436 288.902 438.213 289.432C437.736 290.647 436.51 291.422 435.258 291.783C432.993 292.365 430.591 292.056 428.547 290.918C428.287 290.785 428.017 290.647 427.783 290.494C427.163 290.837 426.509 291.117 425.831 291.326C423.709 291.942 421.486 291.915 419.29 291.91C417.093 291.905 414.849 291.91 412.77 292.632C411.38 293.104 410.032 293.884 408.589 293.958C408.423 293.968 408.256 293.968 408.09 293.958C407.268 293.864 406.467 293.628 405.724 293.263L405.289 293.067C405.064 292.96 404.844 292.841 404.631 292.711C404.399 292.568 404.184 292.399 403.989 292.207C403.709 291.925 403.504 291.577 403.395 291.194C403.324 290.917 403.324 290.627 403.395 290.35C403.416 290.226 403.48 290.113 403.576 290.032C403.67 289.976 403.779 289.948 403.889 289.952C404.497 289.946 405.104 289.997 405.703 290.106C406.054 290.154 406.409 290.174 406.764 290.165H406.955C407.268 290.131 407.57 290.034 407.844 289.879C408.118 289.723 408.357 289.514 408.547 289.263C408.605 289.185 408.651 289.099 408.685 289.008C408.749 288.859 408.781 288.698 408.78 288.536C408.783 288.495 408.783 288.455 408.78 288.414C408.557 288.313 408.334 288.212 408.122 288.09C408.011 288.032 407.905 287.968 407.799 287.905L407.735 287.862C407.544 287.733 407.367 287.585 407.204 287.422C407.101 287.32 407.01 287.206 406.934 287.082C406.793 286.89 406.687 286.675 406.621 286.446C406.184 286.354 405.731 286.367 405.3 286.483C404.722 286.642 404.138 286.981 403.565 287.098C403.276 287.171 402.972 287.158 402.69 287.061C401.862 286.764 401.57 285.756 401.395 284.891C401.363 284.727 401.326 284.557 401.3 284.387C401.239 284.061 401.239 283.727 401.3 283.4C401.556 282.659 402.046 282.021 402.695 281.581L404.435 280.122L404.562 280.016C404.562 279.872 404.504 279.729 404.483 279.586C404.422 279.258 404.422 278.922 404.483 278.594C404.739 277.854 405.229 277.217 405.878 276.78L409.73 273.538C410.451 272.933 411.236 272.297 412.175 272.233C413.571 272.137 414.685 273.294 415.73 274.222C417.046 275.39 418.642 276.344 420.398 276.461C421.235 276.499 422.071 276.384 422.865 276.122L423.316 275.973C423.221 275.777 423.125 275.581 423.035 275.384C422.881 275.061 422.727 274.732 422.579 274.403C424.839 274.26 426.892 273.018 428.606 271.533C430.319 270.047 431.789 268.291 433.518 266.832C435.386 265.241 437.529 264.058 439.423 262.524C443.826 258.954 446.75 253.707 451.461 250.561C453.095 249.463 454.983 248.588 456.097 246.954C456.442 246.423 456.702 245.892 457.058 245.362C458.188 243.77 460.124 243.038 461.721 241.935C463.318 240.831 464.708 239.213 466.008 237.659C466.931 236.55 467.859 235.441 468.74 234.301C469.551 232.789 470.236 231.208 471.085 229.717C471.805 228.457 472.645 227.271 473.594 226.173C473.812 225.748 474.034 225.324 474.273 224.91C474.512 224.496 474.687 224.215 474.91 223.849C475.064 223.61 475.223 223.382 475.387 223.149C474.904 222.295 474.443 221.557 474.225 221.234L474.119 221.09C473.651 220.592 473.151 220.124 472.623 219.69C472.069 219.606 471.519 219.489 470.979 219.34C467.704 218.442 464.816 216.493 462.759 213.793C460.701 211.092 459.589 207.79 459.594 204.395C459.591 204.379 459.591 204.363 459.594 204.347C459.595 201.916 460.174 199.52 461.281 197.355C461.503 196.92 461.742 196.501 462.002 196.092C461.76 196.016 461.524 195.92 461.297 195.806C460.909 195.615 460.572 195.337 460.31 194.994C460.094 194.688 459.953 194.336 459.901 193.965C459.811 193.09 459.943 192.208 460.283 191.397C460.428 191.007 460.593 190.624 460.777 190.251C460.791 190.229 460.803 190.206 460.814 190.182C463.185 185.408 468.241 182.474 473.292 182.267C478.74 182.049 484.045 184.606 488.343 188.267C489.625 189.319 490.772 190.525 491.759 191.859C494.003 194.978 495.017 198.968 495.314 202.92C495.425 204.143 495.404 205.373 495.25 206.591C495.194 207.025 495.105 207.454 494.985 207.875C494.916 208.125 494.826 208.374 494.73 208.623C494.635 208.873 494.576 208.984 494.491 209.154V209.18C494.412 209.35 494.322 209.509 494.231 209.668L494.184 209.737L494.115 209.849C494.157 209.95 494.205 210.056 494.253 210.156C494.3 210.257 494.343 210.353 494.396 210.448H494.46C495.521 210.533 496.502 210.682 497.584 210.767C498.093 210.791 498.598 210.869 499.091 211C500.152 211.318 500.953 212.093 501.844 212.719C504.051 214.279 506.768 215.005 508.938 216.618C512.121 218.995 513.712 222.921 515.643 226.438C518.19 231.149 522.339 235.16 524.169 240.2C524.996 242.488 525.828 244.773 526.662 247.054C528.291 251.527 529.92 256.02 532.132 260.238C535.209 266.105 539.374 271.379 541.841 277.543C542.085 278.161 542.545 278.67 543.135 278.976C546.497 283.723 549.485 288.723 552.074 293.931C553.438 296.685 554.727 299.544 555.125 302.595C555.435 305.311 555.21 308.061 554.462 310.691C554.039 312.253 553.52 313.787 552.907 315.285C552.669 315.809 552.491 316.359 552.377 316.924C552.377 316.983 552.377 317.041 552.377 317.099C552.271 318.118 552.658 319.126 552.764 320.144C552.853 320.964 552.76 321.794 552.493 322.574C552.451 322.696 552.403 322.818 552.356 322.94C552.027 323.561 551.748 324.206 551.523 324.871C551.503 324.952 551.489 325.033 551.48 325.115C551.305 326.267 551.761 327.429 552.011 328.58C552.944 332.739 552.775 337.068 552.541 341.312C552.419 343.434 554.133 345.137 555.565 346.702C558.218 349.636 560.292 353.069 562.292 356.485C563.384 358.22 564.302 360.057 565.035 361.971C565.794 364.157 566.096 366.47 566.515 368.735C567.868 375.738 572.287 381.924 573.486 388.943C574.042 392.157 575.46 395.16 577.587 397.633C578.228 398.295 578.819 399.004 579.354 399.755C579.723 400.353 580.017 400.994 580.229 401.665C580.751 403.225 580.997 404.864 580.956 406.508C580.872 407.296 580.917 408.091 581.089 408.864C581.587 410.493 583.37 411.389 584.107 412.922C584.845 414.456 584.335 416.419 584.638 418.159C584.875 419.562 585.633 420.823 586.76 421.692C586.336 422.063 585.89 422.403 585.434 422.753C585.856 423.081 586.226 423.471 586.532 423.91C586.741 424.203 586.919 424.518 587.062 424.849C587.763 426.477 587.784 428.414 588.357 430.154C588.601 430.875 588.946 431.639 588.734 432.371C588.643 432.581 588.582 432.803 588.553 433.029C588.553 433.507 589.052 433.82 589.243 434.255C589.312 434.473 589.323 434.706 589.275 434.931C589.227 435.155 589.12 435.363 588.967 435.533Z" fill="url(#paint0_linear_965_2492)"/>
<path d="M476.687 228.63C479.934 227.754 482.825 225.924 485.658 224.115L495.531 217.828C492.852 217.616 490.539 215.706 489.165 213.393C487.791 211.08 487.223 208.39 486.757 205.748C482.512 207.403 478.836 210.21 475.409 213.175C474.051 214.348 471.164 216.12 470.745 217.95C470.326 219.78 473 221.266 474.035 222.491C474.39 222.9 477.738 228.338 476.687 228.63Z" fill="#FBBEBE"/>
<path opacity="0.1" d="M476.687 228.63C479.934 227.754 482.825 225.924 485.658 224.115L495.531 217.828C492.852 217.616 490.539 215.706 489.165 213.393C487.791 211.08 487.223 208.39 486.757 205.748C482.512 207.403 478.836 210.21 475.409 213.175C474.051 214.348 471.164 216.12 470.745 217.95C470.326 219.78 473 221.266 474.035 222.491C474.39 222.9 477.738 228.338 476.687 228.63Z" fill="black"/>
<path d="M422.737 280.556C420.997 281.448 419.146 282.36 417.199 282.233C415.448 282.121 413.851 281.172 412.535 280.01C411.474 279.087 410.382 277.935 408.986 278.031C408.053 278.095 407.267 278.726 406.546 279.325L402.7 282.546C402.052 282.981 401.563 283.614 401.304 284.349C401.228 284.849 401.259 285.359 401.395 285.846C401.57 286.705 401.861 287.708 402.689 287.999C403.517 288.291 404.419 287.665 405.294 287.427C405.829 287.29 406.39 287.3 406.92 287.456C407.449 287.612 407.927 287.908 408.302 288.313C408.615 288.62 408.803 289.032 408.832 289.469C408.832 290.429 407.771 291.061 406.795 291.108C405.819 291.156 404.885 290.838 403.92 290.896C403.862 290.889 403.802 290.893 403.746 290.909C403.689 290.925 403.636 290.952 403.59 290.988C403.544 291.025 403.506 291.07 403.478 291.122C403.45 291.174 403.432 291.23 403.426 291.289C403.366 291.624 403.392 291.969 403.5 292.291C403.609 292.614 403.797 292.904 404.047 293.135C404.551 293.595 405.138 293.955 405.777 294.196C406.519 294.563 407.32 294.796 408.143 294.886C409.771 294.992 411.268 294.09 412.811 293.565C414.891 292.864 417.13 292.843 419.326 292.848C421.523 292.854 423.751 292.886 425.857 292.27C427.963 291.655 429.963 290.291 430.786 288.259C430.883 288.07 430.914 287.854 430.876 287.644C430.794 287.421 430.636 287.233 430.43 287.114C427.47 284.922 426.271 282.259 422.939 280.684L422.737 280.556Z" fill="#FBBEBE"/>
<path opacity="0.1" d="M422.737 280.556C420.997 281.448 419.146 282.36 417.199 282.233C415.448 282.121 413.851 281.172 412.535 280.01C411.474 279.087 410.382 277.935 408.986 278.031C408.053 278.095 407.267 278.726 406.546 279.325L402.7 282.546C402.052 282.981 401.563 283.614 401.304 284.349C401.228 284.849 401.259 285.359 401.395 285.846C401.57 286.705 401.861 287.708 402.689 287.999C403.517 288.291 404.419 287.665 405.294 287.427C405.829 287.29 406.39 287.3 406.92 287.456C407.449 287.612 407.927 287.908 408.302 288.313C408.615 288.62 408.803 289.032 408.832 289.469C408.832 290.429 407.771 291.061 406.795 291.108C405.819 291.156 404.885 290.838 403.92 290.896C403.862 290.889 403.802 290.893 403.746 290.909C403.689 290.925 403.636 290.952 403.59 290.988C403.544 291.025 403.506 291.07 403.478 291.122C403.45 291.174 403.432 291.23 403.426 291.289C403.366 291.624 403.392 291.969 403.5 292.291C403.609 292.614 403.797 292.904 404.047 293.135C404.551 293.595 405.138 293.955 405.777 294.196C406.519 294.563 407.32 294.796 408.143 294.886C409.771 294.992 411.268 294.09 412.811 293.565C414.891 292.864 417.13 292.843 419.326 292.848C421.523 292.854 423.751 292.886 425.857 292.27C427.963 291.655 429.963 290.291 430.786 288.259C430.883 288.07 430.914 287.854 430.876 287.644C430.794 287.421 430.636 287.233 430.43 287.114C427.47 284.922 426.271 282.259 422.939 280.684L422.737 280.556Z" fill="black"/>
<path d="M484.861 223.975C484.038 223.444 483.104 223.109 482.131 222.996C481.158 222.883 480.172 222.995 479.248 223.323C477.4 223.989 475.742 225.094 474.415 226.543C473.091 227.893 471.945 229.407 471.004 231.047C470.102 232.639 469.413 234.305 468.511 235.891C466.919 238.729 464.839 241.233 462.749 243.716C461.449 245.26 460.134 246.825 458.468 247.96C456.802 249.096 454.94 249.791 453.81 251.366C453.454 251.865 453.2 252.427 452.85 252.931C451.741 254.555 449.857 255.425 448.218 256.512C443.518 259.643 440.595 264.852 436.202 268.401C434.308 269.929 432.17 271.128 430.308 272.688C428.573 274.136 427.125 275.871 425.395 277.357C423.666 278.842 421.634 280.068 419.379 280.206C420.886 283.564 422.684 286.858 425.268 289.474C427.851 292.089 431.724 293.76 435.252 292.737C436.504 292.376 437.73 291.612 438.207 290.402C438.357 289.781 438.567 289.175 438.833 288.593C439.188 288.126 439.648 287.75 440.175 287.495C454.338 279.228 467.838 269.875 480.554 259.52C483.965 256.741 487.35 254.252 490.851 251.563C492.106 250.672 493.267 249.655 494.315 248.528C495.776 246.784 496.688 244.648 496.937 242.387C497.186 240.126 496.761 237.842 495.716 235.822C494.777 234.277 493.701 232.819 492.501 231.466C490.318 228.624 487.746 226.102 484.861 223.975Z" fill="#EA1B40"/>
<path opacity="0.1" d="M484.861 223.975C484.038 223.444 483.104 223.109 482.131 222.996C481.158 222.883 480.172 222.995 479.248 223.323C477.4 223.989 475.742 225.094 474.415 226.543C473.091 227.893 471.945 229.407 471.004 231.047C470.102 232.639 469.413 234.305 468.511 235.891C466.919 238.729 464.839 241.233 462.749 243.716C461.449 245.26 460.134 246.825 458.468 247.96C456.802 249.096 454.94 249.791 453.81 251.366C453.454 251.865 453.2 252.427 452.85 252.931C451.741 254.555 449.857 255.425 448.218 256.512C443.518 259.643 440.595 264.852 436.202 268.401C434.308 269.929 432.17 271.128 430.308 272.688C428.573 274.136 427.125 275.871 425.395 277.357C423.666 278.842 421.634 280.068 419.379 280.206C420.886 283.564 422.684 286.858 425.268 289.474C427.851 292.089 431.724 293.76 435.252 292.737C436.504 292.376 437.73 291.612 438.207 290.402C438.357 289.781 438.567 289.175 438.833 288.593C439.188 288.126 439.648 287.75 440.175 287.495C454.338 279.228 467.838 269.875 480.554 259.52C483.965 256.741 487.35 254.252 490.851 251.563C492.106 250.672 493.267 249.655 494.315 248.528C495.776 246.784 496.688 244.648 496.937 242.387C497.186 240.126 496.761 237.842 495.716 235.822C494.777 234.277 493.701 232.819 492.501 231.466C490.318 228.624 487.746 226.102 484.861 223.975Z" fill="black"/>
<path d="M462.066 420.784C461.137 421.315 459.997 421.612 459.344 422.471C459.132 422.747 458.989 423.071 458.76 423.336C458.055 424.163 456.803 424.201 455.821 424.673C455.036 425.044 454.4 425.734 453.567 425.951C453.068 426.07 452.555 426.109 452.044 426.068L446.887 425.914C445.253 425.866 443.338 425.951 442.388 427.283C442.08 427.771 441.861 428.31 441.741 428.874C441.343 430.397 441.02 432.121 441.853 433.458C442.85 435.05 445.036 435.373 446.919 435.48C454.195 435.882 461.49 435.74 468.745 435.055C469.726 434.93 470.717 434.889 471.705 434.933C472.49 434.997 473.26 435.172 474.034 435.304C477.944 435.968 481.944 435.58 485.891 435.188C486.558 435.156 487.216 435.016 487.838 434.774C488.148 434.647 488.422 434.448 488.638 434.192C488.853 433.936 489.003 433.631 489.075 433.304C489.239 432.211 488.215 431.283 488.104 430.185C488.024 429.41 488.395 428.546 487.971 427.888C487.812 427.694 487.634 427.516 487.441 427.357C486.73 426.62 486.523 425.543 486.348 424.535L485.419 419.086C485.393 418.702 485.236 418.339 484.974 418.057C484.779 417.917 484.553 417.824 484.316 417.787C480.273 416.874 476.13 417.707 472.114 418.216C470.047 418.519 467.956 418.624 465.869 418.529C464.968 418.471 464.617 418.365 463.944 418.954C463.27 419.543 462.909 420.291 462.066 420.784Z" fill="#3F3D56"/>
<path d="M559.686 427.342C558.977 427.739 558.216 428.037 557.426 428.228C555.343 428.837 553.264 429.472 551.187 430.133C550.635 430.27 550.117 430.519 549.665 430.865C548.943 431.502 548.758 432.542 548.705 433.518C548.636 434.055 548.7 434.602 548.89 435.109C549.139 435.585 549.504 435.99 549.951 436.287C552.328 438.085 555.432 438.643 558.413 438.643C561.395 438.643 564.355 438.139 567.337 438.059C570.939 437.963 574.637 438.473 578.101 437.465C578.762 437.22 579.449 437.053 580.149 436.966C580.614 436.959 581.078 436.989 581.539 437.056C583.397 437.24 585.273 437.069 587.067 436.552C587.607 436.433 588.109 436.183 588.531 435.825C588.74 435.645 588.889 435.405 588.959 435.138C589.029 434.871 589.017 434.589 588.924 434.329C588.733 433.9 588.244 433.587 588.239 433.114C588.264 432.888 588.323 432.666 588.414 432.457C588.632 431.73 588.282 430.971 588.038 430.255C587.353 428.207 587.465 425.852 586.239 424.074C585.014 422.297 582.764 421.565 580.626 421.284C578.888 421.038 577.122 421.089 575.401 421.432C573.464 421.846 571.655 422.711 569.756 423.263C567.552 423.897 565.249 424.114 562.965 423.905C561.448 423.777 561.968 424.016 561.453 425.289C561.088 426.138 560.472 426.855 559.686 427.342Z" fill="#3F3D56"/>
<path d="M474.914 221.27C483.411 221.27 490.3 214.382 490.3 205.885C490.3 197.388 483.411 190.5 474.914 190.5C466.417 190.5 459.529 197.388 459.529 205.885C459.529 214.382 466.417 221.27 474.914 221.27Z" fill="#FBBEBE"/>
<path d="M586.452 421.841C581.677 425.941 575.232 427.735 568.945 427.798C566.292 427.825 563.539 427.538 561.279 426.164C561.12 425.294 561.056 424.355 560.897 423.485C558.154 422.912 556.027 420.679 554.7 418.206C553.374 415.734 552.7 412.986 551.714 410.365C550.207 406.376 548 402.699 545.793 399.049C543.766 395.686 541.734 392.312 539.427 389.134C537.899 387.012 536.243 385.017 534.731 382.9C530.448 377.008 527.374 370.326 525.686 363.239C525.428 361.88 525.061 360.544 524.588 359.244C523.675 357.027 522.004 355.223 520.715 353.201C519.325 351.02 518.372 348.59 517.909 346.045C517.649 344.602 517.203 343.042 515.755 342.893C512.709 348.809 509.606 354.82 505.001 359.631C504.277 360.326 503.615 361.082 503.022 361.891C502.547 362.677 502.121 363.492 501.749 364.332C501.035 365.837 500.085 367.22 498.937 368.427C497.975 369.457 496.706 370.149 495.319 370.401C496.342 375.499 495.733 380.789 493.579 385.521C492.937 386.921 492.168 388.258 491.563 389.675C489.091 395.511 489.664 402.094 489.404 408.424C489.381 409.75 489.225 411.071 488.937 412.365C488.295 414.954 486.968 417.708 487.61 420.297C480.958 422.838 473.567 422.679 466.522 421.607C465.144 421.481 463.806 421.075 462.591 420.413C461.592 419.706 460.72 418.834 460.013 417.835C459.74 417.544 459.538 417.193 459.424 416.811C459.148 415.602 460.485 414.689 461.105 413.628C461.726 412.567 461.838 410.885 460.983 410.015C461.408 403.071 463.328 396.291 463.753 389.325C463.923 386.566 463.854 383.797 463.981 381.033C464.108 378.269 464.405 375.579 464.713 372.863C465.413 366.661 467.111 360.581 466.872 354.347C466.8 352.429 467.241 350.526 468.151 348.835C468.918 347.551 469.787 346.33 470.75 345.185C474.008 340.978 477.923 336.761 479.085 331.567C479.684 328.888 481.011 326.437 482.326 324.028C483.106 322.59 483.918 321.121 485.159 320.065C485.835 319.598 486.462 319.065 487.032 318.473C487.902 317.354 487.934 315.821 488.449 314.484C488.714 313.794 489.122 313.158 489.319 312.447C489.481 311.661 489.561 310.861 489.557 310.059C489.727 307.492 490.714 305.009 491.754 302.658C489.308 301.243 487.149 299.382 485.388 297.173C484.796 296.455 484.28 295.678 483.849 294.854C482.756 292.701 482.507 290.244 481.992 287.883C480.767 282.249 477.95 276.949 477.557 271.193C477.44 269.437 477.557 267.623 476.947 265.962C476.665 265.259 476.336 264.577 475.96 263.92C475.59 263.274 475.308 262.582 475.122 261.861C474.782 260.296 475.249 258.678 475.122 257.087C474.995 255.681 474.395 254.365 474.098 252.991C473.795 251.203 473.743 249.382 473.944 247.58C474.077 245.457 474.538 243.266 474.358 241.171C474.066 237.703 474.507 234.213 475.655 230.928C476.802 227.642 478.629 224.636 481.016 222.104L481.138 221.982C482.151 220.921 483.26 219.982 484.173 218.857C485.414 217.35 486.295 215.578 487.605 214.114C488.178 213.462 488.825 212.878 489.393 212.22C489.914 211.53 490.49 210.884 491.117 210.289C491.434 209.995 491.818 209.782 492.236 209.67C492.654 209.558 493.093 209.55 493.515 209.647C493.622 210.438 493.87 211.204 494.247 211.907C495.351 211.992 496.332 212.146 497.43 212.231C497.939 212.255 498.445 212.333 498.937 212.464C499.972 212.777 500.799 213.525 501.685 214.167C503.892 215.722 506.603 216.443 508.773 218.045C511.956 220.406 513.548 224.306 515.468 227.802C518.009 232.486 522.153 236.47 523.957 241.479L526.445 248.29C528.073 252.736 529.702 257.198 531.909 261.389C534.981 267.225 539.14 272.482 541.607 278.589C541.854 279.201 542.311 279.705 542.896 280.01C546.255 284.722 549.241 289.688 551.825 294.865C553.188 297.603 554.478 300.446 554.87 303.475C555.448 307.757 554.281 312.086 552.658 316.086C552.396 316.659 552.217 317.266 552.127 317.89C552.021 318.903 552.409 319.9 552.515 320.914C552.617 321.86 552.476 322.817 552.106 323.694C551.776 324.31 551.498 324.952 551.273 325.614C550.987 326.834 551.496 328.076 551.772 329.296C552.706 333.429 552.536 337.71 552.302 341.944C552.18 344.066 553.894 345.748 555.321 347.302C557.974 350.215 560.043 353.621 562.043 357.021C563.13 358.746 564.047 360.572 564.78 362.475C565.539 364.645 565.841 366.942 566.261 369.197C567.608 376.152 572.022 382.301 573.221 389.277C573.776 392.473 575.192 395.457 577.317 397.909C577.957 398.572 578.547 399.281 579.083 400.031C579.45 400.626 579.742 401.264 579.953 401.93C580.475 403.479 580.721 405.108 580.68 406.742C580.596 407.524 580.641 408.314 580.813 409.081C581.311 410.7 583.094 411.591 583.826 413.113C584.558 414.636 584.054 416.588 584.357 418.318C584.585 419.715 585.334 420.973 586.452 421.841Z" fill="#EA1B40"/>
<path d="M425.921 275.783C424.181 276.674 422.329 277.587 420.382 277.459C418.632 277.348 417.035 276.398 415.719 275.236C414.658 274.313 413.565 273.162 412.17 273.258C411.236 273.321 410.451 273.953 409.729 274.552L405.883 277.772C405.236 278.207 404.746 278.84 404.488 279.576C404.412 280.076 404.443 280.585 404.578 281.072C404.753 281.932 405.045 282.934 405.873 283.226C406.7 283.518 407.602 282.892 408.477 282.653C409.012 282.516 409.574 282.527 410.103 282.682C410.633 282.838 411.11 283.134 411.486 283.539C411.798 283.846 411.987 284.258 412.016 284.696C412.016 285.656 410.955 286.287 409.979 286.335C409.003 286.383 408.069 286.064 407.103 286.123C407.045 286.115 406.986 286.12 406.929 286.136C406.873 286.151 406.82 286.178 406.774 286.215C406.728 286.252 406.69 286.297 406.662 286.349C406.633 286.4 406.616 286.457 406.61 286.515C406.55 286.85 406.576 287.195 406.684 287.518C406.793 287.841 406.981 288.131 407.231 288.362C407.735 288.822 408.322 289.182 408.96 289.423C409.702 289.789 410.503 290.023 411.326 290.112C412.955 290.218 414.451 289.316 415.995 288.791C418.075 288.091 420.313 288.07 422.51 288.075C424.706 288.08 426.934 288.112 429.041 287.497C431.147 286.881 433.147 285.518 433.969 283.486C434.066 283.296 434.098 283.08 434.059 282.871C433.977 282.647 433.82 282.459 433.614 282.34C430.653 280.149 429.454 277.486 426.123 275.91L425.921 275.783Z" fill="#FBBEBE"/>
<path d="M467.43 196.433C466.513 196.581 465.733 197.202 464.863 197.547C464.279 197.774 463.653 197.874 463.028 197.841C462.402 197.808 461.791 197.643 461.234 197.356C460.846 197.167 460.506 196.891 460.242 196.549C459.531 195.563 459.78 194.13 460.215 192.974C462.274 187.504 467.77 184.119 473.213 183.902C478.656 183.684 483.951 186.225 488.243 189.859C489.519 190.908 490.665 192.107 491.654 193.43C493.893 196.533 494.906 200.496 495.203 204.422C495.381 206.07 495.272 207.736 494.88 209.346C494.691 210.128 494.347 210.864 493.868 211.511C493.388 212.157 492.783 212.7 492.089 213.107C490.572 213.882 488.752 213.637 487.219 212.895C485.686 212.152 484.37 210.98 483.054 209.86C482.458 209.285 481.753 208.836 480.98 208.539C480.595 208.402 480.178 208.379 479.78 208.473C479.381 208.567 479.019 208.774 478.736 209.07C478.025 209.924 478.205 211.324 477.558 212.253C476.911 213.181 475.563 213.314 474.428 213.314C473.293 213.314 472.142 213.218 471.462 212.316C470.842 211.499 470.932 210.306 471.165 209.277C471.399 208.247 471.797 207.229 471.696 206.173C471.478 204.051 469.622 202.746 469.043 200.793C468.667 199.515 469.494 198.974 469.409 197.817C469.346 196.799 468.253 196.3 467.43 196.433Z" fill="#3F3D56"/>
<path opacity="0.1" d="M515.764 342.761V342.894C512.719 348.809 509.615 354.82 505.01 359.632C504.287 360.326 503.625 361.083 503.031 361.892C502.556 362.678 502.131 363.493 501.758 364.332C501.044 365.838 500.095 367.22 498.946 368.428L495.105 370.348L507.308 306.686L515.764 342.761Z" fill="black"/>
<path opacity="0.1" d="M498.029 246.407C496.981 247.534 495.82 248.551 494.564 249.441C491.063 252.094 487.668 254.598 484.267 257.399C481.526 259.631 478.746 261.816 475.927 263.956C475.557 263.311 475.275 262.618 475.089 261.898C474.749 260.333 475.216 258.715 475.089 257.123C474.962 255.717 474.362 254.402 474.065 253.027C473.762 251.24 473.71 249.418 473.911 247.616C474.044 245.494 474.505 243.303 474.325 241.207C474.031 237.731 474.476 234.233 475.628 230.94C476.781 227.648 478.617 224.637 481.015 222.103L481.137 221.981C481.708 221.649 482.313 221.379 482.941 221.175C483.866 220.851 484.853 220.743 485.826 220.861C486.799 220.979 487.733 221.318 488.554 221.854C491.438 223.981 494.01 226.503 496.193 229.345C497.393 230.697 498.469 232.155 499.408 233.701C500.456 235.719 500.885 238.001 500.639 240.262C500.394 242.523 499.486 244.661 498.029 246.407Z" fill="black"/>
<path d="M488.047 219.202C487.224 218.671 486.29 218.336 485.316 218.222C484.343 218.109 483.357 218.221 482.434 218.549C480.586 219.215 478.927 220.32 477.601 221.77C476.277 223.12 475.131 224.634 474.19 226.274C473.288 227.865 472.598 229.531 471.696 231.118C470.105 233.956 468.025 236.46 465.935 238.943C464.635 240.487 463.319 242.052 461.653 243.187C459.988 244.322 458.125 245.017 456.995 246.593C456.64 247.092 456.385 247.654 456.035 248.158C454.926 249.781 453.043 250.651 451.404 251.739C446.703 254.869 443.78 260.079 439.387 263.628C437.493 265.156 435.355 266.355 433.493 267.915C431.758 269.363 430.31 271.098 428.581 272.583C426.851 274.069 424.819 275.294 422.564 275.432C424.071 278.79 425.87 282.085 428.453 284.7C431.037 287.316 434.91 288.987 438.438 287.963C439.69 287.602 440.915 286.838 441.393 285.629C441.543 285.007 441.753 284.401 442.019 283.82C442.373 283.353 442.833 282.977 443.361 282.722C457.523 274.455 471.023 265.102 483.739 254.747C487.15 251.967 490.535 249.479 494.037 246.789C495.292 245.899 496.453 244.882 497.501 243.755C498.961 242.011 499.873 239.874 500.122 237.613C500.372 235.353 499.947 233.069 498.901 231.049C497.963 229.503 496.887 228.045 495.686 226.693C493.503 223.851 490.932 221.329 488.047 219.202Z" fill="#EA1B40"/>
<g opacity="0.1">
<path d="M475.489 211.175C474.428 211.175 473.202 211.079 472.523 210.177C471.908 209.36 471.992 208.167 472.226 207.138C472.459 206.108 472.857 205.09 472.756 204.034C472.539 201.912 470.682 200.607 470.104 198.655C469.727 197.376 470.555 196.835 470.47 195.678C470.396 194.676 469.308 194.177 468.486 194.31C467.568 194.458 466.788 195.079 465.918 195.424C465.334 195.651 464.709 195.751 464.083 195.718C463.457 195.685 462.846 195.52 462.289 195.233C461.901 195.044 461.561 194.768 461.297 194.426C460.586 193.439 460.836 192.007 461.271 190.851C461.271 190.808 461.308 190.771 461.324 190.729C460.88 191.438 460.507 192.19 460.21 192.973C459.774 194.129 459.525 195.562 460.236 196.548C460.5 196.89 460.84 197.166 461.228 197.355C461.785 197.642 462.396 197.807 463.022 197.84C463.648 197.873 464.273 197.773 464.857 197.546C465.727 197.201 466.507 196.58 467.425 196.432C468.247 196.299 469.334 196.798 469.409 197.8C469.494 198.957 468.666 199.498 469.043 200.777C469.61 202.729 471.467 204.055 471.695 206.156C471.801 207.217 471.414 208.236 471.165 209.26C470.915 210.284 470.846 211.483 471.462 212.3C472.141 213.201 473.356 213.286 474.428 213.297C475.499 213.308 476.879 213.233 477.558 212.236C477.851 211.735 478.044 211.182 478.125 210.607C477.404 211.122 476.396 211.185 475.489 211.175Z" fill="black"/>
<path d="M493.149 210.984C491.632 211.758 489.812 211.514 488.279 210.772C486.746 210.029 485.43 208.856 484.114 207.737C483.518 207.162 482.813 206.713 482.04 206.416C481.655 206.279 481.238 206.256 480.84 206.35C480.442 206.444 480.079 206.651 479.796 206.947C479.436 207.479 479.208 208.09 479.133 208.729C479.409 208.567 479.716 208.465 480.035 208.431C480.353 208.397 480.675 208.432 480.979 208.533C481.752 208.83 482.457 209.279 483.053 209.854C484.369 210.973 485.706 212.151 487.218 212.888C488.73 213.626 490.571 213.875 492.088 213.101C493.43 212.315 494.408 211.032 494.81 209.53C494.374 210.135 493.806 210.632 493.149 210.984Z" fill="black"/>
</g>
<path d="M361.117 439.05C369.907 439.05 377.033 431.924 377.033 423.134C377.033 414.344 369.907 407.219 361.117 407.219C352.327 407.219 345.201 414.344 345.201 423.134C345.201 431.924 352.327 439.05 361.117 439.05Z" fill="#3F3D56"/>
<path opacity="0.1" d="M361.117 439.05C369.907 439.05 377.033 431.924 377.033 423.134C377.033 414.344 369.907 407.219 361.117 407.219C352.327 407.219 345.201 414.344 345.201 423.134C345.201 431.924 352.327 439.05 361.117 439.05Z" fill="black"/>
<path d="M361.117 433.215C366.684 433.215 371.197 428.702 371.197 423.135C371.197 417.568 366.684 413.055 361.117 413.055C355.55 413.055 351.037 417.568 351.037 423.135C351.037 428.702 355.55 433.215 361.117 433.215Z" fill="#BBAC78"/>
<path opacity="0.1" d="M361.117 433.215C366.684 433.215 371.197 428.702 371.197 423.135C371.197 417.568 366.684 413.055 361.117 413.055C355.55 413.055 351.037 417.568 351.037 423.135C351.037 428.702 355.55 433.215 361.117 433.215Z" fill="black"/>
<path d="M348.916 398.201L359.357 421.809C359.512 422.163 359.766 422.465 360.087 422.68C360.409 422.894 360.785 423.013 361.171 423.02C361.558 423.028 361.938 422.925 362.268 422.724C362.598 422.522 362.864 422.231 363.033 421.884L375.442 396.609L348.916 398.201Z" fill="#3F3D56"/>
<path opacity="0.1" d="M348.916 398.201L359.357 421.809C359.512 422.163 359.766 422.465 360.087 422.68C360.409 422.894 360.785 423.013 361.171 423.02C361.558 423.028 361.938 422.925 362.268 422.724C362.598 422.522 362.864 422.231 363.033 421.884L375.442 396.609L348.916 398.201Z" fill="black"/>
<path d="M261.91 439.05C270.7 439.05 277.826 431.924 277.826 423.134C277.826 414.344 270.7 407.219 261.91 407.219C253.12 407.219 245.994 414.344 245.994 423.134C245.994 431.924 253.12 439.05 261.91 439.05Z" fill="#3F3D56"/>
<path opacity="0.1" d="M261.91 439.05C270.7 439.05 277.826 431.924 277.826 423.134C277.826 414.344 270.7 407.219 261.91 407.219C253.12 407.219 245.994 414.344 245.994 423.134C245.994 431.924 253.12 439.05 261.91 439.05Z" fill="black"/>
<path d="M261.91 433.215C267.477 433.215 271.99 428.702 271.99 423.135C271.99 417.568 267.477 413.055 261.91 413.055C256.343 413.055 251.83 417.568 251.83 423.135C251.83 428.702 256.343 433.215 261.91 433.215Z" fill="#BBAC78"/>
<path opacity="0.1" d="M261.91 433.215C267.477 433.215 271.99 428.702 271.99 423.135C271.99 417.568 267.477 413.055 261.91 413.055C256.343 413.055 251.83 417.568 251.83 423.135C251.83 428.702 256.343 433.215 261.91 433.215Z" fill="black"/>
<path d="M249.709 398.201L260.15 421.809C260.305 422.163 260.559 422.465 260.88 422.68C261.202 422.894 261.578 423.013 261.964 423.02C262.351 423.028 262.731 422.925 263.061 422.724C263.391 422.522 263.657 422.231 263.826 421.884L276.235 396.609L249.709 398.201Z" fill="#3F3D56"/>
<path opacity="0.1" d="M249.709 398.201L260.15 421.809C260.305 422.163 260.559 422.465 260.88 422.68C261.202 422.894 261.578 423.013 261.964 423.02C262.351 423.028 262.731 422.925 263.061 422.724C263.391 422.522 263.657 422.231 263.826 421.884L276.235 396.609L249.709 398.201Z" fill="black"/>
<path d="M412.768 284.536C412.725 284.134 412.581 283.75 412.35 283.418C412.119 283.086 411.809 282.818 411.447 282.637C411.143 282.507 410.815 282.44 410.484 282.439C410.154 282.439 409.826 282.505 409.521 282.634C409.216 282.762 408.94 282.951 408.71 283.189C408.479 283.426 408.299 283.708 408.179 284.016L399.049 306.686L396.396 408.546H400.641L402.232 306.903L412.546 286.075C412.78 285.598 412.858 285.06 412.768 284.536Z" fill="#3F3D56"/>
<path d="M225.039 400.587L239.363 391.568L394.011 390.242L397.99 400.587H225.039Z" fill="#EA1B40"/>
<path d="M225.039 410.136V400.586L400.791 398.889L400.621 405.361H228.222V410.136H225.039Z" fill="#3F3D56"/>
<path d="M247.32 444.62C256.11 444.62 263.236 437.495 263.236 428.705C263.236 419.915 256.11 412.789 247.32 412.789C238.53 412.789 231.404 419.915 231.404 428.705C231.404 437.495 238.53 444.62 247.32 444.62Z" fill="#3F3D56"/>
<path d="M247.32 438.785C252.887 438.785 257.4 434.272 257.4 428.705C257.4 423.138 252.887 418.625 247.32 418.625C241.753 418.625 237.24 423.138 237.24 428.705C237.24 434.272 241.753 438.785 247.32 438.785Z" fill="#BBAC78"/>
<path d="M235.119 403.771L245.56 427.38C245.715 427.733 245.969 428.035 246.29 428.25C246.612 428.465 246.988 428.583 247.374 428.591C247.761 428.598 248.141 428.496 248.471 428.294C248.801 428.093 249.067 427.801 249.236 427.454L261.645 402.18L235.119 403.771Z" fill="#3F3D56"/>
<path d="M370.933 444.62C379.723 444.62 386.849 437.495 386.849 428.705C386.849 419.915 379.723 412.789 370.933 412.789C362.143 412.789 355.018 419.915 355.018 428.705C355.018 437.495 362.143 444.62 370.933 444.62Z" fill="#3F3D56"/>
<path d="M370.933 438.785C376.5 438.785 381.013 434.272 381.013 428.705C381.013 423.138 376.5 418.625 370.933 418.625C365.366 418.625 360.854 423.138 360.854 428.705C360.854 434.272 365.366 438.785 370.933 438.785Z" fill="#BBAC78"/>
<path d="M358.73 403.771L369.171 427.38C369.327 427.733 369.58 428.035 369.902 428.25C370.223 428.465 370.599 428.583 370.986 428.591C371.372 428.598 371.753 428.496 372.083 428.294C372.413 428.093 372.678 427.801 372.848 427.454L385.257 402.18L358.73 403.771Z" fill="#3F3D56"/>
<path d="M311.249 358.941H244.934V395.548H311.249V358.941Z" fill="#BBAC78"/>
<path opacity="0.1" d="M288.435 365.309H268.275V369.553H288.435V365.309Z" fill="black"/>
<path opacity="0.1" d="M285.915 365.838H270.795V369.021H285.915V365.838Z" fill="black"/>
<path d="M378.626 358.941H312.311V395.548H378.626V358.941Z" fill="#BBAC78"/>
<path opacity="0.1" d="M355.812 365.309H335.652V369.553H355.812V365.309Z" fill="black"/>
<path opacity="0.1" d="M353.294 365.838H338.174V369.021H353.294V365.838Z" fill="black"/>
<path d="M311.249 321.275H244.934V357.882H311.249V321.275Z" fill="#BBAC78"/>
<path opacity="0.1" d="M288.435 327.641H268.275V331.885H288.435V327.641Z" fill="black"/>
<path opacity="0.1" d="M285.915 328.172H270.795V331.355H285.915V328.172Z" fill="black"/>
<path d="M378.626 321.275H312.311V357.882H378.626V321.275Z" fill="#BBAC78"/>
<path opacity="0.1" d="M355.812 327.641H335.652V331.885H355.812V327.641Z" fill="black"/>
<path opacity="0.1" d="M353.294 328.172H338.174V331.355H353.294V328.172Z" fill="black"/>
<path d="M311.249 283.076H244.934V319.682H311.249V283.076Z" fill="#BBAC78"/>
<path opacity="0.1" d="M288.435 289.443H268.275V293.688H288.435V289.443Z" fill="black"/>
<path opacity="0.1" d="M285.915 289.973H270.795V293.156H285.915V289.973Z" fill="black"/>
<path d="M378.626 283.076H312.311V319.682H378.626V283.076Z" fill="#BBAC78"/>
<path opacity="0.1" d="M355.812 289.443H335.652V293.688H355.812V289.443Z" fill="black"/>
<path opacity="0.1" d="M353.294 289.973H338.174V293.156H353.294V289.973Z" fill="black"/>
<path d="M378.626 244.879H312.311V281.485H378.626V244.879Z" fill="#BBAC78"/>
<path opacity="0.1" d="M355.812 251.246H335.652V255.49H355.812V251.246Z" fill="black"/>
<path opacity="0.1" d="M353.294 251.775H338.174V254.959H353.294V251.775Z" fill="black"/>
<path opacity="0.1" d="M671.909 134.076C671.909 134.076 613.716 130.552 620.559 171.483C620.559 171.483 619.177 178.719 625.73 182C625.73 182 625.833 178.968 631.702 180.002C633.791 180.35 635.913 180.452 638.026 180.307C640.881 180.109 643.593 178.984 645.754 177.102C645.754 177.102 662.115 170.317 668.474 143.483C668.474 143.483 673.181 137.628 672.995 136.123L663.173 140.334C663.173 140.334 666.532 147.445 663.864 153.355C663.864 153.355 663.546 140.59 661.659 140.868C661.279 140.93 656.558 143.331 656.558 143.331C656.558 143.331 662.329 155.714 657.975 164.719C657.975 164.719 659.627 149.456 654.754 144.226L647.841 148.277C647.841 148.277 654.588 161.07 650.012 171.511C650.012 171.511 651.187 155.499 646.383 149.262L640.121 154.167C640.121 154.167 646.459 166.779 642.595 175.437C642.595 175.437 642.091 156.796 638.766 155.388C638.766 155.388 633.285 160.244 632.448 162.228C632.448 162.228 636.789 171.386 634.093 176.214C634.093 176.214 632.441 163.796 631.087 163.727C631.087 163.727 625.626 171.955 625.059 177.602C625.059 177.602 625.294 169.207 629.766 162.943C629.766 162.943 624.485 163.852 621.403 167.293C621.403 167.293 622.253 161.472 631.114 160.966C631.114 160.966 635.628 154.722 636.831 154.34C636.831 154.34 628.025 153.605 622.681 155.978C622.681 155.978 627.382 150.49 638.448 152.988L644.634 147.916C644.634 147.916 633.036 146.328 628.114 148.083C628.114 148.083 633.775 143.227 646.3 146.772L653.046 142.762C653.046 142.762 643.155 140.625 637.266 141.374C637.266 141.374 643.487 138.01 655.023 141.659L659.862 139.487C659.862 139.487 652.618 138.058 650.496 137.829C648.374 137.6 648.263 137.018 648.263 137.018C652.852 136.249 657.564 136.775 661.873 138.537C661.873 138.537 672.089 134.721 671.909 134.076Z" fill="#EA1B40"/>
<path opacity="0.1" d="M614.499 131.035C614.499 131.035 588.168 129.417 591.251 148.181C591.251 148.181 590.634 151.494 593.586 153C593.586 153 593.635 151.593 596.296 152.078C597.241 152.24 598.201 152.287 599.157 152.219C600.451 152.13 601.68 151.613 602.657 150.749C602.657 150.749 610.071 147.646 612.953 135.348C612.953 135.348 615.081 132.66 614.998 131.971L610.549 133.898C610.549 133.898 612.073 137.163 610.875 139.872C610.875 139.872 610.729 134.018 609.877 134.159C609.704 134.159 607.563 135.284 607.563 135.284C607.563 135.284 610.182 140.962 608.207 145.092C608.207 145.092 608.955 138.099 606.745 135.7L603.613 137.557C603.613 137.557 606.676 143.418 604.597 148.202C604.597 148.202 605.13 140.864 602.955 138.007L600.121 140.252C600.121 140.252 602.989 146.035 601.243 150.003C601.243 150.003 601.014 141.455 599.504 140.814C599.504 140.814 597.023 143.038 596.642 143.952C596.642 143.952 598.61 148.174 597.39 150.355C597.39 150.355 596.642 144.663 596.005 144.642C596.005 144.642 593.538 148.413 593.274 150.974C593.398 148.584 594.134 146.268 595.409 144.255C593.981 144.529 592.664 145.221 591.618 146.246C591.618 146.246 592.006 143.586 596.018 143.347C596.018 143.347 598.097 140.491 598.61 140.315C598.61 140.315 594.619 139.977 592.2 141.068C592.2 141.068 594.328 138.549 599.344 139.696L602.116 137.374C602.116 137.374 596.864 136.67 594.633 137.451C594.633 137.451 597.196 135.228 602.871 136.846L605.92 134.996C605.92 134.996 601.444 134.011 598.769 134.37C598.769 134.37 601.59 132.822 606.814 134.497L608.997 133.504C608.997 133.504 605.712 132.843 604.749 132.745C603.786 132.646 603.738 132.372 603.738 132.372C605.818 132.02 607.953 132.264 609.905 133.075C609.905 133.075 614.582 131.331 614.499 131.035Z" fill="#EA1B40"/>
<path fill-rule="evenodd" clip-rule="evenodd" d="M486 159.5L474.5 132.5H473C449.804 132.5 431 113.696 431 90.5V42C431 18.804 449.804 0 473 0H603C626.196 0 645 18.804 645 42V90.5C645 113.696 626.196 132.5 603 132.5H506L486 159.5Z" fill="#EA1B40"/>
<path d="M511.968 72.028V81.452H503.288V88.52H492.128V81.452H461.5V72.028L492.128 45.12H503.288V72.028H511.968ZM473.528 72.028H492.128V56.28L473.528 72.028ZM540.302 89.14C523.066 89.14 514.882 81.204 514.882 66.758C514.882 52.374 523.066 44.5 540.302 44.5C557.476 44.5 565.722 52.436 565.722 66.758C565.722 81.142 557.476 89.14 540.302 89.14ZM540.302 79.778C550.098 79.778 554.562 74.88 554.562 66.758C554.562 58.698 550.098 53.862 540.302 53.862C530.506 53.862 526.042 58.636 526.042 66.758C526.042 74.942 530.506 79.778 540.302 79.778ZM619.848 72.028V81.452H611.168V88.52H600.008V81.452H569.38V72.028L600.008 45.12H611.168V72.028H619.848ZM581.408 72.028H600.008V56.28L581.408 72.028Z" fill="white"/>
<defs>
<linearGradient id="paint0_linear_965_2492" x1="495.25" y1="438.594" x2="495.25" y2="182.277" gradientUnits="userSpaceOnUse">
<stop stop-color="#808080" stop-opacity="0.25"/>
<stop offset="0.54" stop-color="#808080" stop-opacity="0.12"/>
<stop offset="1" stop-color="#808080" stop-opacity="0.1"/>
</linearGradient>
</defs>
</svg>
