<svg width="23" height="22" viewBox="0 0 23 22" fill="none" xmlns="http://www.w3.org/2000/svg">
<path d="M15.1667 1.83398H7.83333C7.3471 1.83398 6.88079 2.02714 6.53697 2.37096C6.19315 2.71477 6 3.18109 6 3.66732V18.334C6 18.8202 6.19315 19.2865 6.53697 19.6303C6.88079 19.9742 7.3471 20.1673 7.83333 20.1673H15.1667C15.6529 20.1673 16.1192 19.9742 16.463 19.6303C16.8068 19.2865 17 18.8202 17 18.334V3.66732C17 3.18109 16.8068 2.71477 16.463 2.37096C16.1192 2.02714 15.6529 1.83398 15.1667 1.83398ZM12.4167 19.2507H10.5833V18.334H12.4167V19.2507ZM15.1667 17.4173H7.83333V4.58398H15.1667V17.4173Z" fill="#EA1B40"/>
</svg>
