<svg width="72" height="72" viewBox="0 0 72 72" fill="none" xmlns="http://www.w3.org/2000/svg">
<path id="Subtract" fill-rule="evenodd" clip-rule="evenodd" d="M36 72C55.8823 72 72 55.8823 72 36C72 16.1177 55.8823 0 36 0C16.1177 0 0 16.1177 0 36C0 55.8823 16.1177 72 36 72ZM37.6094 16.7469C38.0933 17.2251 38.3652 17.8737 38.3652 18.55V33H52.9886C53.673 33 54.3294 33.2687 54.8134 33.7469C55.2973 34.2251 55.5692 34.8737 55.5692 35.55C55.5692 36.2263 55.2973 36.8749 54.8134 37.3531C54.3294 37.8313 53.673 38.1 52.9886 38.1H38.3652V52.55C38.3652 53.2263 38.0933 53.8749 37.6094 54.3531C37.1254 54.8313 36.469 55.1 35.7846 55.1C35.1002 55.1 34.4438 54.8313 33.9598 54.3531C33.4759 53.8749 33.204 53.2263 33.204 52.55V38.1H18.5806C17.8962 38.1 17.2398 37.8313 16.7558 37.3531C16.2719 36.8749 16 36.2263 16 35.55C16 34.8737 16.2719 34.2251 16.7558 33.7469C17.2398 33.2687 17.8962 33 18.5806 33H33.204V18.55C33.204 17.8737 33.4759 17.2251 33.9598 16.7469C34.4438 16.2687 35.1002 16 35.7846 16C36.469 16 37.1254 16.2687 37.6094 16.7469Z" fill="#EA1B40"/>
</svg>
