<svg width="21" height="21" viewBox="0 0 21 21" fill="none" xmlns="http://www.w3.org/2000/svg">
<path fill-rule="evenodd" clip-rule="evenodd" d="M6.51953 5.15137C6.51953 4.0905 6.94096 3.07309 7.6911 2.32294C8.44125 1.57279 9.45867 1.15137 10.5195 1.15137C11.5804 1.15137 12.5978 1.57279 13.348 2.32294C14.0981 3.07309 14.5195 4.0905 14.5195 5.15137C14.5195 6.21223 14.0981 7.22965 13.348 7.97979C12.5978 8.72994 11.5804 9.15137 10.5195 9.15137C9.45867 9.15137 8.44125 8.72994 7.6911 7.97979C6.94096 7.22965 6.51953 6.21223 6.51953 5.15137ZM6.51953 11.1514C5.19345 11.1514 3.92168 11.6782 2.984 12.6158C2.04632 13.5535 1.51953 14.8253 1.51953 16.1514C1.51953 16.947 1.8356 17.7101 2.39821 18.2727C2.96082 18.8353 3.72388 19.1514 4.51953 19.1514H16.5195C17.3152 19.1514 18.0782 18.8353 18.6409 18.2727C19.2035 17.7101 19.5195 16.947 19.5195 16.1514C19.5195 14.8253 18.9927 13.5535 18.0551 12.6158C17.1174 11.6782 15.8456 11.1514 14.5195 11.1514H6.51953Z" fill="#718096"/>
</svg>
