<svg width="15" height="15" viewBox="0 0 15 15" fill="none" xmlns="http://www.w3.org/2000/svg">
<path d="M7.74112 0.548828C3.9793 0.548828 0.927246 3.60088 0.927246 7.36271C0.927246 11.1245 3.9793 14.1766 7.74112 14.1766C11.503 14.1766 14.555 11.1245 14.555 7.36271C14.555 3.60088 11.503 0.548828 7.74112 0.548828ZM7.52819 11.3375C7.38781 11.3375 7.25058 11.2958 7.13386 11.2179C7.01714 11.1399 6.92616 11.029 6.87244 10.8993C6.81872 10.7696 6.80466 10.6269 6.83205 10.4892C6.85944 10.3515 6.92704 10.2251 7.0263 10.1258C7.12557 10.0265 7.25204 9.95894 7.38972 9.93155C7.5274 9.90416 7.67012 9.91822 7.79981 9.97194C7.92951 10.0257 8.04036 10.1166 8.11835 10.2334C8.19634 10.3501 8.23797 10.4873 8.23797 10.6277C8.23797 10.8159 8.16319 10.9965 8.03008 11.1296C7.89697 11.2627 7.71644 11.3375 7.52819 11.3375V11.3375ZM8.71494 7.7176C8.13967 8.10372 8.06053 8.45754 8.06053 8.78226C8.06053 8.91404 8.00818 9.04041 7.915 9.13359C7.82183 9.22676 7.69545 9.27911 7.56368 9.27911C7.43191 9.27911 7.30553 9.22676 7.21236 9.13359C7.11918 9.04041 7.06683 8.91404 7.06683 8.78226C7.06683 8.0047 7.42456 7.38648 8.1606 6.89212C8.84483 6.4329 9.23166 6.14189 9.23166 5.50202C9.23166 5.06693 8.98324 4.73652 8.469 4.49201C8.34799 4.43451 8.07863 4.37844 7.74716 4.38234C7.33123 4.38767 7.00828 4.48704 6.7595 4.68719C6.29034 5.0648 6.25059 5.47576 6.25059 5.48179C6.24744 5.54704 6.23148 5.61103 6.2036 5.6701C6.17573 5.72918 6.13649 5.78219 6.08813 5.8261C6.03977 5.87001 5.98323 5.90397 5.92175 5.92603C5.86026 5.94809 5.79504 5.95783 5.72979 5.95468C5.66454 5.95154 5.60055 5.93557 5.54148 5.9077C5.4824 5.87982 5.42939 5.84058 5.38548 5.79222C5.34157 5.74386 5.30761 5.68732 5.28555 5.62584C5.26349 5.56436 5.25375 5.49913 5.2569 5.43388C5.2608 5.34764 5.32078 4.57079 6.13596 3.91496C6.55863 3.57497 7.09629 3.39824 7.73296 3.39043C8.18367 3.38511 8.60705 3.46141 8.89416 3.59697C9.75335 4.00332 10.2254 4.68081 10.2254 5.50202C10.2254 6.70261 9.42295 7.24169 8.71494 7.7176Z" fill="#EA2147"/>
</svg>
