<svg width="207" height="185" viewBox="0 0 207 185" fill="none" xmlns="http://www.w3.org/2000/svg">
<g clip-path="url(#clip0_6228_14863)">
<path d="M106.011 0.403656L99.2753 2.13328L16.2936 23.4426L9.55818 25.1722C6.28889 26.0157 3.48907 28.1161 1.77299 31.0126C0.0569153 33.9091 -0.435288 37.3652 0.40437 40.6226L29.6106 153.402C30.4576 156.657 32.5669 159.445 35.4756 161.154C38.3843 162.863 41.855 163.353 45.1262 162.517L45.1436 162.512L141.561 137.753L141.579 137.748C144.848 136.905 147.648 134.805 149.364 131.908C151.08 129.012 151.572 125.555 150.733 122.298L121.526 9.51903C120.679 6.26348 118.57 3.47543 115.661 1.76655C112.753 0.0576786 109.282 -0.432465 106.011 0.403656Z" fill="#E2E8F0"/>
<path d="M106.928 3.93923L98.9507 5.98785L18.4532 26.6592L10.4757 28.7078C8.14758 29.3085 6.15376 30.8042 4.9317 32.8669C3.70963 34.9295 3.35911 37.3907 3.95705 39.7104L33.1633 152.489C33.7665 154.808 35.2685 156.793 37.3399 158.01C39.4113 159.227 41.8828 159.576 44.2123 158.981L44.2297 158.976L140.647 134.217L140.665 134.212C142.993 133.611 144.987 132.116 146.209 130.053C147.431 127.99 147.781 125.529 147.183 123.209L117.977 10.4305C117.374 8.11217 115.872 6.12675 113.801 4.90982C111.729 3.69289 109.258 3.34383 106.928 3.93923Z" fill="white"/>
<path d="M100.903 40.46L52.1275 52.9853C51.5828 53.1252 51.0045 53.0439 50.5199 52.7592C50.0354 52.4746 49.6843 52.0099 49.5438 51.4674C49.4033 50.9249 49.485 50.3491 49.7708 49.8666C50.0567 49.3841 50.5234 49.0344 51.0681 48.8945L99.8435 36.3692C100.388 36.2299 100.966 36.3115 101.45 36.5962C101.934 36.881 102.285 37.3454 102.425 37.8876C102.566 38.4298 102.484 39.0053 102.199 39.4876C101.913 39.97 101.447 40.3197 100.903 40.46Z" fill="#E2E8F0"/>
<path d="M111.165 45.1871L53.9166 59.8882C53.3718 60.0281 52.7935 59.9468 52.309 59.6621C51.8245 59.3774 51.4733 58.9127 51.3328 58.3703C51.1923 57.8278 51.274 57.2519 51.5599 56.7694C51.8458 56.2869 52.3124 55.9372 52.8572 55.7974L110.106 41.0962C110.65 40.9563 111.229 41.0377 111.713 41.3223C112.198 41.607 112.549 42.0717 112.689 42.6142C112.83 43.1566 112.748 43.7325 112.462 44.215C112.176 44.6975 111.71 45.0472 111.165 45.1871Z" fill="#E2E8F0"/>
<path d="M108.915 71.397L60.1392 83.9223C59.8695 83.9916 59.5887 84.0073 59.3129 83.9685C59.037 83.9297 58.7716 83.8372 58.5317 83.6962C58.2917 83.5553 58.082 83.3686 57.9146 83.147C57.7471 82.9253 57.625 82.673 57.5555 82.4044C57.4859 82.1358 57.4702 81.8561 57.5091 81.5815C57.5481 81.3068 57.641 81.0425 57.7825 80.8036C57.9241 80.5646 58.1115 80.3558 58.3341 80.189C58.5567 80.0222 58.8101 79.9007 59.0798 79.8315L107.855 67.3062C108.125 67.2369 108.406 67.2212 108.682 67.26C108.957 67.2988 109.223 67.3913 109.463 67.5323C109.703 67.6732 109.912 67.8599 110.08 68.0815C110.247 68.3032 110.369 68.5555 110.439 68.8241C110.509 69.0927 110.524 69.3724 110.485 69.647C110.446 69.9217 110.353 70.186 110.212 70.425C110.07 70.6639 109.883 70.8727 109.66 71.0395C109.438 71.2063 109.184 71.3278 108.915 71.397Z" fill="#E2E8F0"/>
<path d="M119.177 76.1246L61.9283 90.8257C61.6586 90.895 61.3778 90.9107 61.1019 90.8719C60.8261 90.8331 60.5606 90.7406 60.3207 90.5996C60.0808 90.4586 59.8711 90.272 59.7036 90.0504C59.5361 89.8287 59.4141 89.5764 59.3445 89.3078C59.275 89.0392 59.2592 88.7595 59.2982 88.4849C59.3372 88.2102 59.4301 87.9458 59.5716 87.7069C59.7132 87.468 59.9006 87.2592 60.1232 87.0924C60.3458 86.9256 60.5992 86.8041 60.8689 86.7349L118.117 72.0337C118.662 71.8938 119.24 71.9752 119.725 72.2598C120.209 72.5445 120.561 73.0092 120.701 73.5517C120.842 74.0942 120.76 74.67 120.474 75.1525C120.188 75.635 119.721 75.9847 119.177 76.1246Z" fill="#E2E8F0"/>
<path d="M116.925 102.335L68.1495 114.86C67.6049 114.999 67.027 114.918 66.5428 114.633C66.0585 114.348 65.7076 113.884 65.5672 113.342C65.4268 112.799 65.5083 112.224 65.7939 111.741C66.0795 111.259 66.5457 110.909 67.0901 110.769L115.866 98.2437C116.41 98.1038 116.989 98.1851 117.473 98.4698C117.958 98.7545 118.309 99.2191 118.449 99.7616C118.59 100.304 118.508 100.88 118.222 101.362C117.936 101.845 117.47 102.195 116.925 102.335Z" fill="#E2E8F0"/>
<path d="M127.186 107.062L69.9379 121.763C69.6681 121.833 69.3872 121.849 69.1111 121.81C68.8351 121.771 68.5695 121.679 68.3293 121.538C68.0892 121.397 67.8793 121.21 67.7117 120.989C67.5441 120.767 67.422 120.514 67.3524 120.246C67.2828 119.977 67.267 119.697 67.3061 119.422C67.3451 119.148 67.4382 118.883 67.5799 118.644C67.7216 118.405 67.9093 118.196 68.1321 118.03C68.3549 117.863 68.6086 117.741 68.8785 117.672L126.127 102.971C126.672 102.831 127.25 102.913 127.735 103.197C128.219 103.482 128.57 103.947 128.711 104.489C128.851 105.032 128.77 105.607 128.484 106.09C128.198 106.573 127.731 106.922 127.186 107.062Z" fill="#E2E8F0"/>
<path d="M43.8029 65.8278L26.5418 70.2604C26.2806 70.3272 26.0034 70.288 25.7712 70.1516C25.5389 70.0151 25.3705 69.7925 25.3029 69.5325L21.3406 54.2323C21.2735 53.9722 21.3128 53.6962 21.4499 53.465C21.5869 53.2337 21.8104 53.066 22.0715 52.9986L39.3326 48.566C39.5939 48.4993 39.871 48.5384 40.1032 48.6748C40.3355 48.8113 40.5039 49.0339 40.5716 49.2939L44.5338 64.5941C44.6009 64.8542 44.5616 65.1302 44.4246 65.3615C44.2875 65.5928 44.064 65.7605 43.8029 65.8278Z" fill="#E2E8F0"/>
<path d="M51.8146 96.7653L34.5535 101.198C34.2923 101.265 34.0151 101.226 33.7829 101.089C33.5506 100.953 33.3822 100.73 33.3146 100.47L29.3523 85.1698C29.2852 84.9097 29.3245 84.6337 29.4616 84.4025C29.5986 84.1712 29.8222 84.0035 30.0832 83.9361L47.3444 79.5035C47.6056 79.4368 47.8827 79.4759 48.115 79.6123C48.3472 79.7488 48.5156 79.9714 48.5833 80.2314L52.5456 95.5316C52.6126 95.7917 52.5733 96.0677 52.4363 96.299C52.2992 96.5302 52.0757 96.6979 51.8146 96.7653Z" fill="#E2E8F0"/>
<path d="M59.8264 127.702L42.5652 132.134C42.304 132.201 42.0269 132.162 41.7946 132.026C41.5623 131.889 41.3939 131.667 41.3263 131.407L37.364 116.106C37.297 115.846 37.3363 115.57 37.4733 115.339C37.6103 115.108 37.8339 114.94 38.0949 114.873L55.3561 110.44C55.6173 110.373 55.8944 110.412 56.1267 110.549C56.359 110.685 56.5274 110.908 56.595 111.168L60.5573 126.468C60.6243 126.728 60.585 127.004 60.448 127.235C60.311 127.467 60.0874 127.634 59.8264 127.702Z" fill="#E2E8F0"/>
<path d="M173.284 28.9912H73.6757C70.2985 28.995 67.0607 30.3326 64.6726 32.7107C62.2846 35.0887 60.9413 38.3129 60.9375 41.6759V158.145C60.9413 161.508 62.2846 164.732 64.6726 167.11C67.0607 169.488 70.2985 170.826 73.6757 170.829H173.284C176.661 170.826 179.899 169.488 182.287 167.11C184.675 164.732 186.018 161.508 186.022 158.145V41.6759C186.018 38.3129 184.675 35.0887 182.287 32.7107C179.899 30.3326 176.661 28.995 173.284 28.9912Z" fill="#E2E8F0"/>
<path d="M173.281 32.6426H73.6728C71.2678 32.6453 68.962 33.5978 67.2614 35.2913C65.5608 36.9847 64.6043 39.2807 64.6016 41.6756V158.144C64.6043 160.539 65.5608 162.835 67.2614 164.529C68.962 166.222 71.2678 167.175 73.6728 167.177H173.281C175.686 167.175 177.992 166.222 179.692 164.529C181.393 162.835 182.349 160.539 182.352 158.144V41.6756C182.349 39.2808 181.393 36.9847 179.692 35.2913C177.992 33.5979 175.686 32.6453 173.281 32.6426Z" fill="white"/>
<path d="M183.745 185C196.588 185 206.999 174.633 206.999 161.845C206.999 149.056 196.588 138.689 183.745 138.689C170.903 138.689 160.492 149.056 160.492 161.845C160.492 174.633 170.903 185 183.745 185Z" fill="#EA2147"/>
<path d="M194.869 158.824H186.781V150.77C186.781 149.969 186.461 149.201 185.893 148.635C185.324 148.068 184.552 147.75 183.748 147.75C182.943 147.75 182.172 148.068 181.603 148.635C181.034 149.201 180.715 149.969 180.715 150.77V158.824H172.627C171.822 158.824 171.051 159.143 170.482 159.709C169.913 160.275 169.594 161.044 169.594 161.845C169.594 162.646 169.913 163.414 170.482 163.98C171.051 164.547 171.822 164.865 172.627 164.865H180.715V172.919C180.715 173.72 181.034 174.488 181.603 175.055C182.172 175.621 182.943 175.939 183.748 175.939C184.552 175.939 185.324 175.621 185.893 175.055C186.461 174.488 186.781 173.72 186.781 172.919V164.865H194.869C195.673 164.865 196.445 164.547 197.014 163.98C197.582 163.414 197.902 162.646 197.902 161.845C197.902 161.044 197.582 160.275 197.014 159.709C196.445 159.143 195.673 158.824 194.869 158.824Z" fill="white"/>
<path d="M158.292 96.6427H107.921C107.642 96.643 107.366 96.5886 107.108 96.4825C106.85 96.3765 106.616 96.221 106.419 96.0248C106.222 95.8286 106.065 95.5956 105.959 95.3392C105.852 95.0828 105.797 94.8079 105.797 94.5303C105.797 94.2527 105.852 93.9778 105.959 93.7214C106.065 93.465 106.222 93.232 106.419 93.0358C106.616 92.8396 106.85 92.6841 107.108 92.5781C107.366 92.4721 107.642 92.4177 107.921 92.418H158.292C158.854 92.4186 159.393 92.6414 159.79 93.0375C160.187 93.4336 160.411 93.9705 160.411 94.5303C160.411 95.0901 160.187 95.6271 159.79 96.0231C159.393 96.4192 158.854 96.642 158.292 96.6427Z" fill="#E2E8F0"/>
<path d="M167.042 103.772H107.921C107.642 103.772 107.366 103.717 107.108 103.611C106.85 103.505 106.616 103.35 106.419 103.154C106.222 102.958 106.065 102.725 105.959 102.468C105.852 102.212 105.797 101.937 105.797 101.659C105.797 101.382 105.852 101.107 105.959 100.85C106.065 100.594 106.222 100.361 106.419 100.165C106.616 99.9685 106.85 99.813 107.108 99.707C107.366 99.601 107.642 99.5466 107.921 99.5469H167.042C167.604 99.5469 168.144 99.7694 168.542 100.166C168.94 100.562 169.163 101.099 169.163 101.659C169.163 102.219 168.94 102.757 168.542 103.153C168.144 103.549 167.604 103.772 167.042 103.772Z" fill="#E2E8F0"/>
<path d="M158.292 128.592H107.921C107.642 128.592 107.366 128.538 107.108 128.432C106.85 128.326 106.616 128.17 106.419 127.974C106.222 127.778 106.065 127.545 105.959 127.288C105.852 127.032 105.797 126.757 105.797 126.48C105.797 126.202 105.852 125.927 105.959 125.671C106.065 125.414 106.222 125.181 106.419 124.985C106.616 124.789 106.85 124.633 107.108 124.527C107.366 124.421 107.642 124.367 107.921 124.367H158.292C158.854 124.367 159.394 124.59 159.792 124.986C160.189 125.382 160.413 125.919 160.413 126.48C160.413 127.04 160.189 127.577 159.792 127.973C159.394 128.369 158.854 128.592 158.292 128.592Z" fill="#E2E8F0"/>
<path d="M167.042 135.721H107.921C107.642 135.721 107.366 135.667 107.108 135.561C106.85 135.455 106.616 135.299 106.419 135.103C106.222 134.907 106.065 134.674 105.959 134.417C105.852 134.161 105.797 133.886 105.797 133.608C105.797 133.331 105.852 133.056 105.959 132.8C106.065 132.543 106.222 132.31 106.419 132.114C106.616 131.918 106.85 131.762 107.108 131.656C107.366 131.55 107.642 131.496 107.921 131.496H167.042C167.321 131.496 167.597 131.55 167.854 131.656C168.112 131.762 168.346 131.918 168.543 132.114C168.741 132.31 168.897 132.543 169.004 132.8C169.111 133.056 169.165 133.331 169.165 133.608C169.165 133.886 169.111 134.161 169.004 134.417C168.897 134.674 168.741 134.907 168.543 135.103C168.346 135.299 168.112 135.455 167.854 135.561C167.597 135.667 167.321 135.721 167.042 135.721Z" fill="#E2E8F0"/>
<path d="M96.636 107.008H78.8101C78.5404 107.008 78.2819 106.901 78.0912 106.711C77.9005 106.521 77.7933 106.264 77.793 105.995V90.1945C77.7933 89.926 77.9005 89.6685 78.0912 89.4786C78.2819 89.2887 78.5404 89.1819 78.8101 89.1816H96.636C96.9056 89.1819 97.1642 89.2887 97.3549 89.4786C97.5456 89.6685 97.6528 89.926 97.6531 90.1945V105.995C97.6528 106.264 97.5456 106.521 97.3549 106.711C97.1642 106.901 96.9056 107.008 96.636 107.008Z" fill="#E2E8F0"/>
<path d="M96.636 138.957H78.8101C78.5404 138.957 78.2819 138.85 78.0912 138.66C77.9005 138.471 77.7933 138.213 77.793 137.944V122.144C77.7933 121.875 77.9005 121.618 78.0912 121.428C78.2819 121.238 78.5404 121.131 78.8101 121.131H96.636C96.9056 121.131 97.1642 121.238 97.3549 121.428C97.5456 121.618 97.6528 121.875 97.6531 122.144V137.944C97.6528 138.213 97.5456 138.471 97.3549 138.66C97.1642 138.85 96.9056 138.957 96.636 138.957Z" fill="#E2E8F0"/>
<path d="M158.348 61.0762H121.211C120.649 61.0762 120.109 60.8537 119.711 60.4576C119.313 60.0614 119.09 59.5241 119.09 58.9639C119.09 58.4037 119.313 57.8664 119.711 57.4702C120.109 57.0741 120.649 56.8516 121.211 56.8516H158.348C158.91 56.8516 159.45 57.0741 159.848 57.4702C160.245 57.8664 160.469 58.4037 160.469 58.9639C160.469 59.5241 160.245 60.0614 159.848 60.4576C159.45 60.8537 158.91 61.0762 158.348 61.0762Z" fill="#DBE0E7"/>
<path d="M167.098 68.2061H121.211C120.933 68.2061 120.657 68.1515 120.399 68.0453C120.142 67.9392 119.908 67.7836 119.711 67.5874C119.514 67.3913 119.358 67.1584 119.251 66.9021C119.145 66.6459 119.09 66.3712 119.09 66.0938C119.09 65.8164 119.145 65.5417 119.251 65.2854C119.358 65.0291 119.514 64.7963 119.711 64.6001C119.908 64.404 120.142 64.2484 120.399 64.1422C120.657 64.0361 120.933 63.9814 121.211 63.9814H167.098C167.66 63.9814 168.2 64.204 168.598 64.6001C168.996 64.9963 169.219 65.5336 169.219 66.0938C169.219 66.654 168.996 67.1913 168.598 67.5874C168.2 67.9836 167.66 68.2061 167.098 68.2061Z" fill="#DBE0E7"/>
<path d="M112.992 76.8451H78.7554C78.4858 76.8448 78.2272 76.738 78.0365 76.5481C77.8458 76.3582 77.7386 76.1008 77.7383 75.8322V49.2248C77.7386 48.9562 77.8458 48.6988 78.0365 48.5089C78.2272 48.319 78.4858 48.2122 78.7554 48.2119H112.992C113.262 48.2122 113.52 48.319 113.711 48.5089C113.902 48.6988 114.009 48.9562 114.009 49.2248V75.8322C114.009 76.1008 113.902 76.3582 113.711 76.5481C113.52 76.738 113.262 76.8448 112.992 76.8451Z" fill="#EA2147"/>
</g>
<defs>
<clipPath id="clip0_6228_14863">
<rect width="207" height="185" fill="white"/>
</clipPath>
</defs>
</svg>
