<svg width="21" height="20" viewBox="0 0 21 20" fill="none" xmlns="http://www.w3.org/2000/svg">
<path d="M3.5 6H4.94444M4.94444 6H16.5M4.94444 6V16.5C4.94444 16.8978 5.09663 17.2794 5.36751 17.5607C5.6384 17.842 6.0058 18 6.38889 18H13.6111C13.9942 18 14.3616 17.842 14.6325 17.5607C14.9034 17.2794 15.0556 16.8978 15.0556 16.5V6H4.94444ZM7.11111 6V4.5C7.11111 4.10218 7.26329 3.72064 7.53418 3.43934C7.80507 3.15804 8.17246 3 8.55556 3H11.4444C11.8275 3 12.1949 3.15804 12.4658 3.43934C12.7367 3.72064 12.8889 4.10218 12.8889 4.5V6M8.55556 9.75V14.25M11.4444 9.75V14.25" stroke="#EA1B40" stroke-linecap="round" stroke-linejoin="round"/>
</svg>
