<svg width="16" height="12" viewBox="0 0 16 12" fill="none" xmlns="http://www.w3.org/2000/svg">
<path d="M2 12C1.5875 12 1.2345 11.8533 0.941 11.5597C0.6475 11.2662 0.5005 10.913 0.5 10.5V1.5C0.5 1.0875 0.647 0.7345 0.941 0.441C1.235 0.1475 1.588 0.0005 2 0H10.25C10.4875 0 10.7125 0.0532499 10.925 0.15975C11.1375 0.26625 11.3125 0.413 11.45 0.6L14.825 5.1C15.025 5.3625 15.125 5.6625 15.125 6C15.125 6.3375 15.025 6.6375 14.825 6.9L11.45 11.4C11.3125 11.5875 11.1375 11.7345 10.925 11.841C10.7125 11.9475 10.4875 12.0005 10.25 12H2ZM2 10.5H10.25L13.625 6L10.25 1.5H2V10.5Z" fill="#EA1B40"/>
</svg>
