<svg width="15" height="15" viewBox="0 0 15 15" fill="none" xmlns="http://www.w3.org/2000/svg">
<g clip-path="url(#clip0_689_2082)">
<path d="M3.50977 14.4238H2.63477C2.46072 14.4238 2.2938 14.3547 2.17073 14.2316C2.04766 14.1085 1.97852 13.9416 1.97852 13.7676V9.83008C1.97852 9.65603 2.04766 9.48911 2.17073 9.36604C2.2938 9.24297 2.46072 9.17383 2.63477 9.17383H3.50977C3.68381 9.17383 3.85073 9.24297 3.9738 9.36604C4.09687 9.48911 4.16601 9.65603 4.16601 9.83008V13.7676C4.16601 13.9416 4.09687 14.1085 3.9738 14.2316C3.85073 14.3547 3.68381 14.4238 3.50977 14.4238Z" fill="#EA1B40"/>
<path d="M9.63477 14.4238H8.75977C8.58572 14.4238 8.4188 14.3547 8.29573 14.2316C8.17266 14.1085 8.10352 13.9416 8.10352 13.7676V7.20508C8.10352 7.03103 8.17266 6.86411 8.29573 6.74104C8.4188 6.61797 8.58572 6.54883 8.75977 6.54883H9.63477C9.80881 6.54883 9.97573 6.61797 10.0988 6.74104C10.2219 6.86411 10.291 7.03103 10.291 7.20508V13.7676C10.291 13.9416 10.2219 14.1085 10.0988 14.2316C9.97573 14.3547 9.80881 14.4238 9.63477 14.4238Z" fill="#EA1B40"/>
<path d="M12.6973 14.4238H11.8223C11.6482 14.4238 11.4813 14.3547 11.3582 14.2316C11.2352 14.1085 11.166 13.9416 11.166 13.7676V4.14258C11.166 3.96853 11.2352 3.80161 11.3582 3.67854C11.4813 3.55547 11.6482 3.48633 11.8223 3.48633H12.6973C12.8713 3.48633 13.0382 3.55547 13.1613 3.67854C13.2844 3.80161 13.3535 3.96853 13.3535 4.14258V13.7676C13.3535 13.9416 13.2844 14.1085 13.1613 14.2316C13.0382 14.3547 12.8713 14.4238 12.6973 14.4238Z" fill="#EA1B40"/>
<path d="M6.57227 14.4238H5.69727C5.52322 14.4238 5.3563 14.3547 5.23323 14.2316C5.11016 14.1085 5.04102 13.9416 5.04102 13.7676V1.95508C5.04102 1.78103 5.11016 1.61411 5.23323 1.49104C5.3563 1.36797 5.52322 1.29883 5.69727 1.29883H6.57227C6.74631 1.29883 6.91323 1.36797 7.0363 1.49104C7.15937 1.61411 7.22851 1.78103 7.22851 1.95508V13.7676C7.22851 13.9416 7.15937 14.1085 7.0363 14.2316C6.91323 14.3547 6.74631 14.4238 6.57227 14.4238Z" fill="#EA1B40"/>
</g>
<defs>
<clipPath id="clip0_689_2082">
<rect width="14" height="14" fill="white" transform="translate(0.666016 0.861328)"/>
</clipPath>
</defs>
</svg>
