<svg width="16" height="17" viewBox="0 0 16 17" fill="none" xmlns="http://www.w3.org/2000/svg">
<path d="M9.88783 11.6618C9.73293 11.5725 9.63748 11.4073 9.63748 11.2285V9.25C9.63748 8.97386 9.86133 8.75 10.1375 8.75H10.2635C10.5397 8.75 10.7635 8.97386 10.7635 9.25V10.5763C10.7635 10.755 10.8589 10.92 11.0136 11.0093L12.1622 11.6725C12.4014 11.8106 12.4833 12.1164 12.3452 12.3555L12.2821 12.4649C12.1441 12.7039 11.8385 12.7859 11.5994 12.6481L9.88783 11.6618ZM13.3454 1.29556C13.1633 1.47756 12.8681 1.47756 12.6859 1.29556L12.243 0.853049C12.0478 0.658011 11.7315 0.658011 11.5362 0.853049L11.1169 1.27195C10.9217 1.46699 10.6054 1.46699 10.4102 1.27195L9.99086 0.853049C9.79564 0.658011 9.47931 0.658011 9.28409 0.853049L8.86479 1.27195C8.66957 1.46699 8.35324 1.46699 8.15802 1.27195L7.73872 0.853049C7.5435 0.658011 7.22717 0.658011 7.03195 0.853049L6.61265 1.27195C6.41742 1.46699 6.1011 1.46699 5.90588 1.27195L5.48658 0.853049C5.29135 0.658011 4.97503 0.658011 4.77981 0.853049L4.36051 1.27195C4.16528 1.46699 3.84896 1.46699 3.65373 1.27195L3.23443 0.853049C3.03921 0.658011 2.72289 0.658011 2.52766 0.853049L2.08473 1.29556C1.90256 1.47756 1.60739 1.47756 1.42522 1.29556C1.13124 1.00186 0.628906 1.21007 0.628906 1.62563V14.3744C0.628906 14.7899 1.13124 14.9981 1.42522 14.7044C1.60739 14.5224 1.90256 14.5224 2.08473 14.7044L2.52766 15.1469C2.72289 15.342 3.03921 15.342 3.23443 15.1469L3.65373 14.728C3.84896 14.533 4.16528 14.533 4.36051 14.728L4.77981 15.1469C4.97503 15.342 5.29135 15.342 5.48658 15.1469L5.94294 14.691C6.14107 14.4931 6.47403 14.5146 6.67216 14.7125C7.65703 15.6817 8.9845 16.2243 10.367 16.2226C11.7494 16.2209 13.0755 15.675 14.058 14.7034C15.0405 13.7317 15.6002 12.4124 15.6159 11.0314C15.6308 9.71777 15.1524 8.44892 14.2794 7.47303C14.193 7.37641 14.1418 7.25254 14.1418 7.1229V1.62563C14.1418 1.21007 13.6394 1.00186 13.3454 1.29556ZM5.45656 7.25C5.90833 7.25 6.16226 7.83804 5.92451 8.2222C5.87423 8.30345 5.82603 8.38619 5.77987 8.4703C5.6874 8.63882 5.51391 8.75 5.32168 8.75H3.38105C3.10491 8.75 2.88105 8.52614 2.88105 8.25V7.75C2.88105 7.47386 3.10491 7.25 3.38105 7.25H5.45656ZM4.56843 10.25C4.88637 10.25 5.1356 10.5461 5.13349 10.864C5.13319 10.9091 5.13319 10.9544 5.13319 11C5.13319 11.0456 5.13319 11.0909 5.13349 11.136C5.1356 11.4539 4.88637 11.75 4.56843 11.75H3.38105C3.10491 11.75 2.88105 11.5261 2.88105 11.25V10.75C2.88105 10.4739 3.10491 10.25 3.38105 10.25H4.56843ZM11.8896 5.25C11.8896 5.52614 11.6658 5.75 11.3896 5.75H3.38105C3.10491 5.75 2.88105 5.52614 2.88105 5.25V4.75C2.88105 4.47386 3.10491 4.25 3.38105 4.25H11.3896C11.6658 4.25 11.8896 4.47386 11.8896 4.75V5.25ZM14.0292 11C14.0292 11.48 13.9391 11.9525 13.7664 12.395C13.5712 12.83 13.301 13.25 12.9631 13.5725C12.6403 13.91 12.2199 14.18 11.7845 14.375C11.3416 14.5475 10.8686 14.6375 10.3882 14.6375C8.37628 14.6375 6.74723 13.01 6.74723 11C6.74723 10.0325 7.13009 9.125 7.81324 8.4275C8.5114 7.745 9.41977 7.3625 10.3882 7.3625C12.3926 7.3625 14.0292 8.99 14.0292 11Z" fill="white"/>
</svg>
