<svg width="6" height="10" viewBox="0 0 6 10" fill="none" xmlns="http://www.w3.org/2000/svg">
<path fill-rule="evenodd" clip-rule="evenodd" d="M5.47278 4.52879C5.59776 4.65381 5.66797 4.82334 5.66797 5.00012C5.66797 5.1769 5.59776 5.34643 5.47278 5.47145L1.70144 9.24279C1.57571 9.36423 1.40731 9.43142 1.23251 9.4299C1.05771 9.42838 0.890504 9.35827 0.766899 9.23466C0.643293 9.11106 0.573181 8.94385 0.571662 8.76905C0.570143 8.59426 0.637339 8.42586 0.758778 8.30012L4.05878 5.00012L0.758778 1.70012C0.637339 1.57439 0.570143 1.40598 0.571662 1.23119C0.573181 1.05639 0.643293 0.88918 0.766899 0.765575C0.890504 0.641969 1.05771 0.571857 1.23251 0.570338C1.40731 0.568819 1.57571 0.636015 1.70144 0.757454L5.47278 4.52879Z" fill="white"/>
</svg>
