<svg width="16" height="16" viewBox="0 0 16 16" fill="none" xmlns="http://www.w3.org/2000/svg">
<path d="M13.813 8.70653C14.0003 8.51903 14.1055 8.26486 14.1055 7.99986C14.1055 7.73486 14.0003 7.48069 13.813 7.29319L10.0423 3.52053C9.85475 3.33293 9.60032 3.22754 9.33502 3.22754C9.06971 3.22754 8.81528 3.33293 8.62768 3.52053C8.44008 3.70812 8.33469 3.96256 8.33469 4.22786C8.33469 4.49316 8.44008 4.7476 8.62768 4.93519L10.6917 6.99986L3.00168 6.99986C2.73647 6.99986 2.48211 7.10522 2.29458 7.29275C2.10704 7.48029 2.00168 7.73464 2.00168 7.99986C2.00168 8.26508 2.10704 8.51943 2.29458 8.70697C2.48211 8.8945 2.73647 8.99986 3.00168 8.99986L10.6917 8.99986L8.62768 11.0639C8.53479 11.1567 8.46111 11.267 8.41084 11.3884C8.36057 11.5098 8.33469 11.6398 8.33469 11.7712C8.33469 11.9026 8.36057 12.0326 8.41084 12.154C8.46111 12.2754 8.53479 12.3856 8.62768 12.4785C8.72057 12.5714 8.83084 12.6451 8.95221 12.6954C9.07357 12.7456 9.20365 12.7715 9.33502 12.7715C9.46638 12.7715 9.59646 12.7456 9.71782 12.6954C9.83919 12.6451 9.94946 12.5714 10.0423 12.4785L13.813 8.70653Z" fill="white"/>
</svg>
