<svg width="17" height="18" viewBox="0 0 17 18" fill="none" xmlns="http://www.w3.org/2000/svg">
<path d="M6.85288 0.818359C5.08477 0.818359 3.38908 1.52074 2.13884 2.77098C0.888597 4.02122 0.186218 5.71692 0.186218 7.48503C0.186218 9.25314 0.888597 10.9488 2.13884 12.1991C3.38908 13.4493 5.08477 14.1517 6.85288 14.1517C8.62099 14.1517 10.3167 13.4493 11.5669 12.1991C12.8172 10.9488 13.5196 9.25314 13.5196 7.48503C13.5196 5.71692 12.8172 4.02122 11.5669 2.77098C10.3167 1.52074 8.62099 0.818359 6.85288 0.818359Z" fill="#718096"/>
<path fill-rule="evenodd" clip-rule="evenodd" d="M16.6087 17.241C16.4524 17.3973 16.2405 17.485 16.0195 17.485C15.7986 17.485 15.5867 17.3973 15.4304 17.241L12.5137 14.3244C12.3619 14.1672 12.2779 13.9567 12.2798 13.7382C12.2817 13.5197 12.3694 13.3107 12.5239 13.1562C12.6784 13.0017 12.8874 12.914 13.1059 12.9121C13.3244 12.9102 13.5349 12.9942 13.692 13.146L16.6087 16.0627C16.7649 16.219 16.8527 16.4309 16.8527 16.6519C16.8527 16.8728 16.7649 17.0848 16.6087 17.241Z" fill="#718096"/>
</svg>
