<svg width="284" height="244" viewBox="0 0 284 244" fill="none" xmlns="http://www.w3.org/2000/svg">
<path d="M212.915 183.977C212.093 183.977 211.285 183.756 210.577 183.337C209.869 182.918 209.287 182.317 208.891 181.597L203.716 172.229C203.321 171.511 203.124 170.7 203.146 169.88C203.169 169.061 203.41 168.262 203.845 167.567C204.28 166.871 204.892 166.305 205.619 165.926C206.346 165.547 207.162 165.369 207.981 165.41L217.374 165.89C218.236 165.939 219.068 166.227 219.775 166.722C220.483 167.217 221.038 167.901 221.378 168.694L224.121 175.181C224.366 175.762 224.49 176.388 224.484 177.018C224.478 177.649 224.342 178.272 224.086 178.848C223.829 179.424 223.456 179.941 222.992 180.368C222.527 180.794 221.979 181.12 221.383 181.326L214.426 183.727C213.942 183.896 213.432 183.982 212.919 183.982L212.915 183.977Z" fill="#090814"/>
<path d="M227.755 240.356L233.86 239.038L231.674 214.877L222.672 216.821L227.755 240.356Z" fill="#9F616A"/>
<path d="M248.634 235.703C248.895 235.981 249.219 236.992 249.298 237.367C249.358 237.639 249.363 237.92 249.313 238.194C249.263 238.467 249.16 238.729 249.009 238.963C248.858 239.196 248.663 239.398 248.433 239.556C248.204 239.714 247.946 239.825 247.674 239.883L228.778 243.966C228.403 244.047 228.012 243.975 227.689 243.768C227.367 243.56 227.14 243.233 227.057 242.859L226.887 242.069C226.887 242.069 225.439 239.905 226.734 236.577C226.734 236.577 229.619 238.344 232.419 233.993L233.061 231.857L241.898 235.787L246.237 235.396C247.185 235.31 247.981 234.998 248.628 235.702H248.633L248.634 235.703Z" fill="#090814"/>
<path d="M238.672 238.508L243.761 234.897L232.248 213.542L224.734 218.868L238.672 238.508Z" fill="#9F616A"/>
<path d="M256.035 226.014C256.524 226.361 256.951 226.789 257.295 227.28C257.621 227.738 257.751 228.307 257.657 228.86C257.563 229.414 257.253 229.908 256.795 230.233L241.029 241.422C240.716 241.642 240.329 241.73 239.951 241.667C239.573 241.603 239.236 241.392 239.013 241.081L238.547 240.422C238.547 240.422 236.366 239.002 236.246 235.43C236.246 235.43 239.591 235.918 240.459 230.818L240.209 228.603L249.881 228.739L253.721 226.672C254.561 226.218 255.169 225.621 256.038 226.013L256.035 226.014Z" fill="#090814"/>
<path d="M172.075 129.064C172.075 129.064 163.54 140.669 180.61 153.72L215.471 142.58L203.018 116.612L191.991 110.564L172.071 129.06L172.075 129.064Z" fill="#090814"/>
<path d="M215.479 142.585L228.994 168.905L237.534 223.691L226.864 224.401L216.189 172.465L197.336 144.362L210.499 138.314" fill="#090814"/>
<path d="M180.613 145.455V153.724L204.804 180.289C204.804 180.289 204.804 200.21 214.054 209.46L224.724 225.825L233.974 220.846L220.459 173.18L196.269 141.874L180.619 145.455H180.614H180.613Z" fill="#090814"/>
<path d="M197.804 63.4807L193.246 80.8521L175.875 77.4351C175.875 77.4351 187.996 64.9369 186.29 59.2412L197.808 63.4807H197.803H197.804Z" fill="#9F616A"/>
<path d="M184.531 66.1016L195.201 71.0817C195.201 71.0817 200.691 74.4374 200.795 76.6758C200.898 78.9141 200.182 89.5832 200.182 89.5832C200.182 89.5832 204.452 93.8535 201.607 102.388L203.032 116.619L171.016 133.691L173.861 103.81L172.436 76.0647L184.531 66.1044L184.531 66.1016Z" fill="#EA1F43"/>
<path d="M174.95 147.07C176.201 149.935 178.694 151.616 180.517 150.819C182.341 150.022 182.806 147.055 181.559 144.189C181.076 143.036 180.323 142.016 179.364 141.215L173.914 129.135L168.301 131.811L174.266 143.437C174.199 144.685 174.434 145.931 174.95 147.069V147.07Z" fill="#9F616A"/>
<path d="M180.616 77.8433C180.616 77.8433 172.791 72.8632 169.945 78.5532C167.1 84.2432 160.695 113.413 160.695 113.413L169.945 141.158L178.481 137.603L171.008 107.744L180.611 77.8433H180.616Z" fill="#EA1F43"/>
<path d="M220.726 142.59C222.943 144.796 225.88 145.44 227.285 144.025C228.69 142.61 228.025 139.684 225.809 137.477C224.934 136.584 223.859 135.913 222.672 135.521L213.156 126.296L208.922 130.852L218.75 139.459C219.15 140.644 219.827 141.716 220.727 142.585L220.726 142.59Z" fill="#9F616A"/>
<path d="M200.491 76.1432C200.491 76.1432 186.849 75.5874 186.297 81.925C185.745 88.2626 195.078 116.552 195.078 116.552L213.9 138.939L220.525 132.488L202.581 107.48L200.497 76.1432H200.491Z" fill="#EA1F43"/>
<path d="M205.218 54.1941C205.218 56.5388 204.523 58.8309 203.22 60.7805C201.918 62.73 200.066 64.2495 197.9 65.1468C195.734 66.0441 193.35 66.2789 191.05 65.8215C188.751 65.364 186.638 64.2349 184.98 62.577C183.322 60.919 182.193 58.8066 181.736 56.5069C181.278 54.2072 181.513 51.8235 182.41 49.6573C183.308 47.491 184.827 45.6395 186.777 44.3368C188.726 43.0342 191.018 42.3389 193.363 42.3389C194.92 42.3387 196.462 42.6453 197.9 43.241C199.338 43.8367 200.645 44.71 201.746 45.8109C202.847 46.9117 203.72 48.2187 204.316 49.6571C204.912 51.0955 205.218 52.6372 205.218 54.1941Z" fill="#9F616A"/>
<path d="M192.421 38.2578C192.763 38.4571 193.223 38.1555 193.335 37.7724C193.405 37.3788 193.356 36.9733 193.193 36.6079C192.979 35.9745 192.769 35.3464 192.556 34.713C192.101 33.3697 191.621 31.9804 190.641 30.96C189.157 29.4163 186.797 29.0229 184.678 29.309C181.955 29.6769 179.268 31.148 178.002 33.5892C176.735 36.0304 177.276 39.4311 179.565 40.9536C176.301 44.6924 175.167 48.8603 175.346 53.815C175.525 58.7696 180.929 63.3359 184.453 66.8297C185.24 66.3546 185.955 64.1176 185.521 63.3054C185.087 62.4932 185.71 61.5536 185.173 60.8026C184.637 60.0517 184.188 61.247 184.729 60.5013C185.071 60.0315 183.738 58.9537 184.244 58.6726C186.7 57.3141 187.518 54.2494 189.059 51.9049C190.003 50.4923 191.247 49.3059 192.703 48.4306C194.159 47.5554 195.791 47.0128 197.481 46.8419C199.34 46.668 201.302 46.9835 202.824 48.0626C204.346 49.1418 205.332 51.0661 204.98 52.8997C205.439 52.4336 205.787 51.8685 205.995 51.2476C206.203 50.6267 206.266 49.9664 206.18 49.3173C206.093 48.6682 205.86 48.0474 205.497 47.5024C205.134 46.9574 204.651 46.5026 204.086 46.1727C204.416 45.0345 204.453 43.8311 204.192 42.6749C203.932 41.5187 203.383 40.4474 202.596 39.5611C201.007 37.8092 194.566 38.1094 192.247 38.5697L192.424 38.2631L192.419 38.2581L192.421 38.2578Z" fill="#090814"/>
<path d="M192.062 46.9116C188.992 47.2437 186.776 49.9048 184.901 52.3615C183.823 53.7778 182.689 55.3395 182.72 57.1218C182.746 58.9197 183.951 60.4673 184.528 62.1682C184.977 63.5746 185.007 65.0811 184.614 66.5041C184.221 67.927 183.423 69.205 182.316 70.1822C183.431 70.3508 184.568 70.0865 185.494 69.4435C186.42 68.8005 187.065 67.8275 187.297 66.7242C187.741 64.1449 185.785 61.6523 186.015 59.0412C186.219 56.7426 188.033 54.9755 189.57 53.2541C191.107 51.5327 192.557 49.2533 191.848 47.0582L192.062 46.9102V46.9116Z" fill="#090814"/>
<path d="M268.004 243.392C268.004 243.472 267.989 243.551 267.958 243.625C267.928 243.699 267.883 243.766 267.826 243.822C267.77 243.879 267.703 243.924 267.629 243.954C267.555 243.985 267.476 244 267.396 244H0.622583C0.54154 244.002 0.460924 243.988 0.385478 243.958C0.310033 243.928 0.241282 243.884 0.183272 243.827C0.125261 243.77 0.0791628 243.703 0.0476885 243.628C0.0162142 243.553 0 243.473 0 243.392C0 243.311 0.0162142 243.231 0.0476885 243.156C0.0791628 243.081 0.125261 243.014 0.183272 242.957C0.241282 242.9 0.310033 242.856 0.385478 242.826C0.460924 242.797 0.54154 242.782 0.622583 242.784H267.397C267.477 242.784 267.556 242.8 267.63 242.831C267.703 242.861 267.77 242.906 267.827 242.962C267.883 243.019 267.928 243.086 267.958 243.159C267.989 243.233 268.004 243.312 268.004 243.392Z" fill="#F2F2F2"/>
<path d="M157.059 133.933H78.579C74.3052 133.933 70.2066 135.63 67.1846 138.652C64.1626 141.674 62.4648 145.773 62.4648 150.047V226.147C62.4648 228.263 62.8816 230.359 63.6915 232.314C64.5013 234.269 65.6882 236.045 67.1846 237.542C68.6809 239.038 70.4573 240.225 72.4124 241.035C74.3674 241.844 76.4628 242.261 78.579 242.261H157.059C161.332 242.261 165.431 240.563 168.453 237.542C171.475 234.52 173.173 230.421 173.173 226.147V150.047C173.173 145.773 171.475 141.674 168.453 138.652C165.431 135.63 161.332 133.933 157.059 133.933Z" fill="white"/>
<path d="M157.175 242.783H78.695C74.3216 242.778 70.1287 241.038 67.0362 237.946C63.9437 234.854 62.2042 230.661 62.1992 226.287V150.187C62.2042 145.814 63.9437 141.621 67.0362 138.528C70.1287 135.436 74.3216 133.696 78.695 133.691H157.175C161.548 133.696 165.741 135.436 168.834 138.528C171.926 141.621 173.666 145.814 173.671 150.187V226.287C173.666 230.661 171.926 234.854 168.834 237.946C165.741 241.039 161.548 242.778 157.175 242.783ZM78.695 134.455C74.5239 134.459 70.5249 136.119 67.5754 139.068C64.626 142.017 62.9669 146.016 62.9622 150.188V226.287C62.9669 230.458 64.626 234.457 67.5754 237.407C70.5249 240.356 74.5239 242.015 78.695 242.02H157.175C161.346 242.015 165.345 240.356 168.295 237.407C171.244 234.457 172.903 230.458 172.908 226.287V150.187C172.903 146.016 171.244 142.017 168.295 139.068C165.345 136.118 161.346 134.459 157.175 134.454L78.695 134.455Z" fill="#090814"/>
<path d="M78.8628 141.56C79.8679 141.56 80.6827 140.745 80.6827 139.74C80.6827 138.735 79.8679 137.92 78.8628 137.92C77.8577 137.92 77.043 138.735 77.043 139.74C77.043 140.745 77.8577 141.56 78.8628 141.56Z" fill="#3F3D56"/>
<path d="M83.8667 141.56C84.8718 141.56 85.6866 140.745 85.6866 139.74C85.6866 138.735 84.8718 137.92 83.8667 137.92C82.8616 137.92 82.0469 138.735 82.0469 139.74C82.0469 140.745 82.8616 141.56 83.8667 141.56Z" fill="#3F3D56"/>
<path d="M88.8706 141.56C89.8757 141.56 90.6905 140.745 90.6905 139.74C90.6905 138.735 89.8757 137.92 88.8706 137.92C87.8656 137.92 87.0508 138.735 87.0508 139.74C87.0508 140.745 87.8656 141.56 88.8706 141.56Z" fill="#3F3D56"/>
<path d="M156.411 226.393H84.4249C83.7476 226.393 83.098 226.124 82.6191 225.645C82.1402 225.166 81.8711 224.516 81.8711 223.839C81.8711 223.162 82.1402 222.512 82.6191 222.033C83.098 221.554 83.7476 221.285 84.4249 221.285H156.411C157.089 221.285 157.738 221.554 158.217 222.033C158.696 222.512 158.965 223.162 158.965 223.839C158.965 224.516 158.696 225.166 158.217 225.645C157.738 226.124 157.089 226.393 156.411 226.393Z" fill="#E6E6E6"/>
<path d="M131.229 226.383H79.1145C77.9685 226.383 77.0391 225.24 77.0391 223.829C77.0391 222.419 77.9681 221.275 79.1145 221.275H131.229C132.375 221.275 133.304 222.419 133.304 223.829C133.304 225.24 132.375 226.383 131.229 226.383Z" fill="#EA1F43"/>
<path d="M117.937 205.67C114.918 205.669 111.993 204.625 109.656 202.714C107.319 200.802 105.715 198.142 105.116 195.183C104.517 192.225 104.959 189.15 106.367 186.48C107.776 183.81 110.064 181.709 112.845 180.534C114.456 179.852 116.188 179.503 117.937 179.507C118.106 179.504 118.275 179.535 118.432 179.598C118.589 179.661 118.733 179.755 118.854 179.873C118.974 179.992 119.07 180.134 119.136 180.29C119.201 180.447 119.235 180.614 119.235 180.784C119.235 180.953 119.201 181.121 119.136 181.278C119.07 181.434 118.974 181.576 118.854 181.694C118.733 181.813 118.589 181.907 118.432 181.97C118.275 182.033 118.106 182.064 117.937 182.061C115.508 182.063 113.155 182.904 111.275 184.442C109.396 185.98 108.106 188.121 107.624 190.501C107.142 192.881 107.497 195.355 108.63 197.503C109.763 199.652 111.603 201.342 113.84 202.289C115.441 202.966 117.184 203.237 118.915 203.076C120.646 202.915 122.31 202.328 123.758 201.367C125.207 200.406 126.395 199.102 127.216 197.57C128.037 196.038 128.466 194.326 128.465 192.588C128.462 192.418 128.493 192.25 128.556 192.093C128.619 191.935 128.712 191.792 128.831 191.671C128.95 191.55 129.092 191.454 129.248 191.389C129.404 191.323 129.572 191.29 129.742 191.29C129.911 191.29 130.079 191.323 130.235 191.389C130.392 191.454 130.533 191.55 130.652 191.671C130.771 191.792 130.865 191.935 130.928 192.093C130.99 192.25 131.021 192.418 131.019 192.588C131.02 194.306 130.682 196.008 130.026 197.596C129.369 199.183 128.405 200.626 127.19 201.841C125.975 203.056 124.532 204.02 122.945 204.677C121.357 205.334 119.655 205.671 117.937 205.67Z" fill="black"/>
<path d="M117.936 185.354C118.396 185.348 118.844 185.501 119.206 185.785C119.568 186.07 119.822 186.469 119.925 186.918C119.944 186.997 119.982 187.07 120.034 187.132C120.087 187.193 120.154 187.242 120.229 187.273C120.304 187.304 120.385 187.317 120.466 187.31C120.547 187.304 120.625 187.279 120.694 187.237C120.93 187.09 121.192 186.993 121.467 186.952C121.741 186.91 122.021 186.926 122.289 186.997C122.557 187.068 122.808 187.193 123.025 187.365C123.243 187.537 123.424 187.751 123.555 187.995C123.733 188.31 123.822 188.667 123.814 189.028C123.806 189.39 123.7 189.742 123.509 190.049C123.467 190.118 123.442 190.196 123.435 190.277C123.429 190.358 123.442 190.439 123.473 190.514C123.504 190.589 123.552 190.655 123.614 190.708C123.676 190.761 123.749 190.798 123.828 190.817C124.274 190.926 124.67 191.181 124.954 191.541C125.238 191.902 125.392 192.348 125.392 192.807C125.392 193.266 125.238 193.712 124.954 194.072C124.67 194.433 124.274 194.688 123.828 194.796C123.749 194.815 123.675 194.853 123.614 194.906C123.552 194.958 123.504 195.025 123.473 195.1C123.442 195.175 123.429 195.256 123.435 195.337C123.441 195.418 123.467 195.496 123.509 195.565C123.701 195.872 123.806 196.224 123.814 196.586C123.822 196.947 123.733 197.304 123.556 197.619C123.424 197.863 123.244 198.077 123.026 198.249C122.808 198.421 122.558 198.546 122.29 198.617C122.022 198.689 121.742 198.704 121.467 198.663C121.193 198.622 120.93 198.525 120.695 198.378C120.626 198.336 120.547 198.311 120.467 198.305C120.386 198.298 120.305 198.311 120.23 198.342C120.155 198.373 120.088 198.422 120.035 198.483C119.983 198.545 119.945 198.618 119.926 198.697C119.818 199.143 119.563 199.54 119.202 199.823C118.841 200.107 118.396 200.261 117.937 200.261C117.478 200.261 117.032 200.107 116.671 199.823C116.311 199.54 116.056 199.143 115.947 198.697C115.928 198.618 115.891 198.545 115.838 198.483C115.785 198.422 115.719 198.373 115.644 198.342C115.569 198.311 115.488 198.298 115.407 198.304C115.326 198.311 115.248 198.336 115.178 198.378C114.943 198.525 114.68 198.622 114.406 198.663C114.132 198.704 113.852 198.689 113.584 198.618C113.316 198.547 113.065 198.422 112.847 198.25C112.629 198.078 112.449 197.864 112.317 197.62C112.14 197.305 112.05 196.948 112.059 196.586C112.067 196.225 112.172 195.873 112.364 195.566C112.406 195.497 112.431 195.419 112.437 195.338C112.444 195.257 112.431 195.176 112.4 195.101C112.368 195.026 112.32 194.959 112.259 194.907C112.197 194.854 112.124 194.816 112.045 194.797C111.599 194.689 111.202 194.434 110.918 194.073C110.635 193.713 110.48 193.267 110.48 192.808C110.48 192.349 110.635 191.903 110.918 191.542C111.202 191.182 111.599 190.927 112.045 190.818C112.124 190.799 112.197 190.762 112.259 190.709C112.32 190.656 112.369 190.59 112.4 190.515C112.431 190.44 112.444 190.359 112.437 190.278C112.431 190.197 112.406 190.119 112.364 190.049C112.172 189.743 112.067 189.391 112.058 189.029C112.05 188.668 112.139 188.311 112.317 187.996C112.449 187.752 112.629 187.537 112.846 187.366C113.064 187.194 113.315 187.068 113.583 186.997C113.851 186.926 114.131 186.91 114.405 186.952C114.679 186.993 114.942 187.09 115.178 187.236C115.258 187.286 115.35 187.312 115.445 187.313C115.561 187.313 115.673 187.274 115.764 187.202C115.855 187.13 115.919 187.03 115.946 186.918C116.05 186.469 116.304 186.07 116.665 185.785C117.027 185.501 117.475 185.348 117.936 185.354ZM120.426 188.844C119.967 188.844 119.521 188.69 119.16 188.406C118.799 188.122 118.544 187.725 118.436 187.279C118.409 187.167 118.345 187.067 118.254 186.996C118.163 186.924 118.051 186.886 117.936 186.886C117.82 186.886 117.708 186.924 117.618 186.996C117.527 187.067 117.463 187.167 117.435 187.279C117.36 187.592 117.211 187.883 117.002 188.128C116.792 188.373 116.528 188.565 116.23 188.688C115.932 188.812 115.61 188.863 115.289 188.838C114.967 188.813 114.656 188.712 114.381 188.544C114.3 188.492 114.206 188.463 114.109 188.46C114.015 188.465 113.924 188.493 113.844 188.542C113.764 188.592 113.698 188.661 113.653 188.744C113.607 188.821 113.585 188.91 113.589 189C113.592 189.09 113.621 189.177 113.672 189.251C113.84 189.526 113.94 189.837 113.965 190.158C113.99 190.48 113.939 190.802 113.815 191.1C113.692 191.398 113.5 191.662 113.255 191.872C113.01 192.082 112.719 192.23 112.406 192.306C112.294 192.333 112.194 192.398 112.123 192.488C112.051 192.579 112.013 192.691 112.013 192.807C112.013 192.922 112.051 193.034 112.123 193.125C112.194 193.215 112.294 193.28 112.406 193.307C112.72 193.383 113.011 193.532 113.256 193.741C113.501 193.951 113.693 194.216 113.816 194.514C113.94 194.812 113.991 195.135 113.966 195.457C113.941 195.778 113.84 196.09 113.671 196.365C113.62 196.439 113.592 196.526 113.588 196.616C113.585 196.706 113.607 196.794 113.652 196.872C113.698 196.954 113.763 197.024 113.843 197.073C113.923 197.123 114.014 197.151 114.108 197.155C114.205 197.153 114.299 197.124 114.38 197.072C114.655 196.904 114.966 196.804 115.288 196.779C115.609 196.754 115.932 196.805 116.229 196.929C116.527 197.052 116.792 197.244 117.001 197.489C117.211 197.734 117.36 198.025 117.435 198.338C117.463 198.45 117.527 198.55 117.618 198.621C117.708 198.693 117.82 198.731 117.936 198.731C118.051 198.731 118.163 198.693 118.254 198.621C118.345 198.55 118.409 198.45 118.436 198.338C118.512 198.025 118.661 197.734 118.871 197.489C119.08 197.244 119.345 197.052 119.643 196.929C119.94 196.806 120.263 196.755 120.584 196.78C120.906 196.805 121.217 196.905 121.492 197.073C121.573 197.125 121.667 197.154 121.764 197.156C121.858 197.152 121.949 197.124 122.029 197.074C122.108 197.025 122.174 196.956 122.219 196.873C122.265 196.795 122.287 196.706 122.284 196.616C122.28 196.526 122.251 196.439 122.2 196.365C122.032 196.09 121.932 195.779 121.907 195.457C121.882 195.136 121.933 194.813 122.057 194.515C122.18 194.218 122.372 193.953 122.617 193.744C122.862 193.534 123.153 193.385 123.466 193.309C123.578 193.282 123.678 193.218 123.749 193.127C123.821 193.036 123.859 192.924 123.859 192.809C123.859 192.694 123.821 192.582 123.749 192.491C123.678 192.4 123.578 192.336 123.466 192.309C123.153 192.233 122.862 192.084 122.617 191.874C122.373 191.665 122.181 191.401 122.057 191.103C121.934 190.805 121.882 190.483 121.907 190.161C121.932 189.84 122.032 189.529 122.2 189.254C122.251 189.18 122.28 189.093 122.283 189.003C122.287 188.913 122.264 188.824 122.219 188.747C122.174 188.664 122.108 188.595 122.028 188.545C121.949 188.496 121.857 188.468 121.763 188.463C121.667 188.465 121.573 188.494 121.492 188.547C121.17 188.742 120.801 188.845 120.426 188.844Z" fill="black"/>
<path d="M117.937 195.805C117.345 195.805 116.765 195.629 116.273 195.3C115.78 194.971 115.396 194.503 115.169 193.956C114.943 193.408 114.883 192.806 114.999 192.225C115.115 191.644 115.4 191.11 115.819 190.691C116.238 190.272 116.772 189.987 117.353 189.871C117.934 189.755 118.536 189.815 119.083 190.042C119.631 190.268 120.099 190.652 120.428 191.145C120.757 191.637 120.933 192.217 120.933 192.809C120.932 193.603 120.616 194.365 120.054 194.926C119.493 195.488 118.731 195.804 117.937 195.805ZM116.473 192.809C116.473 193.099 116.559 193.382 116.72 193.622C116.881 193.863 117.11 194.051 117.377 194.161C117.644 194.272 117.939 194.301 118.223 194.245C118.507 194.188 118.767 194.049 118.972 193.844C119.177 193.639 119.316 193.379 119.373 193.095C119.429 192.811 119.4 192.516 119.289 192.249C119.179 191.982 118.991 191.753 118.75 191.592C118.51 191.431 118.227 191.345 117.937 191.345C117.549 191.346 117.177 191.5 116.903 191.775C116.629 192.049 116.474 192.421 116.474 192.809L116.473 192.809Z" fill="black"/>
<path d="M260.869 46.9098C270.585 46.9098 278.461 39.0337 278.461 29.3182C278.461 19.6026 270.585 11.7266 260.869 11.7266C251.154 11.7266 243.277 19.6026 243.277 29.3182C243.277 39.0337 251.154 46.9098 260.869 46.9098Z" fill="#F2F2F2"/>
<path d="M267 8.41462C265.407 8.21205 263.795 8.21205 262.202 8.41462C258.653 8.88029 255.313 10.3543 252.576 12.6618C249.84 14.9692 247.823 18.0132 246.765 21.4325C246.284 22.9907 246.012 24.6058 245.955 26.2357C245.947 26.4623 245.941 26.6913 245.941 26.9208C245.946 31.8679 247.914 36.611 251.412 40.1092C254.91 43.6073 259.653 45.5747 264.6 45.5795C264.997 45.5795 265.394 45.566 265.786 45.5423C266.706 45.4846 267.62 45.3581 268.521 45.1638C272.824 44.2404 276.663 41.8254 279.358 38.3457C282.053 34.866 283.431 30.5456 283.249 26.1481C283.067 21.7505 281.336 17.5589 278.362 14.3141C275.388 11.0692 271.364 8.98002 266.999 8.41569L267 8.41462ZM270.441 44.0804H270.438C268.936 44.593 267.373 44.904 265.789 45.0052C265.397 45.0318 265 45.0452 264.603 45.0452C259.797 45.0393 255.191 43.1278 251.793 39.7301C248.395 36.3323 246.484 31.7256 246.478 26.9204C246.478 26.6913 246.483 26.4619 246.491 26.2353C246.616 22.9349 247.641 19.7313 249.454 16.9708C251.267 14.2102 253.8 11.9976 256.78 10.572C259.759 9.14639 263.071 8.56193 266.358 8.8818C269.646 9.20166 272.783 10.4137 275.432 12.3869C278.08 14.3601 280.139 17.0196 281.386 20.0779C282.633 23.1362 283.021 26.4772 282.507 29.7398C281.994 33.0024 280.599 36.0627 278.472 38.59C276.346 41.1173 273.569 43.0156 270.443 44.0797L270.441 44.0804Z" fill="#090814"/>
<path d="M264.869 9.86133H264.336V13.5931H264.869V9.86133Z" fill="#090814"/>
<path d="M91.371 152.184H79.7655C79.3721 152.184 78.995 152.341 78.7168 152.619C78.4386 152.897 78.282 153.274 78.2812 153.668V167.295C78.282 167.688 78.4386 168.066 78.7168 168.344C78.995 168.622 79.3721 168.778 79.7655 168.779H91.371C91.7644 168.778 92.1415 168.622 92.4197 168.344C92.6979 168.066 92.8545 167.688 92.8552 167.295V153.668C92.8545 153.274 92.6979 152.897 92.4197 152.619C92.1415 152.341 91.7644 152.184 91.371 152.184Z" fill="#D6D6E3"/>
<path d="M90.3503 152.611H78.7444C78.4642 152.612 78.1956 152.723 77.9975 152.921C77.7993 153.119 77.6879 153.388 77.6875 153.668V167.295C77.6879 167.576 77.7993 167.844 77.9975 168.042C78.1956 168.24 78.4642 168.352 78.7444 168.352H90.3499C90.6302 168.352 90.8988 168.241 91.0969 168.042C91.2951 167.844 91.4065 167.576 91.4068 167.295V153.668C91.4065 153.388 91.2951 153.119 91.0971 152.921C90.899 152.723 90.6305 152.612 90.3503 152.611Z" fill="#D6D6E3"/>
<path d="M252.729 14.6698L252.352 15.0469L254.99 17.6856L255.367 17.3086L252.729 14.6698Z" fill="#090814"/>
<path d="M247.543 26.6533V27.1865H251.275V26.6533H247.543Z" fill="#090814"/>
<path d="M252.35 38.7939L252.727 39.1709L255.365 36.5322L254.988 36.1551L252.35 38.7939Z" fill="#090814"/>
<path d="M273.834 17.3075L274.211 17.6846L276.85 15.0458L276.473 14.6688L273.834 17.3075Z" fill="#090814"/>
<path d="M277.93 26.6533V27.1865H281.661V26.6533H277.93Z" fill="#090814"/>
<path d="M274.213 36.1542L273.836 36.5312L276.475 39.17L276.852 38.793L274.213 36.1542Z" fill="#090814"/>
<path d="M264.869 40.248H264.336V43.9798H264.869V40.248Z" fill="#090814"/>
<path d="M265.398 25.8545C265.168 25.6814 264.887 25.5879 264.599 25.5879C264.31 25.5879 264.03 25.6814 263.799 25.8545C263.641 25.9744 263.511 26.1272 263.418 26.3023C263.3 26.5277 263.249 26.7822 263.271 27.0357C263.293 27.2891 263.387 27.531 263.542 27.7327C263.697 27.9344 263.906 28.0875 264.146 28.1738C264.385 28.2602 264.644 28.2763 264.892 28.2202C265.14 28.1641 265.367 28.0381 265.546 27.8572C265.725 27.6762 265.848 27.4479 265.901 27.1991C265.955 26.9503 265.936 26.6915 265.846 26.4532C265.757 26.2149 265.602 26.0072 265.398 25.8545ZM264.599 27.7203C264.387 27.7198 264.184 27.6354 264.034 27.4856C263.884 27.3358 263.8 27.1328 263.799 26.9209C263.8 26.7591 263.849 26.6013 263.941 26.4677C264.019 26.3546 264.125 26.2636 264.248 26.2034C264.372 26.1433 264.509 26.116 264.646 26.1243C264.783 26.1326 264.916 26.1761 265.031 26.2507C265.147 26.3253 265.241 26.4284 265.305 26.55C265.369 26.6717 265.4 26.8078 265.396 26.9452C265.392 27.0826 265.353 27.2166 265.282 27.3342C265.211 27.4519 265.111 27.5493 264.991 27.6169C264.871 27.6845 264.736 27.7202 264.599 27.7203Z" fill="#090814"/>
<path d="M267.001 3.73145H262.203V8.52925H267.001V3.73145Z" fill="#090814"/>
<path d="M264.6 4.5312C268.133 4.5312 270.997 3.51686 270.997 2.2656C270.997 1.01434 268.133 0 264.6 0C261.067 0 258.203 1.01434 258.203 2.2656C258.203 3.51686 261.067 4.5312 264.6 4.5312Z" fill="#090814"/>
<path d="M271.706 19.5129L270.445 18.5283L264.866 25.6696L266.126 26.6542L271.706 19.5129Z" fill="#090814"/>
<path d="M90.1328 151.064H78.5272C78.1338 151.065 77.7567 151.222 77.4785 151.5C77.2003 151.778 77.0437 152.155 77.043 152.549V166.176C77.0437 166.569 77.2003 166.946 77.4785 167.225C77.7567 167.503 78.1338 167.659 78.5272 167.66H90.1328C90.5262 167.659 90.9032 167.503 91.1814 167.225C91.4596 166.946 91.6162 166.569 91.617 166.176V152.549C91.6162 152.155 91.4596 151.778 91.1814 151.5C90.9032 151.222 90.5262 151.065 90.1328 151.064Z" fill="#EA1F43"/>
<path d="M90.1316 151.492H78.5256C78.2454 151.493 77.9768 151.604 77.7787 151.802C77.5806 152 77.4691 152.269 77.4688 152.549V166.176C77.4691 166.456 77.5806 166.725 77.7787 166.923C77.9768 167.121 78.2454 167.233 78.5256 167.233H90.1312C90.4114 167.233 90.6801 167.121 90.8782 166.923C91.0763 166.725 91.1878 166.456 91.188 166.176V152.549C91.1878 152.269 91.0764 152 90.8783 151.802C90.6803 151.604 90.4117 151.493 90.1316 151.492Z" fill="#EA1F43"/>
<path d="M137.847 159.314C137.847 159.651 137.807 159.922 137.757 159.922H98.1059C98.0556 159.922 98.0156 159.651 98.0156 159.314C98.0156 158.977 98.056 158.706 98.1059 158.706H137.756C137.806 158.706 137.847 158.977 137.847 159.314Z" fill="#D6D6E3"/>
<path d="M157.613 152.3H146.008C145.614 152.301 145.237 152.457 144.959 152.735C144.681 153.014 144.524 153.391 144.523 153.784V167.411C144.524 167.805 144.681 168.182 144.959 168.46C145.237 168.738 145.614 168.895 146.008 168.895H157.613C158.007 168.895 158.384 168.738 158.662 168.46C158.94 168.182 159.097 167.805 159.097 167.411V153.784C159.097 153.391 158.94 153.014 158.662 152.735C158.384 152.457 158.007 152.301 157.613 152.3Z" fill="#D6D6E3"/>
<path d="M157.612 152.728H146.006C145.726 152.728 145.457 152.839 145.259 153.037C145.061 153.236 144.95 153.504 144.949 153.784V167.412C144.95 167.692 145.061 167.96 145.259 168.159C145.457 168.357 145.726 168.468 146.006 168.468H157.612C157.892 168.468 158.161 168.357 158.359 168.159C158.557 167.96 158.668 167.692 158.669 167.412V153.784C158.668 153.504 158.557 153.236 158.359 153.038C158.161 152.839 157.892 152.728 157.612 152.728Z" fill="#D6D6E3"/>
<path d="M156.254 151.181H144.648C144.255 151.181 143.878 151.338 143.6 151.616C143.321 151.894 143.165 152.271 143.164 152.665V166.292C143.165 166.686 143.321 167.063 143.6 167.341C143.878 167.619 144.255 167.776 144.648 167.776H156.254C156.647 167.776 157.024 167.619 157.303 167.341C157.581 167.063 157.737 166.686 157.738 166.292V152.665C157.737 152.271 157.581 151.894 157.303 151.616C157.024 151.338 156.647 151.181 156.254 151.181Z" fill="#EA1F43"/>
<path d="M156.253 151.608H144.647C144.367 151.609 144.098 151.72 143.9 151.918C143.702 152.116 143.59 152.385 143.59 152.665V166.292C143.59 166.573 143.702 166.841 143.9 167.039C144.098 167.238 144.367 167.349 144.647 167.349H156.252C156.532 167.349 156.801 167.238 156.999 167.039C157.197 166.841 157.309 166.573 157.309 166.292V152.665C157.309 152.385 157.197 152.117 156.999 151.918C156.801 151.72 156.533 151.609 156.253 151.608Z" fill="#EA1F43"/>
</svg>
