<svg width="12" height="12" viewBox="0 0 12 12" fill="none" xmlns="http://www.w3.org/2000/svg">
<path fill-rule="evenodd" clip-rule="evenodd" d="M7.32911 0.255659C7.11328 0.166992 6.83911 0.166992 6.29136 0.166992C5.74361 0.166992 5.47003 0.166992 5.25361 0.255659C4.96629 0.373615 4.73758 0.600855 4.61778 0.887409C4.56295 1.01749 4.54195 1.16974 4.5332 1.39083C4.52931 1.55101 4.48462 1.70756 4.40337 1.84566C4.32212 1.98377 4.20699 2.09887 4.06886 2.18008C3.92813 2.2583 3.76993 2.29974 3.60892 2.30056C3.44791 2.30138 3.2893 2.26154 3.14778 2.18474C2.95061 2.08091 2.8077 2.02374 2.66653 2.00508C2.35769 1.96452 2.04532 2.04754 1.79736 2.23608C1.61186 2.37724 1.47478 2.61291 1.2012 3.08366C0.927029 3.55441 0.790529 3.78949 0.759612 4.01991C0.718779 4.32674 0.802779 4.63708 0.992946 4.88266C1.07928 4.99466 1.2012 5.08858 1.38961 5.20641C1.66786 5.37966 1.84636 5.67483 1.84636 6.00033C1.84636 6.32583 1.66786 6.62099 1.3902 6.79366C1.2012 6.91207 1.07928 7.00599 0.992362 7.11799C0.898494 7.23929 0.829595 7.37799 0.789645 7.52607C0.749695 7.67416 0.739488 7.82869 0.759612 7.98074C0.790529 8.21058 0.927029 8.44624 1.2012 8.91699C1.47536 9.38774 1.61186 9.62283 1.79736 9.76458C2.0447 9.95299 2.35736 10.0358 2.66653 9.99558C2.8077 9.97691 2.95061 9.91974 3.14778 9.81591C3.28937 9.73901 3.44809 9.69912 3.60921 9.69993C3.77034 9.70075 3.92864 9.74224 4.06945 9.82057C4.35295 9.98391 4.52095 10.2843 4.5332 10.6098C4.54195 10.8315 4.56295 10.9832 4.61778 11.1132C4.73678 11.3991 4.96545 11.6266 5.25361 11.745C5.46945 11.8337 5.74361 11.8337 6.29136 11.8337C6.83911 11.8337 7.11328 11.8337 7.32911 11.745C7.61643 11.627 7.84514 11.3998 7.96495 11.1132C8.01978 10.9832 8.04078 10.8315 8.04953 10.6098C8.0612 10.2843 8.22978 9.98332 8.51386 9.82057C8.6546 9.74235 8.8128 9.70091 8.97381 9.70009C9.13482 9.69928 9.29343 9.73911 9.43495 9.81591C9.63211 9.91974 9.77503 9.97691 9.9162 9.99558C10.2254 10.0364 10.538 9.95299 10.7854 9.76458C10.9709 9.62341 11.1079 9.38774 11.3815 8.91699C11.6557 8.44624 11.7922 8.21116 11.8231 7.98074C11.8432 7.82865 11.8329 7.6741 11.7928 7.52601C11.7528 7.37793 11.6837 7.23925 11.5898 7.11799C11.5034 7.00599 11.3815 6.91208 11.1931 6.79424C10.9149 6.62099 10.7364 6.32583 10.7364 6.00033C10.7364 5.67483 10.9149 5.37966 11.1925 5.20699C11.3815 5.08858 11.5034 4.99466 11.5904 4.88266C11.6842 4.76136 11.7531 4.62266 11.7931 4.47458C11.833 4.32649 11.8432 4.17196 11.8231 4.01991C11.7922 3.79008 11.6557 3.55441 11.3815 3.08366C11.1074 2.61291 10.9709 2.37783 10.7854 2.23608C10.5374 2.04754 10.225 1.96452 9.9162 2.00508C9.77503 2.02374 9.63211 2.08091 9.43495 2.18474C9.29336 2.26164 9.13464 2.30154 8.97351 2.30072C8.81239 2.2999 8.65408 2.25841 8.51328 2.18008C8.37526 2.09879 8.26024 1.98366 8.1791 1.84556C8.09795 1.70746 8.05336 1.55096 8.04953 1.39083C8.04078 1.16916 8.01978 1.01749 7.96495 0.887409C7.90565 0.745505 7.81898 0.616674 7.70988 0.508276C7.60078 0.399878 7.4714 0.314038 7.32911 0.255659ZM6.29136 7.75033C7.26553 7.75033 8.05478 6.96691 8.05478 6.00033C8.05478 5.03374 7.26495 4.25033 6.29136 4.25033C5.3172 4.25033 4.52795 5.03374 4.52795 6.00033C4.52795 6.96691 5.31778 7.75033 6.29136 7.75033Z" fill="#EA1B40"/>
</svg>
