<svg width="24" height="24" viewBox="0 0 24 24" fill="none" xmlns="http://www.w3.org/2000/svg">
<rect width="24" height="24" rx="12" fill="#EA1B40"/>
<path d="M11.2837 5.63636C11.7439 5.45455 12.2561 5.45455 12.7163 5.63636L17.2663 7.43596C17.6301 7.57968 17.9423 7.8295 18.1623 8.15298C18.3823 8.47646 18.5 8.85864 18.5 9.24988V14.7501C18.5 15.1414 18.3823 15.5235 18.1623 15.847C17.9423 16.1705 17.6301 16.4203 17.2663 16.564L12.7163 18.3636C12.2561 18.5455 11.7439 18.5455 11.2837 18.3636L6.7337 16.564C6.3699 16.4203 6.05772 16.1705 5.83771 15.847C5.6177 15.5235 5.50003 15.1414 5.5 14.7501V9.24988C5.50003 8.85864 5.6177 8.47646 5.83771 8.15298C6.05772 7.8295 6.3699 7.57968 6.7337 7.43596L11.2837 5.63636ZM8.9918 9.44622C8.91242 9.41446 8.82755 9.39865 8.74206 9.39969C8.65657 9.40074 8.57212 9.41861 8.49353 9.4523C8.41495 9.48599 8.34376 9.53482 8.28405 9.59603C8.22433 9.65723 8.17725 9.7296 8.1455 9.809C8.11375 9.88841 8.09794 9.97329 8.09898 10.0588C8.10002 10.1443 8.1179 10.2288 8.15158 10.3074C8.18526 10.386 8.23408 10.4572 8.29527 10.5169C8.35646 10.5766 8.42882 10.6237 8.5082 10.6555L11.35 11.792V14.6019C11.35 14.7743 11.4185 14.9397 11.5404 15.0616C11.6623 15.1835 11.8276 15.252 12 15.252C12.1724 15.252 12.3377 15.1835 12.4596 15.0616C12.5815 14.9397 12.65 14.7743 12.65 14.6019V11.792L15.4918 10.6542C15.5727 10.6237 15.6468 10.5773 15.7096 10.5178C15.7724 10.4583 15.8226 10.3869 15.8575 10.3077C15.8923 10.2285 15.911 10.1432 15.9124 10.0567C15.9139 9.97015 15.8981 9.88423 15.8659 9.80392C15.8337 9.72362 15.7858 9.65055 15.725 9.58899C15.6642 9.52743 15.5918 9.47863 15.5119 9.44544C15.432 9.41224 15.3463 9.39533 15.2598 9.39569C15.1734 9.39605 15.0878 9.41367 15.0082 9.44752L12 10.649L8.9918 9.44622Z" fill="white"/>
</svg>
