<svg width="68" height="68" viewBox="0 0 68 68" fill="none" xmlns="http://www.w3.org/2000/svg">
<rect width="68" height="68" rx="34" fill="#FDE9ED"/>
<path d="M40.7088 17.8412L44.4587 19.81C48.4919 21.9269 50.5094 22.9844 51.6306 24.8875C52.75 26.7887 52.75 29.1569 52.75 33.8913V34.1106C52.75 38.8431 52.75 41.2113 51.6306 43.1125C50.5094 45.0156 48.4919 46.075 44.4587 48.1919L40.7088 50.1588C37.4163 51.8856 35.77 52.75 34 52.75C32.23 52.75 30.5837 51.8875 27.2912 50.1588L23.5412 48.19C19.5081 46.0731 17.4906 45.0156 16.3694 43.1125C15.25 41.2113 15.25 38.8431 15.25 34.1125V33.8931C15.25 29.1587 15.25 26.7906 16.3694 24.8894C17.4906 22.9862 19.5081 21.9269 23.5412 19.8119L27.2912 17.8431C30.5837 16.1144 32.23 15.25 34 15.25C35.77 15.25 37.4163 16.1125 40.7088 17.8412Z" stroke="#EA2147" stroke-width="2" stroke-linecap="round"/>
<path opacity="0.5" d="M50.875 25.5625L43.375 29.3125M43.375 29.3125L42.4375 29.7813L34 34M43.375 29.3125V35.875M43.375 29.3125L25.5625 19.9375M34 34L17.125 25.5625M34 34V51.8125" stroke="#EA2147" stroke-width="2" stroke-linecap="round"/>
</svg>
