<svg width="13" height="12" viewBox="0 0 13 12" fill="none" xmlns="http://www.w3.org/2000/svg">
<path d="M9.91993 1.5632L8.75326 0.950698C7.72893 0.413448 7.21676 0.144531 6.6661 0.144531C6.11543 0.144531 5.60326 0.412865 4.57893 0.950698L4.39168 1.04928L9.59676 4.0237L11.9394 2.8512C11.5626 2.4242 10.9548 2.10511 9.91993 1.56203M12.3524 3.62353L10.0203 4.7902V6.5612C10.0203 6.67723 9.97417 6.78851 9.89212 6.87056C9.81008 6.9526 9.6988 6.9987 9.58276 6.9987C9.46673 6.9987 9.35545 6.9526 9.27341 6.87056C9.19136 6.78851 9.14526 6.67723 9.14526 6.5612V5.2277L7.1036 6.24853V11.7552C7.52243 11.6508 7.99901 11.4011 8.75326 11.005L9.91993 10.3925C11.1747 9.73395 11.8023 9.40495 12.1512 8.81286C12.4994 8.22136 12.4994 7.48461 12.4994 6.01286V5.94461C12.4994 4.84036 12.4994 4.1497 12.3524 3.62353ZM6.2286 11.7552V6.24853L0.979764 3.62353C0.832764 4.1497 0.832764 4.84036 0.832764 5.94345V6.0117C0.832764 7.48461 0.832764 8.22136 1.18101 8.81286C1.52985 9.40495 2.15751 9.73453 3.41226 10.3931L4.57893 11.005C5.33318 11.4011 5.80976 11.6508 6.2286 11.7552ZM1.39276 2.85178L6.6661 5.48845L8.65585 4.49386L3.47235 1.5317L3.41226 1.5632C2.37801 2.1057 1.7696 2.42478 1.39276 2.85236" fill="#EA1B40"/>
</svg>
