<svg width="16" height="16" viewBox="0 0 16 16" fill="none" xmlns="http://www.w3.org/2000/svg">
<g clip-path="url(#clip0_4347_12707)">
<path d="M7.99888 0.570312V5.14174M0.570312 5.14174H15.4275V14.2846C15.4275 14.5877 15.307 14.8784 15.0927 15.0927C14.8784 15.307 14.5877 15.4275 14.2846 15.4275H1.71317C1.41007 15.4275 1.11937 15.307 0.905048 15.0927C0.69072 14.8784 0.570313 14.5877 0.570312 14.2846V5.14174Z" stroke="#12AD4B" stroke-width="1.28571" stroke-linecap="round" stroke-linejoin="round"/>
<path d="M0.570312 5.14174L2.2846 1.83888C2.46941 1.46662 2.75222 1.1518 3.10261 0.928272C3.45299 0.704749 3.85769 0.580991 4.27317 0.570312H11.7246C12.1498 0.570538 12.5666 0.689384 12.928 0.913489C13.2894 1.13759 13.5811 1.45807 13.7703 1.83888L15.4275 5.14174M7.99888 7.66174V12.9326M9.99888 10.9657L7.99888 12.9657L5.99888 10.9657" stroke="#12AD4B" stroke-width="1.28571" stroke-linecap="round" stroke-linejoin="round"/>
</g>
<defs>
<clipPath id="clip0_4347_12707">
<rect width="16" height="16" fill="white"/>
</clipPath>
</defs>
</svg>
