<svg width="256" height="244" viewBox="0 0 256 244" fill="none" xmlns="http://www.w3.org/2000/svg">
<path d="M38.7969 86.4676C38.7969 86.4676 42.804 99.5963 41.602 101.189C40.3999 102.781 54.4248 92.4361 54.4248 92.4361C54.4248 92.4361 49.2156 88.8555 51.218 83.6836L38.7969 86.4676Z" fill="#9F616A"/>
<path d="M215.448 57.82H214.103V21.1965C214.103 15.5749 211.853 10.1834 207.85 6.20832C203.846 2.2332 198.415 2.76492e-09 192.753 2.76492e-09H114.6C111.796 -4.49556e-05 109.02 0.548188 106.43 1.61339C103.839 2.6786 101.486 4.23992 99.5033 6.2082C97.5207 8.17649 95.9481 10.5132 94.8752 13.0849C93.8022 15.6566 93.25 18.4129 93.25 21.1965V222.115C93.25 227.737 95.4993 233.128 99.5031 237.104C103.507 241.079 108.937 243.312 114.6 243.312H192.752C198.414 243.312 203.844 241.078 207.848 237.103C211.852 233.128 214.101 227.737 214.101 222.115V83.8892H215.445L215.448 57.82Z" fill="#090814"/>
<path d="M209.723 19.7768V223.534C209.722 227.796 208.017 231.884 204.982 234.898C201.947 237.912 197.831 239.606 193.538 239.608H113.779C109.484 239.609 105.365 237.915 102.327 234.901C99.2896 231.886 97.5828 227.796 97.582 223.532V19.7771C97.5833 15.5133 99.2904 11.4246 102.328 8.41031C105.365 5.39599 109.484 3.70292 113.779 3.70347H123.454C122.978 4.86334 122.798 6.12132 122.927 7.36682C123.056 8.61232 123.492 9.80722 124.195 10.8465C124.899 11.8858 125.848 12.7376 126.961 13.3271C128.074 13.9166 129.315 14.2257 130.576 14.2273H176.047C177.308 14.2257 178.549 13.9166 179.662 13.3271C180.775 12.7376 181.725 11.8857 182.428 10.8464C183.131 9.80708 183.567 8.61213 183.696 7.36658C183.825 6.12103 183.645 4.86302 183.169 3.70312H193.533C197.826 3.70367 201.942 5.39651 204.978 8.40952C208.014 11.4225 209.72 15.5091 209.723 19.7709V19.7768Z" fill="white"/>
<path d="M153.641 101.573C172.031 101.573 186.939 86.772 186.939 68.514C186.939 50.2561 172.031 35.4551 153.641 35.4551C135.252 35.4551 120.344 50.2561 120.344 68.514C120.344 86.772 135.252 101.573 153.641 101.573Z" fill="#EA1B40"/>
<path d="M189.955 137.144H119.082C118.734 137.144 118.4 137.006 118.154 136.762C117.908 136.518 117.77 136.186 117.77 135.841V118.387C117.77 118.042 117.908 117.71 118.154 117.466C118.4 117.222 118.734 117.084 119.082 117.084H189.955C190.303 117.084 190.637 117.222 190.883 117.466C191.129 117.71 191.267 118.042 191.268 118.387V135.84C191.267 136.185 191.129 136.517 190.883 136.761C190.637 137.005 190.303 137.142 189.955 137.143V137.144ZM119.082 117.605C118.873 117.605 118.673 117.687 118.525 117.834C118.378 117.981 118.295 118.179 118.294 118.387V135.84C118.295 136.047 118.378 136.246 118.525 136.393C118.673 136.539 118.873 136.622 119.082 136.622H189.955C190.164 136.622 190.364 136.539 190.512 136.393C190.659 136.246 190.743 136.047 190.743 135.84V118.387C190.743 118.179 190.659 117.981 190.512 117.834C190.364 117.687 190.164 117.605 189.955 117.605H119.082Z" fill="#E6E6E6"/>
<path d="M140.999 123.369C140.758 123.374 140.529 123.472 140.361 123.642C140.192 123.813 140.098 124.042 140.098 124.281C140.098 124.52 140.192 124.75 140.361 124.92C140.529 125.091 140.758 125.189 140.999 125.194H184.308C184.55 125.2 184.785 125.112 184.962 124.947C185.139 124.783 185.243 124.556 185.252 124.316C185.261 124.075 185.174 123.841 185.011 123.664C184.847 123.487 184.619 123.381 184.377 123.37H184.337H140.999V123.369Z" fill="#E6E6E6"/>
<path d="M141.001 128.842C140.757 128.842 140.523 128.938 140.351 129.109C140.179 129.28 140.082 129.512 140.082 129.754C140.082 129.996 140.179 130.228 140.351 130.399C140.523 130.57 140.757 130.666 141.001 130.666H184.31C184.552 130.673 184.787 130.584 184.964 130.42C185.141 130.256 185.245 130.029 185.254 129.788C185.263 129.548 185.176 129.314 185.013 129.137C184.849 128.96 184.621 128.854 184.379 128.843H184.339H141.001V128.842Z" fill="#E6E6E6"/>
<path d="M189.955 166.237H119.082C118.734 166.236 118.4 166.099 118.154 165.855C117.908 165.61 117.77 165.279 117.77 164.934V147.48C117.77 147.134 117.908 146.803 118.154 146.559C118.4 146.315 118.734 146.177 119.082 146.177H189.955C190.303 146.177 190.637 146.315 190.883 146.559C191.129 146.803 191.267 147.134 191.268 147.48V164.934C191.267 165.279 191.128 165.61 190.882 165.854C190.636 166.098 190.303 166.235 189.955 166.235V166.237ZM119.082 146.698C118.873 146.698 118.673 146.78 118.525 146.927C118.378 147.074 118.295 147.272 118.294 147.48V164.934C118.295 165.142 118.378 165.341 118.525 165.487C118.673 165.634 118.873 165.716 119.082 165.716H189.955C190.164 165.716 190.364 165.634 190.512 165.487C190.659 165.341 190.743 165.142 190.743 164.934V147.48C190.743 147.272 190.659 147.074 190.512 146.927C190.364 146.78 190.164 146.698 189.955 146.698H119.082Z" fill="#E6E6E6"/>
<path d="M141.001 152.557C140.757 152.557 140.523 152.653 140.351 152.824C140.179 152.995 140.082 153.227 140.082 153.469C140.082 153.711 140.179 153.943 140.351 154.114C140.523 154.285 140.757 154.381 141.001 154.381H184.31C184.432 154.384 184.552 154.364 184.666 154.32C184.779 154.277 184.883 154.211 184.97 154.128C185.058 154.044 185.128 153.945 185.177 153.834C185.226 153.723 185.252 153.604 185.254 153.484C185.256 153.363 185.233 153.243 185.188 153.131C185.144 153.019 185.077 152.917 184.992 152.831C184.907 152.745 184.805 152.676 184.694 152.629C184.582 152.582 184.462 152.557 184.34 152.557H141.001Z" fill="#E6E6E6"/>
<path d="M141.001 158.03C140.757 158.03 140.523 158.126 140.351 158.297C140.179 158.469 140.082 158.701 140.082 158.942C140.082 159.184 140.179 159.416 140.351 159.587C140.523 159.759 140.757 159.855 141.001 159.855H184.31C184.432 159.858 184.552 159.837 184.666 159.794C184.779 159.75 184.883 159.685 184.97 159.601C185.058 159.518 185.128 159.418 185.177 159.308C185.226 159.197 185.252 159.078 185.254 158.958C185.256 158.837 185.233 158.717 185.188 158.605C185.144 158.493 185.077 158.391 184.992 158.305C184.907 158.218 184.805 158.15 184.694 158.103C184.582 158.056 184.462 158.031 184.34 158.03H141.001Z" fill="#E6E6E6"/>
<path d="M189.955 195.424H119.082C118.734 195.424 118.4 195.286 118.154 195.042C117.908 194.798 117.77 194.467 117.77 194.121V176.667C117.77 176.322 117.908 175.991 118.154 175.746C118.4 175.502 118.734 175.365 119.082 175.364H189.955C190.303 175.365 190.637 175.502 190.883 175.746C191.129 175.991 191.267 176.322 191.268 176.667V194.122C191.267 194.467 191.129 194.798 190.883 195.043C190.637 195.287 190.303 195.424 189.955 195.425V195.424ZM119.082 175.885C118.873 175.885 118.673 175.968 118.525 176.115C118.378 176.261 118.295 176.46 118.294 176.667V194.122C118.295 194.329 118.378 194.528 118.525 194.675C118.673 194.821 118.873 194.904 119.082 194.904H189.955C190.164 194.904 190.364 194.821 190.512 194.675C190.659 194.528 190.743 194.329 190.743 194.122V176.667C190.743 176.46 190.659 176.261 190.512 176.115C190.364 175.968 190.164 175.885 189.955 175.885H119.082Z" fill="#E6E6E6"/>
<path d="M141.001 181.745C140.757 181.745 140.523 181.841 140.351 182.012C140.179 182.183 140.082 182.415 140.082 182.657C140.082 182.899 140.179 183.131 140.351 183.302C140.523 183.473 140.757 183.569 141.001 183.569H184.31C184.552 183.576 184.787 183.488 184.964 183.323C185.141 183.159 185.245 182.932 185.254 182.692C185.263 182.451 185.176 182.217 185.013 182.04C184.849 181.863 184.621 181.757 184.379 181.746H184.339H141.001V181.745Z" fill="#E6E6E6"/>
<path d="M141.001 187.219C140.757 187.219 140.523 187.315 140.351 187.486C140.179 187.657 140.082 187.889 140.082 188.131C140.082 188.373 140.179 188.605 140.351 188.776C140.523 188.947 140.757 189.043 141.001 189.043H184.31C184.552 189.05 184.787 188.961 184.964 188.797C185.141 188.633 185.245 188.406 185.254 188.165C185.263 187.925 185.176 187.691 185.013 187.514C184.849 187.337 184.621 187.231 184.379 187.22H184.339H141.001V187.219Z" fill="#E6E6E6"/>
<path d="M255.332 243.949H0.668262C0.29896 243.949 0 243.789 0 243.591C0 243.394 0.299305 243.233 0.668262 243.233H255.332C255.701 243.233 256 243.394 256 243.591C256 243.789 255.701 243.949 255.332 243.949Z" fill="#E6E6E6"/>
<path d="M244.546 229.993C243.458 230.373 242.29 230.468 241.154 230.269C240.019 230.071 238.953 229.585 238.062 228.859C235.79 226.966 235.078 223.848 234.499 220.961L232.785 212.421L236.373 214.874C238.953 216.638 241.592 218.458 243.378 221.013C245.165 223.568 245.945 227.056 244.509 229.82" fill="#E6E6E6"/>
<path d="M243.994 240.927C244.446 237.66 244.91 234.352 244.593 231.051C244.312 228.118 243.411 225.255 241.576 222.906C240.603 221.662 239.418 220.597 238.075 219.757C237.725 219.537 237.403 220.088 237.752 220.307C240.075 221.764 241.871 223.917 242.883 226.454C244 229.275 244.179 232.35 243.986 235.347C243.87 237.159 243.623 238.96 243.375 240.756C243.355 240.837 243.367 240.923 243.409 240.996C243.45 241.068 243.518 241.123 243.599 241.148C243.681 241.17 243.768 241.159 243.842 241.117C243.916 241.075 243.97 241.006 243.993 240.925L243.994 240.927Z" fill="#F2F2F2"/>
<path d="M240.742 235.685C240.275 236.389 239.634 236.962 238.88 237.349C238.125 237.735 237.283 237.922 236.435 237.892C234.255 237.79 232.437 236.279 230.8 234.845L225.961 230.6L229.164 230.448C231.467 230.339 233.83 230.237 236.026 230.942C238.221 231.647 240.243 233.344 240.644 235.598" fill="#E6E6E6"/>
<path d="M245.267 242.804C243.095 238.985 240.571 234.74 236.065 233.383C234.813 233.007 233.499 232.873 232.195 232.986C231.784 233.021 231.887 233.651 232.299 233.615C234.484 233.435 236.665 234.008 238.475 235.238C240.217 236.415 241.573 238.051 242.72 239.786C243.423 240.847 244.053 241.957 244.682 243.063C244.882 243.417 245.471 243.162 245.267 242.804Z" fill="#F2F2F2"/>
<path d="M127.922 132.479C130.967 132.479 133.435 130.029 133.435 127.006C133.435 123.983 130.967 121.533 127.922 121.533C124.878 121.533 122.41 123.983 122.41 127.006C122.41 130.029 124.878 132.479 127.922 132.479Z" fill="#EA1B40"/>
<path d="M125.283 125.983C125.219 125.983 125.168 126.392 125.168 126.895C125.168 127.399 125.219 127.808 125.283 127.808H130.703C130.766 127.816 130.819 127.414 130.82 126.911C130.855 126.597 130.816 126.28 130.707 125.984H125.283V125.983Z" fill="#E6E6E6"/>
<path d="M127.922 161.679C130.967 161.679 133.435 159.229 133.435 156.206C133.435 153.184 130.967 150.733 127.922 150.733C124.878 150.733 122.41 153.184 122.41 156.206C122.41 159.229 124.878 161.679 127.922 161.679Z" fill="#EA1B40"/>
<path d="M125.283 155.184C125.219 155.184 125.168 155.592 125.168 156.096C125.168 156.599 125.219 157.008 125.283 157.008H130.703C130.766 157.016 130.819 156.615 130.82 156.111C130.855 155.797 130.816 155.48 130.707 155.184L125.283 155.184Z" fill="#E6E6E6"/>
<path d="M127.922 190.867C130.967 190.867 133.435 188.417 133.435 185.395C133.435 182.372 130.967 179.922 127.922 179.922C124.878 179.922 122.41 182.372 122.41 185.395C122.41 188.417 124.878 190.867 127.922 190.867Z" fill="#EA1B40"/>
<path d="M125.283 184.372C125.219 184.372 125.168 184.78 125.168 185.284C125.168 185.788 125.219 186.196 125.283 186.196H130.703C130.766 186.205 130.819 185.803 130.82 185.299C130.855 184.986 130.816 184.669 130.707 184.372L125.283 184.372Z" fill="#E6E6E6"/>
<path d="M146.447 59.4355L144.496 61.3721L160.832 77.5912L162.783 75.6546L146.447 59.4355Z" fill="white"/>
<path d="M162.783 61.3741L160.832 59.4375L144.496 75.6567L146.446 77.5933L162.783 61.3741Z" fill="white"/>
<path d="M31.1251 156.158C31.6029 155.99 32.0379 155.72 32.3993 155.367C32.7607 155.014 33.0398 154.587 33.217 154.115C33.3941 153.644 33.4649 153.14 33.4245 152.638C33.3841 152.136 33.2334 151.649 32.983 151.212L41.1073 142.015L34.7653 141.146L28.0214 150.013C27.3085 150.48 26.7928 151.189 26.5719 152.008C26.351 152.827 26.4403 153.697 26.8229 154.455C27.2055 155.213 27.8548 155.804 28.6477 156.118C29.4406 156.432 30.322 156.447 31.1247 156.158L31.1251 156.158Z" fill="#9F616A"/>
<path d="M40.9219 237.664H35.2547L32.5586 215.961H40.9229L40.9219 237.664Z" fill="#9F616A"/>
<path d="M70.5904 232.955L65.1767 234.624L56.1211 214.691L64.1092 212.229L70.5904 232.955Z" fill="#9F616A"/>
<path d="M36.5847 137.604L28.1914 147.148L34.7623 147.735L36.5847 137.604Z" fill="#E6E6E6"/>
<path d="M33.3033 149.906C33.3033 149.906 30.3878 151.354 30.0233 157.866C29.6589 164.379 31.1168 181.386 31.1168 181.386C31.1168 181.386 29.6592 188.984 31.1168 195.858C32.5743 202.733 29.6592 227.697 31.4812 227.697C33.3033 227.697 42.7782 228.782 43.1427 227.697C43.5072 226.611 43.8716 210.33 43.8716 210.33C43.8716 210.33 46.7871 202.008 43.8716 196.944C43.8716 196.944 54.0511 214.591 60.6351 228.06C62.0761 231.007 73.0255 227.698 71.2034 224.441C69.3814 221.185 65.0084 206.351 65.0084 206.351C65.0084 206.351 61.7285 195.496 55.8979 190.793L58.8134 167.636C58.8134 167.636 65.0088 152.078 61.365 149.907C57.7213 147.737 33.3033 149.906 33.3033 149.906Z" fill="#090814"/>
<path d="M44.2367 91.654C49.4695 91.654 53.7116 87.4423 53.7116 82.2469C53.7116 77.0515 49.4695 72.8398 44.2367 72.8398C39.0038 72.8398 34.7617 77.0515 34.7617 82.2469C34.7617 87.4423 39.0038 91.654 44.2367 91.654Z" fill="#9F616A"/>
<path d="M54.804 91.6543L43.0249 98.5287C43.0249 98.5287 38.5147 101.05 36.8299 105.403C35.0341 110.042 36.0778 116.573 36.8299 118.067C38.2875 120.961 36.2185 128.197 36.2185 128.197L34.3965 144.841C34.3965 144.841 27.837 150.991 32.9389 151.715C38.0409 152.439 47.1514 151.353 52.6178 151.715C58.0842 152.077 64.2793 152.801 62.4572 149.182C60.6352 145.563 58.4487 143.031 60.6352 135.796C62.3462 130.133 62.2721 108.961 62.159 100.02C62.1436 98.7922 61.812 97.5884 61.1957 96.5235C60.5794 95.4586 59.6989 94.568 58.638 93.9364L54.804 91.6543Z" fill="#E5E5E5"/>
<path opacity="0.1" d="M49.5214 103.052L50.6144 125.122L40.0195 146.424L38.2227 145.745L49.1555 125.846L49.5214 103.052Z" fill="black"/>
<path opacity="0.1" d="M61.5453 129.825V127.292L49.1562 147.554L61.5453 129.825Z" fill="black"/>
<path d="M37.5117 73.532L35.9466 72.9103C35.9466 72.9103 39.2224 69.3304 43.7785 69.6415L42.4968 68.2407C42.4968 68.2407 45.6295 66.9955 48.4777 70.2639C49.9749 71.9822 51.7069 74.002 52.7879 76.277H54.4655L53.7655 77.8076L56.2158 79.3382L53.7007 79.0644C53.9389 80.3858 53.8573 81.7445 53.4628 83.0284L53.5317 84.2383C53.5317 84.2383 50.6149 79.7573 50.6149 79.1373V80.6915C50.6149 80.6915 49.0484 79.2907 49.0484 78.3567L48.1939 79.4464L47.7667 77.7347L42.4978 79.4464L43.3516 78.0448L40.0758 78.5118L41.3575 76.8001C41.3575 76.8001 37.6552 78.8233 37.5128 80.5358C37.3704 82.2482 35.5194 84.4269 35.5194 84.4269L34.6649 82.8703C34.6649 82.8703 33.3822 75.8668 37.5117 73.532Z" fill="#090814"/>
<path d="M43.6403 157.181C44.0806 156.932 44.4603 156.59 44.7529 156.179C45.0455 155.768 45.2438 155.298 45.3338 154.803C45.4238 154.308 45.4034 153.799 45.2739 153.312C45.1444 152.826 44.9091 152.373 44.5844 151.987L50.9371 141.504L44.5393 141.767L39.4877 151.681C38.8697 152.266 38.4892 153.055 38.4183 153.9C38.3474 154.744 38.591 155.585 39.1029 156.263C39.6148 156.941 40.3595 157.409 41.1957 157.578C42.032 157.748 42.9019 157.607 43.6403 157.182V157.181Z" fill="#9F616A"/>
<path d="M58.0858 96.358L60.8188 95.8154C60.8188 95.8154 69.0183 101.785 66.4673 113.725C63.9163 125.665 52.6193 143.756 52.6193 143.756C52.6193 143.756 50.0677 147.012 49.3394 147.735C48.6112 148.459 47.1529 147.735 47.8819 148.821C48.6108 149.907 46.7884 150.63 46.7884 150.63C46.7884 150.63 38.771 150.63 39.5 147.735C40.2289 144.841 52.6193 124.216 52.6193 124.216L50.7963 105.04C50.7963 105.04 49.3391 95.6343 58.0858 96.358Z" fill="#E5E5E5"/>
<path d="M66.3591 232.878C66.3591 232.878 62.625 230.159 62.625 231.642C62.625 233.125 58.3931 239.057 58.3931 239.057C58.3931 239.057 51.4229 244 57.1483 244C62.8737 244 65.3633 243.011 65.3633 243.011L71.3379 239.057C71.3379 239.057 72.8317 237.326 72.3338 235.349C71.8359 233.372 70.0925 230.653 70.0925 230.653C70.0925 230.653 68.1018 233.372 66.3591 232.878Z" fill="#090814"/>
<path d="M34.8095 234.639C34.8095 234.639 34.2943 232.081 32.4913 233.36C30.6882 234.639 25.7938 238.475 25.7938 238.475C25.7938 238.475 16.7778 240.521 22.4449 243.079C28.112 245.636 40.9917 242.056 40.9917 242.056C40.9917 242.056 41.5069 233.872 40.9917 234.127C40.4766 234.383 35.0671 235.15 34.8095 234.639Z" fill="#090814"/>
</svg>
