<svg width="13" height="13" viewBox="0 0 13 13" fill="none" xmlns="http://www.w3.org/2000/svg">
<path d="M12.5055 2.7945C12.474 2.73323 12.4285 2.68027 12.3726 2.63992C12.3168 2.59958 12.2522 2.57299 12.1841 2.56233C12.116 2.55167 12.0464 2.55724 11.9809 2.57858C11.9154 2.59991 11.8559 2.63642 11.8071 2.68513L10.1271 4.36622C10.0447 4.44749 9.93352 4.49305 9.81774 4.49305C9.70195 4.49305 9.59081 4.44749 9.50834 4.36622L8.78209 3.63888C8.74146 3.59825 8.70922 3.55002 8.68723 3.49693C8.66524 3.44384 8.65392 3.38694 8.65392 3.32948C8.65392 3.27202 8.66524 3.21512 8.68723 3.16203C8.70922 3.10895 8.74146 3.06071 8.78209 3.02009L10.455 1.34692C10.5051 1.29678 10.5423 1.2352 10.5634 1.16748C10.5845 1.09976 10.5888 1.02794 10.5759 0.9582C10.563 0.888458 10.5334 0.822889 10.4896 0.767139C10.4457 0.711389 10.389 0.66713 10.3243 0.638174C9.06073 0.0732519 7.48354 0.368017 6.48905 1.35513C5.64413 2.19403 5.39229 3.50489 5.79862 4.95165C5.82053 5.0288 5.82065 5.11051 5.79898 5.18773C5.77731 5.26495 5.73469 5.33466 5.67584 5.38915L1.12366 9.54677C0.946319 9.70599 0.803275 9.89968 0.703254 10.116C0.603234 10.3323 0.548332 10.5668 0.541899 10.805C0.535466 11.0433 0.577636 11.2803 0.665837 11.5017C0.754038 11.7231 0.886421 11.9243 1.05491 12.0928C1.2234 12.2614 1.42446 12.3939 1.64583 12.4822C1.86721 12.5705 2.10425 12.6127 2.34249 12.6064C2.58074 12.6001 2.8152 12.5453 3.03158 12.4454C3.24795 12.3454 3.4417 12.2025 3.601 12.0252L7.80319 7.4629C7.85689 7.40481 7.92543 7.36247 8.00141 7.34045C8.0774 7.31843 8.15795 7.31756 8.2344 7.33794C8.64629 7.45079 9.07116 7.50935 9.49823 7.51212C10.4115 7.51212 11.213 7.21653 11.791 6.64696C12.8615 5.59231 13.0247 3.80349 12.5055 2.7945ZM2.38667 11.7258C2.20658 11.7454 2.02483 11.7087 1.86651 11.6207C1.70818 11.5327 1.58108 11.3976 1.50275 11.2343C1.42442 11.071 1.39872 10.8873 1.42919 10.7088C1.45967 10.5302 1.54482 10.3655 1.67289 10.2373C1.80097 10.1092 1.96565 10.024 2.14421 9.99348C2.32278 9.96294 2.50642 9.98857 2.66979 10.0668C2.83316 10.1451 2.96821 10.2722 3.0563 10.4305C3.14439 10.5888 3.18118 10.7705 3.16159 10.9506C3.14003 11.1487 3.05146 11.3336 2.91055 11.4746C2.76963 11.6155 2.58481 11.7042 2.38667 11.7258Z" fill="#EA1B40"/>
</svg>
