<svg width="81" height="81" viewBox="0 0 81 81" fill="none" xmlns="http://www.w3.org/2000/svg">
<rect width="81" height="81" rx="40.5" fill="white"/>
<path d="M21.1055 31.3128V43.5628C21.1055 51.262 21.1055 55.1125 23.4983 57.5033C25.8911 59.8941 29.7397 59.8962 37.4388 59.8962H44.5846M21.1055 31.3128L23.9026 26.8518C25.6604 24.0425 26.5404 22.6378 27.9246 21.8701C29.3089 21.1045 30.9667 21.1045 34.2803 21.1045H46.8366C50.2237 21.1045 51.9183 21.1045 53.3209 21.8987C54.7276 22.695 55.5974 24.1466 57.341 27.0519L59.8971 31.3128M21.1055 31.3128H59.8971M59.8971 38.4587V31.3128M40.5013 31.3128V21.1045M36.418 37.4378H44.5846M52.7513 42.542C48.8048 42.542 45.6055 45.6821 45.6055 49.5531C45.6055 51.7683 46.4997 53.4894 48.2862 55.0268C49.5438 56.1109 51.8346 58.4364 52.7513 59.8962C53.7129 58.467 55.9567 56.1109 57.2185 55.0268C59.0049 53.4894 59.8971 51.7683 59.8971 49.5551C59.8971 45.68 56.6978 42.542 52.7513 42.542Z" stroke="#EA2147" stroke-width="3" stroke-linecap="round" stroke-linejoin="round"/>
<path d="M52.75 49.6875H52.7684" stroke="#EA2147" stroke-width="2" stroke-linecap="round" stroke-linejoin="round"/>
</svg>
