<svg width="295" height="244" viewBox="0 0 295 244" fill="none" xmlns="http://www.w3.org/2000/svg">
<path d="M294.688 242.044H0.312331C0.139756 242.044 0 241.859 0 241.628C0 241.397 0.139756 241.213 0.312331 241.213H294.688C294.86 241.213 295 241.397 295 241.628C295 241.859 294.86 242.044 294.688 242.044Z" fill="#CBCBCB"/>
<path d="M101.483 25.6025L110.277 28.0577L107.815 36.9488L96.6055 35.1L101.483 25.6025Z" fill="#ED9DA0"/>
<path d="M59.8807 219.018L53.4766 214.189L48.4126 220.916L54.8167 225.745L59.8807 219.018Z" fill="#ED9DA0"/>
<path d="M44.955 227.899L59.2426 238.672C60.4719 239.596 61.8923 240.234 63.3998 240.539L66.9884 241.257C67.3836 241.336 67.7935 241.293 68.1634 241.133C68.5333 240.972 68.8456 240.703 69.0586 240.361C69.2715 240.018 69.375 239.619 69.3552 239.216C69.3354 238.813 69.1932 238.426 68.9477 238.106L64.6478 232.505L59.0322 220.605L58.9985 220.635C58.1613 221.385 56.8916 222.513 56.7953 222.569C55.0193 222.943 53.6608 222.708 52.7574 221.871C51.1818 220.412 51.5319 217.585 51.5356 217.557L51.5386 217.535L51.5199 217.523C51.3412 217.4 51.1365 217.319 50.9217 217.287C50.7068 217.256 50.4876 217.274 50.2809 217.34C49.4495 217.634 49.0058 218.717 48.9422 218.883C48.1325 218.988 46.0038 221.379 45.8326 221.574C44.6207 221.781 43.783 222.226 43.3415 222.898C43.1455 223.233 43.0225 223.606 42.9807 223.993C42.9389 224.379 42.9792 224.77 43.099 225.139C43.384 226.244 44.0381 227.218 44.9525 227.899L44.955 227.899Z" fill="#090814"/>
<path d="M114.725 225.23H106.344V234.034H114.725V225.23Z" fill="#ED9DA0"/>
<path d="M107.846 242.043H126.546C128.154 242.041 129.742 241.679 131.192 240.984L134.64 239.326C135.02 239.143 135.335 238.849 135.543 238.482C135.751 238.115 135.843 237.694 135.805 237.274C135.768 236.854 135.603 236.455 135.333 236.132C135.063 235.808 134.701 235.574 134.295 235.461L127.183 233.492L115.014 227.092L115.005 227.138C114.778 228.291 114.425 230.033 114.381 230.139C113.134 231.57 111.852 232.229 110.572 232.099C108.339 231.872 106.854 229.292 106.84 229.266L106.829 229.246L106.806 229.248C106.579 229.258 106.357 229.319 106.158 229.428C105.959 229.537 105.787 229.69 105.656 229.876C105.147 230.644 105.458 231.828 105.509 232.007C104.899 232.604 104.624 235.94 104.604 236.211C103.722 237.146 103.303 238.046 103.356 238.884C103.403 239.288 103.535 239.676 103.743 240.025C103.951 240.374 104.23 240.674 104.562 240.907C105.495 241.65 106.653 242.051 107.844 242.045L107.846 242.043Z" fill="#090814"/>
<path d="M250.466 147.141H140.712C139.836 147.14 138.995 146.792 138.376 146.171C137.756 145.551 137.407 144.71 137.406 143.833V106.779C137.407 105.902 137.756 105.061 138.376 104.441C138.995 103.821 139.836 103.472 140.712 103.471H250.466C251.343 103.472 252.183 103.821 252.803 104.441C253.423 105.061 253.771 105.902 253.772 106.779V143.833C253.771 144.71 253.423 145.551 252.803 146.171C252.183 146.792 251.343 147.14 250.466 147.141Z" fill="#EA1E42"/>
<path d="M183.689 113.396H154.598V116.704H183.689V113.396Z" fill="#F2F2F2"/>
<path d="M222.038 117.366C223.134 117.366 224.022 116.477 224.022 115.381C224.022 114.284 223.134 113.396 222.038 113.396C220.943 113.396 220.055 114.284 220.055 115.381C220.055 116.477 220.943 117.366 222.038 117.366Z" fill="#F2F2F2"/>
<path d="M228.648 117.366C229.743 117.366 230.631 116.477 230.631 115.381C230.631 114.284 229.743 113.396 228.648 113.396C227.552 113.396 226.664 114.284 226.664 115.381C226.664 116.477 227.552 117.366 228.648 117.366Z" fill="#F2F2F2"/>
<path d="M235.261 117.366C236.356 117.366 237.244 116.477 237.244 115.381C237.244 114.284 236.356 113.396 235.261 113.396C234.165 113.396 233.277 114.284 233.277 115.381C233.277 116.477 234.165 117.366 235.261 117.366Z" fill="#F2F2F2"/>
<path d="M250.466 194.12H140.712C139.836 194.119 138.995 193.77 138.376 193.15C137.756 192.529 137.407 191.689 137.406 190.811V153.758C137.407 152.88 137.756 152.04 138.376 151.419C138.995 150.799 139.836 150.45 140.712 150.449H250.466C251.343 150.45 252.183 150.799 252.803 151.419C253.423 152.04 253.771 152.88 253.772 153.758V190.811C253.771 191.689 253.423 192.53 252.803 193.15C252.183 193.77 251.343 194.119 250.466 194.12Z" fill="#E6E6E6"/>
<path d="M183.689 160.375H154.598V163.683H183.689V160.375Z" fill="#EA1E42"/>
<path d="M222.038 164.345C223.134 164.345 224.022 163.456 224.022 162.36C224.022 161.264 223.134 160.375 222.038 160.375C220.943 160.375 220.055 161.264 220.055 162.36C220.055 163.456 220.943 164.345 222.038 164.345Z" fill="#EA1E42"/>
<path d="M228.648 164.345C229.743 164.345 230.631 163.456 230.631 162.36C230.631 161.264 229.743 160.375 228.648 160.375C227.552 160.375 226.664 161.264 226.664 162.36C226.664 163.456 227.552 164.345 228.648 164.345Z" fill="#EA1E42"/>
<path d="M235.261 164.345C236.356 164.345 237.244 163.456 237.244 162.36C237.244 161.264 236.356 160.375 235.261 160.375C234.165 160.375 233.277 161.264 233.277 162.36C233.277 163.456 234.165 164.345 235.261 164.345Z" fill="#EA1E42"/>
<path d="M250.466 241.1H140.712C139.836 241.099 138.995 240.75 138.376 240.13C137.756 239.509 137.407 238.668 137.406 237.791V200.737C137.407 199.86 137.756 199.019 138.376 198.399C138.995 197.779 139.836 197.43 140.712 197.429H250.466C251.343 197.43 252.183 197.779 252.803 198.399C253.423 199.019 253.771 199.86 253.772 200.737V237.791C253.771 238.669 253.423 239.509 252.803 240.13C252.183 240.75 251.343 241.099 250.466 241.1Z" fill="#E6E6E6"/>
<path d="M183.689 207.354H154.598V210.663H183.689V207.354Z" fill="#EA1E42"/>
<path d="M222.038 211.325C223.134 211.325 224.022 210.436 224.022 209.34C224.022 208.243 223.134 207.354 222.038 207.354C220.943 207.354 220.055 208.243 220.055 209.34C220.055 210.436 220.943 211.325 222.038 211.325Z" fill="#EA1E42"/>
<path d="M228.648 211.325C229.743 211.325 230.631 210.436 230.631 209.34C230.631 208.243 229.743 207.354 228.648 207.354C227.552 207.354 226.664 208.243 226.664 209.34C226.664 210.436 227.552 211.325 228.648 211.325Z" fill="#EA1E42"/>
<path d="M235.261 211.325C236.356 211.325 237.244 210.436 237.244 209.34C237.244 208.243 236.356 207.354 235.261 207.354C234.165 207.354 233.277 208.243 233.277 209.34C233.277 210.436 234.165 211.325 235.261 211.325Z" fill="#EA1E42"/>
<path d="M209.09 67.2873L208.969 67.1976L208.966 67.1954C208.809 67.079 208.631 66.9947 208.442 66.9471C208.253 66.8996 208.056 66.8898 207.863 66.9183C207.67 66.9468 207.485 67.0131 207.318 67.1133C207.15 67.2135 207.004 67.3457 206.888 67.5024L182.184 100.789H179.466V100.15C179.466 99.9924 179.403 99.8412 179.292 99.7297C179.18 99.6182 179.029 99.5555 178.872 99.5555H177.249C177.091 99.5555 176.94 99.6182 176.829 99.7297C176.718 99.8412 176.655 99.9924 176.655 100.15V100.789H175.718V100.15C175.718 99.9924 175.655 99.8412 175.544 99.7297C175.433 99.6182 175.281 99.5555 175.124 99.5555H173.501C173.344 99.5555 173.193 99.6182 173.081 99.7297C172.97 99.8412 172.907 99.9924 172.907 100.15V100.789H171.972V100.15C171.972 99.9924 171.909 99.8412 171.798 99.7297C171.686 99.6182 171.535 99.5555 171.378 99.5555H169.755C169.598 99.5555 169.447 99.6182 169.335 99.7297C169.224 99.8412 169.161 99.9924 169.161 100.15V100.789H168.223V100.15C168.223 99.9924 168.16 99.8412 168.049 99.7297C167.937 99.6182 167.786 99.5555 167.629 99.5555H166.006C165.849 99.5555 165.698 99.6182 165.586 99.7297C165.475 99.8412 165.412 99.9924 165.412 100.15V100.789H164.477V100.15C164.477 99.9924 164.414 99.8412 164.303 99.7297C164.191 99.6182 164.04 99.5555 163.883 99.5555H162.26C162.103 99.5555 161.951 99.6182 161.84 99.7297C161.729 99.8412 161.666 99.9924 161.666 100.15V100.789H160.728V100.15C160.728 99.9924 160.665 99.8412 160.554 99.7297C160.442 99.6182 160.291 99.5555 160.134 99.5555H158.511C158.353 99.5555 158.202 99.6182 158.091 99.7297C157.98 99.8412 157.917 99.9924 157.917 100.15V100.789H156.978V100.15C156.978 99.9924 156.916 99.8412 156.804 99.7297C156.693 99.6182 156.542 99.5555 156.384 99.5555H154.762C154.604 99.5555 154.453 99.6182 154.342 99.7297C154.23 99.8412 154.168 99.9924 154.168 100.15V100.789H153.232V100.15C153.232 99.9924 153.17 99.8412 153.058 99.7297C152.947 99.6182 152.796 99.5555 152.638 99.5555H151.016C150.858 99.5555 150.707 99.6182 150.596 99.7297C150.484 99.8412 150.422 99.9924 150.422 100.15V100.789H149.483V100.15C149.483 99.9924 149.421 99.8412 149.309 99.7297C149.198 99.6182 149.047 99.5555 148.889 99.5555H147.267C147.109 99.5555 146.958 99.6182 146.847 99.7297C146.735 99.8412 146.673 99.9924 146.673 100.15V100.789H145.737V100.15C145.737 99.9924 145.675 99.8412 145.563 99.7297C145.452 99.6182 145.301 99.5555 145.143 99.5555H143.521C143.363 99.5555 143.212 99.6182 143.101 99.7297C142.989 99.8412 142.927 99.9924 142.927 100.15V100.789H141.751C141.357 100.789 140.979 100.946 140.701 101.224C140.422 101.503 140.266 101.881 140.266 102.275V103.693C140.266 104.087 140.422 104.465 140.701 104.744C140.979 105.023 141.357 105.179 141.751 105.179H181.937C182.446 105.179 182.939 105.004 183.334 104.682C183.729 104.361 184 103.913 184.104 103.415L184.119 103.426L209.394 69.3686L209.397 69.3657C209.631 69.0492 209.731 68.6524 209.673 68.2625C209.616 67.8726 209.406 67.5216 209.09 67.2865V67.2873Z" fill="#090814"/>
<path d="M80.1164 58.9545C80.1164 58.9545 76.3621 56.076 76.3621 63.1068L75.7695 86.3412L82.3886 108.29L86.2417 101.172L84.6608 85.7478L80.1164 58.9545Z" fill="#EA1E42"/>
<path d="M120.274 122.505C120.274 122.505 124.627 143.722 119.113 161.134L116.14 225.949L104.893 227.209L100.974 177.544L97.2013 152.856L89.3654 175.367L63.5359 222.998L51.6367 213.704C51.6367 213.704 64.8229 177.697 74.5641 170.137L79.4497 114.45L120.274 122.505Z" fill="#090814"/>
<path d="M118.211 24.3699C121.586 18.1911 119.317 10.4441 113.143 7.06654C106.969 3.68895 99.2282 5.95975 95.8532 12.1385C92.4782 18.3173 94.7472 26.0643 100.921 29.4418C107.095 32.8194 114.836 30.5486 118.211 24.3699Z" fill="#ED9DA0"/>
<path d="M106.13 20.9574C107.658 21.1563 108.81 19.592 109.344 18.1468C109.878 16.7017 110.285 15.0185 111.613 14.2377C113.427 13.1708 115.748 14.4539 117.823 14.1019C120.166 13.7044 121.689 11.2197 121.808 8.84462C121.928 6.46952 120.984 4.18521 120.057 1.99573L119.733 4.71698C119.777 3.79468 119.583 2.87671 119.17 2.05084C118.758 1.22498 118.14 0.518854 117.377 0L117.794 3.99331C117.705 3.44251 117.509 2.9147 117.215 2.44014C116.922 1.96559 116.538 1.55364 116.086 1.22792C115.633 0.9022 115.121 0.669123 114.578 0.542063C114.035 0.415002 113.472 0.396459 112.922 0.487493L112.988 2.86665C110.282 2.54449 107.553 2.22232 104.839 2.46736C102.125 2.7124 99.3917 3.57187 97.3348 5.36058C94.258 8.03607 93.1344 12.442 93.5116 16.5054C93.8889 20.5688 95.5641 24.3828 97.3098 28.0687C97.7489 28.996 98.3566 30.0426 99.3748 30.1607C100.29 30.267 101.128 29.5013 101.412 28.6241C101.631 27.7241 101.623 26.7836 101.387 25.8877C101.129 24.5186 100.806 23.1199 101.047 21.7475C101.289 20.3751 102.276 19.02 103.657 18.8517C105.039 18.6834 106.453 20.2644 105.789 21.4884L106.13 20.9574Z" fill="#090814"/>
<path d="M121.062 128.177L78.5352 125.431L81.7363 112.16L120.605 120.855L121.062 128.177Z" fill="#CBCBCB"/>
<path d="M94.8357 35.2257L97.5033 31.5195C97.5033 31.5195 100.485 32.5336 108.469 36.5111L109.033 39.9833L122.893 125.295L97.7009 124.206L90.8422 124.059L88.5972 119.022L85.8287 123.952L79.1292 123.809L72.3125 119.854L79.0304 99.2892L81.2038 80.5054L77.8434 62.8102C77.8434 62.8102 73.6168 46.5587 89.8963 37.7964L94.8357 35.2257Z" fill="#EA1E42"/>
<path d="M155.881 99.8078C155.264 99.9647 154.62 99.9843 153.995 99.8652C153.369 99.746 152.777 99.4911 152.261 99.1184C151.745 98.7456 151.316 98.2641 151.006 97.7078C150.696 97.1514 150.512 96.5337 150.466 95.8983L135.52 91.8917L141.532 86.5488L154.803 91.1724C155.876 91.1647 156.914 91.5512 157.721 92.2587C158.527 92.9662 159.046 93.9455 159.179 95.0106C159.312 96.0758 159.05 97.1527 158.442 98.037C157.834 98.9213 156.922 99.5514 155.881 99.8078Z" fill="#ED9DA0"/>
<path d="M144.926 97.5454C144.612 97.7167 144.265 97.8199 143.909 97.8482C143.552 97.8766 143.193 97.8295 142.856 97.71L118.269 88.3712C112.271 86.2432 107.249 82.0073 104.138 76.4515L93.8851 58.1474C92.4356 56.5223 91.6906 54.3876 91.814 52.2127C91.9373 50.0379 92.9189 48.0013 94.5427 46.5507C96.1666 45.1002 98.2997 44.3546 100.473 44.4781C102.646 44.6015 104.681 45.5838 106.131 47.2089L123.877 75.3588L146.211 88.4628C146.648 88.7502 146.987 89.1652 147.182 89.6517C147.376 90.1382 147.416 90.6727 147.297 91.1829L146.187 95.8929C146.068 96.3978 145.797 96.8544 145.412 97.2018C145.265 97.3352 145.102 97.4507 144.927 97.5458L144.926 97.5454Z" fill="#EA1E42"/>
</svg>
