<svg width="18" height="20" viewBox="0 0 18 20" fill="none" xmlns="http://www.w3.org/2000/svg">
<path d="M8 7.00025V13.0002C8.00028 13.2551 8.09788 13.5003 8.27285 13.6856C8.44782 13.871 8.68695 13.9825 8.94139 13.9974C9.19584 14.0124 9.44638 13.9296 9.64183 13.766C9.83729 13.6024 9.9629 13.3703 9.993 13.1172L10 13.0002V7.00025H16C16.5046 7.00009 16.9906 7.19066 17.3605 7.53375C17.7305 7.87684 17.9572 8.34709 17.995 8.85025L18 9.00025V18.0002C18.0002 18.5048 17.8096 18.9908 17.4665 19.3608C17.1234 19.7308 16.6532 19.9574 16.15 19.9953L16 20.0002H2C1.49542 20.0004 1.00943 19.8098 0.639452 19.4668C0.269471 19.1237 0.0428434 18.6534 0.00500021 18.1502L1.00268e-07 18.0002V9.00025C-0.000159579 8.49567 0.190406 8.00968 0.533497 7.6397C0.876588 7.26972 1.34684 7.04309 1.85 7.00525L2 7.00025H8ZM9.884 0.469249L13.243 3.82725C13.4306 4.01489 13.5361 4.26938 13.5361 4.53475C13.5361 4.80011 13.4306 5.05461 13.243 5.24225C13.0554 5.42989 12.8009 5.53531 12.5355 5.53531C12.2701 5.53531 12.0156 5.42989 11.828 5.24225L10 3.41325V7.00025H8V3.41325L6.172 5.24225C6.07909 5.33516 5.96879 5.40886 5.8474 5.45914C5.726 5.50942 5.5959 5.53531 5.4645 5.53531C5.33311 5.53531 5.203 5.50942 5.0816 5.45914C4.96021 5.40886 4.84991 5.33516 4.757 5.24225C4.66409 5.14934 4.59039 5.03904 4.54011 4.91764C4.48982 4.79625 4.46394 4.66614 4.46394 4.53475C4.46394 4.40335 4.48982 4.27325 4.54011 4.15185C4.59039 4.03046 4.66409 3.92016 4.757 3.82725L8.117 0.469249C8.35139 0.235063 8.66917 0.103516 9.0005 0.103516C9.33183 0.103516 9.64961 0.235063 9.884 0.469249Z" fill="#EA2147"/>
</svg>
