<svg width="25" height="24" viewBox="0 0 25 24" fill="none" xmlns="http://www.w3.org/2000/svg">
<g clip-path="url(#clip0_1240_6242)">
<path d="M20.7066 8.66668V8.45334C20.6612 6.64733 19.9031 4.93265 18.5979 3.68362C17.2926 2.43459 15.5462 1.75265 13.74 1.78668C12.3948 1.7757 11.075 2.15369 9.93961 2.87516C8.80418 3.59663 7.90143 4.63084 7.33998 5.85334C5.75918 6.02968 4.2981 6.78012 3.2339 7.96228C2.16971 9.14445 1.57644 10.6761 1.56665 12.2667C1.5684 13.1094 1.73624 13.9436 2.06057 14.7215C2.38491 15.4994 2.85937 16.2057 3.45685 16.8C4.05433 17.3944 4.7631 17.8652 5.54264 18.1855C6.32219 18.5058 7.15721 18.6693 7.99998 18.6667H10.5V17.3333H7.99998C6.71141 17.2636 5.49718 16.708 4.60204 15.7784C3.70691 14.8489 3.19742 13.6146 3.17628 12.3243C3.15514 11.034 3.62392 9.78372 4.48813 8.82537C5.35234 7.86703 6.54772 7.27192 7.83332 7.16001H8.27998L8.43332 6.74001C8.84679 5.6661 9.57997 4.745 10.5338 4.10118C11.4876 3.45736 12.616 3.12186 13.7667 3.14001C15.2193 3.10588 16.6267 3.64732 17.6819 4.64633C18.7371 5.64535 19.3546 7.02095 19.4 8.47334C19.4089 8.65101 19.4089 8.82901 19.4 9.00668L19.3467 9.48668L19.78 9.68668C20.6181 10.0643 21.3006 10.719 21.7126 11.5407C22.1247 12.3624 22.2411 13.301 22.0424 14.1985C21.8436 15.096 21.3418 15.8976 20.6214 16.4686C19.9009 17.0395 19.0058 17.3449 18.0867 17.3333H14.5V18.6667H18.0867C19.2723 18.6752 20.427 18.2884 21.3682 17.5673C22.3095 16.8463 22.9836 15.8322 23.2841 14.6852C23.5846 13.5382 23.4944 12.3238 23.0276 11.2339C22.5608 10.144 21.7442 9.24063 20.7066 8.66668Z" fill="#EA1B40"/>
<path d="M15.3533 14.5667C15.4863 14.5688 15.6169 14.5311 15.7283 14.4584C15.8397 14.3857 15.9267 14.2814 15.9784 14.1588C16.03 14.0362 16.0437 13.901 16.0179 13.7705C15.992 13.6401 15.9278 13.5203 15.8333 13.4267L12.5 10.0933L9.16665 13.4267C9.05744 13.5542 9.00036 13.7182 9.00684 13.886C9.01333 14.0538 9.08288 14.213 9.20161 14.3317C9.32034 14.4504 9.4795 14.52 9.64728 14.5265C9.81507 14.5329 9.97912 14.4759 10.1067 14.3667L11.8333 12.6667V20.8333C11.8333 21.0101 11.9036 21.1797 12.0286 21.3047C12.1536 21.4298 12.3232 21.5 12.5 21.5C12.6768 21.5 12.8464 21.4298 12.9714 21.3047C13.0964 21.1797 13.1667 21.0101 13.1667 20.8333V12.6667L14.88 14.38C15.0069 14.5023 15.1771 14.5695 15.3533 14.5667Z" fill="#EA1B40"/>
</g>
<defs>
<clipPath id="clip0_1240_6242">
<rect width="24" height="24" fill="white" transform="translate(0.5)"/>
</clipPath>
</defs>
</svg>
