<svg width="19" height="18" viewBox="0 0 19 18" fill="none" xmlns="http://www.w3.org/2000/svg">
<path d="M3.85871 3.65365H15.1087C15.2401 3.65359 15.3714 3.66193 15.5018 3.67861C15.4576 3.36846 15.351 3.07046 15.1886 2.80259C15.0261 2.53472 14.8111 2.30252 14.5564 2.12C14.3018 1.93748 14.0129 1.80841 13.707 1.74058C13.4011 1.67275 13.0847 1.66757 12.7768 1.72533L3.52473 3.3049H3.51418C2.93342 3.41596 2.41698 3.74454 2.07031 4.22354C2.59259 3.85205 3.21779 3.65283 3.85871 3.65365Z" fill="#EA1B40"/>
<path d="M15.1094 4.5H3.85937C3.26284 4.50065 2.69092 4.73791 2.2691 5.15973C1.84729 5.58154 1.61003 6.15346 1.60938 6.75V13.5C1.61003 14.0965 1.84729 14.6685 2.2691 15.0903C2.69092 15.5121 3.26284 15.7493 3.85937 15.75H15.1094C15.7059 15.7493 16.2778 15.5121 16.6996 15.0903C17.1215 14.6685 17.3587 14.0965 17.3594 13.5V6.75C17.3587 6.15346 17.1215 5.58154 16.6996 5.15973C16.2778 4.73791 15.7059 4.50065 15.1094 4.5ZM13.4394 11.25C13.2169 11.25 12.9994 11.184 12.8144 11.0604C12.6294 10.9368 12.4852 10.7611 12.4001 10.5555C12.3149 10.3499 12.2927 10.1237 12.3361 9.90552C12.3795 9.68729 12.4866 9.48684 12.644 9.3295C12.8013 9.17217 13.0017 9.06502 13.22 9.02161C13.4382 8.97821 13.6644 9.00048 13.87 9.08563C14.0755 9.17078 14.2512 9.31498 14.3749 9.49998C14.4985 9.68499 14.5644 9.90249 14.5644 10.125C14.5644 10.4234 14.4459 10.7095 14.2349 10.9205C14.024 11.1315 13.7378 11.25 13.4394 11.25Z" fill="#EA1B40"/>
<path d="M1.625 9.12109V5.62305C1.625 4.86121 2.04687 3.58398 3.51113 3.3073C4.75391 3.07422 5.98437 3.07422 5.98437 3.07422C5.98437 3.07422 6.79297 3.63672 6.125 3.63672C5.45703 3.63672 5.47461 4.49805 6.125 4.49805C6.77539 4.49805 6.125 5.32422 6.125 5.32422L3.50586 8.29492L1.625 9.12109Z" fill="#EA1B40"/>
</svg>
