<svg width="19" height="19" viewBox="0 0 19 19" fill="none" xmlns="http://www.w3.org/2000/svg">
<path d="M3.38751 3.86984H14.6482C14.7798 3.86978 14.9112 3.87811 15.0416 3.8948C14.9974 3.58464 14.8908 3.28664 14.7282 3.01877C14.5655 2.7509 14.3503 2.51871 14.0954 2.33618C13.8406 2.15366 13.5513 2.0246 13.2452 1.95677C12.939 1.88894 12.6223 1.88375 12.3141 1.94152L3.05321 3.52109H3.04265C2.46135 3.63215 1.9444 3.96073 1.59741 4.43972C2.12019 4.06823 2.74598 3.86901 3.38751 3.86984Z" fill="white"/>
<path d="M14.6483 4.71521H3.38764C2.79053 4.71586 2.21807 4.95312 1.79586 5.37494C1.37364 5.79675 1.13615 6.36867 1.1355 6.96521V13.7152C1.13615 14.3117 1.37364 14.8837 1.79586 15.3055C2.21807 15.7273 2.79053 15.9646 3.38764 15.9652H14.6483C15.2455 15.9646 15.8179 15.7273 16.2401 15.3055C16.6624 14.8837 16.8998 14.3117 16.9005 13.7152V6.96521C16.8998 6.36867 16.6624 5.79675 16.2401 5.37494C15.8179 4.95312 15.2455 4.71586 14.6483 4.71521ZM12.9768 11.4652C12.7541 11.4652 12.5364 11.3992 12.3512 11.2756C12.166 11.152 12.0217 10.9763 11.9365 10.7707C11.8513 10.5652 11.829 10.339 11.8724 10.1207C11.9159 9.9025 12.0231 9.70205 12.1806 9.54471C12.3381 9.38738 12.5387 9.28023 12.7572 9.23682C12.9756 9.19342 13.202 9.21569 13.4078 9.30084C13.6135 9.38599 13.7894 9.53019 13.9131 9.71519C14.0369 9.9002 14.1029 10.1177 14.1029 10.3402C14.1029 10.6386 13.9843 10.9247 13.7731 11.1357C13.5619 11.3467 13.2755 11.4652 12.9768 11.4652Z" fill="white"/>
<path d="M1.15308 9.33642V5.83838C1.15308 5.07654 1.57535 3.79932 3.041 3.52264C4.28496 3.28955 5.5166 3.28955 5.5166 3.28955C5.5166 3.28955 6.32596 3.85205 5.65736 3.85205C4.98875 3.85205 5.00635 4.71338 5.65736 4.71338C6.30837 4.71338 5.65736 5.53955 5.65736 5.53955L3.03573 8.51025L1.15308 9.33642Z" fill="white"/>
</svg>
