<svg width="18" height="18" viewBox="0 0 18 18" fill="none" xmlns="http://www.w3.org/2000/svg">
<path d="M3.35725 3.65463H14.6072C14.7387 3.65457 14.8699 3.6629 15.0003 3.67959C14.9561 3.36943 14.8496 3.07143 14.6871 2.80356C14.5246 2.53569 14.3096 2.3035 14.055 2.12097C13.8003 1.93845 13.5114 1.80939 13.2055 1.74156C12.8997 1.67373 12.5832 1.66854 12.2753 1.72631L3.02326 3.30588H3.01271C2.43196 3.41694 1.91551 3.74552 1.56885 4.22451C2.09113 3.85302 2.71633 3.6538 3.35725 3.65463Z" fill="#718096"/>
<path d="M14.6075 4.49976H3.35754C2.76101 4.50041 2.18909 4.73767 1.76727 5.15948C1.34546 5.5813 1.1082 6.15322 1.10754 6.74975V13.4998C1.1082 14.0963 1.34546 14.6682 1.76727 15.09C2.18909 15.5118 2.76101 15.7491 3.35754 15.7498H14.6075C15.2041 15.7491 15.776 15.5118 16.1978 15.09C16.6196 14.6682 16.8569 14.0963 16.8575 13.4998V6.74975C16.8569 6.15322 16.6196 5.5813 16.1978 5.15948C15.776 4.73767 15.2041 4.50041 14.6075 4.49976ZM12.9376 11.2498C12.7151 11.2498 12.4976 11.1838 12.3126 11.0602C12.1276 10.9365 11.9834 10.7608 11.8983 10.5553C11.8131 10.3497 11.7908 10.1235 11.8342 9.90528C11.8776 9.68705 11.9848 9.48659 12.1421 9.32926C12.2995 9.17193 12.4999 9.06478 12.7181 9.02137C12.9364 8.97796 13.1626 9.00024 13.3681 9.08539C13.5737 9.17054 13.7494 9.31473 13.873 9.49974C13.9966 9.68474 14.0626 9.90225 14.0626 10.1248C14.0626 10.4231 13.9441 10.7093 13.7331 10.9202C13.5221 11.1312 13.236 11.2498 12.9376 11.2498Z" fill="#718096"/>
<path d="M1.12524 9.12109V5.62305C1.12524 4.86121 1.54712 3.58398 3.01138 3.3073C4.25415 3.07422 5.48462 3.07422 5.48462 3.07422C5.48462 3.07422 6.29321 3.63672 5.62524 3.63672C4.95727 3.63672 4.97485 4.49805 5.62524 4.49805C6.27563 4.49805 5.62524 5.32422 5.62524 5.32422L3.0061 8.29492L1.12524 9.12109Z" fill="#718096"/>
</svg>
