<svg width="17" height="17" viewBox="0 0 17 17" fill="none" xmlns="http://www.w3.org/2000/svg">
<path fill-rule="evenodd" clip-rule="evenodd" d="M3.99255 0.401072C7.00132 0.0681323 10.0377 0.0681323 13.0465 0.401072C14.7124 0.587474 16.0564 1.89715 16.2519 3.56603C16.6088 6.61253 16.6088 9.69016 16.2519 12.7367C16.0564 14.4055 14.7124 15.7152 13.0465 15.9016C10.0377 16.2346 7.00132 16.2346 3.99255 15.9016C2.32666 15.7152 0.982669 14.4055 0.787197 12.7367C0.430309 9.69049 0.430309 6.61317 0.787197 3.567C0.886069 2.75622 1.25631 2.00253 1.83792 1.42808C2.41952 0.853626 3.17841 0.492083 3.99158 0.402043M8.51953 3.3039C8.71297 3.3039 8.89849 3.38062 9.03527 3.51717C9.17206 3.65372 9.2489 3.83893 9.2489 4.03204V7.42321H12.6458C12.8393 7.42321 13.0248 7.49992 13.1616 7.63647C13.2984 7.77303 13.3752 7.95823 13.3752 8.15134C13.3752 8.34446 13.2984 8.52966 13.1616 8.66621C13.0248 8.80276 12.8393 8.87948 12.6458 8.87948H9.2489V12.2706C9.2489 12.4638 9.17206 12.649 9.03527 12.7855C8.89849 12.9221 8.71297 12.9988 8.51953 12.9988C8.32609 12.9988 8.14057 12.9221 8.00378 12.7855C7.867 12.649 7.79016 12.4638 7.79016 12.2706V8.87948H4.39322C4.19978 8.87948 4.01426 8.80276 3.87748 8.66621C3.74069 8.52966 3.66385 8.34446 3.66385 8.15134C3.66385 7.95823 3.74069 7.77303 3.87748 7.63647C4.01426 7.49992 4.19978 7.42321 4.39322 7.42321H7.79016V4.03204C7.79016 3.83893 7.867 3.65372 8.00378 3.51717C8.14057 3.38062 8.32609 3.3039 8.51953 3.3039Z" fill="#2D3748"/>
</svg>
