<svg width="36" height="36" viewBox="0 0 36 36" fill="none" xmlns="http://www.w3.org/2000/svg">
<circle cx="18" cy="18" r="18" fill="#FFEDEF"/>
<path d="M20.872 22.376C21.0587 22.376 21.2053 22.432 21.312 22.544C21.4187 22.6507 21.472 22.7893 21.472 22.96V24H13.68V23.416C13.68 23.2987 13.704 23.176 13.752 23.048C13.8 22.92 13.8773 22.8027 13.984 22.696L17.568 19.104C17.872 18.8 18.1413 18.5093 18.376 18.232C18.616 17.9547 18.8187 17.6773 18.984 17.4C19.1547 17.1227 19.2827 16.8427 19.368 16.56C19.4587 16.272 19.504 15.9707 19.504 15.656C19.504 15.352 19.456 15.0853 19.36 14.856C19.2693 14.6213 19.1413 14.4293 18.976 14.28C18.816 14.1253 18.6213 14.0107 18.392 13.936C18.168 13.856 17.92 13.816 17.648 13.816C17.3867 13.816 17.144 13.8533 16.92 13.928C16.7013 14.0027 16.504 14.1067 16.328 14.24C16.1573 14.3733 16.0133 14.5333 15.896 14.72C15.784 14.9013 15.7013 15.1013 15.648 15.32C15.568 15.5387 15.464 15.6853 15.336 15.76C15.2133 15.8347 15.032 15.8507 14.792 15.808L13.888 15.648C13.968 15.104 14.1173 14.6267 14.336 14.216C14.56 13.8053 14.84 13.464 15.176 13.192C15.512 12.9147 15.896 12.7067 16.328 12.568C16.7653 12.424 17.2373 12.352 17.744 12.352C18.256 12.352 18.7253 12.4293 19.152 12.584C19.584 12.7333 19.9547 12.9493 20.264 13.232C20.5787 13.5093 20.824 13.848 21 14.248C21.176 14.648 21.264 15.0987 21.264 15.6C21.264 16.0267 21.2 16.4213 21.072 16.784C20.9493 17.1467 20.7813 17.4933 20.568 17.824C20.3547 18.1547 20.104 18.4773 19.816 18.792C19.5333 19.1013 19.2347 19.416 18.92 19.736L16.136 22.584C16.3653 22.52 16.5947 22.4693 16.824 22.432C17.0587 22.3947 17.28 22.376 17.488 22.376H20.872Z" fill="#18181B"/>
</svg>
