<svg width="36" height="36" viewBox="0 0 36 36" fill="none" xmlns="http://www.w3.org/2000/svg">
<circle cx="18" cy="18" r="18" fill="#FFEDEF"/>
<path d="M13.944 15.648C14.024 15.104 14.1733 14.6267 14.392 14.216C14.616 13.8053 14.896 13.464 15.232 13.192C15.568 12.9147 15.952 12.7067 16.384 12.568C16.8213 12.424 17.2933 12.352 17.8 12.352C18.312 12.352 18.776 12.4267 19.192 12.576C19.6133 12.72 19.9733 12.9227 20.272 13.184C20.576 13.4453 20.808 13.7573 20.968 14.12C21.1333 14.4827 21.216 14.88 21.216 15.312C21.216 15.68 21.1707 16.0053 21.08 16.288C20.9947 16.5653 20.8693 16.8107 20.704 17.024C20.544 17.2373 20.3467 17.416 20.112 17.56C19.8773 17.704 19.6133 17.824 19.32 17.92C20.0347 18.128 20.5707 18.4613 20.928 18.92C21.2853 19.3733 21.464 19.944 21.464 20.632C21.464 21.1867 21.36 21.68 21.152 22.112C20.944 22.544 20.6613 22.9093 20.304 23.208C19.952 23.5067 19.5387 23.736 19.064 23.896C18.5947 24.0507 18.096 24.128 17.568 24.128C16.976 24.128 16.464 24.0587 16.032 23.92C15.6 23.776 15.2267 23.5733 14.912 23.312C14.6027 23.0453 14.344 22.7253 14.136 22.352C13.928 21.9787 13.752 21.56 13.608 21.096L14.352 20.784C14.5493 20.6987 14.736 20.6747 14.912 20.712C15.0933 20.7493 15.224 20.848 15.304 21.008C15.3893 21.1787 15.4853 21.3627 15.592 21.56C15.6987 21.752 15.8347 21.9307 16 22.096C16.1707 22.256 16.3787 22.392 16.624 22.504C16.8747 22.6107 17.1813 22.664 17.544 22.664C17.912 22.664 18.232 22.6053 18.504 22.488C18.7813 22.3653 19.0107 22.2107 19.192 22.024C19.3787 21.832 19.5173 21.6187 19.608 21.384C19.6987 21.1493 19.744 20.9173 19.744 20.688C19.744 20.4 19.7093 20.136 19.64 19.896C19.5707 19.6507 19.4347 19.4427 19.232 19.272C19.0347 19.1013 18.752 18.968 18.384 18.872C18.0213 18.7707 17.544 18.72 16.952 18.72V17.48C17.4373 17.4747 17.8453 17.4267 18.176 17.336C18.512 17.24 18.7787 17.112 18.976 16.952C19.1787 16.7867 19.3227 16.5893 19.408 16.36C19.4987 16.1307 19.544 15.88 19.544 15.608C19.544 15.3147 19.4987 15.056 19.408 14.832C19.3173 14.608 19.1893 14.4213 19.024 14.272C18.864 14.1173 18.672 14.0027 18.448 13.928C18.224 13.8533 17.976 13.816 17.704 13.816C17.4427 13.816 17.2 13.8533 16.976 13.928C16.7573 14.0027 16.56 14.1067 16.384 14.24C16.2133 14.3733 16.0693 14.5333 15.952 14.72C15.8347 14.9013 15.7493 15.1013 15.696 15.32C15.6213 15.5387 15.52 15.6853 15.392 15.76C15.2693 15.8347 15.088 15.8507 14.848 15.808L13.944 15.648Z" fill="#18181B"/>
</svg>
