<svg width="36" height="36" viewBox="0 0 36 36" fill="none" xmlns="http://www.w3.org/2000/svg">
<circle cx="18" cy="18" r="18" fill="#FFEDEF"/>
<path d="M16.08 16.736C16.3573 16.6773 16.6213 16.6347 16.872 16.608C17.128 16.5813 17.3733 16.568 17.608 16.568C18.2107 16.568 18.7413 16.6587 19.2 16.84C19.664 17.016 20.0507 17.2613 20.36 17.576C20.6747 17.8907 20.9093 18.2613 21.064 18.688C21.224 19.1093 21.304 19.568 21.304 20.064C21.304 20.6773 21.1973 21.2347 20.984 21.736C20.7707 22.2373 20.4747 22.6667 20.096 23.024C19.7173 23.376 19.2693 23.648 18.752 23.84C18.24 24.032 17.6853 24.128 17.088 24.128C16.736 24.128 16.4 24.0933 16.08 24.024C15.7653 23.9547 15.4693 23.8613 15.192 23.744C14.9147 23.6213 14.6587 23.4827 14.424 23.328C14.1893 23.168 13.9787 23.0027 13.792 22.832L14.32 22.096C14.432 21.936 14.5813 21.856 14.768 21.856C14.8853 21.856 15.0133 21.8987 15.152 21.984C15.2907 22.0693 15.4507 22.1627 15.632 22.264C15.8187 22.36 16.0373 22.4507 16.288 22.536C16.5387 22.6213 16.8373 22.664 17.184 22.664C17.5627 22.664 17.9013 22.6027 18.2 22.48C18.4987 22.3573 18.7493 22.1867 18.952 21.968C19.16 21.744 19.3173 21.4773 19.424 21.168C19.5307 20.8587 19.584 20.52 19.584 20.152C19.584 19.816 19.5333 19.5147 19.432 19.248C19.336 18.9813 19.1893 18.7547 18.992 18.568C18.8 18.3813 18.5573 18.24 18.264 18.144C17.9707 18.0427 17.632 17.992 17.248 17.992C16.9653 17.992 16.6747 18.016 16.376 18.064C16.0827 18.112 15.784 18.1867 15.48 18.288L14.408 17.984L15.352 12.48H20.928V13.224C20.928 13.4693 20.8507 13.6693 20.696 13.824C20.5413 13.9787 20.2827 14.056 19.92 14.056H16.544L16.08 16.736Z" fill="#18181B"/>
</svg>
