<svg width="36" height="36" viewBox="0 0 36 36" fill="none" xmlns="http://www.w3.org/2000/svg">
<circle cx="18" cy="18" r="18" fill="#FFEDEF"/>
<path d="M17.624 22.704C17.9707 22.704 18.288 22.648 18.576 22.536C18.864 22.4187 19.1093 22.2587 19.312 22.056C19.52 21.8533 19.68 21.6133 19.792 21.336C19.904 21.0587 19.96 20.7573 19.96 20.432C19.96 20.08 19.904 19.7653 19.792 19.488C19.6853 19.2053 19.5307 18.968 19.328 18.776C19.1307 18.584 18.8907 18.4373 18.608 18.336C18.3307 18.2293 18.024 18.176 17.688 18.176C17.3413 18.176 17.0267 18.2347 16.744 18.352C16.4667 18.4693 16.2293 18.6293 16.032 18.832C15.8347 19.0347 15.6827 19.272 15.576 19.544C15.4693 19.816 15.416 20.104 15.416 20.408C15.416 20.7493 15.464 21.0613 15.56 21.344C15.656 21.6267 15.7973 21.8693 15.984 22.072C16.1707 22.2693 16.4 22.424 16.672 22.536C16.9493 22.648 17.2667 22.704 17.624 22.704ZM16.992 16.72C16.9067 16.8267 16.824 16.928 16.744 17.024C16.6693 17.12 16.5947 17.216 16.52 17.312C16.7653 17.1733 17.0347 17.064 17.328 16.984C17.6213 16.904 17.936 16.864 18.272 16.864C18.72 16.864 19.1493 16.9387 19.56 17.088C19.9707 17.232 20.3307 17.4507 20.64 17.744C20.9547 18.032 21.2053 18.392 21.392 18.824C21.5787 19.2507 21.672 19.744 21.672 20.304C21.672 20.8373 21.5733 21.336 21.376 21.8C21.184 22.264 20.912 22.6693 20.56 23.016C20.208 23.3573 19.784 23.6293 19.288 23.832C18.7973 24.0293 18.2533 24.128 17.656 24.128C17.0587 24.128 16.52 24.032 16.04 23.84C15.56 23.648 15.1493 23.3787 14.808 23.032C14.472 22.68 14.2133 22.2587 14.032 21.768C13.8507 21.2773 13.76 20.7307 13.76 20.128C13.76 19.6053 13.872 19.0587 14.096 18.488C14.32 17.9173 14.6667 17.3173 15.136 16.688L17.968 12.888C18.0533 12.776 18.176 12.68 18.336 12.6C18.5013 12.52 18.6853 12.48 18.888 12.48H20.408L16.992 16.72Z" fill="#18181B"/>
</svg>
