<svg width="142" height="24" viewBox="0 0 142 24" fill="none" xmlns="http://www.w3.org/2000/svg">
<rect width="142" height="24" fill="white"/>
<path d="M20 6V12M20 12V18M20 12H26M20 12L14 12" stroke="#EA2147" stroke-width="2" stroke-linecap="round" stroke-linejoin="round"/>
<path d="M43.65 13.632L42.242 9.784C42.1727 9.61333 42.1007 9.41067 42.026 9.176C41.9513 8.94133 41.8767 8.688 41.802 8.416C41.7327 8.688 41.6607 8.944 41.586 9.184C41.5113 9.41867 41.4393 9.624 41.37 9.8L39.97 13.632H43.65ZM47.45 18H45.786C45.5993 18 45.4473 17.9547 45.33 17.864C45.2127 17.768 45.1247 17.6507 45.066 17.512L44.202 15.152H39.41L38.546 17.512C38.5033 17.6347 38.4207 17.7467 38.298 17.848C38.1753 17.9493 38.0233 18 37.842 18H36.162L40.714 6.432H42.906L47.45 18ZM53.3155 11.888C53.0915 11.616 52.8462 11.424 52.5795 11.312C52.3182 11.2 52.0355 11.144 51.7315 11.144C51.4328 11.144 51.1635 11.2 50.9235 11.312C50.6835 11.424 50.4782 11.5947 50.3075 11.824C50.1368 12.048 50.0062 12.336 49.9155 12.688C49.8248 13.0347 49.7795 13.4453 49.7795 13.92C49.7795 14.4 49.8168 14.808 49.8915 15.144C49.9715 15.4747 50.0835 15.7467 50.2275 15.96C50.3715 16.168 50.5475 16.32 50.7555 16.416C50.9635 16.5067 51.1955 16.552 51.4515 16.552C51.8622 16.552 52.2115 16.4667 52.4995 16.296C52.7875 16.1253 53.0595 15.8827 53.3155 15.568V11.888ZM55.2915 6.112V18H54.0835C53.8222 18 53.6568 17.88 53.5875 17.64L53.4195 16.848C53.0888 17.2267 52.7075 17.5333 52.2755 17.768C51.8488 18.0027 51.3502 18.12 50.7795 18.12C50.3315 18.12 49.9208 18.0267 49.5475 17.84C49.1742 17.6533 48.8515 17.384 48.5795 17.032C48.3128 16.6747 48.1048 16.2347 47.9555 15.712C47.8115 15.1893 47.7395 14.592 47.7395 13.92C47.7395 13.312 47.8222 12.7467 47.9875 12.224C48.1528 11.7013 48.3902 11.248 48.6995 10.864C49.0088 10.48 49.3795 10.1813 49.8115 9.968C50.2435 9.74933 50.7288 9.64 51.2675 9.64C51.7262 9.64 52.1182 9.712 52.4435 9.856C52.7688 10 53.0595 10.1947 53.3155 10.44V6.112H55.2915ZM62.3936 11.888C62.1696 11.616 61.9243 11.424 61.6576 11.312C61.3963 11.2 61.1136 11.144 60.8096 11.144C60.511 11.144 60.2416 11.2 60.0016 11.312C59.7616 11.424 59.5563 11.5947 59.3856 11.824C59.215 12.048 59.0843 12.336 58.9936 12.688C58.903 13.0347 58.8576 13.4453 58.8576 13.92C58.8576 14.4 58.895 14.808 58.9696 15.144C59.0496 15.4747 59.1616 15.7467 59.3056 15.96C59.4496 16.168 59.6256 16.32 59.8336 16.416C60.0416 16.5067 60.2736 16.552 60.5296 16.552C60.9403 16.552 61.2896 16.4667 61.5776 16.296C61.8656 16.1253 62.1376 15.8827 62.3936 15.568V11.888ZM64.3696 6.112V18H63.1616C62.9003 18 62.735 17.88 62.6656 17.64L62.4976 16.848C62.167 17.2267 61.7856 17.5333 61.3536 17.768C60.927 18.0027 60.4283 18.12 59.8576 18.12C59.4096 18.12 58.999 18.0267 58.6256 17.84C58.2523 17.6533 57.9296 17.384 57.6576 17.032C57.391 16.6747 57.183 16.2347 57.0336 15.712C56.8896 15.1893 56.8176 14.592 56.8176 13.92C56.8176 13.312 56.9003 12.7467 57.0656 12.224C57.231 11.7013 57.4683 11.248 57.7776 10.864C58.087 10.48 58.4576 10.1813 58.8896 9.968C59.3216 9.74933 59.807 9.64 60.3456 9.64C60.8043 9.64 61.1963 9.712 61.5216 9.856C61.847 10 62.1376 10.1947 62.3936 10.44V6.112H64.3696ZM80.2744 6.432V18H79.1704C78.9997 18 78.8557 17.9733 78.7384 17.92C78.6264 17.8613 78.517 17.7653 78.4104 17.632L72.3704 9.92C72.4024 10.272 72.4184 10.5973 72.4184 10.896V18H70.5224V6.432H71.6504C71.741 6.432 71.8184 6.43733 71.8824 6.448C71.9517 6.45333 72.0104 6.46933 72.0584 6.496C72.1117 6.51733 72.1624 6.552 72.2104 6.6C72.2584 6.64267 72.3117 6.70133 72.3704 6.776L78.4344 14.52C78.4184 14.3333 78.405 14.1493 78.3944 13.968C78.3837 13.7867 78.3784 13.6187 78.3784 13.464V6.432H80.2744ZM87.5765 12.952C87.5765 12.696 87.5392 12.456 87.4645 12.232C87.3952 12.0027 87.2885 11.8027 87.1445 11.632C87.0005 11.4613 86.8165 11.328 86.5925 11.232C86.3738 11.1307 86.1178 11.08 85.8245 11.08C85.2538 11.08 84.8032 11.2427 84.4725 11.568C84.1472 11.8933 83.9392 12.3547 83.8485 12.952H87.5765ZM83.8085 14.144C83.8405 14.5653 83.9152 14.9307 84.0325 15.24C84.1498 15.544 84.3045 15.7973 84.4965 16C84.6885 16.1973 84.9152 16.3467 85.1765 16.448C85.4432 16.544 85.7365 16.592 86.0565 16.592C86.3765 16.592 86.6512 16.5547 86.8805 16.48C87.1152 16.4053 87.3178 16.3227 87.4885 16.232C87.6645 16.1413 87.8165 16.0587 87.9445 15.984C88.0778 15.9093 88.2058 15.872 88.3285 15.872C88.4938 15.872 88.6165 15.9333 88.6965 16.056L89.2645 16.776C89.0458 17.032 88.8005 17.248 88.5285 17.424C88.2565 17.5947 87.9712 17.7333 87.6725 17.84C87.3792 17.9413 87.0778 18.0133 86.7685 18.056C86.4645 18.0987 86.1685 18.12 85.8805 18.12C85.3098 18.12 84.7792 18.0267 84.2885 17.84C83.7978 17.648 83.3712 17.368 83.0085 17C82.6458 16.6267 82.3605 16.168 82.1525 15.624C81.9445 15.0747 81.8405 14.44 81.8405 13.72C81.8405 13.16 81.9312 12.6347 82.1125 12.144C82.2938 11.648 82.5525 11.2187 82.8885 10.856C83.2298 10.488 83.6432 10.1973 84.1285 9.984C84.6192 9.77067 85.1712 9.664 85.7845 9.664C86.3018 9.664 86.7792 9.74667 87.2165 9.912C87.6538 10.0773 88.0298 10.32 88.3445 10.64C88.6592 10.9547 88.9045 11.344 89.0805 11.808C89.2618 12.2667 89.3525 12.792 89.3525 13.384C89.3525 13.6827 89.3205 13.8853 89.2565 13.992C89.1925 14.0933 89.0698 14.144 88.8885 14.144H83.8085ZM102.446 9.792L99.838 18H98.254C98.0727 18 97.9473 17.8827 97.878 17.648L96.406 12.904C96.358 12.744 96.3127 12.5867 96.27 12.432C96.2327 12.272 96.2007 12.112 96.174 11.952C96.142 12.112 96.1047 12.2747 96.062 12.44C96.0247 12.6 95.982 12.76 95.934 12.92L94.438 17.648C94.374 17.8827 94.2327 18 94.014 18H92.494L89.894 9.792H91.47C91.614 9.792 91.7367 9.82667 91.838 9.896C91.9393 9.96533 92.006 10.0533 92.038 10.16L93.214 14.544C93.2727 14.784 93.3233 15.0187 93.366 15.248C93.414 15.4773 93.454 15.7067 93.486 15.936C93.5447 15.7067 93.606 15.4773 93.67 15.248C93.7393 15.0187 93.8113 14.784 93.886 14.544L95.246 10.144C95.278 10.0373 95.3393 9.94933 95.43 9.88C95.526 9.81067 95.6407 9.776 95.774 9.776H96.646C96.7847 9.776 96.902 9.81067 96.998 9.88C97.0993 9.94933 97.166 10.0373 97.198 10.144L98.518 14.544C98.5873 14.784 98.6513 15.0213 98.71 15.256C98.774 15.4853 98.8353 15.7147 98.894 15.944C98.9633 15.4907 99.062 15.024 99.19 14.544L100.398 10.16C100.435 10.0533 100.502 9.96533 100.598 9.896C100.694 9.82667 100.809 9.792 100.942 9.792H102.446ZM111.772 16.32C112.172 16.32 112.508 16.272 112.78 16.176C113.052 16.08 113.268 15.952 113.428 15.792C113.594 15.632 113.711 15.4453 113.78 15.232C113.855 15.0187 113.892 14.792 113.892 14.552C113.892 14.3013 113.852 14.0773 113.772 13.88C113.692 13.6773 113.567 13.5067 113.396 13.368C113.226 13.224 113.004 13.1147 112.732 13.04C112.466 12.9653 112.143 12.928 111.764 12.928H109.596V16.32H111.772ZM109.596 8.096V11.44H111.308C112.044 11.44 112.599 11.3067 112.972 11.04C113.351 10.7733 113.54 10.3493 113.54 9.768C113.54 9.16533 113.37 8.736 113.028 8.48C112.687 8.224 112.154 8.096 111.428 8.096H109.596ZM111.428 6.432C112.186 6.432 112.834 6.504 113.372 6.648C113.911 6.792 114.351 6.99733 114.692 7.264C115.039 7.53067 115.292 7.85333 115.452 8.232C115.612 8.61067 115.692 9.03733 115.692 9.512C115.692 9.784 115.652 10.0453 115.572 10.296C115.492 10.5413 115.367 10.7733 115.196 10.992C115.031 11.2053 114.818 11.4 114.556 11.576C114.3 11.752 113.994 11.9013 113.636 12.024C115.226 12.3813 116.02 13.24 116.02 14.6C116.02 15.0907 115.927 15.544 115.74 15.96C115.554 16.376 115.282 16.736 114.924 17.04C114.567 17.3387 114.127 17.5733 113.604 17.744C113.082 17.9147 112.484 18 111.812 18H107.444V6.432H111.428ZM121.186 9.664C121.794 9.664 122.346 9.76267 122.842 9.96C123.343 10.1573 123.77 10.4373 124.122 10.8C124.479 11.1627 124.754 11.6053 124.946 12.128C125.138 12.6507 125.234 13.2347 125.234 13.88C125.234 14.5307 125.138 15.1173 124.946 15.64C124.754 16.1627 124.479 16.608 124.122 16.976C123.77 17.344 123.343 17.6267 122.842 17.824C122.346 18.0213 121.794 18.12 121.186 18.12C120.573 18.12 120.015 18.0213 119.514 17.824C119.013 17.6267 118.583 17.344 118.226 16.976C117.874 16.608 117.599 16.1627 117.402 15.64C117.21 15.1173 117.114 14.5307 117.114 13.88C117.114 13.2347 117.21 12.6507 117.402 12.128C117.599 11.6053 117.874 11.1627 118.226 10.8C118.583 10.4373 119.013 10.1573 119.514 9.96C120.015 9.76267 120.573 9.664 121.186 9.664ZM121.186 16.6C121.869 16.6 122.373 16.3707 122.698 15.912C123.029 15.4533 123.194 14.7813 123.194 13.896C123.194 13.0107 123.029 12.336 122.698 11.872C122.373 11.408 121.869 11.176 121.186 11.176C120.493 11.176 119.978 11.4107 119.642 11.88C119.311 12.344 119.146 13.016 119.146 13.896C119.146 14.776 119.311 15.448 119.642 15.912C119.978 16.3707 120.493 16.6 121.186 16.6ZM133.695 18H131.791C131.647 18 131.529 17.9627 131.439 17.888C131.353 17.8133 131.281 17.728 131.223 17.632L129.487 14.776C129.46 14.8667 129.428 14.952 129.391 15.032C129.359 15.112 129.321 15.1867 129.279 15.256L127.743 17.632C127.684 17.7227 127.612 17.808 127.527 17.888C127.441 17.9627 127.335 18 127.207 18H125.439L128.255 13.768L125.551 9.792H127.455C127.599 9.792 127.705 9.81333 127.775 9.856C127.844 9.89333 127.905 9.95733 127.959 10.048L129.679 12.784C129.737 12.6027 129.82 12.424 129.927 12.248L131.311 10.088C131.428 9.89067 131.58 9.792 131.767 9.792H133.583L130.887 13.68L133.695 18Z" fill="#EA2147"/>
</svg>
