<svg width="195" height="24" viewBox="0 0 195 24" fill="none" xmlns="http://www.w3.org/2000/svg">
<rect width="195" height="24" fill="white"/>
<path d="M20 6V12M20 12V18M20 12H26M20 12L14 12" stroke="#EA2147" stroke-width="2" stroke-linecap="round" stroke-linejoin="round"/>
<path d="M43.8531 13.632L42.4451 9.784C42.3758 9.61333 42.3038 9.41067 42.2291 9.176C42.1545 8.94133 42.0798 8.688 42.0051 8.416C41.9358 8.688 41.8638 8.944 41.7891 9.184C41.7145 9.41867 41.6425 9.624 41.5731 9.8L40.1731 13.632H43.8531ZM47.6531 18H45.9891C45.8025 18 45.6505 17.9547 45.5331 17.864C45.4158 17.768 45.3278 17.6507 45.2691 17.512L44.4051 15.152H39.6131L38.7491 17.512C38.7065 17.6347 38.6238 17.7467 38.5011 17.848C38.3785 17.9493 38.2265 18 38.0451 18H36.3651L40.9171 6.432H43.1091L47.6531 18ZM53.5186 11.888C53.2946 11.616 53.0493 11.424 52.7826 11.312C52.5213 11.2 52.2386 11.144 51.9346 11.144C51.636 11.144 51.3666 11.2 51.1266 11.312C50.8866 11.424 50.6813 11.5947 50.5106 11.824C50.34 12.048 50.2093 12.336 50.1186 12.688C50.028 13.0347 49.9826 13.4453 49.9826 13.92C49.9826 14.4 50.02 14.808 50.0946 15.144C50.1746 15.4747 50.2866 15.7467 50.4306 15.96C50.5746 16.168 50.7506 16.32 50.9586 16.416C51.1666 16.5067 51.3986 16.552 51.6546 16.552C52.0653 16.552 52.4146 16.4667 52.7026 16.296C52.9906 16.1253 53.2626 15.8827 53.5186 15.568V11.888ZM55.4946 6.112V18H54.2866C54.0253 18 53.86 17.88 53.7906 17.64L53.6226 16.848C53.292 17.2267 52.9106 17.5333 52.4786 17.768C52.052 18.0027 51.5533 18.12 50.9826 18.12C50.5346 18.12 50.124 18.0267 49.7506 17.84C49.3773 17.6533 49.0546 17.384 48.7826 17.032C48.516 16.6747 48.308 16.2347 48.1586 15.712C48.0146 15.1893 47.9426 14.592 47.9426 13.92C47.9426 13.312 48.0253 12.7467 48.1906 12.224C48.356 11.7013 48.5933 11.248 48.9026 10.864C49.212 10.48 49.5826 10.1813 50.0146 9.968C50.4466 9.74933 50.932 9.64 51.4706 9.64C51.9293 9.64 52.3213 9.712 52.6466 9.856C52.972 10 53.2626 10.1947 53.5186 10.44V6.112H55.4946ZM62.5968 11.888C62.3728 11.616 62.1274 11.424 61.8608 11.312C61.5994 11.2 61.3168 11.144 61.0128 11.144C60.7141 11.144 60.4448 11.2 60.2048 11.312C59.9648 11.424 59.7594 11.5947 59.5888 11.824C59.4181 12.048 59.2874 12.336 59.1968 12.688C59.1061 13.0347 59.0608 13.4453 59.0608 13.92C59.0608 14.4 59.0981 14.808 59.1728 15.144C59.2528 15.4747 59.3648 15.7467 59.5088 15.96C59.6528 16.168 59.8288 16.32 60.0368 16.416C60.2448 16.5067 60.4768 16.552 60.7328 16.552C61.1434 16.552 61.4928 16.4667 61.7808 16.296C62.0688 16.1253 62.3408 15.8827 62.5968 15.568V11.888ZM64.5728 6.112V18H63.3648C63.1034 18 62.9381 17.88 62.8688 17.64L62.7008 16.848C62.3701 17.2267 61.9888 17.5333 61.5568 17.768C61.1301 18.0027 60.6314 18.12 60.0608 18.12C59.6128 18.12 59.2021 18.0267 58.8288 17.84C58.4554 17.6533 58.1328 17.384 57.8608 17.032C57.5941 16.6747 57.3861 16.2347 57.2368 15.712C57.0928 15.1893 57.0208 14.592 57.0208 13.92C57.0208 13.312 57.1034 12.7467 57.2688 12.224C57.4341 11.7013 57.6714 11.248 57.9808 10.864C58.2901 10.48 58.6608 10.1813 59.0928 9.968C59.5248 9.74933 60.0101 9.64 60.5488 9.64C61.0074 9.64 61.3994 9.712 61.7248 9.856C62.0501 10 62.3408 10.1947 62.5968 10.44V6.112H64.5728ZM73.1495 18.128C72.4348 18.128 71.8855 17.928 71.5015 17.528C71.1228 17.1227 70.9335 16.5653 70.9335 15.856V11.272H70.0935C69.9868 11.272 69.8962 11.2373 69.8215 11.168C69.7468 11.0987 69.7095 10.9947 69.7095 10.856V10.072L71.0295 9.856L71.4455 7.616C71.4722 7.50933 71.5228 7.42667 71.5975 7.368C71.6722 7.30933 71.7682 7.28 71.8855 7.28H72.9095V9.864H75.1015V11.272H72.9095V15.72C72.9095 15.976 72.9708 16.176 73.0935 16.32C73.2215 16.464 73.3948 16.536 73.6135 16.536C73.7362 16.536 73.8375 16.5227 73.9175 16.496C74.0028 16.464 74.0748 16.432 74.1335 16.4C74.1975 16.368 74.2535 16.3387 74.3015 16.312C74.3495 16.28 74.3975 16.264 74.4455 16.264C74.5042 16.264 74.5522 16.28 74.5895 16.312C74.6268 16.3387 74.6668 16.3813 74.7095 16.44L75.3015 17.4C75.0135 17.64 74.6828 17.8213 74.3095 17.944C73.9362 18.0667 73.5495 18.128 73.1495 18.128ZM79.9361 9.664C80.5441 9.664 81.0961 9.76267 81.5921 9.96C82.0935 10.1573 82.5201 10.4373 82.8721 10.8C83.2295 11.1627 83.5041 11.6053 83.6961 12.128C83.8881 12.6507 83.9841 13.2347 83.9841 13.88C83.9841 14.5307 83.8881 15.1173 83.6961 15.64C83.5041 16.1627 83.2295 16.608 82.8721 16.976C82.5201 17.344 82.0935 17.6267 81.5921 17.824C81.0961 18.0213 80.5441 18.12 79.9361 18.12C79.3228 18.12 78.7655 18.0213 78.2641 17.824C77.7628 17.6267 77.3335 17.344 76.9761 16.976C76.6241 16.608 76.3495 16.1627 76.1521 15.64C75.9601 15.1173 75.8641 14.5307 75.8641 13.88C75.8641 13.2347 75.9601 12.6507 76.1521 12.128C76.3495 11.6053 76.6241 11.1627 76.9761 10.8C77.3335 10.4373 77.7628 10.1573 78.2641 9.96C78.7655 9.76267 79.3228 9.664 79.9361 9.664ZM79.9361 16.6C80.6188 16.6 81.1228 16.3707 81.4481 15.912C81.7788 15.4533 81.9441 14.7813 81.9441 13.896C81.9441 13.0107 81.7788 12.336 81.4481 11.872C81.1228 11.408 80.6188 11.176 79.9361 11.176C79.2428 11.176 78.7281 11.4107 78.3921 11.88C78.0615 12.344 77.8961 13.016 77.8961 13.896C77.8961 14.776 78.0615 15.448 78.3921 15.912C78.7281 16.3707 79.2428 16.6 79.9361 16.6ZM95.275 13.632L93.867 9.784C93.7977 9.61333 93.7257 9.41067 93.651 9.176C93.5763 8.94133 93.5017 8.688 93.427 8.416C93.3577 8.688 93.2857 8.944 93.211 9.184C93.1363 9.41867 93.0643 9.624 92.995 9.8L91.595 13.632H95.275ZM99.075 18H97.411C97.2243 18 97.0723 17.9547 96.955 17.864C96.8377 17.768 96.7497 17.6507 96.691 17.512L95.827 15.152H91.035L90.171 17.512C90.1283 17.6347 90.0457 17.7467 89.923 17.848C89.8003 17.9493 89.6483 18 89.467 18H87.787L92.339 6.432H94.531L99.075 18ZM104.941 11.888C104.717 11.616 104.471 11.424 104.205 11.312C103.943 11.2 103.661 11.144 103.357 11.144C103.058 11.144 102.789 11.2 102.549 11.312C102.309 11.424 102.103 11.5947 101.933 11.824C101.762 12.048 101.631 12.336 101.541 12.688C101.45 13.0347 101.405 13.4453 101.405 13.92C101.405 14.4 101.442 14.808 101.517 15.144C101.597 15.4747 101.709 15.7467 101.853 15.96C101.997 16.168 102.173 16.32 102.381 16.416C102.589 16.5067 102.821 16.552 103.077 16.552C103.487 16.552 103.837 16.4667 104.125 16.296C104.413 16.1253 104.685 15.8827 104.941 15.568V11.888ZM106.917 6.112V18H105.709C105.447 18 105.282 17.88 105.213 17.64L105.045 16.848C104.714 17.2267 104.333 17.5333 103.901 17.768C103.474 18.0027 102.975 18.12 102.405 18.12C101.957 18.12 101.546 18.0267 101.173 17.84C100.799 17.6533 100.477 17.384 100.205 17.032C99.9378 16.6747 99.7298 16.2347 99.5805 15.712C99.4365 15.1893 99.3645 14.592 99.3645 13.92C99.3645 13.312 99.4472 12.7467 99.6125 12.224C99.7778 11.7013 100.015 11.248 100.325 10.864C100.634 10.48 101.005 10.1813 101.437 9.968C101.869 9.74933 102.354 9.64 102.893 9.64C103.351 9.64 103.743 9.712 104.069 9.856C104.394 10 104.685 10.1947 104.941 10.44V6.112H106.917ZM114.019 11.888C113.795 11.616 113.549 11.424 113.283 11.312C113.021 11.2 112.739 11.144 112.435 11.144C112.136 11.144 111.867 11.2 111.627 11.312C111.387 11.424 111.181 11.5947 111.011 11.824C110.84 12.048 110.709 12.336 110.619 12.688C110.528 13.0347 110.483 13.4453 110.483 13.92C110.483 14.4 110.52 14.808 110.595 15.144C110.675 15.4747 110.787 15.7467 110.931 15.96C111.075 16.168 111.251 16.32 111.459 16.416C111.667 16.5067 111.899 16.552 112.155 16.552C112.565 16.552 112.915 16.4667 113.203 16.296C113.491 16.1253 113.763 15.8827 114.019 15.568V11.888ZM115.995 6.112V18H114.787C114.525 18 114.36 17.88 114.291 17.64L114.123 16.848C113.792 17.2267 113.411 17.5333 112.979 17.768C112.552 18.0027 112.053 18.12 111.483 18.12C111.035 18.12 110.624 18.0267 110.251 17.84C109.877 17.6533 109.555 17.384 109.283 17.032C109.016 16.6747 108.808 16.2347 108.659 15.712C108.515 15.1893 108.443 14.592 108.443 13.92C108.443 13.312 108.525 12.7467 108.691 12.224C108.856 11.7013 109.093 11.248 109.403 10.864C109.712 10.48 110.083 10.1813 110.515 9.968C110.947 9.74933 111.432 9.64 111.971 9.64C112.429 9.64 112.821 9.712 113.147 9.856C113.472 10 113.763 10.1947 114.019 10.44V6.112H115.995ZM119.809 11.216C120.065 10.7253 120.369 10.3413 120.721 10.064C121.073 9.78133 121.489 9.64 121.969 9.64C122.347 9.64 122.651 9.72267 122.881 9.888L122.753 11.368C122.726 11.464 122.686 11.5333 122.633 11.576C122.585 11.6133 122.518 11.632 122.433 11.632C122.353 11.632 122.233 11.6187 122.073 11.592C121.918 11.5653 121.766 11.552 121.617 11.552C121.398 11.552 121.203 11.584 121.033 11.648C120.862 11.712 120.707 11.8053 120.569 11.928C120.435 12.0453 120.315 12.1893 120.209 12.36C120.107 12.5307 120.011 12.7253 119.921 12.944V18H117.945V9.792H119.105C119.307 9.792 119.449 9.82933 119.529 9.904C119.609 9.97333 119.662 10.1013 119.689 10.288L119.809 11.216ZM128.967 12.952C128.967 12.696 128.93 12.456 128.855 12.232C128.786 12.0027 128.679 11.8027 128.535 11.632C128.391 11.4613 128.207 11.328 127.983 11.232C127.764 11.1307 127.508 11.08 127.215 11.08C126.644 11.08 126.194 11.2427 125.863 11.568C125.538 11.8933 125.33 12.3547 125.239 12.952H128.967ZM125.199 14.144C125.231 14.5653 125.306 14.9307 125.423 15.24C125.54 15.544 125.695 15.7973 125.887 16C126.079 16.1973 126.306 16.3467 126.567 16.448C126.834 16.544 127.127 16.592 127.447 16.592C127.767 16.592 128.042 16.5547 128.271 16.48C128.506 16.4053 128.708 16.3227 128.879 16.232C129.055 16.1413 129.207 16.0587 129.335 15.984C129.468 15.9093 129.596 15.872 129.719 15.872C129.884 15.872 130.007 15.9333 130.087 16.056L130.655 16.776C130.436 17.032 130.191 17.248 129.919 17.424C129.647 17.5947 129.362 17.7333 129.063 17.84C128.77 17.9413 128.468 18.0133 128.159 18.056C127.855 18.0987 127.559 18.12 127.271 18.12C126.7 18.12 126.17 18.0267 125.679 17.84C125.188 17.648 124.762 17.368 124.399 17C124.036 16.6267 123.751 16.168 123.543 15.624C123.335 15.0747 123.231 14.44 123.231 13.72C123.231 13.16 123.322 12.6347 123.503 12.144C123.684 11.648 123.943 11.2187 124.279 10.856C124.62 10.488 125.034 10.1973 125.519 9.984C126.01 9.77067 126.562 9.664 127.175 9.664C127.692 9.664 128.17 9.74667 128.607 9.912C129.044 10.0773 129.42 10.32 129.735 10.64C130.05 10.9547 130.295 11.344 130.471 11.808C130.652 12.2667 130.743 12.792 130.743 13.384C130.743 13.6827 130.711 13.8853 130.647 13.992C130.583 14.0933 130.46 14.144 130.279 14.144H125.199ZM137.234 11.392C137.181 11.4773 137.125 11.5387 137.066 11.576C137.007 11.608 136.933 11.624 136.842 11.624C136.746 11.624 136.642 11.5973 136.53 11.544C136.423 11.4907 136.298 11.432 136.154 11.368C136.01 11.2987 135.845 11.2373 135.658 11.184C135.477 11.1307 135.261 11.104 135.01 11.104C134.621 11.104 134.314 11.1867 134.09 11.352C133.871 11.5173 133.762 11.7333 133.762 12C133.762 12.176 133.818 12.3253 133.93 12.448C134.047 12.5653 134.199 12.6693 134.386 12.76C134.578 12.8507 134.794 12.9333 135.034 13.008C135.274 13.0773 135.517 13.1547 135.762 13.24C136.013 13.3253 136.258 13.424 136.498 13.536C136.738 13.6427 136.951 13.7813 137.138 13.952C137.33 14.1173 137.482 14.3173 137.594 14.552C137.711 14.7867 137.77 15.0693 137.77 15.4C137.77 15.7947 137.698 16.16 137.554 16.496C137.415 16.8267 137.207 17.1147 136.93 17.36C136.653 17.6 136.309 17.7893 135.898 17.928C135.493 18.0613 135.023 18.128 134.49 18.128C134.207 18.128 133.93 18.1013 133.658 18.048C133.391 18 133.133 17.9307 132.882 17.84C132.637 17.7493 132.407 17.6427 132.194 17.52C131.986 17.3973 131.802 17.264 131.642 17.12L132.098 16.368C132.157 16.2773 132.226 16.208 132.306 16.16C132.386 16.112 132.487 16.088 132.61 16.088C132.733 16.088 132.847 16.1227 132.954 16.192C133.066 16.2613 133.194 16.336 133.338 16.416C133.482 16.496 133.65 16.5707 133.842 16.64C134.039 16.7093 134.287 16.744 134.586 16.744C134.821 16.744 135.021 16.7173 135.186 16.664C135.357 16.6053 135.495 16.5307 135.602 16.44C135.714 16.3493 135.794 16.2453 135.842 16.128C135.895 16.0053 135.922 15.88 135.922 15.752C135.922 15.56 135.863 15.4027 135.746 15.28C135.634 15.1573 135.482 15.0507 135.29 14.96C135.103 14.8693 134.887 14.7893 134.642 14.72C134.402 14.6453 134.154 14.5653 133.898 14.48C133.647 14.3947 133.399 14.296 133.154 14.184C132.914 14.0667 132.698 13.92 132.506 13.744C132.319 13.568 132.167 13.352 132.05 13.096C131.938 12.84 131.882 12.5307 131.882 12.168C131.882 11.832 131.949 11.512 132.082 11.208C132.215 10.904 132.41 10.64 132.666 10.416C132.927 10.1867 133.25 10.0053 133.634 9.872C134.023 9.73333 134.471 9.664 134.978 9.664C135.543 9.664 136.058 9.75733 136.522 9.944C136.986 10.1307 137.373 10.376 137.682 10.68L137.234 11.392ZM144.265 11.392C144.212 11.4773 144.156 11.5387 144.097 11.576C144.039 11.608 143.964 11.624 143.873 11.624C143.777 11.624 143.673 11.5973 143.561 11.544C143.455 11.4907 143.329 11.432 143.185 11.368C143.041 11.2987 142.876 11.2373 142.689 11.184C142.508 11.1307 142.292 11.104 142.041 11.104C141.652 11.104 141.345 11.1867 141.121 11.352C140.903 11.5173 140.793 11.7333 140.793 12C140.793 12.176 140.849 12.3253 140.961 12.448C141.079 12.5653 141.231 12.6693 141.417 12.76C141.609 12.8507 141.825 12.9333 142.065 13.008C142.305 13.0773 142.548 13.1547 142.793 13.24C143.044 13.3253 143.289 13.424 143.529 13.536C143.769 13.6427 143.983 13.7813 144.169 13.952C144.361 14.1173 144.513 14.3173 144.625 14.552C144.743 14.7867 144.801 15.0693 144.801 15.4C144.801 15.7947 144.729 16.16 144.585 16.496C144.447 16.8267 144.239 17.1147 143.961 17.36C143.684 17.6 143.34 17.7893 142.929 17.928C142.524 18.0613 142.055 18.128 141.521 18.128C141.239 18.128 140.961 18.1013 140.689 18.048C140.423 18 140.164 17.9307 139.913 17.84C139.668 17.7493 139.439 17.6427 139.225 17.52C139.017 17.3973 138.833 17.264 138.673 17.12L139.129 16.368C139.188 16.2773 139.257 16.208 139.337 16.16C139.417 16.112 139.519 16.088 139.641 16.088C139.764 16.088 139.879 16.1227 139.985 16.192C140.097 16.2613 140.225 16.336 140.369 16.416C140.513 16.496 140.681 16.5707 140.873 16.64C141.071 16.7093 141.319 16.744 141.617 16.744C141.852 16.744 142.052 16.7173 142.217 16.664C142.388 16.6053 142.527 16.5307 142.633 16.44C142.745 16.3493 142.825 16.2453 142.873 16.128C142.927 16.0053 142.953 15.88 142.953 15.752C142.953 15.56 142.895 15.4027 142.777 15.28C142.665 15.1573 142.513 15.0507 142.321 14.96C142.135 14.8693 141.919 14.7893 141.673 14.72C141.433 14.6453 141.185 14.5653 140.929 14.48C140.679 14.3947 140.431 14.296 140.185 14.184C139.945 14.0667 139.729 13.92 139.537 13.744C139.351 13.568 139.199 13.352 139.081 13.096C138.969 12.84 138.913 12.5307 138.913 12.168C138.913 11.832 138.98 11.512 139.113 11.208C139.247 10.904 139.441 10.64 139.697 10.416C139.959 10.1867 140.281 10.0053 140.665 9.872C141.055 9.73333 141.503 9.664 142.009 9.664C142.575 9.664 143.089 9.75733 143.553 9.944C144.017 10.1307 144.404 10.376 144.713 10.68L144.265 11.392ZM154.819 16.32C155.219 16.32 155.555 16.272 155.827 16.176C156.099 16.08 156.315 15.952 156.475 15.792C156.64 15.632 156.758 15.4453 156.827 15.232C156.902 15.0187 156.939 14.792 156.939 14.552C156.939 14.3013 156.899 14.0773 156.819 13.88C156.739 13.6773 156.614 13.5067 156.443 13.368C156.272 13.224 156.051 13.1147 155.779 13.04C155.512 12.9653 155.19 12.928 154.811 12.928H152.643V16.32H154.819ZM152.643 8.096V11.44H154.355C155.091 11.44 155.646 11.3067 156.019 11.04C156.398 10.7733 156.587 10.3493 156.587 9.768C156.587 9.16533 156.416 8.736 156.075 8.48C155.734 8.224 155.2 8.096 154.475 8.096H152.643ZM154.475 6.432C155.232 6.432 155.88 6.504 156.419 6.648C156.958 6.792 157.398 6.99733 157.739 7.264C158.086 7.53067 158.339 7.85333 158.499 8.232C158.659 8.61067 158.739 9.03733 158.739 9.512C158.739 9.784 158.699 10.0453 158.619 10.296C158.539 10.5413 158.414 10.7733 158.243 10.992C158.078 11.2053 157.864 11.4 157.603 11.576C157.347 11.752 157.04 11.9013 156.683 12.024C158.272 12.3813 159.067 13.24 159.067 14.6C159.067 15.0907 158.974 15.544 158.787 15.96C158.6 16.376 158.328 16.736 157.971 17.04C157.614 17.3387 157.174 17.5733 156.651 17.744C156.128 17.9147 155.531 18 154.859 18H150.491V6.432H154.475ZM164.233 9.664C164.841 9.664 165.393 9.76267 165.889 9.96C166.39 10.1573 166.817 10.4373 167.169 10.8C167.526 11.1627 167.801 11.6053 167.993 12.128C168.185 12.6507 168.281 13.2347 168.281 13.88C168.281 14.5307 168.185 15.1173 167.993 15.64C167.801 16.1627 167.526 16.608 167.169 16.976C166.817 17.344 166.39 17.6267 165.889 17.824C165.393 18.0213 164.841 18.12 164.233 18.12C163.62 18.12 163.062 18.0213 162.561 17.824C162.06 17.6267 161.63 17.344 161.273 16.976C160.921 16.608 160.646 16.1627 160.449 15.64C160.257 15.1173 160.161 14.5307 160.161 13.88C160.161 13.2347 160.257 12.6507 160.449 12.128C160.646 11.6053 160.921 11.1627 161.273 10.8C161.63 10.4373 162.06 10.1573 162.561 9.96C163.062 9.76267 163.62 9.664 164.233 9.664ZM164.233 16.6C164.916 16.6 165.42 16.3707 165.745 15.912C166.076 15.4533 166.241 14.7813 166.241 13.896C166.241 13.0107 166.076 12.336 165.745 11.872C165.42 11.408 164.916 11.176 164.233 11.176C163.54 11.176 163.025 11.4107 162.689 11.88C162.358 12.344 162.193 13.016 162.193 13.896C162.193 14.776 162.358 15.448 162.689 15.912C163.025 16.3707 163.54 16.6 164.233 16.6ZM173.421 9.664C174.029 9.664 174.581 9.76267 175.077 9.96C175.578 10.1573 176.005 10.4373 176.357 10.8C176.714 11.1627 176.988 11.6053 177.181 12.128C177.373 12.6507 177.469 13.2347 177.469 13.88C177.469 14.5307 177.373 15.1173 177.181 15.64C176.988 16.1627 176.714 16.608 176.357 16.976C176.005 17.344 175.578 17.6267 175.077 17.824C174.581 18.0213 174.029 18.12 173.421 18.12C172.807 18.12 172.25 18.0213 171.749 17.824C171.247 17.6267 170.818 17.344 170.461 16.976C170.109 16.608 169.834 16.1627 169.637 15.64C169.445 15.1173 169.349 14.5307 169.349 13.88C169.349 13.2347 169.445 12.6507 169.637 12.128C169.834 11.6053 170.109 11.1627 170.461 10.8C170.818 10.4373 171.247 10.1573 171.749 9.96C172.25 9.76267 172.807 9.664 173.421 9.664ZM173.421 16.6C174.103 16.6 174.607 16.3707 174.933 15.912C175.263 15.4533 175.429 14.7813 175.429 13.896C175.429 13.0107 175.263 12.336 174.933 11.872C174.607 11.408 174.103 11.176 173.421 11.176C172.727 11.176 172.213 11.4107 171.877 11.88C171.546 12.344 171.381 13.016 171.381 13.896C171.381 14.776 171.546 15.448 171.877 15.912C172.213 16.3707 172.727 16.6 173.421 16.6ZM180.952 6.112V12.92H181.32C181.453 12.92 181.557 12.904 181.632 12.872C181.712 12.8347 181.792 12.7627 181.872 12.656L183.912 10.136C183.997 10.024 184.091 9.93867 184.192 9.88C184.299 9.82133 184.435 9.792 184.6 9.792H186.408L183.856 12.84C183.675 13.08 183.477 13.264 183.264 13.392C183.376 13.472 183.475 13.5653 183.56 13.672C183.651 13.7787 183.736 13.8933 183.816 14.016L186.552 18H184.768C184.613 18 184.48 17.976 184.368 17.928C184.256 17.8747 184.163 17.7813 184.088 17.648L181.992 14.536C181.917 14.4133 181.84 14.3333 181.76 14.296C181.68 14.2587 181.56 14.24 181.4 14.24H180.952V18H178.976V6.112H180.952Z" fill="#EA2147"/>
</svg>
