<svg width="32" height="32" viewBox="0 0 32 32" fill="none" xmlns="http://www.w3.org/2000/svg">
<circle cx="16" cy="16" r="16" fill="#EA1B40"/>
<path d="M21.4833 12.134L15.9818 9.12382C15.8348 9.0426 15.6696 9 15.5017 9C15.3338 9 15.1686 9.0426 15.0216 9.12382L9.52014 12.1352C9.36303 12.2212 9.23188 12.3478 9.14038 12.5017C9.04889 12.6557 9.00041 12.8314 9 13.0105V18.9895C9.00041 19.1686 9.04889 19.3443 9.14038 19.4983C9.23188 19.6522 9.36303 19.7788 9.52014 19.8648L15.0216 22.8762C15.1686 22.9574 15.3338 23 15.5017 23C15.6696 23 15.8348 22.9574 15.9818 22.8762L21.4833 19.8648C21.6404 19.7788 21.7715 19.6522 21.863 19.4983C21.9545 19.3443 22.003 19.1686 22.0034 18.9895V13.0111C22.0033 12.8317 21.955 12.6556 21.8635 12.5013C21.772 12.347 21.6407 12.2201 21.4833 12.134ZM15.5017 9.99905L20.5249 12.7498L18.6632 13.7682L13.64 11.0174L15.5017 9.99905ZM15.5017 15.5005L10.4785 12.7498L12.5984 11.5888L17.6216 14.3396L15.5017 15.5005ZM21.0031 18.992L16.0018 21.7296V16.3651L18.0024 15.2704V17.501C18.0024 17.6337 18.0551 17.7609 18.1488 17.8547C18.2426 17.9485 18.3698 18.0012 18.5025 18.0012C18.6351 18.0012 18.7623 17.9485 18.8561 17.8547C18.9499 17.7609 19.0026 17.6337 19.0026 17.501V14.7228L21.0031 13.6281V18.9895V18.992Z" fill="white"/>
</svg>
