<svg width="16" height="15" viewBox="0 0 16 15" fill="none" xmlns="http://www.w3.org/2000/svg">
<g clip-path="url(#clip0_2407_14571)">
<path fill-rule="evenodd" clip-rule="evenodd" d="M4.61182 13.3553C4.65008 13.7575 5.01284 14.0725 5.45365 14.0725H12.946C13.4129 14.0725 13.7917 13.7189 13.7917 13.2832V3.43318C13.7917 3.02175 13.4534 2.68318 13.0225 2.64746C13.0248 2.67103 13.0264 2.6946 13.0264 2.71889V12.5689C13.0264 13.0046 12.6475 13.3582 12.1807 13.3582H4.68835C4.66279 13.3581 4.63726 13.3576 4.61182 13.3553Z" fill="#EA1B40"/>
<path fill-rule="evenodd" clip-rule="evenodd" d="M3.07666 2.00511C3.07666 1.56939 3.45549 1.21582 3.92233 1.21582H11.4147C11.8815 1.21582 12.2604 1.56939 12.2604 2.00511V11.8551C12.2604 12.2908 11.8815 12.6444 11.4147 12.6444H3.92233C3.45549 12.6444 3.07666 12.2908 3.07666 11.8551V2.00511ZM5.63279 9.50655C5.55625 9.45277 5.49415 9.38312 5.45138 9.30311C5.40862 9.22309 5.38636 9.1349 5.38636 9.04548C5.38636 8.95606 5.40862 8.86787 5.45138 8.78785C5.49415 8.70784 5.55625 8.63819 5.63279 8.58441C6.21683 8.16645 6.93254 7.94043 7.66851 7.94155C8.43381 7.94155 9.14019 8.18083 9.70422 8.58441C10.0333 8.81941 10.0333 9.27155 9.70422 9.50655C9.14019 9.91012 8.43381 10.1494 7.66851 10.1494C6.9032 10.1494 6.19682 9.91012 5.63279 9.50655ZM7.66851 7.08637C8.5379 7.08637 9.24198 6.56512 9.24198 5.5494C9.24198 4.53368 8.53637 3.93011 7.66698 3.93011C6.79682 3.93011 6.09197 4.53368 6.09197 5.5494C6.09197 6.56512 6.79835 7.08637 7.66851 7.08637Z" fill="#EA1B40"/>
</g>
<defs>
<clipPath id="clip0_2407_14571">
<rect width="15" height="14" fill="white" transform="translate(0.934082 0.643555)"/>
</clipPath>
</defs>
</svg>
