<svg width="32" height="32" viewBox="0 0 32 32" fill="none" xmlns="http://www.w3.org/2000/svg">
<circle cx="16" cy="16" r="16" fill="#EA1B40"/>
<path d="M14.5983 19.0705C14.597 18.1842 14.8454 17.3162 15.3139 16.5699H10.5739C10.1565 16.5703 9.75626 16.7397 9.46115 17.041C9.16605 17.3423 9.00019 17.7507 9 18.1767V18.834C9 19.2427 9.12462 19.6413 9.35707 19.9743C10.4367 21.5204 12.2038 22.2855 14.5983 22.2855C15.0184 22.2855 15.4191 22.262 15.8005 22.2148C15.0263 21.3584 14.597 20.2356 14.5983 19.0705ZM14.5983 8C15.5268 8 16.4172 8.37636 17.0737 9.0463C17.7302 9.71623 18.099 10.6249 18.099 11.5723C18.099 12.5197 17.7302 13.4283 17.0737 14.0983C16.4172 14.7682 15.5268 15.1446 14.5983 15.1446C13.6699 15.1446 12.7795 14.7682 12.123 14.0983C11.4664 13.4283 11.0976 12.5197 11.0976 11.5723C11.0976 10.6249 11.4664 9.71623 12.123 9.0463C12.7795 8.37636 13.6699 8 14.5983 8ZM23 19.0705C23 20.1127 22.5943 21.1121 21.8721 21.8491C21.15 22.586 20.1705 23 19.1492 23C18.1279 23 17.1485 22.586 16.4263 21.8491C15.7042 21.1121 15.2985 20.1127 15.2985 19.0705C15.2985 18.0283 15.7042 17.0288 16.4263 16.2919C17.1485 15.555 18.1279 15.141 19.1492 15.141C20.1705 15.141 21.15 15.555 21.8721 16.2919C22.5943 17.0288 23 18.0283 23 19.0705ZM16.3487 19.0705C16.3487 19.8284 16.6437 20.5553 17.1689 21.0913C17.6941 21.6272 18.4065 21.9283 19.1492 21.9283C19.892 21.9283 20.6043 21.6272 21.1295 21.0913C21.6547 20.5553 21.9498 19.8284 21.9498 19.0705C21.9498 18.3126 21.6547 17.5857 21.1295 17.0497C20.6043 16.5138 19.892 16.2127 19.1492 16.2127C18.4065 16.2127 17.6941 16.5138 17.1689 17.0497C16.6437 17.5857 16.3487 18.3126 16.3487 19.0705ZM19.8494 17.6416C19.8494 17.8311 19.7756 18.0128 19.6443 18.1468C19.513 18.2808 19.3349 18.356 19.1492 18.356C18.9635 18.356 18.7855 18.2808 18.6542 18.1468C18.5229 18.0128 18.4491 17.8311 18.4491 17.6416C18.4491 17.4521 18.5229 17.2704 18.6542 17.1364C18.7855 17.0024 18.9635 16.9271 19.1492 16.9271C19.3349 16.9271 19.513 17.0024 19.6443 17.1364C19.7756 17.2704 19.8494 17.4521 19.8494 17.6416ZM19.6743 19.4277C19.6743 19.2856 19.619 19.1493 19.5205 19.0488C19.4221 18.9483 19.2885 18.8919 19.1492 18.8919C19.01 18.8919 18.8764 18.9483 18.7779 19.0488C18.6794 19.1493 18.6241 19.2856 18.6241 19.4277V20.678C18.6241 20.8201 18.6794 20.9564 18.7779 21.0569C18.8764 21.1574 19.01 21.2139 19.1492 21.2139C19.2885 21.2139 19.4221 21.1574 19.5205 21.0569C19.619 20.9564 19.6743 20.8201 19.6743 20.678V19.4277Z" fill="white"/>
</svg>
