<svg width="13" height="14" viewBox="0 0 13 14" fill="none" xmlns="http://www.w3.org/2000/svg">
<g clip-path="url(#clip0_2981_16464)">
<path d="M5.95931 5.25063V8.75063C5.95946 8.89931 6.01233 9.04232 6.1071 9.15043C6.20188 9.25854 6.33141 9.3236 6.46923 9.33232C6.60705 9.34103 6.74277 9.29274 6.84864 9.19731C6.95451 9.10188 7.02255 8.96652 7.03885 8.81888L7.04264 8.75063V5.25063H10.2926C10.566 5.25054 10.8292 5.3617 11.0296 5.56184C11.23 5.76198 11.3528 6.03629 11.3733 6.3298L11.376 6.4173V11.6673C11.3761 11.9616 11.2728 12.2451 11.087 12.461C10.9012 12.6768 10.6464 12.809 10.3739 12.8311L10.2926 12.834H2.70931C2.436 12.8341 2.17275 12.7229 1.97235 12.5228C1.77194 12.3226 1.64918 12.0483 1.62869 11.7548L1.62598 11.6673V6.4173C1.62589 6.12296 1.72911 5.83947 1.91495 5.62365C2.10079 5.40782 2.35552 5.27563 2.62806 5.25355L2.70931 5.25063H5.95931ZM6.97981 1.44088L8.79927 3.39972C8.90091 3.50917 8.95801 3.65763 8.95801 3.81243C8.95801 3.96722 8.90091 4.11568 8.79927 4.22513C8.69763 4.33459 8.55978 4.39608 8.41604 4.39608C8.2723 4.39608 8.13445 4.33459 8.03281 4.22513L7.04264 3.15822V5.25063H5.95931V3.15822L4.96914 4.22513C4.91882 4.27933 4.85907 4.32232 4.79332 4.35165C4.72756 4.38099 4.65709 4.39608 4.58591 4.39608C4.51474 4.39608 4.44427 4.38099 4.37851 4.35165C4.31276 4.32232 4.25301 4.27933 4.20268 4.22513C4.15236 4.17094 4.11244 4.10659 4.0852 4.03578C4.05796 3.96497 4.04395 3.88907 4.04395 3.81243C4.04395 3.73578 4.05796 3.65988 4.0852 3.58907C4.11244 3.51826 4.15236 3.45391 4.20268 3.39972L6.02269 1.44088C6.14965 1.30428 6.32178 1.22754 6.50125 1.22754C6.68072 1.22754 6.85285 1.30428 6.97981 1.44088Z" fill="#EA2147"/>
</g>
<defs>
<clipPath id="clip0_2981_16464">
<rect width="13" height="14" fill="white" transform="translate(0.000976562 0.000976562)"/>
</clipPath>
</defs>
</svg>
