<svg width="14" height="14" viewBox="0 0 14 14" fill="none" xmlns="http://www.w3.org/2000/svg">
<path fill-rule="evenodd" clip-rule="evenodd" d="M6.58827 3.11719H2.37486C1.63818 3.11719 1.0415 3.74987 1.0415 4.52921V11.588C1.0415 12.368 1.63818 13 2.37486 13H9.70833C10.445 13 11.0417 12.368 11.0417 11.588V6.42125L8.43231 9.18397C8.20444 9.42764 7.90768 9.59602 7.58163 9.66664L5.79426 10.0453C4.62757 10.292 3.59955 9.2033 3.83289 7.96861L4.19023 6.07591C4.2549 5.73457 4.41357 5.42056 4.64624 5.17456L6.58827 3.11719Z" fill="#71717A"/>
<path fill-rule="evenodd" clip-rule="evenodd" d="M12.2703 1.87853C12.2037 1.7075 12.1048 1.55088 11.979 1.41719C11.8558 1.28613 11.7075 1.18117 11.543 1.10852C11.3807 1.03727 11.2055 1.00049 11.0283 1.00049C10.8511 1.00049 10.6758 1.03727 10.5136 1.10852C10.3491 1.18117 10.2008 1.28613 10.0776 1.41719L9.7136 1.80253L11.615 3.8159L11.979 3.42989C12.1049 3.29629 12.2038 3.13964 12.2703 2.96855C12.4074 2.61814 12.4074 2.22894 12.2703 1.87853ZM10.6729 4.81392L8.77091 2.79988L5.58619 6.17328C5.5392 6.22334 5.50751 6.2858 5.49485 6.35328L5.13751 8.24665C5.09085 8.49332 5.29685 8.71066 5.52952 8.66132L7.31755 8.28332C7.38273 8.26913 7.44204 8.23541 7.48756 8.18665L10.6729 4.81392Z" fill="#71717A"/>
</svg>
