<svg width="24" height="24" viewBox="0 0 24 24" fill="none" xmlns="http://www.w3.org/2000/svg">
<g clip-path="url(#clip0_295_15706)">
<path d="M17.834 5.33816C18.2656 5.76989 18.8145 6.06526 19.4126 6.18758C20.0107 6.3099 20.6315 6.25377 21.198 6.02616L23.6067 8.43349C24.098 8.92683 24.0987 9.72549 23.604 10.2202L10.2127 23.6035C9.97527 23.8398 9.65395 23.9725 9.31899 23.9725C8.98403 23.9725 8.6627 23.8398 8.42532 23.6035L6.02132 21.1955C6.24785 20.6288 6.30341 20.0081 6.18115 19.4101C6.05888 18.8122 5.76413 18.2631 5.33332 17.8308C4.90148 17.3993 4.35241 17.104 3.75427 16.9817C3.15613 16.8594 2.53524 16.9154 1.96865 17.1428L0.395987 15.5695C0.278511 15.4523 0.185308 15.313 0.121716 15.1597C0.0581237 15.0064 0.0253906 14.8421 0.0253906 14.6762C0.0253906 14.5102 0.0581237 14.3459 0.121716 14.1926C0.185308 14.0393 0.278511 13.9001 0.395987 13.7828L13.7853 0.397495C13.9025 0.280046 14.0418 0.186891 14.1951 0.123373C14.3483 0.0598535 14.5127 0.0272202 14.6786 0.0273441C14.8445 0.027468 15.0088 0.0603466 15.162 0.124094C15.3152 0.187842 15.4543 0.281205 15.5713 0.398828L17.1453 1.97283C16.9179 2.53956 16.8619 3.16063 16.9843 3.75891C17.1067 4.35719 17.4022 4.90633 17.834 5.33816Z" fill="#EA596E"/>
<path d="M3.61343 12.3512L2.18077 13.7831C1.94405 14.0201 1.81092 14.3412 1.81055 14.6761C1.81017 15.011 1.94259 15.3324 2.17877 15.5698L2.5401 15.9305C3.18154 15.758 3.85712 15.7577 4.49874 15.9295C5.14036 16.1013 5.72536 16.4392 6.19477 16.9092C6.66449 17.3786 7.0022 17.9635 7.1739 18.605C7.3456 19.2465 7.3452 19.9219 7.17277 20.5632L8.42477 21.8185C8.66218 22.0552 8.98381 22.1879 9.31904 22.1877C9.65427 22.1874 9.97571 22.0542 10.2128 21.8172L11.6721 20.3591L3.61343 12.3512ZM12.6274 19.4045L19.3994 12.6365L11.3388 4.62848L4.56943 11.3965L12.6274 19.4045ZM13.9541 10.0758C15.4508 11.5612 15.7841 13.6465 14.7014 14.7352C13.6168 15.8252 11.5268 15.5025 10.0341 14.0185C8.54143 12.5332 8.20877 10.4465 9.29143 9.35782C10.3748 8.27115 12.4614 8.59115 13.9541 10.0758ZM21.8208 8.43315L20.5668 7.17915C19.9252 7.35162 19.2495 7.35196 18.6078 7.18015C17.9661 7.00834 17.381 6.67043 16.9114 6.20048C16.441 5.73108 16.1027 5.14592 15.9307 4.50404C15.7586 3.86215 15.7589 3.18624 15.9314 2.54448L15.5708 2.18048C15.3332 1.94503 15.0122 1.8131 14.6777 1.81348C14.3432 1.81385 14.0225 1.9465 13.7854 2.18248L12.2948 3.67315L20.3561 11.6805L21.8201 10.2172C22.3134 9.72582 22.3134 8.92648 21.8208 8.43315Z" fill="#BE1931"/>
</g>
<defs>
<clipPath id="clip0_295_15706">
<rect width="24" height="24" fill="white"/>
</clipPath>
</defs>
</svg>
