<svg width="3" height="17" viewBox="0 0 3 17" fill="none" xmlns="http://www.w3.org/2000/svg">
<path fill-rule="evenodd" clip-rule="evenodd" d="M0 1.49912C0 1.10153 0.15751 0.720221 0.43788 0.439082C0.71825 0.157942 1.09851 0 1.49502 0H1.50498C1.90149 0 2.28175 0.157942 2.56212 0.439082C2.84249 0.720221 3 1.10153 3 1.49912V1.50911C3 1.9067 2.84249 2.28801 2.56212 2.56915C2.28175 2.85029 1.90149 3.00823 1.50498 3.00823H1.49502C1.09851 3.00823 0.71825 2.85029 0.43788 2.56915C0.15751 2.28801 0 1.9067 0 1.50911V1.49912ZM0 8.495C0 8.09741 0.15751 7.71611 0.43788 7.43497C0.71825 7.15383 1.09851 6.99588 1.49502 6.99588H1.50498C1.90149 6.99588 2.28175 7.15383 2.56212 7.43497C2.84249 7.71611 3 8.09741 3 8.495V8.505C3 8.90259 2.84249 9.28389 2.56212 9.56503C2.28175 9.84617 1.90149 10.0041 1.50498 10.0041H1.49502C1.09851 10.0041 0.71825 9.84617 0.43788 9.56503C0.15751 9.28389 0 8.90259 0 8.505V8.495ZM1.49502 13.9918C1.09851 13.9918 0.71825 14.1497 0.43788 14.4309C0.15751 14.712 0 15.0933 0 15.4909V15.5009C0 15.8985 0.15751 16.2798 0.43788 16.5609C0.71825 16.8421 1.09851 17 1.49502 17H1.50498C1.90149 17 2.28175 16.8421 2.56212 16.5609C2.84249 16.2798 3 15.8985 3 15.5009V15.4909C3 15.0933 2.84249 14.712 2.56212 14.4309C2.28175 14.1497 1.90149 13.9918 1.50498 13.9918H1.49502Z" fill="#71717A"/>
</svg>
