<svg width="15" height="15" viewBox="0 0 15 15" fill="none" xmlns="http://www.w3.org/2000/svg">
<path d="M7.90204 9.06651H1.6378C1.40432 9.06651 1.21069 8.87289 1.21069 8.63941V5.00615C1.21069 4.82392 1.32458 4.66445 1.48973 4.60181C1.66057 4.53917 1.84851 4.59044 1.96241 4.72711C2.30979 5.14283 2.85079 5.3763 3.3861 5.35922C3.84168 5.34783 4.26308 5.177 4.58198 4.87518C4.73005 4.74989 4.84964 4.60182 4.94075 4.43667C5.11729 4.13485 5.20272 3.80455 5.19703 3.46856C5.18564 2.94464 4.95786 2.46628 4.57062 2.1189C4.43394 1.99931 4.38837 1.81137 4.45101 1.64623C4.51366 1.48108 4.67312 1.36719 4.84965 1.36719H9.04099C9.27447 1.36719 9.4681 1.56081 9.4681 1.79429V7.48906C9.4681 8.36605 8.76764 9.06651 7.90204 9.06651ZM2.06491 8.2123H7.90204C8.29497 8.2123 8.61388 7.89339 8.61388 7.50046V2.2328H5.73233C5.93165 2.60296 6.03985 3.01869 6.05124 3.45149C6.06263 3.94693 5.93734 4.43667 5.68677 4.86378C5.55009 5.10865 5.36217 5.34215 5.15716 5.51299C4.70158 5.94579 4.07515 6.20205 3.40886 6.21913C2.9305 6.23622 2.46924 6.11663 2.07061 5.90023V8.2123H2.06491Z" fill="#12B76A"/>
<path d="M11.3189 12.4833H10.7494C10.5159 12.4833 10.3223 12.2896 10.3223 12.0562C10.3223 11.6632 10.0034 11.3443 9.61047 11.3443C9.21753 11.3443 8.89862 11.6632 8.89862 12.0562C8.89862 12.2896 8.705 12.4833 8.47151 12.4833H6.19361C5.96012 12.4833 5.7665 12.2896 5.7665 12.0562C5.7665 11.6632 5.4476 11.3443 5.05466 11.3443C4.66172 11.3443 4.34281 11.6632 4.34281 12.0562C4.34281 12.2896 4.14919 12.4833 3.9157 12.4833H3.34623C2.16741 12.4833 1.21069 11.5265 1.21069 10.3477V8.63931C1.21069 8.40582 1.40432 8.2122 1.6378 8.2122H7.90204C8.29498 8.2122 8.61388 7.89329 8.61388 7.50035V3.51402C8.61388 3.28054 8.8075 3.08691 9.04099 3.08691H10.0888C10.6526 3.08691 11.1708 3.38874 11.4499 3.87849L12.4237 5.58122C12.4977 5.7122 12.4977 5.87735 12.4237 6.00833C12.3496 6.13931 12.2073 6.21903 12.0535 6.21903H11.3189C11.2392 6.21903 11.1765 6.28167 11.1765 6.3614V8.06983C11.1765 8.14956 11.2392 8.2122 11.3189 8.2122H13.0273C13.2608 8.2122 13.4544 8.40582 13.4544 8.63931V10.3477C13.4544 11.5265 12.4977 12.4833 11.3189 12.4833ZM11.1196 11.6291H11.3189C12.025 11.6291 12.6002 11.0539 12.6002 10.3477V9.06641H11.3189C10.7722 9.06641 10.3223 8.61653 10.3223 8.06983V6.3614C10.3223 5.8147 10.7665 5.36482 11.3189 5.36482L10.7095 4.2999C10.5843 4.07781 10.3451 3.94113 10.0888 3.94113H9.4681V7.50035C9.4681 8.36596 8.76764 9.06641 7.90204 9.06641H2.06491V10.3477C2.06491 11.0539 2.64008 11.6291 3.34623 11.6291H3.54553C3.73346 10.9742 4.33712 10.4901 5.05466 10.4901C5.7722 10.4901 6.37585 10.9742 6.56378 11.6291H8.10704C8.29497 10.9742 8.89863 10.4901 9.61617 10.4901C10.3337 10.4901 10.9317 10.9742 11.1196 11.6291Z" fill="#12B76A"/>
<path d="M5.05458 13.6214C4.18898 13.6214 3.48853 12.9209 3.48853 12.0553C3.48853 11.1897 4.18898 10.4893 5.05458 10.4893C5.92019 10.4893 6.62064 11.1897 6.62064 12.0553C6.62064 12.9209 5.92019 13.6214 5.05458 13.6214ZM5.05458 11.3435C4.66165 11.3435 4.34274 11.6624 4.34274 12.0553C4.34274 12.4483 4.66165 12.7672 5.05458 12.7672C5.44752 12.7672 5.76643 12.4483 5.76643 12.0553C5.76643 11.6624 5.44752 11.3435 5.05458 11.3435Z" fill="#12B76A"/>
<path d="M9.61049 13.6214C8.74489 13.6214 8.04443 12.9209 8.04443 12.0553C8.04443 11.1897 8.74489 10.4893 9.61049 10.4893C10.4761 10.4893 11.1766 11.1897 11.1766 12.0553C11.1766 12.9209 10.4761 13.6214 9.61049 13.6214ZM9.61049 11.3435C9.21755 11.3435 8.89865 11.6624 8.89865 12.0553C8.89865 12.4483 9.21755 12.7672 9.61049 12.7672C10.0034 12.7672 10.3223 12.4483 10.3223 12.0553C10.3223 11.6624 10.0034 11.3435 9.61049 11.3435Z" fill="#12B76A"/>
<path d="M13.0273 9.06585H11.3188C10.7722 9.06585 10.3223 8.61597 10.3223 8.06927V6.36084C10.3223 5.81414 10.7722 5.36426 11.3188 5.36426H12.0535C12.2072 5.36426 12.3496 5.44399 12.4236 5.58066L13.3975 7.28909C13.4316 7.35173 13.4544 7.42576 13.4544 7.49979V8.63875C13.4544 8.87223 13.2608 9.06585 13.0273 9.06585ZM11.3188 6.21847C11.2391 6.21847 11.1765 6.28111 11.1765 6.36084V8.06927C11.1765 8.149 11.2391 8.21164 11.3188 8.21164H12.6002V7.6137L11.8029 6.21847H11.3188Z" fill="#12B76A"/>
<path d="M3.34064 6.21862C2.55477 6.21862 1.81445 5.87692 1.31331 5.27897C1.23358 5.19355 1.14817 5.07396 1.07414 4.96006C0.806487 4.55573 0.658424 4.07738 0.647034 3.57624C0.624255 2.7448 0.977337 1.96462 1.61515 1.435C2.0992 1.03637 2.68004 0.819983 3.29508 0.808594C3.96706 0.814289 4.63907 1.03639 5.14021 1.48627C5.70968 1.98741 6.03997 2.68787 6.05706 3.45097C6.06845 3.94641 5.94315 4.43615 5.69258 4.86326C5.55591 5.10813 5.36799 5.34163 5.16297 5.51247C4.70739 5.94527 4.08097 6.20153 3.41468 6.21862C3.38621 6.21862 3.36342 6.21862 3.34064 6.21862ZM3.34064 1.66281C3.32925 1.66281 3.31787 1.66281 3.30648 1.66281C2.89076 1.6685 2.49212 1.82227 2.15612 2.09562C1.72332 2.45438 1.48416 2.98969 1.49555 3.55347C1.50694 3.89516 1.60375 4.21977 1.78599 4.48742C1.83724 4.56715 1.88848 4.64115 1.95112 4.70949C2.31559 5.14229 2.8566 5.37009 3.38621 5.3587C3.84179 5.34731 4.26319 5.17648 4.5821 4.87466C4.73016 4.74938 4.84975 4.6013 4.94087 4.43615C5.11741 4.13433 5.20284 3.80403 5.19714 3.46804C5.18575 2.94412 4.95798 2.46576 4.57073 2.11838C4.22905 1.82795 3.79623 1.66281 3.34064 1.66281Z" fill="#12B76A"/>
<path d="M3.03286 4.5104C2.92466 4.5104 2.82214 4.47053 2.73672 4.3908L2.16155 3.84412C1.9907 3.67898 1.98503 3.41132 2.15018 3.24048C2.31533 3.06964 2.58298 3.06393 2.75382 3.22908L3.03286 3.49672L3.92694 2.63114C4.09779 2.46599 4.36544 2.47166 4.53059 2.6425C4.69573 2.81335 4.69003 3.08103 4.51918 3.24618L3.32896 4.3965C3.24354 4.47053 3.13537 4.5104 3.03286 4.5104Z" fill="#12B76A"/>
</svg>
