<svg width="24" height="24" viewBox="0 0 24 24" fill="none" xmlns="http://www.w3.org/2000/svg">
<path d="M16.75 9.431V14.569M20.25 2.75H3.75C3.48478 2.75 3.23043 2.85536 3.04289 3.04289C2.85536 3.23043 2.75 3.48478 2.75 3.75V20.25C2.75 20.5152 2.85536 20.7696 3.04289 20.9571C3.23043 21.1446 3.48478 21.25 3.75 21.25H20.25C20.5152 21.25 20.7696 21.1446 20.9571 20.9571C21.1446 20.7696 21.25 20.5152 21.25 20.25V3.75C21.25 3.48478 21.1446 3.23043 20.9571 3.04289C20.7696 2.85536 20.5152 2.75 20.25 2.75Z" stroke="#2D3748" stroke-linecap="round" stroke-linejoin="round"/>
<path d="M11.986 14.5692V9.43115H13.668C14.619 9.43115 15.39 10.2037 15.39 11.1567C15.39 12.1097 14.619 12.8822 13.668 12.8822H11.986M10.09 12.8672H7.8135M7.25 14.5692L8.952 9.43115L10.654 14.5692" stroke="#2D3748" stroke-linecap="round" stroke-linejoin="round"/>
</svg>
