<svg width="24" height="24" viewBox="0 0 24 24" fill="none" xmlns="http://www.w3.org/2000/svg">
<path d="M3 1.5H12C12.3978 1.5 12.7794 1.65804 13.0607 1.93934C13.342 2.22064 13.5 2.60218 13.5 3V10.5H21C21.3978 10.5 21.7794 10.658 22.0607 10.9393C22.342 11.2206 22.5 11.6022 22.5 12V22.5H1.5V3C1.5 2.60218 1.65804 2.22064 1.93934 1.93934C2.22064 1.65804 2.60217 1.5 3 1.5ZM17.25 21V15.75H14.25V21H17.25ZM3 21H12.75V15C12.75 14.8011 12.829 14.6103 12.9697 14.4697C13.1103 14.329 13.3011 14.25 13.5 14.25H18C18.1989 14.25 18.3897 14.329 18.5303 14.4697C18.671 14.6103 18.75 14.8011 18.75 15V21H21V12H12V3H3V21Z" fill="#2D3748"/>
<path d="M10.5 6H9V7.5H10.5V6ZM6 6H4.5V7.5H6V6ZM10.5 10.5H9V12H10.5V10.5ZM6 10.5H4.5V12H6V10.5ZM10.5 15H9V16.5H10.5V15ZM6 15H4.5V16.5H6V15Z" fill="#2D3748"/>
</svg>
