<svg width="12" height="12" viewBox="0 0 12 12" fill="none" xmlns="http://www.w3.org/2000/svg">
<g clip-path="url(#clip0_71_11343)">
<path fill-rule="evenodd" clip-rule="evenodd" d="M7.85343 5.64659C7.94716 5.74035 7.99982 5.86751 7.99982 6.00009C7.99982 6.13267 7.94716 6.25983 7.85343 6.35359L5.02493 9.18209C4.9788 9.22985 4.92363 9.26794 4.86263 9.29414C4.80163 9.32035 4.73602 9.33414 4.66963 9.33472C4.60324 9.33529 4.5374 9.32264 4.47595 9.2975C4.4145 9.27236 4.35868 9.23523 4.31173 9.18829C4.26478 9.14134 4.22766 9.08552 4.20252 9.02407C4.17738 8.96262 4.16473 8.89678 4.1653 8.83039C4.16588 8.764 4.17967 8.69839 4.20588 8.63739C4.23208 8.57639 4.27017 8.52121 4.31793 8.47509L6.79293 6.00009L4.31793 3.52509C4.22685 3.43079 4.17645 3.30449 4.17759 3.17339C4.17873 3.04229 4.23131 2.91688 4.32402 2.82418C4.41672 2.73148 4.54213 2.67889 4.67323 2.67775C4.80433 2.67661 4.93063 2.72701 5.02493 2.81809L7.85343 5.64659Z" fill="#52525B"/>
</g>
<defs>
<clipPath id="clip0_71_11343">
<rect width="12" height="12" fill="white"/>
</clipPath>
</defs>
</svg>
