<svg width="646" height="1024" viewBox="0 0 646 1024" fill="none" xmlns="http://www.w3.org/2000/svg">
<rect width="646" height="1024" fill="url(#paint0_linear_4346_12360)"/>
<mask id="mask0_4346_12360" style="mask-type:alpha" maskUnits="userSpaceOnUse" x="0" y="0" width="646" height="1024">
<rect width="646" height="1024" fill="url(#paint1_linear_4346_12360)"/>
</mask>
<g mask="url(#mask0_4346_12360)">
<path opacity="0.24" d="M-45 -54.5099C-45 -58.5396 -44.0393 -62.203 -42.118 -65.5C-40.1966 -68.797 -37.4906 -71.453 -34 -73.4678L43 -117.978C46.4834 -119.993 50.15 -121 54 -121C57.85 -121 61.5167 -119.993 65 -117.978L142 -73.4678C145.483 -71.453 148.186 -68.797 150.107 -65.5C152.028 -62.203 152.993 -58.5396 153 -54.5099L153 34.5099C153 38.5396 152.036 42.203 150.107 45.5C148.178 48.797 145.476 51.453 142 53.4678L65 97.9777C61.5167 99.9926 57.85 101 54 101C50.15 101 46.4834 99.9926 43 97.9777L-34 53.4678C-37.4833 51.453 -40.1893 48.797 -42.118 45.5C-44.0466 42.203 -45.0073 38.5396 -45 34.5099L-45 -54.5099Z" fill="url(#paint2_linear_4346_12360)"/>
<path opacity="0.8" d="M423 914.658C423 909.467 424.237 904.748 426.712 900.5C429.186 896.252 432.671 892.831 437.167 890.235L536.333 832.894C540.819 830.298 545.542 829 550.5 829C555.458 829 560.181 830.298 564.667 832.894L663.833 890.235C668.319 892.831 671.8 896.252 674.274 900.5C676.749 904.748 677.991 909.467 678 914.658L678 1029.34C678 1034.53 676.758 1039.25 674.274 1043.5C671.79 1047.75 668.31 1051.17 663.833 1053.76L564.667 1111.11C560.181 1113.7 555.458 1115 550.5 1115C545.542 1115 540.819 1113.7 536.333 1111.11L437.167 1053.76C432.681 1051.17 429.196 1047.75 426.712 1043.5C424.228 1039.25 422.991 1034.53 423 1029.34L423 914.658Z" fill="url(#paint3_linear_4346_12360)"/>
</g>
<path d="M174.301 164.649C174.303 165.651 174.03 166.636 173.511 167.504C172.992 168.372 172.245 169.093 171.345 169.593L140.217 186.889C140.091 186.961 139.947 186.999 139.8 187C139.653 187 139.508 186.963 139.382 186.891C139.255 186.82 139.15 186.717 139.078 186.593C139.007 186.469 138.971 186.329 138.974 186.187L139.024 180.15C139.026 180.01 139.066 179.873 139.139 179.752C139.212 179.631 139.316 179.53 139.441 179.459L165.217 165.192C165.725 164.911 166.148 164.506 166.441 164.017C166.735 163.529 166.891 162.974 166.891 162.409V157.929C166.892 157.654 166.818 157.384 166.677 157.146C166.536 156.908 166.332 156.709 166.087 156.57C165.841 156.432 165.562 156.358 165.278 156.356C164.993 156.354 164.713 156.425 164.465 156.56L140.088 169.948C139.962 170.02 139.817 170.057 139.67 170.057C139.523 170.057 139.379 170.019 139.252 169.947C139.126 169.875 139.021 169.771 138.95 169.647C138.879 169.523 138.844 169.382 138.848 169.241L139.084 145.243C139.085 145.103 139.124 144.965 139.198 144.844C139.271 144.723 139.377 144.623 139.504 144.555L172.983 126.104C173.1 126.04 173.233 126.007 173.367 126.008C173.502 126.009 173.633 126.044 173.749 126.109C173.866 126.174 173.962 126.268 174.029 126.38C174.096 126.493 174.131 126.62 174.131 126.75V133.899C174.13 134.031 174.093 134.159 174.024 134.272C173.955 134.385 173.857 134.479 173.738 134.543L147.465 148.738C147.334 148.808 147.226 148.91 147.151 149.035C147.076 149.159 147.037 149.301 147.039 149.445L147.103 157.312C147.103 157.327 147.107 157.341 147.115 157.354C147.123 157.366 147.134 157.377 147.147 157.384C147.161 157.391 147.176 157.395 147.191 157.395C147.206 157.395 147.221 157.391 147.234 157.383L168.011 145.998C168.649 145.647 169.371 145.465 170.105 145.469C170.839 145.473 171.559 145.662 172.193 146.019C172.827 146.375 173.353 146.886 173.718 147.501C174.083 148.115 174.275 148.811 174.273 149.519L174.301 164.649Z" fill="white" fill-opacity="0.15"/>
<path d="M158.379 151.249C158.379 151.235 158.375 151.22 158.367 151.208C158.359 151.195 158.348 151.185 158.335 151.178C158.322 151.171 158.307 151.168 158.292 151.169C158.277 151.17 158.262 151.175 158.25 151.183L148.354 156.743C148.224 156.814 148.077 156.851 147.927 156.851C147.778 156.85 147.631 156.812 147.501 156.739C147.372 156.667 147.264 156.564 147.189 156.439C147.114 156.314 147.074 156.173 147.072 156.028L147.018 149.427C147.015 149.283 147.054 149.141 147.129 149.017C147.204 148.892 147.312 148.79 147.443 148.72L157.432 143.324C158.148 142.937 158.255 142.355 158.313 141.388L158.266 137.372C158.173 134.459 158.337 134.101 157.127 134.769L139.49 144.539C139.363 144.608 139.258 144.708 139.184 144.829C139.11 144.95 139.071 145.087 139.07 145.228L138.848 169.231C138.844 169.373 138.879 169.513 138.95 169.637C139.021 169.761 139.126 169.865 139.252 169.937C139.379 170.009 139.523 170.047 139.67 170.047C139.817 170.048 139.962 170.01 140.088 169.938L158.019 160.093C158.147 160.024 158.253 159.923 158.327 159.801C158.4 159.679 158.439 159.54 158.439 159.399C158.412 157.752 158.37 152.2 158.379 151.249Z" fill="#F5E60C" fill-opacity="0.2"/>
<path d="M120.372 129.195L120.195 129.294L112.594 133.557V177.16V177.377L112.41 177.262L105.191 173.202C105.077 173.139 104.982 173.048 104.917 172.938C104.851 172.828 104.816 172.704 104.816 172.577V129.195L127.973 116.211L134.633 119.953C134.746 120.017 134.839 120.108 134.904 120.218C134.969 120.327 135.003 120.452 135.003 120.578C135.003 120.705 134.969 120.829 134.904 120.939C134.839 121.048 134.746 121.14 134.633 121.204L128.149 124.825L127.973 124.927L120.372 129.195Z" fill="white" fill-opacity="0.15"/>
<path d="M165.873 121.487L159.61 125.013L159.435 125.109L151.875 129.36L151.697 129.462L144.137 133.729L143.962 133.828L136.401 138.079L136.232 138.175L128.674 142.443V186.115L128.496 186.032L121.38 182.032C121.248 181.957 121.139 181.851 121.063 181.723C120.987 181.594 120.947 181.449 120.947 181.301V138.133C120.947 138.112 120.952 138.092 120.963 138.075C120.973 138.058 120.989 138.043 121.007 138.034L128.507 133.815L128.682 133.713L136.24 129.462L136.415 129.363L143.975 125.112L144.151 125.013L151.713 120.745L144.151 116.491L143.978 116.393L136.401 112.154L136.232 112.058L128.674 107.791L128.502 107.695L120.939 111.946L120.764 112.048L113.203 116.299L113.028 116.395L97.7299 125.005V168.528V168.765L97.5493 168.626L90.4325 164.626C90.301 164.551 90.1919 164.445 90.116 164.317C90.0401 164.188 90.0001 164.043 90 163.895V120.732C90.0002 120.71 90.0061 120.689 90.0171 120.67C90.0281 120.65 90.0439 120.634 90.063 120.623L97.5602 116.406L97.7327 116.307L105.293 112.053L105.471 111.954L113.028 107.703L113.203 107.604L120.761 103.353L128.499 99L128.674 99.0987L136.237 103.366L136.407 103.462L143.97 107.73L144.142 107.826L151.705 112.077L151.88 112.178L159.441 116.43L159.616 116.531L165.879 120.052C166.005 120.127 166.109 120.233 166.181 120.359C166.253 120.485 166.29 120.627 166.289 120.771C166.289 120.915 166.25 121.057 166.177 121.182C166.105 121.307 166 121.412 165.873 121.487Z" fill="white" fill-opacity="0.15"/>
<defs>
<linearGradient id="paint0_linear_4346_12360" x1="323" y1="0" x2="323" y2="1024" gradientUnits="userSpaceOnUse">
<stop offset="0.285151" stop-color="#EA1B40"/>
<stop offset="1" stop-color="#840F24"/>
</linearGradient>
<linearGradient id="paint1_linear_4346_12360" x1="323" y1="0" x2="323" y2="1024" gradientUnits="userSpaceOnUse">
<stop offset="0.285151" stop-color="#EA1B40"/>
<stop offset="1" stop-color="#840F24"/>
</linearGradient>
<linearGradient id="paint2_linear_4346_12360" x1="54" y1="-121" x2="54" y2="101" gradientUnits="userSpaceOnUse">
<stop offset="0.285151" stop-color="#EA1B40"/>
<stop offset="1" stop-color="#840F24"/>
</linearGradient>
<linearGradient id="paint3_linear_4346_12360" x1="550.5" y1="829" x2="550.5" y2="1115" gradientUnits="userSpaceOnUse">
<stop offset="0.285151" stop-color="#EA1B40"/>
<stop offset="1" stop-color="#840F24"/>
</linearGradient>
</defs>
</svg>
