<svg width="255" height="286" viewBox="0 0 255 286" fill="none" xmlns="http://www.w3.org/2000/svg">
<path opacity="0.8" d="M5.91983e-05 85.6584C5.94252e-05 80.467 1.23727 75.7475 3.71171 71.5C6.18616 67.2525 9.67117 63.8308 14.1667 61.2351L113.333 3.89356C117.819 1.29785 122.542 -5.78994e-06 127.5 -5.5732e-06C132.458 -5.35647e-06 137.181 1.29785 141.667 3.89356L240.833 61.2351C245.319 63.8309 248.8 67.2525 251.274 71.5C253.749 75.7475 254.991 80.467 255 85.6584L255 200.342C255 205.533 253.758 210.252 251.274 214.5C248.79 218.748 245.31 222.169 240.833 224.765L141.667 282.106C137.181 284.702 132.458 286 127.5 286C122.542 286 117.819 284.702 113.333 282.106L14.1667 224.765C9.68061 222.169 6.1956 218.747 3.71171 214.5C1.22782 210.252 -0.00939048 205.533 5.41853e-05 200.342L5.91983e-05 85.6584Z" fill="url(#paint0_linear_4384_12542)"/>
<defs>
<linearGradient id="paint0_linear_4384_12542" x1="127.5" y1="8.76855e-06" x2="127.5" y2="286" gradientUnits="userSpaceOnUse">
<stop offset="0.285151" stop-color="#EA1B40"/>
<stop offset="1" stop-color="#840F24"/>
</linearGradient>
</defs>
</svg>
