<svg width="198" height="222" viewBox="0 0 198 222" fill="none" xmlns="http://www.w3.org/2000/svg">
<path opacity="0.24" d="M4.8592e-05 66.4901C4.87682e-05 62.4604 0.960706 58.797 2.88204 55.5C4.80337 52.203 7.50938 49.547 11 47.5322L88 3.02227C91.4834 1.00742 95.15 -4.49572e-06 99 -4.32743e-06C102.85 -4.15914e-06 106.517 1.00742 110 3.02227L187 47.5322C190.483 49.547 193.186 52.203 195.107 55.5C197.028 58.797 197.993 62.4604 198 66.4901L198 155.51C198 159.54 197.036 163.203 195.107 166.5C193.178 169.797 190.476 172.453 187 174.468L110 218.978C106.517 220.993 102.85 222 99 222C95.15 222 91.4834 220.993 88 218.978L11 174.468C7.51671 172.453 4.8107 169.797 2.88203 166.5C0.953368 163.203 -0.00728881 159.54 4.47009e-05 155.51L4.8592e-05 66.4901Z" fill="url(#paint0_linear_4384_12540)"/>
<defs>
<linearGradient id="paint0_linear_4384_12540" x1="99" y1="6.80493e-06" x2="99" y2="222" gradientUnits="userSpaceOnUse">
<stop offset="0.285151" stop-color="#EA1B40"/>
<stop offset="1" stop-color="#840F24"/>
</linearGradient>
</defs>
</svg>
