<svg width="31" height="29" viewBox="0 0 31 29" fill="none" xmlns="http://www.w3.org/2000/svg">
<path fill-rule="evenodd" clip-rule="evenodd" d="M11.208 6.11001L10.028 5.44738L9.34601 6.59556L10.528 7.2582L11.208 6.11001ZM12.572 3.81371L11.392 3.15206L10.71 4.30025L11.89 4.96289L12.572 3.81371ZM29.386 11.7664H2.11401V9.1158H29.386V11.7664ZM26.66 27.6737H4.84V13.0927H26.66V27.6737ZM10.21 2.48843C10.587 1.85531 11.421 1.63747 12.074 2.00391L14.436 3.32918L11.786 7.79053H8.74899L8.664 7.74371L8.63599 7.79053H7.06201L10.21 2.48843ZM22.385 7.79053H13.36L15.617 3.99182L22.385 7.79053ZM22.875 4.18827C23.603 3.99792 24.349 4.41832 24.544 5.12472L25.279 7.79053H25.111L23.36 6.80726L23.581 6.74824L23.228 5.46775L21.911 5.81075L21.971 6.02757L20.3 5.09012L20.24 4.8733L22.875 4.18827ZM29.386 7.79053H26.692L25.862 4.78169C25.472 3.36685 23.978 2.52913 22.522 2.90676L18.349 3.99589L12.756 0.85473C11.45 0.123896 9.78299 0.558539 9.02899 1.82579L5.48599 7.79053H2.11401C1.36101 7.79053 0.75 8.38395 0.75 9.1158V11.7664C0.75 12.5002 1.36101 13.0927 2.11401 13.0927H3.478V27.6737C3.478 28.4066 4.087 29 4.84 29H26.66C27.413 29 28.022 28.4066 28.022 27.6737V13.0927H29.386C30.139 13.0927 30.75 12.5002 30.75 11.7664V9.1158C30.75 8.38395 30.139 7.79053 29.386 7.79053ZM11.66 17.0695H19.84V18.3948H11.66V17.0695ZM11.66 19.7211H19.84C20.594 19.7211 21.204 19.1276 21.204 18.3948V17.0695C21.204 16.3376 20.594 15.7442 19.84 15.7442H11.66C10.906 15.7442 10.296 16.3376 10.296 17.0695V18.3948C10.296 19.1276 10.906 19.7211 11.66 19.7211Z" fill="#EA1B40"/>
</svg>
