<svg width="45" height="46" viewBox="0 0 45 46" fill="none" xmlns="http://www.w3.org/2000/svg">
<g opacity="0.8">
<path d="M44.8838 34.3161C44.8848 34.84 44.7425 35.3547 44.4712 35.8085C44.1999 36.2622 43.8093 36.6388 43.3389 36.9003L27.0675 45.9413C27.0015 45.9792 26.9261 45.9992 26.8493 45.9995C26.7725 45.9997 26.697 45.9801 26.6306 45.9426C26.5643 45.9052 26.5096 45.8513 26.4722 45.7866C26.4347 45.7219 26.4159 45.6486 26.4177 45.5745L26.4435 42.4188C26.4448 42.3456 26.4655 42.2739 26.5037 42.2107C26.5419 42.1474 26.5962 42.0947 26.6616 42.0575L40.1357 34.5999C40.4012 34.4531 40.622 34.2413 40.7756 33.9859C40.9292 33.7305 41.0103 33.4405 41.0107 33.1452V30.8032C41.0112 30.6597 40.9727 30.5186 40.8989 30.3939C40.8251 30.2693 40.7186 30.1656 40.5902 30.0931C40.4618 30.0207 40.3159 29.982 40.1672 29.9811C40.0184 29.9801 39.872 30.0169 39.7426 30.0876L27.0001 37.0857C26.9339 37.1234 26.8584 37.1432 26.7815 37.1431C26.7047 37.143 26.6292 37.1231 26.563 37.0854C26.4969 37.0476 26.4423 36.9935 26.4052 36.9286C26.368 36.8637 26.3496 36.7903 26.3517 36.7162L26.4751 24.1719C26.4755 24.0986 26.496 24.0267 26.5345 23.9634C26.5731 23.9002 26.6283 23.848 26.6946 23.8121L44.1953 14.1675C44.2564 14.1341 44.3256 14.1168 44.3958 14.1172C44.4661 14.1176 44.535 14.1359 44.5957 14.17C44.6564 14.2042 44.7067 14.2532 44.7417 14.312C44.7766 14.3708 44.795 14.4374 44.7949 14.5053V18.2424C44.7946 18.3109 44.7754 18.3782 44.7394 18.4373C44.7034 18.4964 44.6517 18.5452 44.5897 18.5787L30.856 25.999C30.7877 26.0353 30.731 26.0889 30.6918 26.154C30.6526 26.2191 30.6325 26.2933 30.6337 26.3685L30.6667 30.4807C30.6668 30.4884 30.6691 30.4959 30.6732 30.5025C30.6773 30.5091 30.6831 30.5146 30.69 30.5184C30.697 30.5221 30.7048 30.5241 30.7128 30.524C30.7208 30.524 30.7286 30.522 30.7355 30.5181L41.596 24.5664C41.9295 24.3834 42.3069 24.2881 42.6905 24.29C43.0742 24.292 43.4506 24.3911 43.782 24.5775C44.1135 24.7639 44.3884 25.031 44.5792 25.3521C44.7701 25.6733 44.8702 26.0371 44.8695 26.4073L44.8838 34.3161Z" fill="white"/>
<path d="M36.561 27.3132C36.561 27.3056 36.5589 27.2981 36.5549 27.2916C36.5509 27.2851 36.5451 27.2797 36.5381 27.2762C36.5312 27.2726 36.5233 27.2709 36.5155 27.2714C36.5076 27.2718 36.5 27.2743 36.4935 27.2786L31.3208 30.1853C31.2527 30.2224 31.1758 30.2417 31.0977 30.2413C31.0195 30.241 30.9428 30.2209 30.8751 30.1832C30.8075 30.1454 30.7512 30.0913 30.7118 30.0261C30.6725 29.9609 30.6515 29.887 30.6509 29.8115L30.6222 26.3609C30.6211 26.2857 30.6411 26.2115 30.6803 26.1464C30.7195 26.0813 30.7762 26.0277 30.8445 25.9914L36.0661 23.1705C36.4405 22.9685 36.4964 22.664 36.5265 22.1588L36.5021 20.059C36.4534 18.5365 36.5394 18.3497 35.9068 18.6985L26.6874 23.8059C26.6211 23.8418 26.5659 23.894 26.5274 23.9572C26.4888 24.0204 26.4683 24.0924 26.4679 24.1657L26.3517 36.7128C26.3496 36.7869 26.368 36.8602 26.4052 36.9252C26.4423 36.9901 26.4969 37.0442 26.563 37.0819C26.6292 37.1197 26.7047 37.1396 26.7815 37.1396C26.8584 37.1397 26.9339 37.1199 27.0001 37.0823L36.373 31.9362C36.4397 31.9 36.4952 31.8473 36.5338 31.7836C36.5724 31.7198 36.5926 31.6473 36.5925 31.5735C36.5782 30.7126 36.5566 27.8101 36.561 27.3132Z" fill="#F5E60C"/>
<path d="M16.6897 15.7833L16.5976 15.835L12.6242 18.0634V40.856V40.9692L12.5278 40.9091L8.75425 38.7869C8.6948 38.7541 8.64537 38.7065 8.611 38.6491C8.57663 38.5917 8.55855 38.5264 8.55859 38.46V15.7833L20.6632 8.99609L24.1447 10.9521C24.2035 10.9854 24.2523 11.0332 24.2862 11.0905C24.3201 11.1479 24.3379 11.2129 24.3379 11.279C24.3379 11.3451 24.3201 11.4101 24.2862 11.4675C24.2523 11.5248 24.2035 11.5726 24.1447 11.6059L20.7553 13.499L20.6632 13.5521L16.6897 15.7833Z" fill="white"/>
<path d="M40.4774 11.7545L37.2037 13.5977L37.1121 13.6479L33.1602 15.8702L33.0672 15.9232L29.1152 18.1539L29.0237 18.2055L25.0717 20.4279L24.983 20.4781L21.0325 22.7088V45.5375L20.9395 45.4943L17.2194 43.403C17.1507 43.3641 17.0936 43.3084 17.0539 43.2414C17.0143 43.1743 16.9934 43.0983 16.9933 43.0209V20.4558C16.9931 20.4452 16.996 20.4347 17.0015 20.4256C17.0071 20.4165 17.0151 20.4091 17.0248 20.4042L20.9452 18.1985L21.0368 18.1456L24.9873 15.9232L25.0789 15.8716L29.0308 13.6493L29.1224 13.5977L33.0758 11.3669L29.1224 9.14319L29.0322 9.0916L25.0717 6.87621L24.983 6.82602L21.0325 4.59529L20.9424 4.5451L16.989 6.76746L16.8974 6.82044L12.9455 9.0428L12.8539 9.093L4.85705 13.5935V36.3441V36.4682L4.76262 36.3957L1.04248 34.3044C0.97377 34.2656 0.916726 34.2098 0.877053 34.1428C0.83738 34.0758 0.816467 33.9998 0.816406 33.9224V11.36C0.816535 11.3485 0.819616 11.3373 0.825366 11.3273C0.831117 11.3173 0.839353 11.3089 0.849316 11.3028L4.76834 9.09857L4.85848 9.04699L8.81042 6.82323L8.90342 6.77165L12.8539 4.54929L12.9455 4.4977L16.896 2.27534L20.9409 0L21.0325 0.0515849L24.9859 2.28231L25.0746 2.3325L29.028 4.56323L29.1181 4.61342L33.0715 6.83578L33.163 6.88876L37.115 9.11112L37.2065 9.1641L40.4803 11.0044C40.5461 11.0439 40.6005 11.0992 40.6381 11.165C40.6757 11.2308 40.6953 11.3049 40.695 11.3803C40.6947 11.4556 40.6746 11.5296 40.6365 11.5951C40.5984 11.6607 40.5436 11.7156 40.4774 11.7545Z" fill="white"/>
</g>
</svg>
