<svg width="31" height="34" viewBox="0 0 31 34" fill="none" xmlns="http://www.w3.org/2000/svg">
<path d="M15.75 3.4375C15.8052 3.4375 15.8619 3.4435 15.9273 3.45168C15.7115 4.12485 15.5826 4.82893 15.5647 5.57083C14.9041 5.63007 14.2554 6.00273 13.6569 6.60872C13.0012 7.27262 12.3898 8.23178 11.867 9.42474L11.7519 9.6875H12.0387H16.5256C16.8457 10.4059 17.1873 11.1146 17.5499 11.8125H11.18H11.0348L10.9985 11.9531C10.5727 13.6018 10.3219 15.2908 10.2502 16.9921L10.2419 17.1875H10.4375H19.8173C19.8881 17.5251 19.9279 17.8685 19.9363 18.2135V19.3125H10.4362H10.2407L10.2489 19.5079C10.3206 21.2092 10.5715 22.8982 10.9972 24.5469L11.0335 24.6875H11.1788H20.3212H20.4661L20.5027 24.5474C20.8153 23.35 21.0332 22.1301 21.1543 20.8988H23.2417C23.1306 22.1442 22.9754 23.3575 22.7175 24.4572L22.6634 24.6875H22.9H26.57H26.6782L26.7323 24.5939C27.6321 23.0381 28.187 21.307 28.3591 19.518L28.3789 19.3125H28.1725H26.5625V18.2113C26.5625 17.8781 26.6112 17.5452 26.6836 17.1875H28.1712H28.3785L28.3578 16.9813C28.2615 16.0189 28.0521 15.0844 27.7486 14.1988C27.9638 13.7498 28.1993 13.2998 28.4356 12.8483C28.5206 12.6858 28.6057 12.5232 28.6901 12.3603C28.7421 12.2604 28.7937 12.1619 28.8452 12.0639C28.9075 11.945 28.9695 11.8269 29.0311 11.7081C30.0104 13.6848 30.5625 15.8985 30.5625 18.25C30.5625 26.4177 23.9177 33.0625 15.75 33.0625C7.5823 33.0625 0.9375 26.4177 0.9375 18.25C0.9375 10.0823 7.5823 3.4375 15.75 3.4375ZM10.7546 6.97882L11.0627 6.46428L10.5164 6.7117C9.09492 7.35547 7.80452 8.25617 6.7101 9.3685L6.39623 9.6875H6.84375H9.34375H9.47469L9.51978 9.56457C9.84942 8.66585 10.2629 7.80012 10.7546 6.97882ZM4.93 11.8125H4.82188L4.76772 11.9061C3.86732 13.4617 3.31246 15.1929 3.14086 16.9821L3.12116 17.1875H3.3275H7.93625H8.11682L8.12362 17.0071C8.18662 15.335 8.4073 13.6726 8.78272 12.0421L8.83558 11.8125H8.6H4.93ZM3.3275 19.3125H3.12102L3.14087 19.518C3.31363 21.3069 3.8684 23.0378 4.76766 24.5938L4.8218 24.6875H4.93H8.60125H8.83772L8.78381 24.4573C8.42665 22.9319 8.19813 21.2624 8.12484 19.4922L8.1174 19.3125H7.9375H3.3275ZM6.84375 26.8125H6.39623L6.7101 27.1315C7.80452 28.2438 9.09492 29.1445 10.5164 29.7883L11.0663 30.0374L10.7543 29.5206C10.2919 28.7549 9.87567 27.8944 9.51953 26.9348L9.47416 26.8125H9.34375H6.84375ZM12.0387 26.8125H11.752L11.867 27.0752C12.3892 28.2682 13.0006 29.2274 13.6565 29.8913C14.311 30.5539 15.0258 30.9375 15.75 30.9375C16.4742 30.9375 17.1887 30.5539 17.8431 29.8913C18.4988 29.2274 19.1102 28.2682 19.633 27.0753L19.7481 26.8125H19.4613H12.0387ZM22.1562 26.8125H22.0258L21.9804 26.9348C21.6243 27.8957 21.2081 28.7562 20.7458 29.5205L20.433 30.0377L20.9836 29.7883C22.4051 29.1445 23.6955 28.2438 24.7899 27.1315L25.1038 26.8125H24.6562H22.1562ZM18.4375 5.75C18.4375 3.09474 20.5924 0.9375 23.25 0.9375C25.9076 0.9375 28.0625 3.09474 28.0625 5.75C28.0625 6.57863 27.8002 7.47685 27.3938 8.4411C27.044 9.27088 26.5938 10.1357 26.1251 11.0359C26.0493 11.1816 25.973 11.3282 25.8965 11.4758C24.8349 13.5243 23.7478 15.7473 23.6899 18.0238H22.8101C22.7529 15.746 21.6662 13.4918 20.6042 11.4271C20.5169 11.2573 20.4298 11.0889 20.3434 10.9218C19.8861 10.0379 19.4482 9.19139 19.1062 8.38532C18.6993 7.42625 18.4375 6.54497 18.4375 5.75ZM24.3086 3.19608C23.973 3.0569 23.6134 2.98518 23.2501 2.985C22.5165 2.98464 21.8125 3.2744 21.2932 3.7932C20.7741 4.31184 20.4822 5.01546 20.4819 5.74928C20.4815 6.48311 20.7727 7.18701 21.2913 7.70615C21.81 8.22529 22.5136 8.51714 23.2474 8.5175C23.6107 8.51768 23.9704 8.4463 24.3061 8.30745C24.6418 8.16859 24.9468 7.96498 25.2038 7.70823C25.4608 7.45149 25.6647 7.14664 25.8039 6.81109C25.9431 6.47554 26.0148 6.11586 26.015 5.75259C26.0152 5.38932 25.9438 5.02957 25.8049 4.69389C25.6661 4.35821 25.4625 4.05316 25.2057 3.79616C24.949 3.53917 24.6441 3.33526 24.3086 3.19608Z" fill="#EA1B40" stroke="white" stroke-width="0.375"/>
</svg>
