<svg width="29" height="29" viewBox="0 0 29 29" fill="none" xmlns="http://www.w3.org/2000/svg">
<path d="M21.2211 26.0895C19.9222 26.0895 18.8175 25.6363 17.9113 24.7308C17.005 23.8253 16.5518 22.7206 16.5526 21.4209M21.2211 26.0895C22.5209 26.0903 23.6256 25.6371 24.5311 24.7308C25.4366 23.8246 25.8898 22.7199 25.8898 21.4209M21.2211 26.0895L21.2212 26.0205L21.2211 26.0895ZM16.5526 21.4209L16.6216 21.4209H16.5526C16.5526 21.4209 16.5526 21.4209 16.5526 21.4209ZM16.5526 21.4209C16.5526 20.1219 17.0058 19.0172 17.9113 18.111C18.8168 17.2047 19.9215 16.7515 21.2212 16.7523M21.2212 16.7523L21.2212 16.8213V16.7523C21.2212 16.7523 21.2212 16.7523 21.2212 16.7523ZM21.2212 16.7523C22.5202 16.7523 23.6248 17.2055 24.5311 18.111C25.4374 19.0165 25.8906 20.1212 25.8898 21.4209M25.8898 21.4209L25.8208 21.4209H25.8898C25.8898 21.4209 25.8898 21.4209 25.8898 21.4209ZM24.5527 15.1235L24.5531 15.1232C24.6784 15.0083 24.7399 14.8572 24.7399 14.6767V10.6291C24.7399 10.083 24.5559 9.62351 24.1873 9.25564C23.8195 8.88696 23.36 8.70298 22.8138 8.70298H17.8405V7.17936C17.8405 6.63324 17.6569 6.17378 17.289 5.80588C16.9204 5.43725 16.4606 5.25327 15.9144 5.25327H12.7292C12.183 5.25327 11.7236 5.43724 11.3557 5.80588C10.987 6.17376 10.8031 6.63322 10.8031 7.17936V8.70298H5.82975C5.28361 8.70298 4.82415 8.88695 4.45627 9.25559C4.08763 9.62346 3.90366 10.0829 3.90366 10.6291V21.8636C3.90366 22.4098 4.08765 22.8696 4.45627 23.2382C4.82417 23.6061 5.28363 23.7897 5.82975 23.7897H14.101C14.2815 23.7897 14.4358 23.7284 14.5591 23.6051C14.6831 23.4811 14.7449 23.3264 14.7449 23.1458C14.7449 22.9651 14.6831 22.8104 14.5591 22.6865C14.4358 22.5631 14.2815 22.5018 14.101 22.5018H5.82975C5.63983 22.5018 5.48861 22.4414 5.37028 22.3231C5.25194 22.2047 5.19155 22.0535 5.19155 21.8636V10.6291C5.19155 10.4391 5.25194 10.2879 5.37028 10.1696C5.48861 10.0513 5.63983 9.99087 5.82975 9.99087H22.8138C23.0037 9.99087 23.1549 10.0513 23.2733 10.1696C23.3916 10.2879 23.452 10.4391 23.452 10.6291V14.648C23.452 14.8285 23.5133 14.9828 23.6366 15.1061L23.6368 15.1063C23.7608 15.2294 23.9154 15.2908 24.0959 15.2908C24.2745 15.2908 24.4283 15.2358 24.5527 15.1235ZM21.5949 21.2346V21.2632L21.6151 21.2834L23.3835 23.0529C23.4743 23.1444 23.5129 23.2326 23.5129 23.3182L23.5129 23.3187C23.5136 23.4057 23.475 23.4939 23.3839 23.5843C23.2942 23.6733 23.2042 23.7085 23.1116 23.7025L23.1111 23.7024C23.0122 23.6966 22.9272 23.6579 22.8536 23.5836L22.8534 23.5834L21.1067 21.8355L21.1067 21.8355C21.0113 21.7402 20.9456 21.6442 20.9069 21.5481C20.8675 21.4503 20.8475 21.3441 20.8475 21.2289V18.5461C20.8475 18.4398 20.8834 18.353 20.9558 18.2812L20.9563 18.2808C21.028 18.2084 21.1148 18.1724 21.2212 18.1724C21.3275 18.1724 21.4144 18.2084 21.4861 18.2808L21.4865 18.2812C21.5589 18.353 21.5949 18.4398 21.5949 18.5461V21.2346ZM16.5526 7.17936V8.70298H12.091V7.17936C12.091 6.98944 12.1514 6.83822 12.2697 6.71989C12.388 6.60155 12.5392 6.54116 12.7292 6.54116H15.9144C16.1043 6.54116 16.2555 6.60155 16.3739 6.71989C16.4922 6.83822 16.5526 6.98944 16.5526 7.17936Z" fill="#EA1B40" stroke="#EA1B40" stroke-width="0.137988"/>
</svg>
