<svg width="26" height="26" viewBox="0 0 26 26" fill="none" xmlns="http://www.w3.org/2000/svg">
<g clip-path="url(#clip0_2065_1029)">
<path fill-rule="evenodd" clip-rule="evenodd" d="M12.2343 17.0159C12.4374 17.219 12.7129 17.3331 13.0002 17.3331C13.2875 17.3331 13.563 17.219 13.7661 17.0159L19.8945 10.8875C19.998 10.7875 20.0805 10.668 20.1373 10.5358C20.1941 10.4036 20.224 10.2615 20.2252 10.1176C20.2265 9.97381 20.1991 9.83115 20.1446 9.69801C20.0901 9.56488 20.0097 9.44392 19.908 9.3422C19.8062 9.24049 19.6853 9.16005 19.5521 9.10557C19.419 9.0511 19.2764 9.02369 19.1325 9.02494C18.9887 9.02619 18.8465 9.05608 18.7143 9.11285C18.5822 9.16963 18.4626 9.25216 18.3627 9.35563L13.0002 14.7181L7.6377 9.35563C7.43338 9.15829 7.15972 9.0491 6.87568 9.05157C6.59163 9.05404 6.31992 9.16797 6.11906 9.36883C5.9182 9.56969 5.80427 9.8414 5.8018 10.1254C5.79933 10.4095 5.90852 10.6831 6.10586 10.8875L12.2343 17.0159Z" fill="#EC3759"/>
</g>
<defs>
<clipPath id="clip0_2065_1029">
<rect width="26" height="26" fill="white" transform="matrix(0 -1 1 0 0 26)"/>
</clipPath>
</defs>
</svg>
